/* XPM */
static char *result[] = {
/* columns rows colors chars-per-pixel */
"31 27 137 2 ",
"   c black",
".  c #010101",
"X  c #000102",
"o  c #020202",
"O  c gray1",
"+  c #000204",
"@  c #010307",
"#  c #040404",
"$  c gray2",
"%  c #060606",
"&  c #070707",
"*  c #000408",
"=  c #01050B",
"-  c #02060C",
";  c #01070F",
":  c gray3",
">  c #090909",
",  c gray4",
"<  c #0B0B0B",
"1  c #0C0C0C",
"2  c gray5",
"3  c #0E0E0E",
"4  c gray6",
"5  c #020810",
"6  c #030911",
"7  c #020A14",
"8  c #030B15",
"9  c #040C16",
"0  c #050D17",
"q  c #040E1A",
"w  c #050F1B",
"e  c #06101C",
"r  c #07111D",
"t  c #08121E",
"y  c #101010",
"u  c #111111",
"i  c gray7",
"p  c #131313",
"a  c #161616",
"s  c gray9",
"d  c gray10",
"f  c gray11",
"g  c #1D1D1D",
"h  c #1E1E1E",
"j  c #220000",
"k  c #071321",
"l  c #081622",
"z  c #091723",
"x  c #0A1824",
"c  c #0B1925",
"v  c #0B1B29",
"b  c #0C1C2A",
"n  c #0A1A2E",
"m  c #0F1F2D",
"M  c #0F2131",
"N  c #102232",
"B  c #112333",
"V  c #122434",
"C  c #132535",
"Z  c #132737",
"A  c #142838",
"S  c #152939",
"D  c #162A3C",
"F  c #172B3D",
"G  c #222222",
"H  c #232323",
"J  c gray14",
"K  c #252525",
"L  c #282828",
"P  c #2A2A2A",
"I  c #2C2C2C",
"U  c gray18",
"Y  c #343434",
"T  c gray21",
"R  c #373737",
"E  c #393939",
"W  c gray23",
"Q  c #3C3C3C",
"!  c #560000",
"~  c #7A3C00",
"^  c #5B5123",
"/  c #7B703F",
"(  c #1A2E40",
")  c #1B2F41",
"_  c #1A3042",
"`  c #1B3143",
"'  c #1C3244",
"]  c #1D3345",
"[  c #1F3547",
"{  c #1F3E59",
"}  c #203648",
"|  c #213749",
" . c #22384C",
".. c #233B4F",
"X. c #243A4E",
"o. c #243C50",
"O. c #263E52",
"+. c #273F53",
"@. c #284054",
"#. c #2A4256",
"$. c #2B4357",
"%. c #2C4458",
"&. c #2D4559",
"*. c #2E465A",
"=. c #2F475B",
"-. c #30485C",
";. c #324A5E",
":. c #344C60",
">. c #395367",
",. c #3A5468",
"<. c #3E586C",
"1. c gray25",
"2. c gray27",
"3. c #464646",
"4. c #415B6F",
"5. c #445E72",
"6. c #466074",
"7. c #496377",
"8. c #4B6579",
"9. c #626262",
"0. c #656565",
"q. c #767676",
"w. c #D48C00",
"e. c #5B7589",
"r. c #5F798D",
"t. c #607A8E",
"y. c #657F93",
"u. c #6B8397",
"i. c #748C9E",
"p. c #768EA0",
"a. c #7A91A2",
"s. c #7D95A7",
"d. c #0096EC",
"f. c #899FAF",
"g. c #8FA5B5",
"h. c #ADBFCB",
"j. c None",
/* pixels */
"j.j.j.j.j.j.j.j.j.j.j.j.* - 7 8 8 5 * j.j.j.j.j.j.j.j.j.j.j.j.",
"j.j.j.j.j.3 , 4 3 j.j.@ = 7 0 e q 6 =   j.j.> : , 3 j.j.j.j.j.",
"j.j.j.j.f I 0.3.3 a   @ = 6 9 q w 6 =   5 d L q.9.J h j.j.j.j.",
"j.j.  7 | & y 3 >   r x X = 5 9 7 ;   c t @ , i p < N 8 @ j.j.",
"j.k o.<.u.f.O o ,.b @ t 0 X @ * * * e +   b 5.. o a.6.o. .x j.",
"e } :.y.p.s.    ( b @ 8 N }     X x ;   - b )     h.g.t.:.O.l ",
"v ;.%.[ S ..> 2 ;.i.r. .b ( [ ) V r   ..t.i.-.$ > >.$.$.*.:.m ",
"N Z S C m z f : e.4.5.7.=.0 ` D m t ;.8.5.4.e.K G m  .X.` A M ",
"j.* ; 6 c + J 2.&.@.+.#.*.:.A z 8 Y Q R W Y &.G P @ F l 0 - j.",
"j.j.j.j.j.* %   A j ! j ! j ! B 0 p p d.p p { & : @ j.j.j.j.j.",
"j.j.j.j.j.; O % r > J > g 3 2 b e E W Q Q E n $ > - j.j.j.j.j.",
"j.j.j.j.j.j.o   ; : h % d i u 8 8 8 8 8 8 * ; . $ j.j.j.j.j.j.",
"j.j.j.j.j.j.. X * ~ w.~ w.~ w.@ * = - - w 6 = X   j.j.j.j.j.j.",
"j.j.j.j.j.j.j.+ = ; q e z e e r x b M z q 6 - + j.j.j.j.j.j.j.",
"j.j.j.j.j.j.j.+ = - h h h 4 1.T h 4 1.T h 4 - + j.j.j.j.j.j.j.",
"j.j.j.j.j.j.j.8 = - h H s < h H s < h H s < - 8 j.j.j.j.j.j.j.",
"j.j.j.j.j.j.j.8 @ - 1 / ^ % 1 / ^ % 1 / ^ % - 7 j.j.j.j.j.j.j.",
"j.j.j.j.j.j.j.6 X = , h < $ , > < $ , > < $ @ 5 j.j.j.j.j.j.j.",
"j.j.j.j.j.h h k 8 @ , h < $ , > < $ , > < $ 0 z 1.T j.j.j.j.j.",
"j.j.j.j.H s s y e 6 h $ # . # $ # . # $ # 4 ' y h H s j.j.j.j.",
"j.j.j.j./ ^ 1 h S 1.T h h F _ _ _ F 1.T h h A U 1 / ^ j.j.j.j.",
"j.j.j.j.1 1 s h y h H s s y +   + y h H s s y H h 1 1 j.j.j.j.",
"j.j.j.j.1 1 1 s U 1 / ^ 1 h $.$.$.U 1 / ^ 1 h 1 1 1 1 j.j.j.j.",
"j.j.j.j.y 1 :   H h 1 1 s h ] ] ] H h 1 1 s h : 1 y 1 j.j.j.j.",
"j.j.j.j.        1 1 1 1 1 s =   = 1 1 1 1 1 s         j.j.j.j.",
"j.j.j.j.j.j.j.j.: 1 y 1 :   j.j.j.: 1 y 1 :   j.j.j.j.j.j.j.j.",
"j.j.j.j.j.j.j.j.j.        j.j.j.j.j.        j.j.j.j.j.j.j.j.j."
};
