/* XPM */
static char *result[] = {
/* columns rows colors chars-per-pixel */
"31 26 133 2 ",
"   c black",
".  c #070603",
"X  c #070705",
"o  c #070707",
"O  c #0A0604",
"+  c #0B0905",
"@  c #080906",
"#  c #0A0B07",
"$  c #0C0805",
"%  c #0C0A05",
"&  c #0B0B0B",
"*  c #0D0E09",
"=  c #0D0E0A",
"-  c #0E0F0B",
";  c #1D0505",
":  c #100C09",
">  c #130F09",
",  c #140E08",
"<  c #10110B",
"1  c #11120B",
"2  c #16120A",
"3  c #11130C",
"4  c #16100C",
"5  c #17110D",
"6  c #14150D",
"7  c #15170E",
"8  c #16170F",
"9  c #18140A",
"0  c #19150B",
"q  c #19120E",
"w  c #1C180D",
"e  c #101010",
"r  c #131313",
"t  c #141610",
"y  c #151512",
"u  c #1D1711",
"i  c #191910",
"p  c #191A11",
"a  c #1B1C12",
"s  c #1E1B16",
"d  c #1C1D14",
"f  c #1B1B1B",
"g  c #221D0F",
"h  c #271D10",
"j  c #241B15",
"k  c #2B1F12",
"l  c #2A1F18",
"z  c #1E2111",
"x  c #1E2012",
"c  c #1F2113",
"v  c #1E2014",
"b  c #1E2015",
"n  c #222313",
"m  c #212216",
"M  c #202217",
"N  c #242715",
"B  c #242716",
"V  c #2D2213",
"C  c #2F2314",
"Z  c #292517",
"A  c #262915",
"S  c #252816",
"D  c #252817",
"F  c #23241A",
"G  c #26281A",
"H  c #2C2E1D",
"J  c #382918",
"K  c #2D3917",
"L  c #2E3119",
"P  c #31341A",
"I  c #33351B",
"U  c #222222",
"Y  c #232323",
"T  c #252525",
"R  c #272727",
"E  c gray17",
"W  c #2F2F2F",
"Q  c #362920",
"!  c #343723",
"~  c #363925",
"^  c #303228",
"/  c gray20",
"(  c #343434",
")  c gray21",
"_  c #373737",
"`  c #393939",
"'  c gray23",
"]  c #3C3C3C",
"[  c #5F1111",
"{  c #670B0B",
"}  c #40301B",
"|  c #45311F",
" . c #493223",
".. c #4D3621",
"X. c #4E3724",
"o. c #4F3825",
"O. c #4F3A25",
"+. c #523A26",
"@. c #5A3B24",
"#. c #5A3B25",
"$. c #35411F",
"%. c #3E4422",
"&. c #374B23",
"*. c #3E4A22",
"=. c #3E422C",
"-. c #494F29",
";. c #455129",
":. c #4A5129",
">. c #4C532B",
",. c #4B4F39",
"<. c #535931",
"1. c #575B38",
"2. c #68442A",
"3. c #5B6432",
"4. c #5B6433",
"5. c #59653D",
"6. c #67773B",
"7. c #0F106C",
"8. c #040476",
"9. c #4A4A49",
"0. c gray29",
"q. c #4B4B4B",
"w. c gray33",
"e. c #555555",
"r. c #5B5B5B",
"t. c DimGray",
"y. c #6F6F6F",
"u. c #944D1C",
"i. c #4EEC00",
"p. c #54FE00",
"a. c #778545",
"s. c #CCAC3E",
"d. c None",
/* pixels */
"d.d.d.d.d.d.d.d.d.d.d.W f f f f f f f W d.d.d.d.d.d.d.d.d.d.d.",
"d.d.d.d.R R f R R f & f & & & & & & & f & f R R f R R d.d.d.d.",
"d.d.R *.5.5.5.5.;.f f f & & & & & & & f f f ;.5.5.5.5.*.R d.d.",
"d.T ;.;.5.5.5.5.;.R f f f & & & & & f f f R ;.5.5.5.5.;.;.R d.",
"U *.;.<.5.5.5.;.*.K f r r & & & & & r r f K *.;.5.5.5.<.;.*.Y ",
"T ;.;.;.;.;.*.*.;.1. .*.f r & & & r f *. .1.;.*.*.;.;.;.;.;.R ",
"T K $.*.*.K T <.5.X.| <.;.Y & r & Y ;.<.| O.5.<.R K *.*.$.K R ",
"U f f U K f f K ;.| o.;.;.;.K U f ;.;.;.+. .;.K f f K Y f f Y ",
"d.d.d.d.d.< n P 3. .+.a.a.6.>.] _ ' ( ,.+. .3.I A 3 d.d.d.d.d.",
"d.d.d.d.d.* 7 N I | o.>.>.%.! i.r i.r &.o.| I A p * d.d.d.d.d.",
"d.d.d.d.d.* 3 p a j l D B m F ' ] ] ` ^ l j a a 6 * d.d.d.d.d.",
"d.d.d.d.d.d.* # [ : 4 s.8 3 3 t r s y 2.#.J J # * d.d.d.d.d.d.",
"d.d.d.d.d.d.* @ ; , 5 u.L S = a { ~ 7.J } V V @ * d.d.d.d.d.d.",
"d.d.d.d.d.d.* X [ k h s.c z i x { Z 8.w w./ w X * d.d.d.d.d.d.",
"d.d.d.d.d.d.d.3 ; $ . u.9.0.0.=.q.q.q.J / Y V 3 d.d.d.d.d.d.d.",
"d.d.d.d.d.d.d.3 [ J V s.) ) ) p._ _ _ 9 2 9 0 3 d.d.d.d.d.d.d.",
"d.d.d.d.d.d.d.3 ; $ O u.) y.) r _ y._ % % + O 3 d.d.d.d.d.d.d.",
"d.d.d.d.d.J J v b C Q d ) r.) r _ r._ M Q C G m 2.#.d.d.d.d.d.",
"d.d.d.d.} V V g H q u -.) r.) r _ r._ >.u q 4.g J } V d.d.d.d.",
"d.d.d.d.w./ w J :.2.#.J f W f r f W f @.J J >...w w./ d.d.d.d.",
"d.d.d.d./ Y V J g J } V V g - 1 - g J } V V g } J / Y d.d.d.d.",
"d.d.d.d.w w w V ..w w./ w J t.( t...w w./ w J w w w w d.d.d.d.",
"d.d.d.d.g w >   } J / Y V J e.E e.} J / Y V J > w g w d.d.d.d.",
"d.d.d.d.        w w w w w V e o e w w w w w V         d.d.d.d.",
"d.d.d.d.d.d.d.d.> w g w >   d.d.d.> w g w >   d.d.d.d.d.d.d.d.",
"d.d.d.d.d.d.d.d.d.        d.d.d.d.d.        d.d.d.d.d.d.d.d.d."
};
