/* XPM */
static char *result[] = {
/* columns rows colors chars-per-pixel */
"28 19 184 2 ",
"   c black",
".  c #010101",
"X  c #050603",
"o  c #080804",
"O  c #0B0A05",
"+  c #0C0B05",
"@  c #0C0B06",
"#  c #0E0D07",
"$  c #0C0E06",
"%  c #0C0F07",
"&  c #0F0E07",
"*  c gray3",
"=  c gray6",
"-  c #100F07",
";  c #110E08",
":  c #110F08",
">  c #0D1008",
",  c #0F170B",
"<  c #111008",
"1  c #111A0C",
"2  c #121B0D",
"3  c #121C0E",
"4  c #131C0E",
"5  c #141E0E",
"6  c #151E0E",
"7  c #141F0F",
"8  c #161F0F",
"9  c #181A0C",
"0  c gray11",
"q  c #17210F",
"w  c #182210",
"e  c #192311",
"r  c #1A2511",
"t  c #1A2412",
"y  c #1B2612",
"u  c #1B2713",
"i  c #1C2713",
"p  c #1C2913",
"a  c #1C2814",
"s  c #1E2915",
"d  c #1E2C14",
"f  c #1F2D15",
"g  c #222608",
"h  c #292D09",
"j  c #2B2F09",
"k  c #2D320A",
"l  c #31360A",
"z  c #36360C",
"x  c #36370C",
"c  c #3C300D",
"v  c #3E310D",
"b  c #3C320D",
"n  c #202E14",
"m  c #212F15",
"M  c #202E16",
"N  c #212F17",
"B  c #272C14",
"V  c #2A2F15",
"C  c #292E16",
"Z  c #232F19",
"A  c #253317",
"S  c #243218",
"D  c #253319",
"F  c #26331B",
"G  c #263418",
"H  c #263519",
"J  c #26341A",
"K  c #27351B",
"L  c #27361A",
"P  c #28361A",
"I  c #28371B",
"U  c #29381C",
"Y  c #2A391D",
"T  c #2A3A1E",
"R  c #252525",
"E  c gray17",
"W  c #313D21",
"Q  c #363F23",
"!  c gray20",
"~  c #343434",
"^  c #373737",
"/  c #3F3F3F",
"(  c #6C0606",
")  c #41300E",
"_  c #31431F",
"`  c #324420",
"'  c #334521",
"]  c #344721",
"[  c #344622",
"{  c #354723",
"}  c #364723",
"|  c #3B4125",
" . c #354822",
".. c #374923",
"X. c #364824",
"o. c #374824",
"O. c #374925",
"+. c #394A26",
"@. c #394B27",
"#. c #384C24",
"$. c #3B4F27",
"%. c #3A4C28",
"&. c #3B4C28",
"*. c #3B4D29",
"=. c #3C4D29",
"-. c #3C4F29",
";. c #3D4E2A",
":. c #3E512B",
">. c #3F512B",
",. c #3E522A",
"<. c #3F532B",
"1. c #5C4416",
"2. c #5D4517",
"3. c #43512B",
"4. c #41542C",
"5. c #43552F",
"6. c #455931",
"7. c #485C34",
"8. c #4B5F37",
"9. c #4E623A",
"0. c #51653B",
"q. c #50643C",
"w. c #51643C",
"e. c #52643E",
"r. c #53663E",
"t. c #53673F",
"y. c #54673F",
"u. c #54683E",
"i. c #55693F",
"p. c gray26",
"a. c #444444",
"s. c gray37",
"d. c #566A40",
"f. c #576A42",
"g. c #576A44",
"h. c #586C42",
"j. c #586C44",
"k. c #5B6E46",
"l. c #62754D",
"z. c #61744E",
"x. c #65794F",
"c. c #657850",
"v. c #667852",
"b. c gray38",
"n. c #626262",
"m. c #646464",
"M. c DimGray",
"N. c #6A6A6A",
"B. c gray42",
"V. c #6C6C6C",
"C. c #6D6D6D",
"Z. c #6F6F6F",
"A. c #717171",
"S. c gray45",
"D. c #777777",
"F. c #7B7B7B",
"G. c gray49",
"H. c #830707",
"J. c #920808",
"K. c #6E805A",
"L. c #70825C",
"P. c #72855F",
"I. c #73855F",
"U. c #798A64",
"Y. c #7B8C66",
"T. c #808080",
"R. c #818181",
"E. c #838383",
"W. c #848484",
"Q. c gray52",
"!. c #868686",
"~. c gray53",
"^. c #888888",
"/. c #898989",
"(. c gray54",
"). c #8B8B8B",
"_. c #8D8D8D",
"`. c #8E8E8E",
"'. c gray57",
"]. c #959595",
"[. c gray59",
"{. c #9A9A9A",
"}. c #B8A483",
"|. c None",
/* pixels */
"|.|.|.[ { { { X.X.X.X.{ [ _ _ _ _ _ _ _ _ _ _ _ _ |.|.|.",
"|.|.[ $.>.5.7.9.w.t.r.8.6.4.<.,.$.#. . . . . . . ._ |.|.",
"|.+.&.=.*.&.&.:.%.;.-.@.[ [ ] [ [ ` _ ` ' } } O.o.[ _ |.",
"3.q.g.z.L.P.Y.U.I.K.v.h.d.d.i.u.0.y.f.d.k.x.c.l.j.e.7...",
"P f M H L K D J D D ]._.(.~.~.)._.'.d d n d f m m n d A ",
"G y p p d d d d d d '.(.G.( ( R.W.'.d d d d d d p r r G ",
"S f i p p p d d d d !.F.Z.H.H.A.S._.d d d d p p y y u D ",
"% W F e r r p p p p !.( H.J.J.H.( `.p p p r r y r s U > ",
"4 < | Z w 8 q r r r T.( H.J.H.H.( E.r r r r 6 t e I - 3 ",
"2 N < Q a w ) }.c 6 ^.D.B.H.H.M.C.Q.q b }.v 5 w Y & d 1 ",
"1 d M ; T r z 2.l q !.N.s.( ( n.N.E.q l 1.x 7 I : p d 1 ",
"1 d d C + y j g k p {./.W.!./.)._.[.p k g h y # V d d 1 ",
"1 p d d B $   . ^ o O + @ @ @ + + O o   . ^ X B d d p 1 ",
"1 p p p p 6 * 0 / 6 p p p p p p p p 6 * 0 / 6 p p p p 1 ",
"1 r r r r 6 ! m.V.6 r r r r r r r r 6 ! m.V.6 r r r r 1 ",
"1 r r r r 6 * = ~ 6 r r r r r r r r 6 * = ~ 6 r r r r 1 ",
"1 q q q q , E p.b., q q q q q q q q , E p.b., q q q q 1 ",
"1 1 1 1 1 , * * R , 1 1 1 1 1 1 1 1 , * * R , 1 1 1 1 1 ",
"1 9 9 9 9 9 ! ! a.9 9 9 9 9 9 9 9 9 9 ! ! a.9 9 9 9 9 1 "
};
