/* XPM */
static char *result[] = {
/* columns rows colors chars-per-pixel */
"52 21 91 1 ",
"  c black",
". c #000303",
"X c #020202",
"o c gray2",
"O c #070707",
"+ c gray4",
"@ c #0E0E0E",
"# c #0E1616",
"$ c gray7",
"% c #131313",
"& c #161616",
"* c #121A1A",
"= c gray10",
"- c #360A00",
"; c #1F2014",
": c #232418",
"> c #252619",
", c #28291C",
"< c #292A1D",
"1 c #1C2424",
"2 c #222222",
"3 c #232323",
"4 c #2C2D20",
"5 c #2D2E20",
"6 c #2E2F21",
"7 c #222A2A",
"8 c #242C2C",
"9 c #262E2E",
"0 c gray17",
"q c #303124",
"w c #313225",
"e c #333427",
"r c #343528",
"t c #353629",
"y c #37382B",
"u c #38392C",
"i c #3A3B2E",
"p c #3B3C2E",
"a c #3C3D2F",
"s c #2E3636",
"d c #313131",
"f c #343434",
"g c #3E3F32",
"h c #343C3C",
"j c #343D3D",
"k c #353E3E",
"l c gray23",
"z c #3C3C3C",
"x c #441600",
"c c #5F2F02",
"v c #3F4033",
"b c #404133",
"n c #404134",
"m c #424436",
"M c #46473A",
"N c #47483B",
"B c #48493C",
"V c #374040",
"C c #464646",
"Z c #424C4C",
"A c #494949",
"S c #4B4B4B",
"D c gray31",
"F c #475151",
"G c #576161",
"H c #586262",
"J c #5A6464",
"K c #5E6868",
"L c #667070",
"P c #677171",
"I c #687171",
"U c #687272",
"Y c #6B7575",
"T c #767676",
"R c #717A7A",
"E c #737C7C",
"W c #8B0000",
"Q c #BF0000",
"! c #804F15",
"~ c #8C7A37",
"^ c #A79C42",
"/ c #868F8F",
"( c #8B8B8B",
") c #8B9494",
"_ c #909090",
"` c #979F9F",
"' c gray68",
"] c #AAB2B2",
"[ c #BCC3C3",
"{ c #CDD3D3",
"} c None",
/* pixels */
"}}S3QW}}}}}}}}}}}}}}}}}}}}}}}}}}}}}}}}}}}}}}}}}}}}}}",
"} 3S3W}}}}}fDDf}}}}}}}}}}}}}}}}}}}}}}}}}}}}}}}}}}}}}",
"}  3S3}}}}}++f&}}}}}}}}}}}}}}}}}}}}}}}}}}}}}}}}}}}}}",
"}}  3S }}}}}&D&}}}}}}}}}}}}}}}}}}}}}}}}}}}}}}}}}}}}}",
"}}3   }}}}}}2D2}}}!!!!!!!c}}}}}}}}}}}}}}}}}}}}}}}}}}",
"}3D3 }}}}}}}2D2}}cccccccx-})`}}}}}}}}})`}}}}}_Z))))`",
"}DS  }f}f}f}2D2}!!!!!!!!!co]{////////V]{////l'R]]]]{",
"3D3 &2fzSSSSSSSA!cccccccx- ][LLLLLLPP ][KJHH '/]]]][",
"3D  &&2ffffffffdf    f++++ /]   .#189 /]shjk (R////]",
"3S  }}      Sf+ 2%^^%2++++ R`RRRRRREE R`YUIP TZRRRR`",
"++2+}+2 +  Sf++ 2@~~@2++++o]{////////V]{////l'R]]]]{",
" fS2++2   Sf+++ +%^^%+++++ ][LLLLLLPP ][KJHH '/]]]][",
" +fSS2f fSf     +@~~@+++++ /]   .#189 /]shjk (R////]",
"} +2fSS=SSSf00$ +%^^%+++++ R`RRRRRREE R`YUIP TZRRRR`",
"}  +=&S ++++O$0MNBNmai++++ ZR         ZR     C*ZZZZR",
"}}  ++f +++++++>,epy64+    *G77777777 *G7777 & ****G",
"}}}}  2        ;:rgu<>+  $  F          F           F",
"}}}}}}}}}}}}}}}6wbMvq5+XXX}*G}}}}}}}}}*G}}}}}& ****G",
"}}}}}}}}}}}}}}}wtnMntw}}}}}}}}}}}}}}}}}}}}}}}}}}}}}}",
"}}}}}}}}}}}}}}}wrnMnrw}}}}}}}}}}}}}}}}}}}}}}}}}}}}}}",
"}}}}}}}}}}}}}}}wrnMnrw}}}}}}}}}}}}}}}}}}}}}}}}}}}}}}"
};
