/* XPM */
static char *_cf01a1dad414c34e1a4fb368cc8ff43ksks69aRh46iSlTT[] = {
/* columns rows colors chars-per-pixel */
"31 26 142 2 ",
"   c None",
".  c black",
"X  c #070603",
"o  c #070705",
"O  c #070707",
"+  c #0A0604",
"@  c #0B0905",
"#  c #080906",
"$  c #0A0B07",
"%  c #0C0805",
"&  c #0C0A05",
"*  c #0B0B0B",
"=  c #0F0D09",
"-  c #0D0E09",
";  c #0D0E0A",
":  c #0E0F0B",
">  c #1D0505",
",  c #100C09",
"<  c #130F09",
"1  c #140E08",
"2  c #11110B",
"3  c #11120B",
"4  c #16120A",
"5  c #11130C",
"6  c #16100C",
"7  c #17110D",
"8  c #14150D",
"9  c #16170F",
"0  c #18140A",
"q  c #19150B",
"w  c #19120E",
"e  c #1C180D",
"r  c #101010",
"t  c #131313",
"y  c #141610",
"u  c #151512",
"i  c #1D1711",
"p  c #191910",
"a  c #191A11",
"s  c #1B1C12",
"d  c #1E1B16",
"f  c #1C1D14",
"g  c #1B1B1B",
"h  c #1E1919",
"j  c #340907",
"k  c #26130D",
"l  c #221D0F",
"z  c #211810",
"x  c #271D10",
"c  c #241B15",
"v  c #2B1F12",
"b  c #2A1F18",
"n  c #311A11",
"m  c #341C1C",
"M  c #1E2012",
"N  c #1E2014",
"B  c #1E2015",
"V  c #202216",
"C  c #202217",
"Z  c #2D2213",
"A  c #2F2314",
"S  c #292517",
"D  c #26281A",
"F  c #2C2E1D",
"G  c #382918",
"H  c #33351B",
"J  c #222222",
"K  c #232323",
"L  c #262121",
"P  c #252525",
"I  c #272727",
"U  c gray17",
"Y  c #2F2F2F",
"T  c #362920",
"R  c #363925",
"E  c #303228",
"W  c gray20",
"Q  c #343434",
"!  c gray21",
"~  c #373737",
"^  c #393939",
"/  c gray23",
"(  c #3F3838",
")  c #3C3C3C",
"_  c #490808",
"`  c #490C09",
"'  c #4C0D0B",
"]  c #520909",
"[  c #540909",
"{  c #42170E",
"}  c #431515",
"|  c #5F1111",
" . c #561910",
".. c #541B11",
"X. c #630A0A",
"o. c #670B0B",
"O. c #670E0C",
"+. c #680B0B",
"@. c #6C0B0B",
"#. c #7A0D0D",
"$. c #62130D",
"%. c #40301B",
"&. c #45311F",
"*. c #62261A",
"=. c #493223",
"-. c #4D3621",
";. c #4E3724",
":. c #4F3825",
">. c #523A26",
",. c #5A3B24",
"<. c #5A3B25",
"1. c #3E422C",
"2. c #68442A",
"3. c #0F106C",
"4. c #040476",
"5. c #4A4A49",
"6. c gray29",
"7. c #4B4B4B",
"8. c gray33",
"9. c #555555",
"0. c #5B5B5B",
"q. c DimGray",
"w. c #6F6F6F",
"e. c #810E0E",
"r. c #870E0E",
"t. c #880F0F",
"y. c #8B1815",
"u. c #931010",
"i. c #951010",
"p. c #9A1111",
"a. c #A31212",
"s. c #AB1212",
"d. c #B41313",
"f. c #B51414",
"g. c #852318",
"h. c #A1261D",
"j. c #8D3721",
"k. c #DC0000",
"l. c #E61D1D",
"z. c #C4241C",
"x. c #944D1C",
"c. c #CCAC3E",
/* pixels */
"                      Y g g g g g g g Y                       ",
"        I I g I I g * g * * * * * * * g * g I I g I I         ",
"    I t.f.f.f.f.u.g g g * * * * * * * g g g u.f.f.f.f.t.I     ",
"  I u.u.f.f.f.f.u.I g g g * * * * * g g g } u.f.f.f.f.u.u.}   ",
"J t.u.a.f.f.f.u.t.+.g t t * * * * * t t g @.t.u.f.f.f.a.u.t.L ",
"m u.u.u.u.u.t.t.u.s.=.r.g t * * * t g t.=.s.u.t.t.u.u.u.u.u.} ",
"m @.#.t.t.@.m a.f.;.=.a.i.J * t $ K u.a.=.*.h.a.} @.t.t.#.@.} ",
"J g g J @.g h O.u.&.:.u.u.u.@.J g u.u.u.>.=.u.$.g g @.L g g L ",
"          2 _ +.f.=.>.l.l.z.Q ) ^ =.~ y.>.=.j...[ 5           ",
"          , j '  .&.:.p.p.e.t k.t k.t e.:.=.H { s :           ",
"          - 8 k l c b [ ' n ^ ) ) ) ^ E L c f i 5 :           ",
"            - $ | = 1 c.9 2 2 y t f y 2.<.G G O -             ",
"            - # > 1 7 x.X.[ : s +.R 3.G G Z Z # -             ",
"            - + | v l c._ _ p N O.S 4.e 9.W w o -             ",
"              8 > % X x.6.6.6.1.5.5.5.G ! P Z 8               ",
"              2 | G Z c.! ! ! t ~ ~ ~ 0 0 0 0 8               ",
"              2 > % @ x.! w.! k.~ w.~ & & @ @ 8               ",
"          G G B B A T f ! 0.! t ~ 0.~ B T A D B 2.,.          ",
"        %.Z Z l F w e u.! 0.! k.~ 0.~ p.p 7 d.x G %.Z         ",
"        8.W e G i.2.<.G h Y g t g Y g <.G G g.-.w 8.!         ",
"        W K Z G l G %.Z Z x : 2 : l G %.Z Z x G G W J         ",
"        e e e Z ;.s 8.W e G q.! q.-.e 8.W e G s e e e         ",
"        l e 2 . G G W J Z G 8.U 8.%.G W J Z G 4 e l e         ",
"        . . . . e e e e e Z r + t e e e e e Z . . . .         ",
"                1 e x e 2 .       , e l e 4 .                 ",
"                  . . . .           . . . .                   "
};
