/* XPM */
static char *result[] = {
/* columns rows colors chars-per-pixel */
"29 18 128 2 ",
"   c #030C00",
".  c #071200",
"X  c #071500",
"o  c #0A1205",
"O  c #0A1404",
"+  c #0D1707",
"@  c #0A1901",
"#  c #0A1902",
"$  c #0B1D00",
"%  c #0A1F00",
"&  c #0B1F00",
"*  c #111C0A",
"=  c #121F0A",
"-  c #121A0D",
";  c #141D0E",
":  c #151F0F",
">  c #0C2000",
",  c #0C2100",
"<  c #0C2300",
"1  c #0B2400",
"2  c #0F2502",
"3  c #0C2004",
"4  c #0E2800",
"5  c #0F2900",
"6  c #102703",
"7  c #102B00",
"8  c #112D00",
"9  c #112F00",
"0  c #122807",
"q  c #122B07",
"w  c #102408",
"e  c #122609",
"r  c #13200C",
"t  c #162F0B",
"y  c #182C0C",
"u  c #103200",
"i  c #133500",
"p  c #143600",
"a  c #173E00",
"s  c #173F01",
"d  c #1B3D07",
"f  c #1B360B",
"g  c #1A300D",
"h  c #1C330F",
"j  c #172011",
"k  c #182510",
"l  c #1C2616",
"z  c #192811",
"x  c #1F2C17",
"c  c #1F2E16",
"v  c #1C3213",
"b  c #1E3212",
"n  c #1F3313",
"m  c #203613",
"M  c #203C11",
"N  c #223916",
"B  c #243B17",
"V  c #233C18",
"C  c #273D1A",
"Z  c #27391C",
"A  c #283A1D",
"S  c #283D1C",
"D  c #2B3F20",
"F  c #174000",
"G  c #1E4D02",
"H  c #205800",
"J  c #225D00",
"K  c #25530A",
"L  c #29401C",
"P  c #2C431F",
"I  c #284A18",
"U  c #2E4E1B",
"Y  c #2E5D12",
"T  c #246100",
"R  c #256403",
"E  c #266903",
"W  c #2E6D0C",
"Q  c #30730D",
"!  c #366E15",
"~  c #33621B",
"^  c #3D731F",
"/  c #3D7C18",
"(  c #2D4122",
")  c #2E4223",
"_  c #2D4420",
"`  c #2E4521",
"'  c #314824",
"]  c #324825",
"[  c #344B27",
"{  c #364C29",
"}  c #345621",
"|  c #405C2F",
" . c #435E33",
".. c #40642B",
"X. c #42642E",
"o. c #4C6A3A",
"O. c #4E7C33",
"+. c #537D3B",
"@. c #567941",
"#. c #478A24",
"$. c #4A842B",
"%. c #4F8C2D",
"&. c #558C35",
"*. c #539630",
"=. c #5F9C3B",
"-. c #63A33E",
";. c #5D8745",
":. c #628B4B",
">. c #639247",
",. c #67A344",
"<. c #6DAC48",
"1. c #6FAF4A",
"2. c #73AF51",
"3. c #75AF54",
"4. c #78AD59",
"5. c #78B654",
"6. c #7AB955",
"7. c #7EB360",
"8. c #87BD67",
"9. c #85C560",
"0. c #86C661",
"q. c #8CCB67",
"w. c #8DC96B",
"e. c #8FCF6A",
"r. c #90CA6E",
"t. c #97D672",
"y. c #9DDD78",
"u. c None",
/* pixels */
"u.u.u.u.u.u.u.u.u.u.u.u.u.u.u.u.u.u.u.u.u.u.u.u.u.u.u.u.u.",
"u.8 . 5   u.u.u.u.u.u.u.u.u.u.u.u.u.u.u.u.u.u.u.u.u.u.u.u.",
"u.F & H % G @ d O f u.u.u.u.u.u.u.u.u.u.u.u.u.u.u.u.u.u.u.",
"u.a > T 1 E 6 W 0 ! w ~ = U * B u.u.u.u.u.u.u.u.u.u.u.u.u.",
"u.i > T 1 E 6 Q q / t #.g %.b &.v O.k X.; ` - u.u.u.u.u.u.",
"u.u > T 1 E 6 Q q / t #.h *.m -.V <.C 2.S 3.A ;.x @.j o.u.",
"u.9 > T 1 E 6 Q q / t #.h *.m -.V 1.L 6._ 0.' q.] w.( 8.u.",
"u.7 > T 1 E 6 Q q / t #.h *.m -.V 1.L 6._ 0.' e.[ t.{ y.u.",
"u.4 > T 1 E 6 Q q / t #.h *.m -.V 1.L 6._ 0.' e.[ t.{ y.u.",
"u., > T 1 E 6 Q q / t #.h *.m -.V 1.L 6._ 0.' e.[ t.{ y.u.",
"u.$ > T 1 E 6 Q q / t #.h *.m -.V 1.L 6._ 0.' e.[ t.{ y.u.",
"u.$ > T 1 E 6 Q q / t #.h *.m -.V 1.L 6._ 0.' e.[ t.{ y.u.",
"u.u.& J < R 2 Q q / t #.h *.m -.V 1.L 6._ 0.' e.[ t.{ y.u.",
"u.u.. p X s # K 3 Y e ^ y $.n =.N ,.C 5.P 9.' e.[ t.{ y.u.",
"u.u.u.u.u.u.u.u.u.u.o M + I * } r ..z +.c >.Z 4.D 7.) r.u.",
"u.u.u.u.u.u.u.u.u.u.u.u.u.u.u.u.u.u.u.u.u.' : | j  .l :.u.",
"u.u.u.u.u.u.u.u.u.u.u.u.u.u.u.u.u.u.u.u.u.u.u.u.u.u.u.u.u.",
"u.u.u.u.u.u.u.u.u.u.u.u.u.u.u.u.u.u.u.u.u.u.u.u.u.u.u.u.u."
};
