/* XPM */
static char *result[] = {
/* columns rows colors chars-per-pixel */
"29 18 149 2 ",
"   c black",
".  c #010505",
"X  c #01060B",
"o  c #02090B",
"O  c #02090E",
"+  c #050B0D",
"@  c #020A11",
"#  c #010A12",
"$  c #020C13",
"%  c #040D10",
"&  c #010816",
"*  c #050F16",
"=  c #010B1B",
"-  c #041217",
";  c #091012",
":  c #0A1113",
">  c #0C1517",
",  c #031019",
"<  c #03111B",
"1  c #07131C",
"2  c #05161E",
"3  c #08141C",
"4  c #0D161C",
"5  c #09181C",
"6  c #0E181D",
"7  c #10191F",
"8  c #101A1F",
"9  c #000A22",
"0  c #000A23",
"q  c #000A24",
"w  c #010D24",
"e  c #000829",
"r  c #000A28",
"t  c #000D2A",
"y  c #000E2B",
"u  c #031320",
"i  c #061520",
"p  c #081521",
"a  c #0C1B26",
"s  c #081E27",
"d  c #011128",
"f  c #02132A",
"g  c #031528",
"h  c #03152B",
"j  c #041728",
"k  c #00122C",
"l  c #061C2A",
"z  c #03182F",
"x  c #0D1B2A",
"c  c #141D25",
"v  c #001030",
"b  c #031632",
"n  c #001434",
"m  c #021535",
"M  c #021A35",
"N  c #031A37",
"B  c #091E35",
"V  c #0B1D36",
"C  c #0A1F36",
"Z  c #021839",
"A  c #031A39",
"S  c #081F3B",
"D  c #142427",
"F  c #13222D",
"G  c #16282C",
"H  c #1B2A2E",
"J  c #092333",
"K  c #0C213D",
"L  c #0F293A",
"P  c #112130",
"I  c #152B37",
"U  c #192C30",
"Y  c #15283C",
"T  c #16293D",
"R  c #021A43",
"E  c #031B45",
"W  c #031C44",
"Q  c #052140",
"!  c #0D2141",
"~  c #0F2642",
"^  c #102642",
"/  c #102744",
"(  c #142941",
")  c #132A47",
"_  c #182B42",
"`  c #1A2D44",
"'  c #1B2E45",
"]  c #142B48",
"[  c #182F4C",
"{  c #1E3540",
"}  c #133049",
"|  c #14344F",
" . c #1A314D",
".. c #1B324F",
"X. c #032154",
"o. c #05295A",
"O. c #1E3551",
"+. c #1A3A57",
"@. c #223942",
"#. c #011F63",
"$. c #001F6F",
"%. c #012069",
"&. c #073264",
"*. c #0E3869",
"=. c #012170",
"-. c #002077",
";. c #012B79",
":. c #053778",
">. c #0C3E7B",
",. c #2B4858",
"<. c #2E495A",
"1. c #214467",
"2. c #264965",
"3. c #385664",
"4. c #375C79",
"5. c #002B81",
"6. c #003A8A",
"7. c #164C8E",
"8. c #044398",
"9. c #054398",
"0. c #134F99",
"q. c #1F5795",
"w. c #245282",
"e. c #2D5782",
"r. c #37618C",
"t. c #356698",
"y. c #104FA4",
"u. c #1F5EA9",
"i. c #1E60B1",
"p. c #2867AF",
"a. c #2A6BBA",
"s. c #2A6CBD",
"d. c #3672BB",
"f. c #3B75B8",
"g. c #436B88",
"h. c #4379B6",
"j. c #4B7FBC",
"k. c #3676C2",
"l. c #3678C7",
"z. c #5087C5",
"x. c #4082D3",
"c. c #4183D4",
"v. c #498BD8",
"b. c #4A8CDD",
"n. c #508CD5",
"m. c #538FD4",
"M. c #5395E4",
"N. c #589AEB",
"B. c None",
/* pixels */
"B.B.B.B.B.B.B.B.B.B.B.B.B.B.B.B.B.B.B.B.B.B.B.B.B.B.B.B.B.",
"B.l # j X 2 . B.B.B.B.B.B.B.B.B.B.B.B.B.B.B.B.B.B.B.B.B.B.",
"B.E 0 #.9 X.= Q $ J O 5 B.B.B.B.B.B.B.B.B.B.B.B.B.B.B.B.B.",
"B.R q $.e -.y ;.k :.d *.i | 3 I + G B.B.B.B.B.B.B.B.B.B.B.",
"B.Z q $.e -.y 5.v 6.n 9.M 0.B q.V w.a 2.4 { > H B.B.B.B.B.",
"B.m q $.e -.y 5.v 6.n 8.N y.S i.! a.^ d.( f.T r.F 4.7 3.B.",
"B.b q $.e -.y 5.v 6.n 8.N y.S i.! s./ l.] c.[ v. .n.` z.B.",
"B.h q $.e -.y 5.v 6.n 8.N y.S i.! s./ l.] c.[ b...M.O.N.  ",
"B.g q $.e -.y 5.v 6.n 8.N y.S i.! s./ l.] c.[ b...M.O.N.  ",
"B.u q $.e -.y 5.v 6.n 8.N y.S i.! s./ l.] c.[ b...M.O.N.  ",
"B.< q $.e -.y 5.v 6.n 8.N y.S i.! s./ l.] c.[ b...M.O.N.  ",
"B.< q $.e -.y 5.v 6.n 8.N y.S i.! s./ l.] c.[ b...M.O.N.  ",
"B., 0 %.r =.t 5.v 6.n 8.N y.S i.! s./ l.] c.[ b...M.O.N.  ",
"B.B.@ A & W = o.w &.f >.z 7.C u.K p.~ k.) x.[ b...M.O.N.  ",
"B.B.B.B.B.B.. - o s % L * } 1 +.p 1.x e.P t.Y h._ j.' m.  ",
"B.B.B.B.B.B.B.B.B.B.B.B.B.B.B.B.B.D ; U : @.6 ,.8 <.c g.B.",
"B.B.B.B.B.B.B.B.B.B.B.B.B.B.B.B.B.B.B.B.B.B.B.B.B.B.B.B.B.",
"B.B.B.B.B.B.B.B.B.B.B.B.B.B.B.B.B.B.B.B.B.B.B.B.B.B.B.B.B."
};
