/* XPM */
static char *result[] = {
/* columns rows colors chars-per-pixel */
"29 18 71 1 ",
"  c #030C00",
". c #071200",
"X c #071500",
"o c #0A1205",
"O c #0A1404",
"+ c #0D1707",
"@ c #0A1901",
"# c #0A1902",
"$ c #0B1D00",
"% c #0A1F00",
"& c #0B1F00",
"* c #111C0A",
"= c #121F0A",
"- c #0C2000",
"; c #0C2100",
": c #0C2300",
"> c #0B2400",
", c #0F2502",
"< c #0C2004",
"1 c #0E2800",
"2 c #0F2900",
"3 c #102703",
"4 c #102B00",
"5 c #112D00",
"6 c #112F00",
"7 c #122807",
"8 c #122B07",
"9 c #102408",
"0 c #122609",
"q c #162F0B",
"w c #182C0C",
"e c #103200",
"r c #133500",
"t c #143600",
"y c #173E00",
"u c #173F01",
"i c #1B3D07",
"p c #1B360B",
"a c #1A300D",
"s c #1C330F",
"d c #1E3212",
"f c #1F3313",
"g c #203613",
"h c #203C11",
"j c #243B17",
"k c #174000",
"l c #1E4D02",
"z c #205800",
"x c #225D00",
"c c #25530A",
"v c #284A18",
"b c #2E4E1B",
"n c #2E5D12",
"m c #246100",
"M c #256403",
"N c #266903",
"B c #2E6D0C",
"V c #30730D",
"C c #366E15",
"Z c #33621B",
"A c #3D731F",
"S c #3D7C18",
"D c #345621",
"F c #478A24",
"G c #4A842B",
"H c #4F8C2D",
"J c #558C35",
"K c #539630",
"L c #5F9C3B",
"P c #63A33E",
"I c None",
/* pixels */
"IIIIIIIIIIIIIIIIIIIIIIIIIIIII",
"I5.2 IIIIIIIIIIIIIIIIIIIIIIII",
"Ik&z%l@iOpIIIIIIIIIIIIIIIIIII",
"Iy-m>N3B7C9Z=b*jIIIIIIIIIIIII",
"Ir-m>N3V8SqFaHdJIIIIIIIIIIIII",
"Ie-m>N3V8SqFsKgPIIIIIIIIIIIII",
"I6-m>N3V8SqFsKgPIIIIIIIIIIIII",
"I4-m>N3V8SqFsKgPIIIIIIIIIIIII",
"I1-m>N3V8SqFsKgPIIIIIIIIIIIII",
"I;-m>N3V8SqFsKgPIIIIIIIIIIIII",
"I$-m>N3V8SqFsKgPIIIIIIIIIIIII",
"I$-m>N3V8SqFsKgPIIIIIIIIIIIII",
"II&x:M,V8SqFsKgPIIIIIIIIIIIII",
"II.tXu#c<n0AwGfLIIIIIIIIIIIII",
"IIIIIIIIIIoh+v*DIIIIIIIIIIIII",
"IIIIIIIIIIIIIIIIIIIIIIIIIIIII",
"IIIIIIIIIIIIIIIIIIIIIIIIIIIII",
"IIIIIIIIIIIIIIIIIIIIIIIIIIIII"
};
