/* XPM */
static char *result[] = {
/* columns rows colors chars-per-pixel */
"29 18 148 2 ",
"   c #010505",
".  c #01060B",
"X  c #02090B",
"o  c #02090E",
"O  c #121A0D",
"+  c #141D0E",
"@  c #151F0F",
"#  c #020A11",
"$  c #010A12",
"%  c #020C13",
"&  c #040D10",
"*  c #010816",
"=  c #050F16",
"-  c #010B1B",
";  c #041217",
":  c #031019",
">  c #03111B",
",  c #07131C",
"<  c #05161E",
"1  c #08141C",
"2  c #09181C",
"3  c #13200C",
"4  c #172011",
"5  c #182510",
"6  c #1C2616",
"7  c #192811",
"8  c #1F2C17",
"9  c #1F2E16",
"0  c #1C3215",
"q  c #223916",
"w  c #233B1A",
"e  c #233C18",
"r  c #233C19",
"t  c #233C1A",
"y  c #273D1A",
"u  c #213A1F",
"i  c #27391C",
"p  c #283A1D",
"a  c #283D1C",
"s  c #000A22",
"d  c #000A23",
"f  c #000A24",
"g  c #010D24",
"h  c #000829",
"j  c #000A28",
"k  c #000D2A",
"l  c #000E2B",
"z  c #031320",
"x  c #061520",
"c  c #081E27",
"v  c #011128",
"b  c #02132A",
"n  c #031528",
"m  c #03152B",
"M  c #041728",
"N  c #00122C",
"B  c #061C2A",
"V  c #03182F",
"C  c #001030",
"Z  c #031632",
"A  c #001434",
"S  c #021535",
"D  c #021A35",
"F  c #031A37",
"G  c #091E35",
"H  c #0A1F36",
"J  c #021839",
"K  c #031A39",
"L  c #081F3B",
"P  c #092333",
"I  c #0F293A",
"U  c #152B37",
"Y  c #2B3F20",
"T  c #29401C",
"R  c #2C431F",
"E  c #2D4122",
"W  c #2E4223",
"Q  c #2D4420",
"!  c #2E4521",
"~  c #2F462A",
"^  c #304726",
"/  c #304727",
"(  c #314824",
")  c #314825",
"_  c #324825",
"`  c #344B27",
"'  c #304728",
"]  c #364C29",
"[  c #2D4430",
"{  c #405C2F",
"}  c #435E33",
"|  c #40642B",
" . c #42642E",
".. c #4C6A3A",
"X. c #4E7C33",
"o. c #537D3C",
"O. c #021A43",
"+. c #031B45",
"@. c #031C44",
"#. c #052140",
"$. c #133049",
"%. c #14344F",
"&. c #032154",
"*. c #05295A",
"=. c #1A3A57",
"-. c #011F63",
";. c #001F6F",
":. c #012069",
">. c #073264",
",. c #0E3869",
"<. c #012170",
"1. c #002077",
"2. c #012B79",
"3. c #053778",
"4. c #0C3E7B",
"5. c #567941",
"6. c #5D8745",
"7. c #62914B",
"8. c #618A50",
"9. c #67A344",
"0. c #6DAC48",
"q. c #6FAF4A",
"w. c #73AF51",
"e. c #75AF54",
"r. c #78AD59",
"t. c #78B654",
"y. c #7AB955",
"u. c #7EB360",
"i. c #87BD67",
"p. c #85C560",
"a. c #86C661",
"s. c #8CCB67",
"d. c #8DC96B",
"f. c #8FCF6A",
"g. c #90CA6F",
"h. c #97D672",
"j. c #9DDD78",
"k. c #002B81",
"l. c #003A8A",
"z. c #164C8E",
"x. c #044398",
"c. c #054398",
"v. c #134F99",
"b. c #1F5795",
"n. c #104FA4",
"m. c #1F5EA9",
"M. c #1E60B1",
"N. c None",
/* pixels */
"N.N.N.N.N.N.N.N.N.N.N.N.N.N.N.N.N.N.N.N.N.N.N.N.N.N.N.N.N.",
"N.B $ M . <   N.N.N.N.N.N.N.N.N.N.N.N.N.N.N.N.N.N.N.N.N.N.",
"N.+.d -.s &.- #.% P o 2 N.N.N.N.N.N.N.N.N.N.N.N.N.N.N.N.N.",
"N.O.f ;.h 1.l 2.N 3.v ,.x %.1 U N.N.N.N.N.N.N.N.N.N.N.N.N.",
"N.J f ;.h 1.l k.C l.A c.D v.G b.0 X.5  .+ ! O N.N.N.N.N.N.",
"N.S f ;.h 1.l k.C l.A x.F n.L M.r 0.y w.a e.p 6.8 5.4 ..N.",
"N.Z f ;.h 1.l k.C l.A x.F n.L M.e q.T y.Q a.^ s._ d.E i.N.",
"N.m f ;.h 1.l k.C l.A x.F n.L M.w q.T y.Q a.~ f.` h.] j.N.",
"N.n f ;.h 1.l k.C l.A x.F n.L M.u q.T y.Q a.[ f.` h.] j.N.",
"N.z f ;.h 1.l k.C l.A x.F n.L M.t q.T y.Q a.' f.` h.] j.N.",
"N.> f ;.h 1.l k.C l.A x.F n.L M.t q.T y.Q a.) f.` h.] j.N.",
"N.> f ;.h 1.l k.C l.A x.F n.L M.u q.T y.Q a.^ f.` h.] j.N.",
"N.: d :.j <.k k.C l.A x.F n.L M.t q.T y.Q a./ f.` h.] j.N.",
"N.N.# K * @.- *.g >.b 4.V z.H m.q 9.y t.R p.( f.` h.] j.N.",
"N.N.N.N.N.N.  ; X c & I = $., =.3 | 7 o.9 7.i r.Y u.W g.N.",
"N.N.N.N.N.N.N.N.N.N.N.N.N.N.N.N.N.N.N.N.N.~ @ { 4 } 6 8.N.",
"N.N.N.N.N.N.N.N.N.N.N.N.N.N.N.N.N.N.N.N.N.N.N.N.N.N.N.N.N.",
"N.N.N.N.N.N.N.N.N.N.N.N.N.N.N.N.N.N.N.N.N.N.N.N.N.N.N.N.N."
};
