/* XPM */
static char *result[] = {
/* columns rows colors chars-per-pixel */
"29 18 94 2 ",
"   c #030C00",
".  c #071200",
"X  c #071500",
"o  c #0A1205",
"O  c #0A1404",
"+  c #0D1707",
"@  c #0A1901",
"#  c #0A1902",
"$  c #0B1D00",
"%  c #0A1F00",
"&  c #0B1F00",
"*  c #111C0A",
"=  c #121F0A",
"-  c #141D0E",
";  c #0C2000",
":  c #0C2100",
">  c #0C2300",
",  c #0B2400",
"<  c #0F2502",
"1  c #0C2004",
"2  c #0E2800",
"3  c #0F2900",
"4  c #102703",
"5  c #102B00",
"6  c #112D00",
"7  c #112F00",
"8  c #122807",
"9  c #122B07",
"0  c #102408",
"q  c #122609",
"w  c #13200C",
"e  c #162F0B",
"r  c #182C0C",
"t  c #103200",
"y  c #133500",
"u  c #143600",
"i  c #173E00",
"p  c #173F01",
"a  c #1B3D07",
"s  c #1B360B",
"d  c #1A300D",
"f  c #1C330F",
"g  c #182510",
"h  c #192811",
"j  c #1F2E16",
"k  c #1C3213",
"l  c #1E3212",
"z  c #1F3313",
"x  c #203613",
"c  c #203C11",
"v  c #223916",
"b  c #243B17",
"n  c #233C18",
"m  c #273D1A",
"M  c #283D1C",
"N  c #174000",
"B  c #1E4D02",
"V  c #205800",
"C  c #225D00",
"Z  c #25530A",
"A  c #29401C",
"S  c #2C431F",
"D  c #284A18",
"F  c #2E4E1B",
"G  c #2E5D12",
"H  c #246100",
"J  c #256403",
"K  c #266903",
"L  c #2E6D0C",
"P  c #30730D",
"I  c #366E15",
"U  c #33621B",
"Y  c #3D731F",
"T  c #3D7C18",
"R  c #2D4420",
"E  c #345621",
"W  c #40642B",
"Q  c #42642E",
"!  c #4E7C33",
"~  c #537D3B",
"^  c #478A24",
"/  c #4A842B",
"(  c #4F8C2D",
")  c #558C35",
"_  c #539630",
"`  c #5F9C3B",
"'  c #63A33E",
"]  c #67A344",
"[  c #6DAC48",
"{  c #6FAF4A",
"}  c #73AF51",
"|  c #78B654",
" . c #7AB955",
".. c None",
/* pixels */
"..........................................................",
"..6 . 3   ................................................",
"..N & V % B @ a O s ......................................",
"..i ; H , K 4 L 8 I 0 U = F * b ..........................",
"..y ; H , K 4 P 9 T e ^ d ( l ) k ! g Q - ................",
"..t ; H , K 4 P 9 T e ^ f _ x ' n [ m } M ................",
"..7 ; H , K 4 P 9 T e ^ f _ x ' n { A  .R ................",
"..5 ; H , K 4 P 9 T e ^ f _ x ' n { A  .R ................",
"..2 ; H , K 4 P 9 T e ^ f _ x ' n { A  .R ................",
"..: ; H , K 4 P 9 T e ^ f _ x ' n { A  .R ................",
"..$ ; H , K 4 P 9 T e ^ f _ x ' n { A  .R ................",
"..$ ; H , K 4 P 9 T e ^ f _ x ' n { A  .R ................",
"....& C > J < P 9 T e ^ f _ x ' n { A  .R ................",
"..... u X p # Z 1 G q Y r / z ` v ] m | S ................",
"....................o c + D * E w W h ~ j ................",
"..........................................................",
"..........................................................",
".........................................................."
};
