/* XPM */
static char *result[] = {
/* columns rows colors chars-per-pixel */
"58 18 127 2 ",
"   c #00030F",
".  c #000715",
"X  c #010A13",
"o  c #000916",
"O  c #000618",
"+  c #020C19",
"@  c #00091D",
"#  c #05111F",
"$  c #09121B",
"%  c #0A141F",
"&  c #000A21",
"*  c #000823",
"=  c #000923",
"-  c #000A24",
";  c #000B25",
":  c #000B26",
">  c #000928",
",  c #000829",
"<  c #000F29",
"1  c #000D2A",
"2  c #000E2B",
"3  c #000C2E",
"4  c #000D2F",
"5  c #041322",
"6  c #061323",
"7  c #0A1421",
"8  c #0D1722",
"9  c #01112B",
"0  c #00112D",
"q  c #0A1928",
"w  c #0B192C",
"e  c #111B28",
"r  c #000D30",
"t  c #000F33",
"y  c #000E36",
"u  c #000D39",
"i  c #001030",
"p  c #021730",
"a  c #001434",
"s  c #021935",
"d  c #031A37",
"f  c #0F1F32",
"g  c #0A1B37",
"h  c #081D36",
"j  c #091E37",
"k  c #00113D",
"l  c #00123E",
"z  c #00193B",
"x  c #081F3B",
"c  c #11202F",
"v  c #0B203E",
"b  c #0B223F",
"n  c #13273D",
"m  c #14283E",
"M  c #001446",
"N  c #041F43",
"B  c #001A45",
"V  c #001349",
"C  c #001448",
"Z  c #001A57",
"A  c #0D2141",
"S  c #0F2642",
"D  c #102744",
"F  c #132842",
"G  c #172A43",
"H  c #132A47",
"J  c #192C45",
"K  c #1A2D46",
"L  c #142B48",
"P  c #152C49",
"I  c #182F4C",
"U  c #1A314D",
"Y  c #1B324F",
"T  c #082651",
"R  c #0B2D55",
"E  c #00235E",
"W  c #1E3551",
"Q  c #11335E",
"!  c #001B64",
"~  c #001E6A",
"^  c #001F6F",
"/  c #001F71",
"(  c #002C67",
")  c #06326D",
"_  c #1A3F6C",
"`  c #002077",
"'  c #00297A",
"]  c #00337A",
"[  c #053A7E",
"{  c #213F62",
"}  c #1E426C",
"|  c #254163",
" . c #2B4B71",
".. c #002B81",
"X. c #003A8A",
"o. c #1D4D87",
"O. c #044398",
"+. c #104891",
"@. c #104D9A",
"#. c #1A5498",
"$. c #275287",
"%. c #2F5580",
"&. c #315C91",
"*. c #2F619C",
"=. c #376094",
"-. c #104FA4",
";. c #1D5DAA",
":. c #1E60B1",
">. c #2665B0",
",. c #296BBA",
"<. c #2A6CBD",
"1. c #3772BB",
"2. c #3470BC",
"3. c #3F76B9",
"4. c #477CBF",
"5. c #3575C3",
"6. c #3678C7",
"7. c #4C84C8",
"8. c #4082D3",
"9. c #4183D4",
"0. c #4E8AD6",
"q. c #488AD9",
"w. c #4A8CDD",
"e. c #518DD6",
"r. c #5395E4",
"t. c #589AEB",
"y. c None",
/* pixels */
"y.y.y.y.y.y.y.y.y.y.y.y.y.y.y.y.y.y.y.y.y.y.y.y.y.y.y.y.y.y.y.y.y.y.y.y.y.y.y.y.y.y.y.y.y.y.y.y.y.y.y.y.y.y.y.y.y.y.",
"y.y.y.y.y.y.y.y.y.y.y.y.y.y.y.y.y.y.y.y.y.y.y.y.y.y.y.y.y.y.t . 4   y.y.y.y.y.y.y.y.y.y.y.y.y.y.y.y.y.y.y.y.y.y.y.y.",
"y.y.y.y.y.y.y.y.y.y.y.y.y.y.y.y.y.y.y.y.y.y.y.y.y.y.y.y.y.y.V = ! * Z @ B o z y.y.y.y.y.y.y.y.y.y.y.y.y.y.y.y.y.y.y.",
"y.y.y.y.y.y.y.y.y.y.y.y.y.y.y.y.y.y.y.y.y.y.y.y.y.y.y.y.y.y.M - ^ , ` 2 ' 0 ] < ) 5 R # b y.y.y.y.y.y.y.y.y.y.y.y.y.",
"y.y.y.y.y.y.y.y.y.y.y.y.y.y.y.y.y.y.y.y.y.y.y.y.y.y.y.y.y.y.k - ^ , ` 2 ..i X.a O.s @.h #.g o.q } % P $ y.y.y.y.y.y.",
"y.y.y.y.y.y.y.y.y.y.y.y.y.y.y.y.y.y.y.y.y.y.y.y.y.y.y.y.y.y.u - ^ , ` 2 ..i X.a O.d -.x :.A ,.S 2.F 1.m &.c %.8  .y.",
"y.y.y.y.y.y.y.y.y.y.y.y.y.y.y.y.y.y.y.y.y.y.y.y.y.y.y.y.y.y.y - ^ , ` 2 ..i X.a O.d -.x :.A <.D 6.L 9.I q.U 0.J 7.y.",
"y.y.y.y.y.y.y.y.y.y.y.y.y.y.y.y.y.y.y.y.y.y.y.y.y.y.y.y.y.y.r - ^ , ` 2 ..i X.a O.d -.x :.A <.D 6.L 9.I w.Y r.W t.y.",
"y.y.y.y.y.y.y.y.y.y.y.y.y.y.y.y.y.y.y.y.y.y.y.y.y.y.y.y.y.y.3 - ^ , ` 2 ..i X.a O.d -.x :.A <.D 6.L 9.I w.Y r.W t.y.",
"y.y.y.y.y.y.y.y.y.y.y.y.y.y.y.y.y.y.y.y.y.y.y.y.y.y.y.y.y.y.: - ^ , ` 2 ..i X.a O.d -.x :.A <.D 6.L 9.I w.Y r.W t.y.",
"y.y.y.y.y.y.y.y.y.y.y.y.y.y.y.y.y.y.y.y.y.y.y.y.y.y.y.y.y.y.& - ^ , ` 2 ..i X.a O.d -.x :.A <.D 6.L 9.I w.Y r.W t.y.",
"y.y.y.y.y.y.y.y.y.y.y.y.y.y.y.y.y.y.y.y.y.y.y.y.y.y.y.y.y.y.& - ^ , ` 2 ..i X.a O.d -.x :.A <.D 6.L 9.I w.Y r.W t.y.",
"y.y.y.y.y.y.y.y.y.y.y.y.y.y.y.y.y.y.y.y.y.y.y.y.y.y.y.y.y.y.y.= ~ > / 1 ..i X.a O.d -.x :.A <.D 6.L 9.I w.Y r.W t.y.",
"y.y.y.y.y.y.y.y.y.y.y.y.y.y.y.y.y.y.y.y.y.y.y.y.y.y.y.y.y.y.y.. l O C @ E ; ( 9 [ p +.j ;.v >.S 5.H 8.I w.Y r.W t.y.",
"y.y.y.y.y.y.y.y.y.y.y.y.y.y.y.y.y.y.y.y.y.y.y.y.y.y.y.y.y.y.y.y.y.y.y.y.y.y.y.X N + T # Q 6 _ w $.f *.n 3.G 4.K e.y.",
"y.y.y.y.y.y.y.y.y.y.y.y.y.y.y.y.y.y.y.y.y.y.y.y.y.y.y.y.y.y.y.y.y.y.y.y.y.y.y.y.y.y.y.y.y.y.y.y.y.y.I 7 { 8 | e =.y.",
"y.y.y.y.y.y.y.y.y.y.y.y.y.y.y.y.y.y.y.y.y.y.y.y.y.y.y.y.y.y.y.y.y.y.y.y.y.y.y.y.y.y.y.y.y.y.y.y.y.y.y.y.y.y.y.y.y.y.",
"y.y.y.y.y.y.y.y.y.y.y.y.y.y.y.y.y.y.y.y.y.y.y.y.y.y.y.y.y.y.y.y.y.y.y.y.y.y.y.y.y.y.y.y.y.y.y.y.y.y.y.y.y.y.y.y.y.y."
};
