/* XPM */
static char *result[] = {
/* columns rows colors chars-per-pixel */
"29 18 149 2 ",
"   c #010505",
".  c #01060B",
"X  c #02090B",
"o  c #02090E",
"O  c #050B0D",
"+  c #121A0D",
"@  c #151F0F",
"#  c #020A11",
"$  c #010A12",
"%  c #020C13",
"&  c #040D10",
"*  c #010816",
"=  c #050F16",
"-  c #010B1B",
";  c #041217",
":  c #091012",
">  c #0A1113",
",  c #031019",
"<  c #03111B",
"1  c #07131C",
"2  c #05161E",
"3  c #08141C",
"4  c #0E181A",
"5  c #09181C",
"6  c #172011",
"7  c #1C2616",
"8  c #1F2C17",
"9  c #27391C",
"0  c #283A1D",
"q  c #000A22",
"w  c #000A23",
"e  c #000A24",
"r  c #010D24",
"t  c #000829",
"y  c #000A28",
"u  c #000D2A",
"i  c #000E2B",
"p  c #031320",
"a  c #061520",
"s  c #081521",
"d  c #0C1B26",
"f  c #081E27",
"g  c #011128",
"h  c #02132A",
"j  c #031528",
"k  c #03152B",
"l  c #041728",
"z  c #00122C",
"x  c #061C2A",
"c  c #03182F",
"v  c #0D1B2A",
"b  c #001030",
"n  c #031632",
"m  c #001434",
"M  c #021535",
"N  c #021A35",
"B  c #031A37",
"V  c #091E35",
"C  c #0B1D36",
"Z  c #0A1F36",
"A  c #021839",
"S  c #031A39",
"D  c #081F3B",
"F  c #142427",
"G  c #16282C",
"H  c #092333",
"J  c #0C213D",
"K  c #0F293A",
"L  c #112130",
"P  c #152B37",
"I  c #192C30",
"U  c #2B3F20",
"Y  c #223837",
"T  c #2D4122",
"R  c #2E4223",
"E  c #2E4522",
"W  c #2F462A",
"Q  c #314824",
"!  c #314825",
"~  c #324825",
"^  c #344B27",
"/  c #364C29",
"(  c #405C2F",
")  c #435E33",
"_  c #4C6A3A",
"`  c #021A43",
"'  c #031B45",
"]  c #031C44",
"[  c #052140",
"{  c #0D2141",
"}  c #0F2642",
"|  c #102642",
" . c #102744",
".. c #142941",
"X. c #142B48",
"o. c #133049",
"O. c #14344F",
"+. c #032154",
"@. c #05295A",
"#. c #1A3A57",
"$. c #011F63",
"%. c #001F6F",
"&. c #012069",
"*. c #073264",
"=. c #0E3869",
"-. c #012170",
";. c #002077",
":. c #012B79",
">. c #053778",
",. c #0C3E7B",
"<. c #214467",
"1. c #264965",
"2. c #567941",
"3. c #5D8745",
"4. c #639247",
"5. c #618A50",
"6. c #75AF54",
"7. c #78AD59",
"8. c #7EB360",
"9. c #87BD67",
"0. c #85C560",
"q. c #86C661",
"w. c #86C662",
"e. c #86C663",
"r. c #8CCB67",
"t. c #8DC96B",
"y. c #8FCF6A",
"u. c #90CA6F",
"i. c #97D672",
"p. c #9DDD78",
"a. c #002B81",
"s. c #003A8A",
"d. c #164C8E",
"f. c #044398",
"g. c #054398",
"h. c #134F99",
"j. c #1F5795",
"k. c #245282",
"l. c #2D5782",
"z. c #104FA4",
"x. c #1F5EA9",
"c. c #1E60B1",
"v. c #2867AF",
"b. c #2A6BBA",
"n. c #2A6CBD",
"m. c #3672BB",
"M. c #3676C2",
"N. c #3678C7",
"B. c None",
/* pixels */
"B.B.B.B.B.B.B.B.B.B.B.B.B.B.B.B.B.B.B.B.B.B.B.B.B.B.B.B.B.",
"B.x $ l . 2   B.B.B.B.B.B.B.B.B.B.B.B.B.B.B.B.B.B.B.B.B.B.",
"B.' w $.q +.- [ % H o 5 B.B.B.B.B.B.B.B.B.B.B.B.B.B.B.B.B.",
"B.` e %.t ;.i :.z >.g =.a O.3 P O G B.B.B.B.B.B.B.B.B.B.B.",
"B.A e %.t ;.i a.b s.m g.N h.V j.C k.d 1.4 E + B.B.B.B.B.B.",
"B.M e %.t ;.i a.b s.m f.B z.D c.{ b.| m...6.0 3.8 2.6 _ B.",
"B.n e %.t ;.i a.b s.m f.B z.D c.{ n. .N.X.q.Q r.~ t.T 9.B.",
"B.k e %.t ;.i a.b s.m f.B z.D c.{ n. .N.X.q.Q y.^ i./ p.B.",
"B.j e %.t ;.i a.b s.m f.B z.D c.{ n. .N.X.q.Q y.^ i./ p.B.",
"B.p e %.t ;.i a.b s.m f.B z.D c.{ n. .N.X.w.Q y.^ i./ p.B.",
"B.< e %.t ;.i a.b s.m f.B z.D c.{ n. .N.X.e.! y.^ i./ p.B.",
"B.< e %.t ;.i a.b s.m f.B z.D c.{ n. .N.X.q.! y.^ i./ p.B.",
"B., w &.y -.u a.b s.m f.B z.D c.{ n. .N.X.q.Q y.^ i./ p.B.",
"B.B.# S * ] - @.r *.h ,.c d.Z x.J v.} M.Y 0.Q y.^ i./ p.B.",
"B.B.B.B.B.B.  ; X f & K = o.1 #.s <.v l.L 4.9 7.U 8.R u.B.",
"B.B.B.B.B.B.B.B.B.B.B.B.B.B.B.B.B.F : I > W @ ( 6 ) 7 5.B.",
"B.B.B.B.B.B.B.B.B.B.B.B.B.B.B.B.B.B.B.B.B.B.B.B.B.B.B.B.B.",
"B.B.B.B.B.B.B.B.B.B.B.B.B.B.B.B.B.B.B.B.B.B.B.B.B.B.B.B.B."
};
