/* XPM */
static char *result[] = {
/* columns rows colors chars-per-pixel */
"29 18 143 2 ",
"   c #010505",
".  c #01060B",
"X  c #02090B",
"o  c #0A1205",
"O  c #0D1707",
"+  c #111C0A",
"@  c #121F0A",
"#  c #121A0D",
"$  c #101B0E",
"%  c #141D0E",
"&  c #151F0F",
"*  c #020A11",
"=  c #010A12",
"-  c #020C13",
";  c #010816",
":  c #010B1B",
">  c #041217",
",  c #031019",
"<  c #03111B",
"1  c #05161E",
"2  c #102408",
"3  c #122609",
"4  c #13200C",
"5  c #162F0B",
"6  c #162F0D",
"7  c #152E0E",
"8  c #152E0F",
"9  c #162E0E",
"0  c #182C0C",
"q  c #1A300D",
"w  c #1C330F",
"e  c #172011",
"r  c #182510",
"t  c #1C2616",
"y  c #152E11",
"u  c #152D12",
"i  c #142D13",
"p  c #192811",
"a  c #1F2C17",
"s  c #1F2E16",
"d  c #1C3213",
"f  c #1E3212",
"g  c #1E3216",
"h  c #203613",
"j  c #203C11",
"k  c #223916",
"l  c #243B17",
"z  c #233C18",
"x  c #273D1A",
"c  c #27391C",
"v  c #283A1D",
"b  c #283D1C",
"n  c #000A22",
"m  c #000A23",
"M  c #000A24",
"N  c #010D24",
"B  c #000829",
"V  c #000A28",
"C  c #000D2A",
"Z  c #000E2B",
"A  c #031320",
"S  c #081E27",
"D  c #031528",
"F  c #03152B",
"G  c #041728",
"H  c #00122C",
"J  c #061C2A",
"K  c #001030",
"L  c #031632",
"P  c #021535",
"I  c #021839",
"U  c #031A39",
"Y  c #092333",
"T  c #2B3F20",
"R  c #29401C",
"E  c #2C431F",
"W  c #284A19",
"Q  c #2E4E1B",
"!  c #33621B",
"~  c #3D731F",
"^  c #2D4122",
"/  c #2E4223",
"(  c #2D4420",
")  c #2E4521",
"_  c #314824",
"`  c #324825",
"'  c #344B27",
"]  c #364C29",
"[  c #345621",
"{  c #405C2F",
"}  c #435E33",
"|  c #40642B",
" . c #42642E",
".. c #4C6A3A",
"X. c #4E7C33",
"o. c #537D3B",
"O. c #021A43",
"+. c #031B45",
"@. c #031C44",
"#. c #052140",
"$. c #032154",
"%. c #05295A",
"&. c #011F63",
"*. c #001F6F",
"=. c #012069",
"-. c #073264",
";. c #012170",
":. c #002077",
">. c #012B79",
",. c #053778",
"<. c #567941",
"1. c #478A24",
"2. c #478A25",
"3. c #4A842B",
"4. c #4F8C2D",
"5. c #558C35",
"6. c #539630",
"7. c #5F9C3D",
"8. c #63A33E",
"9. c #5D8745",
"0. c #639248",
"q. c #618A50",
"w. c #67A344",
"e. c #6DAC48",
"r. c #6FAF4A",
"t. c #73AF51",
"y. c #75AF54",
"u. c #78AD59",
"i. c #78B654",
"p. c #7AB955",
"a. c #7EB360",
"s. c #87BD67",
"d. c #85C560",
"f. c #86C661",
"g. c #8CCB67",
"h. c #8DC96B",
"j. c #8FCF6A",
"k. c #90CA6F",
"l. c #97D672",
"z. c #9DDD78",
"x. c #002B81",
"c. c #003A8A",
"v. c None",
/* pixels */
"v.v.v.v.v.v.v.v.v.v.v.v.v.v.v.v.v.v.v.v.v.v.v.v.v.v.v.v.v.",
"v.J = G . 1   v.v.v.v.v.v.v.v.v.v.v.v.v.v.v.v.v.v.v.v.v.v.",
"v.+.m &.n $.: #.- Y v.v.v.v.v.v.v.v.v.v.v.v.v.v.v.v.v.v.v.",
"v.O.M *.B :.Z >.H ,.2 ! @ Q + l v.v.v.v.v.v.v.v.v.v.v.v.v.",
"v.I M *.B :.Z x.K c.u 1.q 4.f 5.d X.r  .% ) # v.v.v.v.v.v.",
"v.P M *.B :.Z x.K c.i 2.w 6.h 8.z e.x t.b y.v 9.a <.e ..v.",
"v.L M *.B :.Z x.K c.6 1.w 6.h 8.z r.R p.( f._ g.` h.^ s.v.",
"v.F M *.B :.Z x.K c.y 1.w 6.h 8.z r.R p.( f._ j.' l.] z.v.",
"v.D M *.B :.Z x.K c.8 1.w 6.h 8.z r.R p.( f._ j.' l.] z.v.",
"v.A M *.B :.Z x.K c.9 1.w 6.h 8.z r.R p.( f._ j.' l.] z.v.",
"v.< M *.B :.Z x.K c.7 1.w 6.h 8.z r.R p.( f._ j.' l.] z.v.",
"v.< M *.B :.Z x.K c.5 1.w 6.h 8.z r.R p.( f._ j.' l.] z.v.",
"v., m =.V ;.C x.K c.5 1.w 6.h 8.z r.R p.( f._ j.' l.] z.v.",
"v.v.* U ; @.: %.N -.3 ~ 0 3.g 7.k w.x i.E d._ j.' l.] z.v.",
"v.v.v.v.v.v.  > X S o j O W $ [ 4 | p o.s 0.c u.T a./ k.v.",
"v.v.v.v.v.v.v.v.v.v.v.v.v.v.v.v.v.v.v.v.v._ & { e } t q.v.",
"v.v.v.v.v.v.v.v.v.v.v.v.v.v.v.v.v.v.v.v.v.v.v.v.v.v.v.v.v.",
"v.v.v.v.v.v.v.v.v.v.v.v.v.v.v.v.v.v.v.v.v.v.v.v.v.v.v.v.v."
};
