/* XPM */
static char *result[] = {
/* columns rows colors chars-per-pixel */
"29 18 40 1 ",
"  c #030C00",
". c #071200",
"X c #071500",
"o c #0A1404",
"O c #0A1901",
"+ c #0A1902",
"@ c #0B1D00",
"# c #0A1F00",
"$ c #0B1F00",
"% c #0C2000",
"& c #0C2100",
"* c #0C2300",
"= c #0B2400",
"- c #0F2502",
"; c #0C2004",
": c #0E2800",
"> c #0F2900",
", c #102703",
"< c #102B00",
"1 c #112D00",
"2 c #112F00",
"3 c #122807",
"4 c #122B07",
"5 c #103200",
"6 c #133500",
"7 c #143600",
"8 c #173E00",
"9 c #173F01",
"0 c #1B3D07",
"q c #174000",
"w c #1E4D02",
"e c #205800",
"r c #225D00",
"t c #25530A",
"y c #246100",
"u c #256403",
"i c #266903",
"p c #2E6D0C",
"a c #30730D",
"s c None",
/* pixels */
"sssssssssssssssssssssssssssss",
"s1.> ssssssssssssssssssssssss",
"sq$e#wO0ossssssssssssssssssss",
"s8%y=i,p3ssssssssssssssssssss",
"s6%y=i,a4ssssssssssssssssssss",
"s5%y=i,a4ssssssssssssssssssss",
"s2%y=i,a4ssssssssssssssssssss",
"s<%y=i,a4ssssssssssssssssssss",
"s:%y=i,a4ssssssssssssssssssss",
"s&%y=i,a4ssssssssssssssssssss",
"s@%y=i,a4ssssssssssssssssssss",
"s@%y=i,a4ssssssssssssssssssss",
"ss$r*u-a4ssssssssssssssssssss",
"ss.7X9+t;ssssssssssssssssssss",
"sssssssssssssssssssssssssssss",
"sssssssssssssssssssssssssssss",
"sssssssssssssssssssssssssssss",
"sssssssssssssssssssssssssssss"
};
