/* XPM */
static char *result[] = {
/* columns rows colors chars-per-pixel */
"47 55 239 2 ",
"   c #001E23",
".  c #002323",
"X  c #052427",
"o  c #052429",
"O  c #09272C",
"+  c #00292E",
"@  c #002E2E",
"#  c #0A292B",
"$  c #082A2E",
"%  c #0D2B2F",
"&  c #092C2C",
"*  c #0A2D2F",
"=  c #0B2D2F",
"-  c #0C2C2F",
";  c #0D322D",
":  c #0E322D",
">  c #12312B",
",  c #13332B",
"<  c #14332B",
"1  c #16322E",
"2  c #14342C",
"3  c #052E30",
"4  c #072E31",
"5  c #092A31",
"6  c #0D2B30",
"7  c #092F31",
"8  c #092F32",
"9  c #122E32",
"0  c #172D32",
"q  c #063532",
"w  c #093032",
"e  c #093132",
"r  c #0A3232",
"t  c #0D3132",
"y  c #0E3132",
"u  c #0F3233",
"i  c #093237",
"p  c #0A3534",
"a  c #0B3635",
"s  c #093737",
"d  c #0F3535",
"f  c #0D3737",
"g  c #0A3935",
"h  c #0A3936",
"j  c #0D3935",
"k  c #0F3A35",
"l  c #0D3837",
"z  c #0F3936",
"x  c #0E3837",
"c  c #0F3138",
"v  c #0F383D",
"b  c #143230",
"n  c #173232",
"m  c #163533",
"M  c #103335",
"N  c #113237",
"B  c #123434",
"V  c #163634",
"C  c #143636",
"Z  c #1F3630",
"A  c #103934",
"S  c #103B37",
"D  c #183832",
"F  c #183834",
"G  c #1A3A35",
"H  c #1A3A36",
"J  c #1F3937",
"K  c #163439",
"L  c #16373E",
"P  c #183238",
"I  c #18373A",
"U  c #123B38",
"Y  c #143839",
"T  c #163939",
"R  c #163C38",
"E  c #173C3B",
"W  c #1B3E3A",
"Q  c #1F3F39",
"!  c #1B3A3F",
"~  c #1F393E",
"^  c #2A282E",
"/  c #3B252A",
"(  c #362F34",
")  c #233732",
"_  c #243A33",
"`  c #243F33",
"'  c #263B34",
"]  c #213C36",
"[  c #243D38",
"{  c #2A3A3A",
"}  c #283F3A",
"|  c #363434",
" . c #3B3335",
".. c #3E3535",
"X. c #363A3F",
"o. c #43282F",
"O. c #54272C",
"+. c #58272C",
"@. c #54292D",
"#. c #502E2E",
"$. c #4D2C31",
"%. c #4D2F36",
"&. c #443134",
"*. c #463035",
"=. c #443535",
"-. c #463635",
";. c #4D3131",
":. c #443F3B",
">. c #553237",
",. c #513636",
"<. c #543737",
"1. c #583237",
"2. c #6F2F30",
"3. c #692D34",
"4. c #6E2D34",
"5. c #782B30",
"6. c #7A2E35",
"7. c #7E2F36",
"8. c #633338",
"9. c #6F353A",
"0. c #6F3A3A",
"q. c #6D3E3C",
"w. c #773132",
"e. c #783030",
"r. c #78363B",
"t. c #7E373B",
"y. c #713C3F",
"u. c #783B3B",
"i. c #164138",
"p. c #16413B",
"a. c #16443C",
"s. c #1B4239",
"d. c #1B413A",
"f. c #1B453A",
"g. c #1D403E",
"h. c #2D4037",
"j. c #2D4437",
"k. c #24453D",
"l. c #24463C",
"z. c #2C403D",
"x. c #2D433C",
"c. c #24493D",
"v. c #294C3E",
"b. c #38463D",
"n. c #163F44",
"m. c #1E3C42",
"M. c #1F3E43",
"N. c #164043",
"B. c #164444",
"V. c #154447",
"C. c #1F4148",
"Z. c #1B4549",
"A. c #1F4449",
"S. c #1C4749",
"D. c #1C454A",
"F. c #1C4A4A",
"G. c #1F4D4D",
"H. c #224340",
"J. c #2A4044",
"K. c #244F45",
"L. c #2D4B40",
"P. c #2D4A41",
"I. c #2D4F41",
"U. c #26484F",
"Y. c #29484D",
"T. c #2C4A4F",
"R. c #2C4F4F",
"E. c #3B4740",
"W. c #384941",
"Q. c #3B4C40",
"!. c #3F4D43",
"~. c #27534D",
"^. c #2C5C4C",
"/. c #345143",
"(. c #345044",
"). c #345544",
"_. c #385147",
"`. c #3B524A",
"'. c #3F564B",
"]. c #294B52",
"[. c #2D4B50",
"{. c #2A4C53",
"}. c #235151",
"|. c #265053",
" X c #255457",
".X c #2D5050",
"XX c #295357",
"oX c #295456",
"OX c #295757",
"+X c #2A5358",
"@X c #2C555A",
"#X c #2D565B",
"$X c #2E595B",
"%X c #325F52",
"&X c #33575B",
"*X c #305A5D",
"=X c #315B5E",
"-X c #315A5F",
";X c #3C6569",
":X c #3C656A",
">X c #3D666B",
",X c #404C42",
"<X c #434E42",
"1X c #404F46",
"2X c #494E42",
"3X c #504843",
"4X c #495146",
"5X c #43584D",
"6X c #555646",
"7X c #55594B",
"8X c #735649",
"9X c #796844",
"0X c #796D44",
"qX c #446368",
"wX c #44666D",
"eX c #4A696E",
"rX c #457373",
"tX c #4A7378",
"yX c #56777E",
"uX c #B41E23",
"iX c #942E34",
"pX c #8C3132",
"aX c #85383C",
"sX c #93383D",
"dX c #94393E",
"fX c #943E3E",
"gX c #B42323",
"hX c #B42128",
"jX c #834845",
"kX c #A04644",
"lX c #BC4145",
"zX c #A7AB56",
"xX c #A7AE5B",
"cX c #A7B056",
"vX c #032184",
"bX c #0C3B86",
"nX c #5A8488",
"mX c #37FFFF",
"MX c None",
/* pixels */
"MXMXMXMXMXMXMXMXMXMXMXMXMXMXMXMXMXMXMXMXMXMXMXMXMXMXMXMXMXMXMXMXMXMXMXMXMXMXMXMXMXMXMXMXMXMXMX",
"MXMXMXMXMXMXMXMXMXMXMXMXMXMXMXMXMXMXMXMXMXMXMXMXMXMXMXMXMXMXMXMXMXMXMXMXMXMXMXMXMXMXMXMXMXMXMX",
"MXMXMXMXMXMXMXMXMXmXMXMXMXMXMXMXMXMXMXMXMXMXMXMXMXMXMXMXMXMXMXMXMXMXMXMXMXMXMXMXMXMXMXMXMXMXMX",
"MXMXMXMXMXMXMXMXmXmXmXMXMXMXMXMXMXMXMXMXMXMXMXMXMXMXMXMXMXMXMXMXMXMXMXMXMXMXMXMXMXMXMXMXMXMXMX",
"MXMXMXMXMXMXMXmXmXmXMXMXMXMXMXMXMXMXMXMXMXMXMXMXMXMXMXMXMXMXMXMXMXMXMXMXMXMXMXMXMXMXMXMXMXMXMX",
"MXMXMXMXMXMXmXmXmXMXMXMXMXMXMXMXMXMXMXMXMXMXMXMXMXMXMXMXMXMXMXMXMXMXMXMXMXMXMXMXMXMXMXMXMXMXMX",
"MXMXMXMXMXmXMXmXMXMXMXMXMXMXMXMXMXMXMXMXMXMXMXMXMXMXMXMXMXMXMXMXMXMXMXMXMXMXMXMXMXMXMXMXMXMXMX",
"MXMXMXMXmXMXMXMXMXMXMXMXMXMXMXMXMXMXMXMXMXMXMXMXMXMXMXMXMXMXMXMXMXMXMXMXMXMXMXMXMXMXMXMXMXMXMX",
"MXMXMXMXmXMXMXMXMXMXMXMXMXMXMXMXMXMXMXMXMXMXMXMXMXMXMXMXMXMXMXMXMXMXMXMXMXMXMXMXMXMXMXMXMXMXMX",
"MXMXMXMXmXMXMXMXMXMXMXMXMXMXMXMXMXMXMXMXMXMXMXMXMXMXMXMXMXMXMXMXMXMXMXMXMXMXMXMXMXMXMXMXMXMXMX",
"MXMXMXMXmXMXMXMXMXMXMXMXMXMXMXMXMXMXMXMXMXMXMXMXMXMXMXMXMXMXMXMXMXMXMXMXMXMXMXMXMXMXMXMXMXMXMX",
"MXMXMXMXmXMXMXMXMXMXMXMXMXMXMXMXMXMXMXMXMXMXMXMXMXMXMXMXMXMXMXMXMXMXMXMXMXMXMXMXMXMXMXMXMXMXMX",
"MXMXMXMXmXMXMXMXMXMXMXMXMXMXMXMXMXMXMXMXMXMXMXMXMXMXMXMXMXMXMXMXMXMXMXMXMXMXMXMXMXMXMXMXMXMXMX",
"MXMXMXMXmXMXMXMXMXMXMXMXMXMXMXMXMXMXMXMXMXMXMXMXMXMXMXMXMXMXMXMXMXMXMXMXMXMXMXMXMXMXMXMXMXMXMX",
"MXMXMXMXmXMXMXMXMXMXMXMXMXMXMXMXMXMXMXMXMXMXMXMXMXMXMXMXMXMXMXMXMXMXMXMXMXMXMXMXMXMXMXMXMXMXMX",
"MXMXMXMXmXMXMXMXMXMXMXMXMXMXMXMXMXMXMXMXMX|.N.N.N.V.V.V.V. XMXMXMXMXMXMXMXMXMXMXMXMXMXMXMXMXMX",
"MXMXMXMXmXMXMXMXMXMXMXMXMXMXC.C.L C.C.L 5 L 5 5 5 5 5 5 5 L 5 L C.C.L C.C.MXMXMXMXMXMXMXMXMXMX",
"MXMXMXMXmXMXMXMXMXMXMXMXG.0.fXfXfXfXu.B.B.B.s s s s s s s B.B.B.u.fXfXfXfX0.G.MXMXMXMXMXMXMXMX",
"MXMXMXMXmXMXMXMXMXMXMXm.5.5.iXiXiXiX5.M.K K K O O O O O K K K ( 5.iXiXiXiX5.5.( MXMXMXMXMXMXMX",
"MXMXMXMXmXMXMXMXMXMXZ.9.r.aXdXdXdXr.9.1.n.v v i i i i i v v n.1.9.r.dXdXdXaXr.9.A.MXMXMXMXMXMX",
"MXMXMXMXmXMXMXMXMXMX{ w.e.e.e.e.2.2.e.pXQ.2.T u & & & u T 2.Q.pXe.2.2.e.e.e.e.e.| MXMXMXMXMXMX",
"MXMXMXMXmXMXMXMXMXMXJ.1.8.9.9.1.J.aXdX'._.aXr.D.i v i D.r.aX_.3XjXaXX.1.9.9.8.1.X.MXMXMXMXMXMX",
"MXMXMXMXmXMXMXMXMXMX! K K ! +.K P @.5.b.,X5.5.5.+.! K 5.5.5.<XE.5.#.K K +.~ K K ~ MXMXMXMXMXMX",
"MXMXMXMXmXMXMXMXMXMXMXMXMXMXMXf  .>.sX`.5XlXlXkX+X-X#X&X+Xy.5X`.8X:.*.x MXMXMXMXMXMXMXMXMXMXMX",
"MXMXMXMXmXMXMXMXMXMXMXMXMXMXMX- ^ o.-.W.1X7.7.3.c hXc hXc 4.1XW.v.| C = MXMXMXMXMXMXMXMXMXMXMX",
"MXMXMXMXmXMXMXMXMXMXMXMXMXMXMXp z J W g.H.&...} $X*X=X=X$X~.H.g.p.W S p MXMXMXMXMXMXMXMXMXMXMX",
"MXMXMXMXmXMXMXMXMXMXMXMXMXMXMXMX* $ %.% 9 xXB y t M c I N 7X4Xx.x.$ = MXMXMXMXMXMXMXMXMXMXMXMX",
"MXMXMXMXmXMXMXMXMXMXMXMXMXMXMXMXg q n A U 0X,.=.h a.<.^.bXI.).c.c.q g MXMXMXMXMXMXMXMXMXMXMXMX",
"MXMXMXMXmXMXMXMXMXMXMXMXMXMXMXMX# X $.) Z zX/ / b D O.] vX1 qXY.1 X # MXMXMXMXMXMXMXMXMXMXMXMX",
"MXMXMXMXmXMXMXMXMXMXMXMXMXMXMXMXMXl 0 8 3 9X;X:X:X%X>X>X>XP.XXD.k.x MXMXMXMXMXMXMXMXMXMXMXMXMX",
"MXMXMXMXmXMXMXMXMXMXMXMXMXMXMXMXMX; ;.j.` cXR.R.R.gX.X.X.X, > < 2 : MXMXMXMXMXMXMXMXMXMXMXMXMX",
"MXMXMXMXmXMXMXMXMXMXMXMXMXMXMXMXMXl 0 8 7 9X@XnX@Xv #XnX#Xe r w 4 x MXMXMXMXMXMXMXMXMXMXMXMXMX",
"MXMXMXMXmXMXMXMXMXMXMXMXMXMXMXh.h.F F ' z.V T.eXT.uX[.eX[.H z.' Q G 6X2XMXMXMXMXMXMXMXMXMXMXMX",
"MXMXMXMXmXMXMXMXMXMXMXMXMXMX(.k.k.d.K.Y E r.@XtX@Xv #XtX#Xt.E Y sXd.P.(.k.MXMXMXMXMXMXMXMXMXMX",
"MXMXMXMXmXMXMXMXMXMXMXMXMXMXwX].m x.6.7X4Xx.L U.L hXL U.L 4Xx.x.q.!.m wX].MXMXMXMXMXMXMXMXMXMX",
"MXMXMXMXmXMXMXMXMXMXMXMXMXMXoXS.l.L.s.L./.l.l.s.a j a s.L./.l.l.s./.L.oXS.MXMXMXMXMXMXMXMXMXMX",
"MXMXMXMXmXMXMXMXMXMXMXMXMXMXm m m [ !.m wX].m x.yX{.yX!.m wX].m x.m m m m MXMXMXMXMXMXMXMXMXMX",
"MXMXMXMXmXMXMXMXMXMXMXMXMXMXf.i.k @ ).I.OXF.c.I.rX}.rX).I.OXF.c.I.k i.f.i.MXMXMXMXMXMXMXMXMXMX",
"MXmXmXMXmXMXMXMXMXMXMXMXMXMX        1 1 1 1 1 _ 6 o 6 1 1 1 1 1 _         MXMXMXMXMXMXMXMXMXMX",
"MXmXmXMXmXMXMXMXMXMXMXMXMXMXMXMXMXMXd R d.R d + MXMXMXd R d.R d + MXMXMXMXMXMXMXMXMXMXMXMXMXMX",
"MXmXmXMXmXMXMXMXMXMXMXMXMXMXMXMXMXMXMX. . . . MXMXMXMXMX. . . . MXMXMXMXMXMXMXMXMXMXMXMXMXMXMX",
"MXmXmXMXmXMXMXMXMXMXMXMXMXMXMXMXMXMXMXMXMXMXMXMXMXMXMXMXMXMXMXMXMXMXMXMXMXMXMXMXMXMXMXMXMXMXMX",
"MXmXmXMXmXMXMXMXMXMXMXMXMXMXMXMXMXMXMXMXMXMXMXMXMXMXMXMXMXMXMXMXMXMXMXMXMXMXMXMXMXMXMXMXMXMXMX",
"MXmXmXMXmXMXMXMXMXMXMXMXMXMXMXMXMXMXMXMXMXMXMXMXMXMXMXMXMXMXMXMXMXMXMXMXMXMXMXMXMXMXMXMXMXMXMX",
"MXmXmXMXmXMXMXMXMXMXMXMXMXMXMXMXMXMXMXMXMXMXMXMXMXMXMXMXMXMXMXMXMXMXMXMXMXMXMXMXMXMXMXMXMXMXMX",
"MXMXMXMXmXMXMXMXMXMXMXMXMXMXMXMXMXMXMXMXMXMXMXMXMXMXMXMXMXMXMXMXMXMXMXMXMXMXMXMXMXMXMXMXMXMXMX",
"MXMXMXMXmXMXMXMXMXMXMXMXMXMXMXMXMXMXMXMXMXMXMXMXMXMXMXMXMXMXMXMXMXMXMXMXMXMXMXMXMXMXMXMXmXMXMX",
"MXMXMXMXmXMXMXMXMXMXMXMXMXMXMXMXMXMXMXMXMXMXMXMXMXMXMXMXMXMXMXMXMXMXMXMXMXMXMXMXMXMXMXmXmXmXMX",
"MXMXMXMXMXmXMXMXMXMXMXMXMXMXMXMXMXMXMXMXMXMXMXMXMXMXMXMXMXMXMXMXMXMXMXMXMXMXMXMXMXMXmXmXmXMXMX",
"MXMXMXMXMXMXmXMXMXMXMXMXMXMXMXMXMXMXMXMXMXMXMXMXMXMXMXMXMXMXMXMXMXMXMXMXMXMXMXMXMXmXmXmXMXMXMX",
"MXMXMXMXMXMXMXMXmXmXmXMXMXMXMXMXMXMXMXMXMXMXMXMXMXMXMXMXMXMXMXMXMXMXMXMXMXMXMXMXMXMXmXMXMXMXMX",
"MXMXMXMXMXMXMXmXMXMXMXmXMXMXMXMXMXMXMXMXMXMXMXMXMXMXMXMXMXMXMXMXMXMXMXMXMXMXMXMXMXmXMXMXMXMXMX",
"MXMXMXMXMXMXMXmXMXMXMXmXMXmXmXmXmXmXmXmXmXmXmXmXmXmXmXmXmXmXmXmXmXmXmXmXmXmXmXmXmXMXMXMXMXMXMX",
"MXMXMXMXMXMXMXmXMXMXMXmXMXMXMXMXMXMXMXMXMXMXMXMXMXMXMXMXMXMXMXMXMXMXMXMXMXMXMXMXMXMXMXMXMXMXMX",
"MXMXMXMXMXMXMXMXmXmXmXMXMXMXMXMXMXMXMXMXMXMXMXMXMXMXMXMXMXMXMXMXMXMXMXMXMXMXMXMXMXMXMXMXMXMXMX"
};
