/* XPM */
static char *result[] = {
/* columns rows colors chars-per-pixel */
"47 55 243 2 ",
"   c #001E23",
".  c #052326",
"X  c #092527",
"o  c #072826",
"O  c #092826",
"+  c #092927",
"@  c #092A27",
"#  c #092B27",
"$  c #0A2C27",
"%  c #002128",
"&  c #09272C",
"*  c #00292E",
"=  c #06282D",
"-  c #002E2E",
";  c #0F2A2B",
":  c #092C2C",
">  c #0A2D2F",
",  c #0D2C2C",
"<  c #0D2E2D",
"1  c #0E2E2D",
"2  c #0F2D2F",
"3  c #172227",
"4  c #172727",
"5  c #17252C",
"6  c #102D2F",
"7  c #142D2F",
"8  c #0D322D",
"9  c #0E322D",
"0  c #16322E",
"q  c #092A31",
"w  c #0A2D30",
"e  c #0B2D31",
"r  c #0F2E33",
"t  c #122F33",
"y  c #053332",
"u  c #053333",
"i  c #083332",
"p  c #0D3031",
"a  c #0E3132",
"s  c #0F3233",
"d  c #093335",
"f  c #093237",
"g  c #0A3534",
"h  c #0B3534",
"j  c #0A3435",
"k  c #0B3435",
"l  c #093737",
"z  c #0D3434",
"x  c #0A3935",
"c  c #0D3936",
"v  c #0D3837",
"b  c #0E3936",
"n  c #0E3837",
"m  c #08373A",
"M  c #0D3B3B",
"N  c #0F393C",
"B  c #0F383D",
"V  c #103233",
"C  c #173131",
"Z  c #163533",
"A  c #123736",
"S  c #143636",
"D  c #1B3630",
"F  c #123836",
"G  c #133936",
"H  c #143936",
"J  c #163837",
"K  c #143A37",
"L  c #163E37",
"P  c #1B3B33",
"I  c #1B3934",
"U  c #163439",
"Y  c #16373E",
"T  c #1D3739",
"R  c #113B3B",
"E  c #113C39",
"W  c #123D39",
"Q  c #103C3A",
"!  c #163C38",
"~  c #143E3B",
"^  c #1B3E3A",
"/  c #1B3A3F",
"(  c #1C3F3D",
")  c #243A33",
"_  c #243D38",
"`  c #223A3C",
"'  c #542A31",
"]  c #4D373B",
"[  c #4D383A",
"{  c #4D3B3B",
"}  c #543737",
"|  c #1F4034",
" . c #164138",
".. c #14423B",
"X. c #16413E",
"o. c #1D413A",
"O. c #1E423A",
"+. c #1E423B",
"@. c #1F453B",
"#. c #18403E",
"$. c #18433E",
"%. c #18433F",
"&. c #18493B",
"*. c #18483C",
"=. c #19493D",
"-. c #1D493F",
";. c #1F4A3F",
":. c #2D4037",
">. c #244D36",
",. c #24443B",
"<. c #23473C",
"1. c #24453D",
"2. c #24463C",
"3. c #26453E",
"4. c #2D433C",
"5. c #24493D",
"6. c #25493D",
"7. c #284939",
"8. c #294939",
"9. c #344539",
"0. c #34483E",
"q. c #384B3D",
"w. c #245136",
"e. c #255238",
"r. c #2B583D",
"t. c #325B3F",
"y. c #325F3F",
"u. c #795D3A",
"i. c #79623A",
"p. c #79603F",
"a. c #163F44",
"s. c #1C3B40",
"d. c #1C3F40",
"f. c #1C3E45",
"g. c #164043",
"h. c #164444",
"j. c #154447",
"k. c #1E4142",
"l. c #1F4343",
"z. c #1A4540",
"x. c #1F4A43",
"c. c #1F4148",
"v. c #1B4549",
"b. c #1C454A",
"n. c #1E474C",
"m. c #1F494D",
"M. c #1F4A4C",
"N. c #1E4C4C",
"B. c #1F4D4D",
"V. c #1F4E51",
"C. c #214C40",
"Z. c #2D4B40",
"A. c #2D4A41",
"S. c #23444B",
"D. c #274A49",
"F. c #26484F",
"G. c #2C4A48",
"H. c #29484D",
"J. c #2A494E",
"K. c #2C4A4F",
"L. c #2C4F4F",
"P. c #3B4740",
"I. c #2C5046",
"U. c #295444",
"Y. c #245840",
"T. c #2A564A",
"R. c #325447",
"E. c #3F5041",
"W. c #385147",
"Q. c #3F5647",
"!. c #325E44",
"~. c #3B5F45",
"^. c #3B524A",
"/. c #3F5549",
"(. c #264F54",
"). c #294B52",
"_. c #2D4B50",
"`. c #304E54",
"'. c #314F54",
"]. c #2D5050",
"[. c #295357",
"{. c #2E5057",
"}. c #295456",
"|. c #2A5557",
" X c #295757",
".X c #2C555A",
"XX c #2D565B",
"oX c #3D5F52",
"OX c #305158",
"+X c #315259",
"@X c #3C5B5F",
"#X c #2D664A",
"$X c #386045",
"%X c #3E6246",
"&X c #3F6246",
"*X c #386545",
"=X c #326149",
"-X c #326549",
";X c #38634A",
":X c #386B4F",
">X c #3C6B4F",
",X c #38704F",
"<X c #3E6D51",
"1X c #3C5B60",
"2X c #3D5B61",
"3X c #434E42",
"4X c #405242",
"5X c #40574C",
"6X c #43584D",
"7X c #49594B",
"8X c #495A4B",
"9X c #49594C",
"0X c #44674B",
"qX c #446C4B",
"wX c #55624F",
"eX c #4A704C",
"rX c #4A704D",
"tX c #556150",
"yX c #487155",
"uX c #487555",
"iX c #47735B",
"pX c #48745A",
"aX c #45676E",
"sX c #4A696E",
"dX c #446F71",
"fX c #446E72",
"gX c #447272",
"hX c #4A7378",
"jX c #5A7E7E",
"kX c #28A52E",
"lX c #3FEA2E",
"zX c #44F92E",
"xX c #48805F",
"cX c #548054",
"vX c #618B5C",
"bX c #A7B75F",
"nX c #A7B660",
"mX c #A7BA60",
"MX c #0C2E81",
"NX c #03318E",
"BX c #568082",
"VX c #37FFFF",
"CX c None",
/* pixels */
"CXCXCXCXCXCXCXCXCXCXCXCXCXCXCXCXCXCXCXCXCXCXCXCXCXCXCXCXCXCXCXCXCXCXCXCXCXCXCXCXCXCXCXCXCXCXCX",
"CXCXCXCXCXCXCXCXCXCXCXCXCXCXCXCXCXCXCXCXCXCXCXCXCXCXCXCXCXCXCXCXCXCXCXCXCXCXCXCXCXCXCXCXCXCXCX",
"CXCXCXCXCXCXCXCXCXVXCXCXCXCXCXCXCXCXCXCXCXCXCXCXCXCXCXCXCXCXCXCXCXCXCXCXCXCXCXCXCXCXCXCXCXCXCX",
"CXCXCXCXCXCXCXCXVXVXVXCXCXCXCXCXCXCXCXCXCXCXCXCXCXCXCXCXCXCXCXCXCXCXCXCXCXCXCXCXCXCXCXCXCXCXCX",
"CXCXCXCXCXCXCXVXVXVXCXCXCXCXCXCXCXCXCXCXCXCXCXCXCXCXCXCXCXCXCXCXCXCXCXCXCXCXCXCXCXCXCXCXCXCXCX",
"CXCXCXCXCXCXVXVXVXCXCXCXCXCXCXCXCXCXCXCXCXCXCXCXCXCXCXCXCXCXCXCXCXCXCXCXCXCXCXCXCXCXCXCXCXCXCX",
"CXCXCXCXCXVXCXVXCXCXCXCXCXCXCXCXCXCXCXCXCXCXCXCXCXCXCXCXCXCXCXCXCXCXCXCXCXCXCXCXCXCXCXCXCXCXCX",
"CXCXCXCXVXCXCXCXCXCXCXCXCXCXCXCXCXCXCXCXCXCXCXCXCXCXCXCXCXCXCXCXCXCXCXCXCXCXCXCXCXCXCXCXCXCXCX",
"CXCXCXCXVXCXCXCXCXCXCXCXCXCXCXCXCXCXCXCXCXCXCXCXCXCXCXCXCXCXCXCXCXCXCXCXCXCXCXCXCXCXCXCXCXCXCX",
"CXCXCXCXVXCXCXCXCXCXCXCXCXCXCXCXCXCXCXCXCXCXCXCXCXCXCXCXCXCXCXCXCXCXCXCXCXCXCXCXCXCXCXCXCXCXCX",
"CXCXCXCXVXCXCXCXCXCXCXCXCXCXCXCXCXCXCXCXCXCXCXCXCXCXCXCXCXCXCXCXCXCXCXCXCXCXCXCXCXCXCXCXCXCXCX",
"CXCXCXCXVXCXCXCXCXCXCXCXCXCXCXCXCXCXCXCXCXCXCXCXCXCXCXCXCXCXCXCXCXCXCXCXCXCXCXCXCXCXCXCXCXCXCX",
"CXCXCXCXVXCXCXCXCXCXCXCXCXCXCXCXCXCXCXCXCXCXCXCXCXCXCXCXCXCXCXCXCXCXCXCXCXCXCXCXCXCXCXCXCXCXCX",
"CXCXCXCXVXCXCXCXCXCXCXCXCXCXCXCXCXCXCXCXCXCXCXCXCXCXCXCXCXCXCXCXCXCXCXCXCXCXCXCXCXCXCXCXCXCXCX",
"CXCXCXCXVXCXCXCXCXCXCXCXCXCXCXCXCXCXCXCXCXF.Y Y Y Y Y Y Y F.CXCXCXCXCXCXCXCXCXCXCXCXCXCXCXCXCX",
"CXCXCXCXVXCXCXCXCXCXCXCXCXCXM.M.g.M.M.g.d g.d d d m m m m j.m j.V.V.j.V.V.CXCXCXCXCXCXCXCXCXCX",
"CXCXCXCXVXCXCXCXCXCXCXCXc.!.pXpXpXpX;XY Y Y q q q q q q q Y Y Y ;XpXpXpXpX!.c.CXCXCXCXCXCXCXCX",
"CXCXCXCXVXCXCXCXCXCXCXN.,X,XxXxXxXxX,XB.h.h.h.l l l l l h.h.h.B.,XxXxXxXxX,X,XB.CXCXCXCXCXCXCX",
"CXCXCXCXVXCXCXCXCXCX/ t.$X0XyXyXyX$Xt.>.U r r & & & & & r r U >.t.$XyXyXyX0X$Xt.s.CXCXCXCXCXCX",
"CXCXCXCXVXCXCXCXCXCXn.:X:X:X:X:X-X-X:XiX^.-Xa.B f f f B a.-X^.iX:X-X-X:X:X:X:X:Xm.CXCXCXCXCXCX",
"CXCXCXCXVXCXCXCXCXCXk.e.r.y.y.w.k.qXuXE.q.qX*Xd.: s : d.*XqXq.4XuXqXl.w.y.y.r.w.l.CXCXCXCXCXCX",
"CXCXCXCXVXCXCXCXCXCXv.a.a.v.Y.a.a.Y.:XW.5X:X:X:XY.v.a.:X:X:X6X^.:XY.a.a.Y.b.a.a.b.CXCXCXCXCXCX",
"CXCXCXCXVXCXCXCXCXCXCXCXCXCXCX, P 7.eXP.3XvXvXcX&X'._.`.J.oX3XP.eX8.| 1 CXCXCXCXCXCXCXCXCXCXCX",
"CXCXCXCXVXCXCXCXCXCXCXCXCXCXCXj E -.U.W.5X<X<X=XT.lXB lXB #X5XW.U.;.~ k CXCXCXCXCXCXCXCXCXCXCX",
"CXCXCXCXVXCXCXCXCXCXCXCXCXCXCX> a S J T ` +.o.^ ( OX+X+X{.D.` T J J V > CXCXCXCXCXCXCXCXCXCXCX",
"CXCXCXCXVXCXCXCXCXCXCXCXCXCXCXCXg i [ z A bXW b c Q N #.R wX8XZ.Z.i h CXCXCXCXCXCXCXCXCXCXCXCX",
"CXCXCXCXVXCXCXCXCXCXCXCXCXCXCXCX> = 5 6 t p.6.O.w J ' I.MX4.0._ _ = > CXCXCXCXCXCXCXCXCXCXCXCX",
"CXCXCXCXVXCXCXCXCXCXCXCXCXCXCXCXx y { <.@.mX=.&...*.} C.NX .gX X .y x CXCXCXCXCXCXCXCXCXCXCXCX",
"CXCXCXCXVXCXCXCXCXCXCXCXCXCXCXCXCX< 3 X . u.@X1X1XR.2X2X2X:.H.s.) 1 CXCXCXCXCXCXCXCXCXCXCXCXCX",
"CXCXCXCXVXCXCXCXCXCXCXCXCXCXCXCXCXv ] A.1.nX.X.X.XzXXXXXXXG F H K n CXCXCXCXCXCXCXCXCXCXCXCXCX",
"CXCXCXCXVXCXCXCXCXCXCXCXCXCXCXCXCX8 4 + O i.L.jXL.s ].jX].# $ @ o 9 CXCXCXCXCXCXCXCXCXCXCXCXCX",
"CXCXCXCXVXCXCXCXCXCXCXCXCXCXCXA.A.$.%.3.G.X..XhX.XkXXXhXXXz.G.3.x.z.tX9XCXCXCXCXCXCXCXCXCXCXCX",
"CXCXCXCXVXCXCXCXCXCXCXCXCXCX9.) ) D ,.7 C ~.K.sXK.r _.sX_.%XC 7 rXD :.9.) CXCXCXCXCXCXCXCXCXCX",
"CXCXCXCXVXCXCXCXCXCXCXCXCXCXfX[.! A.>XtX9XA.a.(.a.zXa.(.a.7XA.A.<X/.! fX[.CXCXCXCXCXCXCXCXCXCX",
"CXCXCXCXVXCXCXCXCXCXCXCXCXCX).f._ 4.I 4.0._ _ I e p e I 4.0._ _ I 0.4.).f.CXCXCXCXCXCXCXCXCXCX",
"CXCXCXCXVXCXCXCXCXCXCXCXCXCXL L L 2.Q.L dX}.L Z.BX|.BXQ.L dX}.L Z.L L L L CXCXCXCXCXCXCXCXCXCX",
"CXCXCXCXVXCXCXCXCXCXCXCXCXCXI Z 2 % 0.4.).f._ 4.aXS.aX0.4.).f._ 4.2 Z I Z CXCXCXCXCXCXCXCXCXCX",
"CXCXCXCXVXCXCXCXCXCXCXCXCXCX- - - -  . . . . .5.M u M  . . . . .5.- - - - CXCXCXCXCXCXCXCXCXCX",
"CXVXVXCXVXCXCXCXCXCXCXCXCXCXCXCXCXCX; 0 D 0 ;   CXCXCX; 0 D 0 ;   CXCXCXCXCXCXCXCXCXCXCXCXCXCX",
"CXVXVXCXVXCXCXCXCXCXCXCXCXCXCXCXCXCXCX* * * * CXCXCXCXCX* * * * CXCXCXCXCXCXCXCXCXCXCXCXCXCXCX",
"CXVXVXCXVXCXCXCXCXCXCXCXCXCXCXCXCXCXCXCXCXCXCXCXCXCXCXCXCXCXCXCXCXCXCXCXCXCXCXCXCXCXCXCXCXCXCX",
"CXVXVXCXVXCXCXCXCXCXCXCXCXCXCXCXCXCXCXCXCXCXCXCXCXCXCXCXCXCXCXCXCXCXCXCXCXCXCXCXCXCXCXCXCXCXCX",
"CXVXVXCXVXCXCXCXCXCXCXCXCXCXCXCXCXCXCXCXCXCXCXCXCXCXCXCXCXCXCXCXCXCXCXCXCXCXCXCXCXCXCXCXCXCXCX",
"CXVXVXCXVXCXCXCXCXCXCXCXCXCXCXCXCXCXCXCXCXCXCXCXCXCXCXCXCXCXCXCXCXCXCXCXCXCXCXCXCXCXCXCXCXCXCX",
"CXVXVXCXVXCXCXCXCXCXCXCXCXCXCXCXCXCXCXCXCXCXCXCXCXCXCXCXCXCXCXCXCXCXCXCXCXCXCXCXCXCXCXCXCXCXCX",
"CXCXCXCXVXCXCXCXCXCXCXCXCXCXCXCXCXCXCXCXCXCXCXCXCXCXCXCXCXCXCXCXCXCXCXCXCXCXCXCXCXCXCXCXCXCXCX",
"CXCXCXCXVXCXCXCXCXCXCXCXCXCXCXCXCXCXCXCXCXCXCXCXCXCXCXCXCXCXCXCXCXCXCXCXCXCXCXCXCXCXCXCXVXCXCX",
"CXCXCXCXVXCXCXCXCXCXCXCXCXCXCXCXCXCXCXCXCXCXCXCXCXCXCXCXCXCXCXCXCXCXCXCXCXCXCXCXCXCXCXVXVXVXCX",
"CXCXCXCXCXVXCXCXCXCXCXCXCXCXCXCXCXCXCXCXCXCXCXCXCXCXCXCXCXCXCXCXCXCXCXCXCXCXCXCXCXCXVXVXVXCXCX",
"CXCXCXCXCXCXVXCXCXCXCXCXCXCXCXCXCXCXCXCXCXCXCXCXCXCXCXCXCXCXCXCXCXCXCXCXCXCXCXCXCXVXVXVXCXCXCX",
"CXCXCXCXCXCXCXCXVXVXVXCXCXCXCXCXCXCXCXCXCXCXCXCXCXCXCXCXCXCXCXCXCXCXCXCXCXCXCXCXCXCXVXCXCXCXCX",
"CXCXCXCXCXCXCXVXCXCXCXVXCXCXCXCXCXCXCXCXCXCXCXCXCXCXCXCXCXCXCXCXCXCXCXCXCXCXCXCXCXVXCXCXCXCXCX",
"CXCXCXCXCXCXCXVXCXCXCXVXCXVXVXVXVXVXVXVXVXVXVXVXVXVXVXVXVXVXVXVXVXVXVXVXVXVXVXVXVXCXCXCXCXCXCX",
"CXCXCXCXCXCXCXVXCXCXCXVXCXCXCXCXCXCXCXCXCXCXCXCXCXCXCXCXCXCXCXCXCXCXCXCXCXCXCXCXCXCXCXCXCXCXCX",
"CXCXCXCXCXCXCXCXVXVXVXCXCXCXCXCXCXCXCXCXCXCXCXCXCXCXCXCXCXCXCXCXCXCXCXCXCXCXCXCXCXCXCXCXCXCXCX"
};
