/* XPM */
static char *result[] = {
/* columns rows colors chars-per-pixel */
"47 55 98 2 ",
"   c #001E23",
".  c #012225",
"X  c #01232B",
"o  c #09272C",
"O  c #022A2D",
"+  c #09292D",
"@  c #1B292E",
"#  c #012632",
"$  c #022C33",
"%  c #0A2B32",
"&  c #032D3C",
"*  c #043235",
"=  c #093437",
"-  c #02333D",
";  c #0C363A",
":  c #0D3A3C",
">  c #123136",
",  c #13343B",
"<  c #18373C",
"1  c #133C3F",
"2  c #1B3A3F",
"3  c #46292E",
"4  c #635228",
"5  c #052F40",
"6  c #053441",
"7  c #093444",
"8  c #043A45",
"9  c #093A46",
"0  c #08364E",
"q  c #063B49",
"w  c #0A3B4A",
"e  c #133C40",
"r  c #193B42",
"t  c #103F51",
"y  c #07404A",
"u  c #0A414C",
"i  c #134041",
"p  c #184346",
"a  c #1C464A",
"s  c #1C4A4A",
"d  c #0B4353",
"f  c #0D4956",
"g  c #0F4759",
"h  c #0F495B",
"j  c #114355",
"k  c #12445A",
"l  c #13495C",
"z  c #194E5D",
"x  c #224046",
"c  c #24464D",
"v  c #2B4A4F",
"b  c #2C4C53",
"n  c #314F54",
"m  c #2E5057",
"M  c #33535A",
"N  c #38575C",
"B  c #164F63",
"V  c #1C4E64",
"C  c #175465",
"Z  c #1D5264",
"A  c #1A566A",
"S  c #1C5A6B",
"D  c #1C5C74",
"F  c #23556B",
"G  c #245A6D",
"H  c #395A61",
"J  c #295E71",
"K  c #2A6172",
"L  c #266378",
"P  c #2B667A",
"I  c #32667C",
"U  c #4A6443",
"Y  c #647E57",
"T  c #647D5C",
"R  c #51737A",
"E  c #AD9428",
"W  c #376B81",
"Q  c #396D82",
"!  c #36758A",
"~  c #3B7A8F",
"^  c #3D7C91",
"/  c #4D8697",
"(  c #4E8798",
")  c #4A899E",
"_  c #57899F",
"`  c #608289",
"'  c #4E8DA2",
"]  c #5291A6",
"[  c #5F95A5",
"{  c #6395A8",
"}  c #609DB1",
"|  c #66A3B6",
" . c #70A0B3",
".. c #00A4EF",
"X. c #75B0C2",
"o. c #37FFFF",
"O. c #8DC5D4",
"+. c None",
/* pixels */
"+.+.+.+.+.+.+.+.+.+.+.+.+.+.+.+.+.+.+.+.+.+.+.+.+.+.+.+.+.+.+.+.+.+.+.+.+.+.+.+.+.+.+.+.+.+.+.",
"+.+.+.+.+.+.+.+.+.+.+.+.+.+.+.+.+.+.+.+.+.+.+.+.+.+.+.+.+.+.+.+.+.+.+.+.+.+.+.+.+.+.+.+.+.+.+.",
"+.+.+.+.+.+.+.+.+.o.+.+.+.+.+.+.+.+.+.+.+.+.+.+.+.+.+.+.+.+.+.+.+.+.+.+.+.+.+.+.+.+.+.+.+.+.+.",
"+.+.+.+.+.+.+.+.o.o.o.+.+.+.+.+.+.+.+.+.+.+.+.+.+.+.+.+.+.+.+.+.+.+.+.+.+.+.+.+.+.+.+.+.+.+.+.",
"+.+.+.+.+.+.+.o.o.o.+.+.+.+.+.+.+.+.+.+.+.+.+.+.+.+.+.+.+.+.+.+.+.+.+.+.+.+.+.+.+.+.+.+.+.+.+.",
"+.+.+.+.+.+.o.o.o.+.+.+.+.+.+.+.+.+.+.+.+.+.+.+.+.+.+.+.+.+.+.+.+.+.+.+.+.+.+.+.+.+.+.+.+.+.+.",
"+.+.+.+.+.o.+.o.+.+.+.+.+.+.+.+.+.+.+.+.+.+.+.+.+.+.+.+.+.+.+.+.+.+.+.+.+.+.+.+.+.+.+.+.+.+.+.",
"+.+.+.+.o.+.+.+.+.+.+.+.+.+.+.+.+.+.+.+.+.+.+.+.+.+.+.+.+.+.+.+.+.+.+.+.+.+.+.+.+.+.+.+.+.+.+.",
"+.+.+.+.o.+.+.+.+.+.+.+.+.+.+.+.+.+.+.+.+.+.+.+.+.+.+.+.+.+.+.+.+.+.+.+.+.+.+.+.+.+.+.+.+.+.+.",
"+.+.+.+.o.+.+.+.+.+.+.+.+.+.+.+.+.+.+.+.+.+.+.+.+.+.+.+.+.+.+.+.+.+.+.+.+.+.+.+.+.+.+.+.+.+.+.",
"+.+.+.+.o.+.+.+.+.+.+.+.+.+.+.+.+.+.+.+.+.+.+.+.+.+.+.+.+.+.+.+.+.+.+.+.+.+.+.+.+.+.+.+.+.+.+.",
"+.+.+.+.o.+.+.+.+.+.+.+.+.+.+.+.+.+.+.+.+.+.+.+.+.+.+.+.+.+.+.+.+.+.+.+.+.+.+.+.+.+.+.+.+.+.+.",
"+.+.+.+.o.+.+.+.+.+.+.+.+.+.+.+.+.+.+.+.+.+.+.+.+.+.+.+.+.+.+.+.+.+.+.+.+.+.+.+.+.+.+.+.+.+.+.",
"+.+.+.+.o.+.+.+.+.+.+.+.+.+.+.+.+.+.+.+.+.+.+.+.+.+.+.+.+.+.+.+.+.+.+.+.+.+.+.+.+.+.+.+.+.+.+.",
"+.+.+.+.o.+.+.+.+.+.+.+.+.+.+.+.+.+.+.+.+.+.X # & # & $ X +.+.+.+.+.+.+.+.+.+.+.+.+.+.+.+.+.+.",
"+.+.+.+.o.+.+.+.+.+.+.+.+.+.+.; = ; ; +.+.$ $ - 6 q q - - $ +.+.= - ; : +.+.+.+.+.+.+.+.+.+.+.",
"+.+.+.+.o.+.+.+.+.+.+.+.+.+.2 c R H % , . # # # & & 5 # # . # e x ` R p r +.+.+.+.+.+.+.+.+.+.",
"+.+.+.+.o.+.+.+.+.+.+.+.* - S * : : = O q q O - - 8 6 - $ u q $ = : : : f - * +.+.+.+.+.+.+.+.",
"+.+.+.+.o.+.+.+.+.+.+.& Z I _  ..   P 9 . 5 %   .   X   & . . 9 I . . { Q Z V 7 +.+.+.+.+.+.+.",
"+.+.+.+.o.+.+.+.+.+.6 C P ] } | $ O B u # - g A O O $ q & O & w C X O O.X.' P D q +.+.+.+.+.+.",
"+.+.+.+.o.+.+.+.+.+.9 K G z j Z o + G [ / Z 9 k z l u - . Z ( [ G o O I G G G K w +.+.+.+.+.+.",
"+.+.+.+.o.+.+.+.+.+.g h l g u q e * ) ! ! ~ L 6 C l j 8 L ^ ! ! ' a a d A S C h g +.+.+.+.+.+.",
"+.+.+.+.o.+.+.+.+.+.+.. # # 7 . r N G F Z F G J t & # v n v m v G r x . j 5 % X +.+.+.+.+.+.+.",
"+.+.+.+.o.+.+.+.+.+.+.+.+.+.+.$ % O h @ 3 @ 3 @ 3 k 6 .., ..: ..D $ * # +.+.+.+.+.+.+.+.+.+.+.",
"+.+.+.+.o.+.+.+.+.+.+.+.+.+.+.# X X 6 O x O 2 % % w 5 m m m M m 0 X O $ +.+.+.+.+.+.+.+.+.+.+.",
"+.+.+.+.o.+.+.+.+.+.+.+.+.+.+.+.O O & % p $ i 1 : - 6 - - - 6 $ - O % +.+.+.+.+.+.+.+.+.+.+.+.",
"+.+.+.+.o.+.+.+.+.+.+.+.+.+.+.+.X X # 4 E 4 E 4 E X # X # # & & X X . +.+.+.+.+.+.+.+.+.+.+.+.",
"+.+.+.+.o.+.+.+.+.+.+.+.+.+.+.+.+.* * * 8 8 q 8 8 8 u d f y 8 - - $ +.+.+.+.+.+.+.+.+.+.+.+.+.",
"+.+.+.+.o.+.+.+.+.+.+.+.+.+.+.+.+.. X X < < < % M v < + M v < + X   +.+.+.+.+.+.+.+.+.+.+.+.+.",
"+.+.+.+.o.+.+.+.+.+.+.+.+.+.+.+.+.- $ & p s 1 * p a 1 = p a , = & - +.+.+.+.+.+.+.+.+.+.+.+.+.",
"+.+.+.+.o.+.+.+.+.+.+.+.+.+.+.+.+.$ X O + Y U o + Y U O + Y U O O $ +.+.+.+.+.+.+.+.+.+.+.+.+.",
"+.+.+.+.o.+.+.+.+.+.+.+.+.+.+.+.+.- O & % p = O = = = % = * = + $ & +.+.+.+.+.+.+.+.+.+.+.+.+.",
"+.+.+.+.o.+.+.+.+.+.+.+.+.+.+.< < & #   o r + . o o o . o o o . % 5 M b +.+.+.+.+.+.+.+.+.+.+.",
"+.+.+.+.o.+.+.+.+.+.+.+.+.+.a e e ; 8 - r $ $ O $ % $ O $ $ O ; C ; r a e +.+.+.+.+.+.+.+.+.+.",
"+.+.+.+.o.+.+.+.+.+.+.+.+.+.T U % 2 g M b e r k l l l k N b e r k c % T U +.+.+.+.+.+.+.+.+.+.",
"+.+.+.+.o.+.+.+.+.+.+.+.+.+.= = 1 p ; p a e e ; $ O $ ; p s e e ; a p = = +.+.+.+.+.+.+.+.+.+.",
"+.+.+.+.o.+.+.+.+.+.+.+.+.+.% % % , c % T U % 1 F G G c % T U % e % % % % +.+.+.+.+.+.+.+.+.+.",
"+.+.+.+.o.+.+.+.+.+.+.+.+.+.: = = O s s = = i a C C C s p : = e a * = : = +.+.+.+.+.+.+.+.+.+.",
"+.o.o.+.o.+.+.+.+.+.+.+.+.+..       + + + + + > X   X % + + o % >       . +.+.+.+.+.+.+.+.+.+.",
"+.o.o.+.o.+.+.+.+.+.+.+.+.+.+.+.+.+.$ = ; = * O +.+.+.$ = ; = $ O +.+.+.+.+.+.+.+.+.+.+.+.+.+.",
"+.o.o.+.o.+.+.+.+.+.+.+.+.+.+.+.+.+.+.. . . . +.+.+.+.+.. . . . +.+.+.+.+.+.+.+.+.+.+.+.+.+.+.",
"+.o.o.+.o.+.+.+.+.+.+.+.+.+.+.+.+.+.+.+.+.+.+.+.+.+.+.+.+.+.+.+.+.+.+.+.+.+.+.+.+.+.+.+.+.+.+.",
"+.o.o.+.o.+.+.+.+.+.+.+.+.+.+.+.+.+.+.+.+.+.+.+.+.+.+.+.+.+.+.+.+.+.+.+.+.+.+.+.+.+.+.+.+.+.+.",
"+.o.o.+.o.+.+.+.+.+.+.+.+.+.+.+.+.+.+.+.+.+.+.+.+.+.+.+.+.+.+.+.+.+.+.+.+.+.+.+.+.+.+.+.+.+.+.",
"+.o.o.+.o.+.+.+.+.+.+.+.+.+.+.+.+.+.+.+.+.+.+.+.+.+.+.+.+.+.+.+.+.+.+.+.+.+.+.+.+.+.+.+.+.+.+.",
"+.+.+.+.o.+.+.+.+.+.+.+.+.+.+.+.+.+.+.+.+.+.+.+.+.+.+.+.+.+.+.+.+.+.+.+.+.+.+.+.+.+.+.+.+.+.+.",
"+.+.+.+.o.+.+.+.+.+.+.+.+.+.+.+.+.+.+.+.+.+.+.+.+.+.+.+.+.+.+.+.+.+.+.+.+.+.+.+.+.+.+.+.o.+.+.",
"+.+.+.+.o.+.+.+.+.+.+.+.+.+.+.+.+.+.+.+.+.+.+.+.+.+.+.+.+.+.+.+.+.+.+.+.+.+.+.+.+.+.+.o.o.o.+.",
"+.+.+.+.+.o.+.+.+.+.+.+.+.+.+.+.+.+.+.+.+.+.+.+.+.+.+.+.+.+.+.+.+.+.+.+.+.+.+.+.+.+.o.o.o.+.+.",
"+.+.+.+.+.+.o.+.+.+.+.+.+.+.+.+.+.+.+.+.+.+.+.+.+.+.+.+.+.+.+.+.+.+.+.+.+.+.+.+.+.o.o.o.+.+.+.",
"+.+.+.+.+.+.+.+.o.o.o.+.+.+.+.+.+.+.+.+.+.+.+.+.+.+.+.+.+.+.+.+.+.+.+.+.+.+.+.+.+.+.o.+.+.+.+.",
"+.+.+.+.+.+.+.o.+.+.+.o.+.+.+.+.+.+.+.+.+.+.+.+.+.+.+.+.+.+.+.+.+.+.+.+.+.+.+.+.+.o.+.+.+.+.+.",
"+.+.+.+.+.+.+.o.+.+.+.o.+.o.o.o.o.o.o.o.o.o.o.o.o.o.o.o.o.o.o.o.o.o.o.o.o.o.o.o.o.+.+.+.+.+.+.",
"+.+.+.+.+.+.+.o.+.+.+.o.+.+.+.+.+.+.+.+.+.+.+.+.+.+.+.+.+.+.+.+.+.+.+.+.+.+.+.+.+.+.+.+.+.+.+.",
"+.+.+.+.+.+.+.+.o.o.o.+.+.+.+.+.+.+.+.+.+.+.+.+.+.+.+.+.+.+.+.+.+.+.+.+.+.+.+.+.+.+.+.+.+.+.+."
};
