/* XPM */
static char *result[] = {
/* columns rows colors chars-per-pixel */
"66 34 37 1 ",
"  c #758D17",
". c #708819",
"X c #779217",
"o c #789416",
"O c #799416",
"+ c #7E9B15",
"@ c #7C9916",
"# c #7E9A16",
"$ c #809F16",
"% c #83A015",
"& c #85A314",
"* c #88A615",
"= c #8CAE13",
"- c #88A914",
"; c #8AAD14",
": c #8FB013",
"> c #90B314",
", c #93B714",
"< c #94B814",
"1 c #96BA14",
"2 c #96BB14",
"3 c #96BD15",
"4 c #9BC015",
"5 c #9DC516",
"6 c #9DC616",
"7 c #A0C816",
"8 c #A3C916",
"9 c #A4CD16",
"0 c #A4CF17",
"q c #A7D017",
"w c #A8D217",
"e c #AAD317",
"r c #ABD718",
"t c #ADD818",
"y c #AFDA18",
"u c #B0DB18",
"i c None",
/* pixels */
"iiiiiiiiiiiiiiiiiiiiiiiiiiiiiiiiiiiiiiiiiiiiiiiiiiiiiiiiiiiiiiiiii",
"iiiiiiiiiiiiiiiiiiiiiiiiiiiiiiiiiiiiiiiiiiiiiiiiiiiiiiiiiiiiiiiiii",
"iiiiiiiiiiiiiiiiiiiiiiiiiiiiiiiiiiiiiiiiiiiiiiiiiiiiiiiiiiiiiiiiii",
"iiiiiiiiiiiiiiiiiiiiiiiiiiiiiiiiiiiiiiiiiiiiiiiiiiiiiiiiiiiiiiiiii",
"iiiii%%**********OOiiiiiiii%%**********OOiiiiiiii##yyuuuuuuuueeiii",
"iiiii%%**********OOiiiiiiii%%**********OOiiiiiiii##yyuuuuuuuueeiii",
"iii>>$$yyuuuuuuww@@iiiiii>>$$yyuuuuuuww@@iiiiiiiiww@@wwwwww88iiiii",
"iii>>$$yyuuuuuuww@@iiiiii>>$$yyuuuuuuww@@iiiiiiiiww@@wwwwww88iiiii",
"iii6600ii      ooyyiiiiii6600ii      ooyyiiiiiiiiuu>>iiiiiiiiiiiii",
"iii6600ii      ooyyiiiiii6600ii      ooyyiiiiiiiiuu>>iiiiiiiiiiiii",
"iiiqquuiiiiiiii33uuiiiiiiqquuiiiiiiii33uuiiiiii  uu**iiiiiiiiiiiii",
"iiiqquuiiiiiiii33uuiiiiiiqquuiiiiiiii33uuiiiiii  uu**iiiiiiiiiiiii",
"iiirrttiiiiiiii66uuiiiiiirrttiiiiiiii66uuiiiiii&&uu  iiiiiiiiiiiii",
"iiirrttiiiiiiii66uuiiiiiirrttiiiiiiii66uuiiiiii&&uu  iiiiiiiiiiiii",
"iiiuu22iiiiiiii<<yyiiiiiiuu22iiiiiiii<<yyiiiiiiii44==,,,,,,%%iiiii",
"iiiuu22iiiiiiii<<yyiiiiiiuu22iiiiiiii<<yyiiiiiiii44==,,,,,,%%iiiii",
"iiiiiiiiiiiiiiiiiiiiiiiiiiiiiiiiiiiiiiiiiiiiiiiiiiiuuuuuuuurriiiii",
"iiiiiiiiiiiiiiiiiiiiiiiiiiiiiiiiiiiiiiiiiiiiiiiiiiiuuuuuuuurriiiii",
"iii&&iiiiiiiiiiiiXXiiiiii&&iiiiiiiiiiiiXXiiiiiiiiiiiiiiiiii..eeiii",
"iii&&iiiiiiiiiiiiXXiiiiii&&iiiiiiiiiiiiXXiiiiiiiiiiiiiiiiii..eeiii",
"iiiuu--iiiiiiiitt77iiiiiiuu--iiiiiiiitt77iiiiiiiiiiiiiiiiii11uuiii",
"iiiuu--iiiiiiiitt77iiiiiiuu--iiiiiiiitt77iiiiiiiiiiiiiiiiii11uuiii",
"i  uu**iiiiiiiiuu44iiii  uu**iiiiiiiiuu44iiiiiiiiiiiiiiiiii66uuiii",
"i  uu**iiiiiiiiuu44iiii  uu**iiiiiiiiuu44iiiiiiiiiiiiiiiiii66uuiii",
"i%%uu@@iiiiiiiiuu,,iiii%%uu@@iiiiiiiiuu,,iiiiiiiiiiiiiiiiii55uuiii",
"i%%uu@@iiiiiiiiuu,,iiii%%uu@@iiiiiiiiuu,,iiiiiiiiiiiiiiiiii55uuiii",
"i;;77++,,,,,,$$00**iiii;;77++,,,,,,$$00**iiiiiiii$$uuuuuuuu$$99iii",
"i;;77++,,,,,,$$00**iiii;;77++,,,,,,$$00**iiiiiiii$$uuuuuuuu$$99iii",
"iii::uuuuuuuuyy@@iiiiiiii::uuuuuuuuyy@@iiiiiiiiii666666666655iiiii",
"iii::uuuuuuuuyy@@iiiiiiii::uuuuuuuuyy@@iiiiiiiiii666666666655iiiii",
"iiiiiiiiiiiiiiiiiiiiiiiiiiiiiiiiiiiiiiiiiiiiiiiiiiiiiiiiiiiiiiiiii",
"iiiiiiiiiiiiiiiiiiiiiiiiiiiiiiiiiiiiiiiiiiiiiiiiiiiiiiiiiiiiiiiiii",
"iiiiiiiiiiiiiiiiiiiiiiiiiiiiiiiiiiiiiiiiiiiiiiiiiiiiiiiiiiiiiiiiii",
"iiiiiiiiiiiiiiiiiiiiiiiiiiiiiiiiiiiiiiiiiiiiiiiiiiiiiiiiiiiiiiiiii"
};
