/* XPM */
static char *result[] = {
/* columns rows colors chars-per-pixel */
"66 34 53 1 ",
"  c gray15",
". c #2D3124",
"X c #4B5A1E",
"o c #4D591F",
"O c #5B6B1D",
"+ c #5C6F1C",
"@ c #60731C",
"# c #657A1B",
"$ c #424B21",
"% c #465020",
"& c #6E8518",
"* c #758D17",
"= c #708819",
"- c #748B18",
"; c #728C18",
": c #7D9B15",
"> c #7C9916",
", c #7E9A16",
"< c #809F16",
"1 c #83A015",
"2 c #85A314",
"3 c #88A615",
"4 c #8CAE13",
"5 c #8DAE13",
"6 c #88A914",
"7 c #8AAD14",
"8 c #8FB013",
"9 c #8FB113",
"0 c #90B314",
"q c #93B714",
"w c #96BA14",
"e c #96BB14",
"r c #98BD15",
"t c #9BC015",
"y c #9BC215",
"u c #9EC415",
"i c #9DC516",
"p c #9DC616",
"a c #9FC616",
"s c #A3C916",
"d c #A3CC16",
"f c #A4CD16",
"g c #A4CF17",
"h c #A8D217",
"j c #AAD217",
"k c #AAD317",
"l c #ABD517",
"z c #ABD718",
"x c #ADD818",
"c c #AFD918",
"v c #AFDA18",
"b c #B0DB18",
"n c None",
/* pixels */
"nnnnnnnnnnnnnnnnnnnnnnnnnnnnnnnnnnnnnnnnnnnnnnnnnnnnnnnnnnnnnnnnnn",
"nnnnnnnnnnnnnnnnnnnnnnnnnnnnnnnnnnnnnnnnnnnnnnnnnnnnnnnnnnnnnnnnnn",
"nnnnnnnnnnnnnnnnnnnnnnnnnnnnnnnnnnnnnnnnnnnnnnnnnnnnnnnnnnnnnnnnnn",
"nnnnnnnnnnnnnnnnnnnnnnnnnnnnnnnnnnnnnnnnnnnnnnnnnnnnnnnnnnnnnnnnnn",
"nnnnnnnnnnnnnnnnnnnnnnnn$$333333333333##nnnnnnnnn,,vvbbbbbbbbkknnn",
"nnnnnnnnnnnnnnnnnnnnnnnn$$333333333333##nnnnnnnnn,,vvbbbbbbbbkknnn",
"nnnnnnnnnnnnnn1155nnnnnnnn99bbbbbbbbuu66%%nnnnnnnhh>>hhhhhhssnnnnn",
"nnnnnnnnnnnnnn1155nnnnnnnn99bbbbbbbbuu66%%nnnnnnnhh>>hhhhhhssnnnnn",
"nnnnnnnnnnnnnn77bbnnnnnnnnnn&&****--99bb..nnnnnnnbb00nnnnnnnnnnnnn",
"nnnnnnnnnnnnnn77bbnnnnnnnnnn&&****--99bb..nnnnnnnbb00nnnnnnnnnnnnn",
"nnnnnnnnnnnnnnqqbbnnnnnnnnnnnnnnnnnnllccnnnnnnn**bb33nnnnnnnnnnnnn",
"nnnnnnnnnnnnnnqqbbnnnnnnnnnnnnnnnnnnllccnnnnnnn**bb33nnnnnnnnnnnnn",
"nnnnnnnnnnnnnnyybbnnnnnnnnnnnnnnnnn bbjjnnnnnnn22bb**nnnnnnnnnnnnn",
"nnnnnnnnnnnnnnyybbnnnnnnnnnnnnnnnnn bbjjnnnnnnn22bb**nnnnnnnnnnnnn",
"nnnnnnnnnnnnnnee88nnnnnnnnnnnnnnnn..ggaannnnnnnnntt44qqqqqq11nnnnn",
"nnnnnnnnnnnnnnee88nnnnnnnnnnnnnnnn..ggaannnnnnnnntt44qqqqqq11nnnnn",
"nnnnnnnnnnnnnnnnnnnnnnnnnnnnnnnnnnnnoooonnnnnnnnnnnbbbbbbbbzznnnnn",
"nnnnnnnnnnnnnnnnnnnnnnnnnnnnnnnnnnnnoooonnnnnnnnnnnbbbbbbbbzznnnnn",
"nnnnnnnnnnnnnndd;;nnnnnnnnnnnnnnnnnn&&OOnnnnnnnnnnnnnnnnnnn==kknnn",
"nnnnnnnnnnnnnndd;;nnnnnnnnnnnnnnnnnn&&OOnnnnnnnnnnnnnnnnnnn==kknnn",
"nnnnnnnnnnnnnnbbffnnnnnnnnnnnnnnnn##bb66nnnnnnnnnnnnnnnnnnnwwbbnnn",
"nnnnnnnnnnnnnnbbffnnnnnnnnnnnnnnnn##bb66nnnnnnnnnnnnnnnnnnnwwbbnnn",
"nnnnnnnnnnnnnnbbppnnnnnnnnnnnnnnnn::bb::nnnnnnnnnnnnnnnnnnnppbbnnn",
"nnnnnnnnnnnnnnbbppnnnnnnnnnnnnnnnn::bb::nnnnnnnnnnnnnnnnnnnppbbnnn",
"nnnnnnnnnnnnnnbb00nnnnnnnnnnnnnnnn66bb**nnnnnnnnnnnnnnnnnnniibbnnn",
"nnnnnnnnnnnnnnbb00nnnnnnnnnnnnnnnn66bb**nnnnnnnnnnnnnnnnnnniibbnnn",
"nnnnnnnnnnnnnnrrnnnnnnnnnnnnnnnnnnooxx@@nnnnnnnnn<<bbbbbbbb<<ffnnn",
"nnnnnnnnnnnnnnrrnnnnnnnnnnnnnnnnnnooxx@@nnnnnnnnn<<bbbbbbbb<<ffnnn",
"nnnnnnnnnnnnnnnnnnnnnnnnnnnnnnnnnnnn++XXnnnnnnnnnppppppppppiinnnnn",
"nnnnnnnnnnnnnnnnnnnnnnnnnnnnnnnnnnnn++XXnnnnnnnnnppppppppppiinnnnn",
"nnnnnnnnnnnnnnnnnnnnnnnnnnnnnnnnnnnnnnnnnnnnnnnnnnnnnnnnnnnnnnnnnn",
"nnnnnnnnnnnnnnnnnnnnnnnnnnnnnnnnnnnnnnnnnnnnnnnnnnnnnnnnnnnnnnnnnn",
"nnnnnnnnnnnnnnnnnnnnnnnnnnnnnnnnnnnnnnnnnnnnnnnnnnnnnnnnnnnnnnnnnn",
"nnnnnnnnnnnnnnnnnnnnnnnnnnnnnnnnnnnnnnnnnnnnnnnnnnnnnnnnnnnnnnnnnn"
};
