/* XPM */
static char *result[] = {
/* columns rows colors chars-per-pixel */
"66 34 36 1 ",
"  c #758D17",
". c #769217",
"X c #779217",
"o c #789416",
"O c #799416",
"+ c #7E9B15",
"@ c #7C9916",
"# c #769018",
"$ c #809F16",
"% c #83A015",
"& c #85A314",
"* c #87A714",
"= c #88A615",
"- c #88A914",
"; c #8AAD14",
": c #8FB013",
"> c #8FB113",
", c #90B314",
"< c #93B714",
"1 c #94B814",
"2 c #96BB14",
"3 c #96BD15",
"4 c #98BD15",
"5 c #9BC015",
"6 c #9BC215",
"7 c #9DC616",
"8 c #A0C816",
"9 c #A4CF17",
"0 c #A7D017",
"q c #A8D217",
"w c #AAD317",
"e c #ABD718",
"r c #ADD818",
"t c #AFDA18",
"y c #B0DB18",
"u c None",
/* pixels */
"uuuuuuuuuuuuuuuuuuuuuuuuuuuuuuuuuuuuuuuuuuuuuuuuuuuuuuuuuuuuuuuuuu",
"uuuuuuuuuuuuuuuuuuuuuuuuuuuuuuuuuuuuuuuuuuuuuuuuuuuuuuuuuuuuuuuuuu",
"uuuuuuuuuuuuuuuuuuuuuuuuuuuuuuuuuuuuuuuuuuuuuuuuuuuuuuuuuuuuuuuuuu",
"uuuuuuuuuuuuuuuuuuuuuuuuuuuuuuuuuuuuuuuuuuuuuuuuuuu            uuu",
"uuuuu%%==========OOuuuuuuuu%%==========OOuuuuuuuuuu            uuu",
"uuuuu%%==========OOuuuuuuuu%%==========OOuuuuuuuuuurryyyyyytt**..u",
"uuu,,$$ttyyyyyyqq@@uuuuuu,,$$ttyyyyyyqq@@uuuuuuuuuurryyyyyytt**..u",
"uuu,,$$ttyyyyyyqq@@uuuuuu,,$$ttyyyyyyqq@@uuuuuuuuuuuu======##99>>u",
"uuu7799uu      oottuuuuuu7799uu      oottuuuuuuuuuuuu======##99>>u",
"uuu7799uu      oottuuuuuu7799uu      oottuuuuuuuuuuuuuuuuuu..yy&&u",
"uuu00yyuuuuuuuu33yyuuuuuu00yyuuuuuuuu33yyuuuuuuuuuuuuuuuuuu..yy&&u",
"uuu00yyuuuuuuuu33yyuuuuuu00yyuuuuuuuu33yyuuuuuuuuuuuuuuuuuu==yy  u",
"uuueerruuuuuuuu77yyuuuuuueerruuuuuuuu77yyuuuuuuuuuuuuuuuuuu==yy  u",
"uuueerruuuuuuuu77yyuuuuuueerruuuuuuuu77yyuuuuuuuuuuuuuuuuuu@@yyuuu",
"uuuyy22uuuuuuuu11ttuuuuuuyy22uuuuuuuu11ttuuuuuuuuuuuuuuuuuu@@yyuuu",
"uuuyy22uuuuuuuu11ttuuuuuuyy22uuuuuuuu11ttuuuuuuuuuuttyyyyyy44++uuu",
"uuuuuuuuuuuuuuuuuuuuuuuuuuuuuuuuuuuuuuuuuuuuuuuuuuuttyyyyyy44++uuu",
"uuuuuuuuuuuuuuuuuuuuuuuuuuuuuuuuuuuuuuuuuuuuuuuuu..qqqqqqqq==uuuuu",
"uuu&&uuuuuuuuuuuuXXuuuuuu&&uuuuuuuuuuuuXXuuuuuuuu..qqqqqqqq==uuuuu",
"uuu&&uuuuuuuuuuuuXXuuuuuu&&uuuuuuuuuuuuXXuuuuuuyy66uuuuuuuuuuuuuuu",
"uuuyy--uuuuuuuurr88uuuuuuyy--uuuuuuuurr88uuuuuuyy66uuuuuuuuuuuuuuu",
"uuuyy--uuuuuuuurr88uuuuuuyy--uuuuuuuurr88uuuuuuyy77uuuuuuuuuuuuuuu",
"u  yy==uuuuuuuuyy55uuuu  yy==uuuuuuuuyy55uuuuuuyy77uuuuuuuuuuuuuuu",
"u  yy==uuuuuuuuyy55uuuu  yy==uuuuuuuuyy55uuuuuuyy55uuuuuuuuuuuuuuu",
"u%%yy@@uuuuuuuuyy<<uuuu%%yy@@uuuuuuuuyy<<uuuuuuyy55uuuuuuuuuuuuuuu",
"u%%yy@@uuuuuuuuyy<<uuuu%%yy@@uuuuuuuuyy<<uuuuuurrXX======OOuuuuuuu",
"u;;88++<<<<<<$$99==uuuu;;88++<<<<<<$$99==uuuuuurrXX======OOuuuuuuu",
"u;;88++<<<<<<$$99==uuuu;;88++<<<<<<$$99==uuuuuu++wwyyyyyyyy++uuuuu",
"uuu::yyyyyyyytt@@uuuuuuuu::yyyyyyyytt@@uuuuuuuu++wwyyyyyyyy++uuuuu",
"uuu::yyyyyyyytt@@uuuuuuuu::yyyyyyyytt@@uuuuuuuuuu            uuuuu",
"uuuuuuuuuuuuuuuuuuuuuuuuuuuuuuuuuuuuuuuuuuuuuuuuu            uuuuu",
"uuuuuuuuuuuuuuuuuuuuuuuuuuuuuuuuuuuuuuuuuuuuuuuuuuuuuuuuuuuuuuuuuu",
"uuuuuuuuuuuuuuuuuuuuuuuuuuuuuuuuuuuuuuuuuuuuuuuuuuuuuuuuuuuuuuuuuu",
"uuuuuuuuuuuuuuuuuuuuuuuuuuuuuuuuuuuuuuuuuuuuuuuuuuuuuuuuuuuuuuuuuu"
};
