/* XPM */
static char *result[] = {
/* columns rows colors chars-per-pixel */
"66 34 39 1 ",
"  c #758D17",
". c #769217",
"X c #779217",
"o c #789416",
"O c #799416",
"+ c #7E9B15",
"@ c #7C9916",
"# c #809F16",
"$ c #83A015",
"% c #85A314",
"& c #87A714",
"* c #88A615",
"= c #88A914",
"- c #8AAD14",
"; c #8FB013",
": c #8EB314",
"> c #90B314",
", c #91B614",
"< c #93B714",
"1 c #94B814",
"2 c #96BB14",
"3 c #96BD15",
"4 c #98BD15",
"5 c #9BC015",
"6 c #9BC215",
"7 c #9DC015",
"8 c #9DC516",
"9 c #9DC616",
"0 c #A0C816",
"q c #A4CF17",
"w c #A7D017",
"e c #A8D217",
"r c #AAD317",
"t c #ABD517",
"y c #ABD718",
"u c #ADD818",
"i c #AFDA18",
"p c #B0DB18",
"a c None",
/* pixels */
"aaaaaaaaaaaaaaaaaaaaaaaaaaaaaaaaaaaaaaaaaaaaaaaaaaaaaaaaaaaaaaaaaa",
"aaaaaaaaaaaaaaaaaaaaaaaaaaaaaaaaaaaaaaaaaaaaaaaaaaaaaaaaaaaaaaaaaa",
"aaaaaaaaaaaaaaaaaaaaaaaaaaaaaaaaaaaaaaaaaaaaaaaaaaaaaaaaaaaaaaaaaa",
"aaaaaaaaaaaaaaaaaaaaaaaaaaaaaaaaaaaaaaaaaaaaaaaaaaaaaaaaaaaaaaaaaa",
"aaaaa$$**********OOaaaaaaaa$$**********OOaaaaaaaaa<<<<<<<<<<<<aaaa",
"aaaaa$$**********OOaaaaaaaa$$**********OOaaaaaaaaa<<<<<<<<<<<<aaaa",
"aaa>>##iippppppee@@aaaaaa>>##iippppppee@@aaaaaaa3344ppppppii&&22aa",
"aaa>>##iippppppee@@aaaaaa>>##iippppppee@@aaaaaaa3344ppppppii&&22aa",
"aaa99qqaa      ooiiaaaaaa99qqaa      ooiiaaaaaaapp%%aaaaaaaaqq00aa",
"aaa99qqaa      ooiiaaaaaa99qqaa      ooiiaaaaaaapp%%aaaaaaaaqq00aa",
"aaawwppaaaaaaaa33ppaaaaaawwppaaaaaaaa33ppaaaaa  pp==aaaaaaaapp77aa",
"aaawwppaaaaaaaa33ppaaaaaawwppaaaaaaaa33ppaaaaa  pp==aaaaaaaapp77aa",
"aaayyuuaaaaaaaa99ppaaaaaayyuuaaaaaaaa99ppaaaaa++pp++aaaaaaaapp<<aa",
"aaayyuuaaaaaaaa99ppaaaaaayyuuaaaaaaaa99ppaaaaa++pp++aaaaaaaapp<<aa",
"aaapp22aaaaaaaa11iiaaaaaapp22aaaaaaaa11iiaaaaa$$rraaaaaaaaaatt##aa",
"aaapp22aaaaaaaa11iiaaaaaapp22aaaaaaaa11iiaaaaa$$rraaaaaaaaaatt##aa",
"aaaaaaaaaaaaaaaaaaaaaaaaaaaaaaaaaaaaaaaaaaaaaaaaOOiippppppuuaaaaaa",
"aaaaaaaaaaaaaaaaaaaaaaaaaaaaaaaaaaaaaaaaaaaaaaaaOOiippppppuuaaaaaa",
"aaa%%aaaaaaaaaaaaXXaaaaaa%%aaaaaaaaaaaaXXaaaaaaaaa::<<<<<<##,,aaaa",
"aaa%%aaaaaaaaaaaaXXaaaaaa%%aaaaaaaaaaaaXXaaaaaaaaa::<<<<<<##,,aaaa",
"aaapp==aaaaaaaauu00aaaaaapp==aaaaaaaauu00aaaaaaaaaaaaaaaaa::ppaaaa",
"aaapp==aaaaaaaauu00aaaaaapp==aaaaaaaauu00aaaaaaaaaaaaaaaaa::ppaaaa",
"a  pp**aaaaaaaapp55aaaa  pp**aaaaaaaapp55aaaaaaaaaaaaaaaaa66ppaaaa",
"a  pp**aaaaaaaapp55aaaa  pp**aaaaaaaapp55aaaaaaaaaaaaaaaaa66ppaaaa",
"a$$pp@@aaaaaaaapp<<aaaa$$pp@@aaaaaaaapp<<aaaaaaaaaaaaaaaaa00ppaaaa",
"a$$pp@@aaaaaaaapp<<aaaa$$pp@@aaaaaaaapp<<aaaaaaaaaaaaaaaaa00ppaaaa",
"a--00++<<<<<<##qq**aaaa--00++<<<<<<##qq**aaaaaaaaa88999988##iiaaaa",
"a--00++<<<<<<##qq**aaaa--00++<<<<<<##qq**aaaaaaaaa88999988##iiaaaa",
"aaa;;ppppppppii@@aaaaaaaa;;ppppppppii@@aaaaaaaaattppppppppqq..aaaa",
"aaa;;ppppppppii@@aaaaaaaa;;ppppppppii@@aaaaaaaaattppppppppqq..aaaa",
"aaaaaaaaaaaaaaaaaaaaaaaaaaaaaaaaaaaaaaaaaaaaaaaaaaaaaaaaaaaaaaaaaa",
"aaaaaaaaaaaaaaaaaaaaaaaaaaaaaaaaaaaaaaaaaaaaaaaaaaaaaaaaaaaaaaaaaa",
"aaaaaaaaaaaaaaaaaaaaaaaaaaaaaaaaaaaaaaaaaaaaaaaaaaaaaaaaaaaaaaaaaa",
"aaaaaaaaaaaaaaaaaaaaaaaaaaaaaaaaaaaaaaaaaaaaaaaaaaaaaaaaaaaaaaaaaa"
};
