/* XPM */
static char *result[] = {
/* columns rows colors chars-per-pixel */
"66 34 41 1 ",
"  c #6F8618",
". c #758D17",
"X c #769217",
"o c #779217",
"O c #789416",
"+ c #799416",
"@ c #7E9B15",
"# c #7C9916",
"$ c #769018",
"% c #809F16",
"& c #83A015",
"* c #85A314",
"= c #86A515",
"- c #88A615",
"; c #8CAE13",
": c #88A914",
"> c #8AAD14",
", c #8FB013",
"< c #8EB314",
"1 c #90B314",
"2 c #91B414",
"3 c #91B614",
"4 c #93B714",
"5 c #94B614",
"6 c #94B814",
"7 c #96BB14",
"8 c #96BD15",
"9 c #9BC015",
"0 c #9BC215",
"q c #9DC516",
"w c #9DC616",
"e c #A0C816",
"r c #A3CC16",
"t c #A4CF17",
"y c #A7D017",
"u c #A8D217",
"i c #ABD718",
"p c #ADD818",
"a c #AFDA18",
"s c #B0DB18",
"d c None",
/* pixels */
"dddddddddddddddddddddddddddddddddddddddddddddddddddddddddddddddddd",
"dddddddddddddddddddddddddddddddddddddddddddddddddddddddddddddddddd",
"dddddddddddddddddddddddddddddddddddddddddddddddddddddddddddddddddd",
"dddddddddddddddddddddddddddddddddddddddddddddddddddddddddddddddddd",
"ddddd&&----------++dddddddd&&----------++ddddddddd554444444444XXdd",
"ddddd&&----------++dddddddd&&----------++ddddddddd554444444444XXdd",
"ddd11%%aassssssuu##dddddd11%%aassssssuu##ddddddd00@@aassssss00dddd",
"ddd11%%aassssssuu##dddddd11%%aassssssuu##ddddddd00@@aassssss00dddd",
"dddwwttdd......OOaaddddddwwttdd......OOaaddddddduuttdddddddddddddd",
"dddwwttdd......OOaaddddddwwttdd......OOaaddddddduuttdddddddddddddd",
"dddyyssdddddddd88ssddddddyyssdddddddd88ssdddddddssuudddddddddddddd",
"dddyyssdddddddd88ssddddddyyssdddddddd88ssdddddddssuudddddddddddddd",
"dddiippddddddddwwssddddddiippddddddddwwssdddddddssrrdddddddddddddd",
"dddiippddddddddwwssddddddiippddddddddwwssdddddddssrrdddddddddddddd",
"dddss77dddddddd66aaddddddss77dddddddd66aadddddddss--dddddddddddddd",
"dddss77dddddddd66aaddddddss77dddddddd66aadddddddss--dddddddddddddd",
"ddddddddddddddddddddddddddddddddddddddddddddddddddttssssssss&&dddd",
"ddddddddddddddddddddddddddddddddddddddddddddddddddttssssssss&&dddd",
"ddd**ddddddddddddoodddddd**ddddddddddddooddddddd22++444444<<@@$$dd",
"ddd**ddddddddddddoodddddd**ddddddddddddooddddddd22++444444<<@@$$dd",
"dddss::ddddddddppeeddddddss::ddddddddppeeddddd++ss##ddddddddss44dd",
"dddss::ddddddddppeeddddddss::ddddddddppeeddddd++ss##ddddddddss44dd",
"d..ss--ddddddddss99dddd..ss--ddddddddss99ddddd--ss..dddddd  ss;;dd",
"d..ss--ddddddddss99dddd..ss--ddddddddss99ddddd--ss..dddddd  ss;;dd",
"d&&ss##ddddddddss44dddd&&ss##ddddddddss44ddddd55ssddddddddXXss&&dd",
"d&&ss##ddddddddss44dddd&&ss##ddddddddss44ddddd55ssddddddddXXss&&dd",
"d>>ee@@444444%%tt--dddd>>ee@@444444%%tt--ddddd881133wwwwww==tt..dd",
"d>>ee@@444444%%tt--dddd>>ee@@444444%%tt--ddddd881133wwwwww==tt..dd",
"ddd,,ssssssssaa##dddddddd,,ssssssssaa##dddddddddqqssssssssaa##dddd",
"ddd,,ssssssssaa##dddddddd,,ssssssssaa##dddddddddqqssssssssaa##dddd",
"dddddddddddddddddddddddddddddddddddddddddddddddddddddddddddddddddd",
"dddddddddddddddddddddddddddddddddddddddddddddddddddddddddddddddddd",
"dddddddddddddddddddddddddddddddddddddddddddddddddddddddddddddddddd",
"dddddddddddddddddddddddddddddddddddddddddddddddddddddddddddddddddd"
};
