/* XPM */
static char *result[] = {
/* columns rows colors chars-per-pixel */
"66 34 43 1 ",
"  c #758D17",
". c #708819",
"X c #769217",
"o c #779217",
"O c #789416",
"+ c #799416",
"@ c #7E9B15",
"# c #7C9916",
"$ c #7E9A16",
"% c #769018",
"& c #809F16",
"* c #83A015",
"= c #85A314",
"- c #87A714",
"; c #88A615",
": c #8CAE13",
"> c #88A914",
", c #8AAD14",
"< c #8FB013",
"1 c #8FB113",
"2 c #90B314",
"3 c #93B714",
"4 c #94B814",
"5 c #96BA14",
"6 c #96BB14",
"7 c #96BD15",
"8 c #98BD15",
"9 c #9BC015",
"0 c #9BC215",
"q c #9DC516",
"w c #9DC616",
"e c #A0C816",
"r c #A3C916",
"t c #A4CD16",
"y c #A4CF17",
"u c #A7D017",
"i c #A8D217",
"p c #AAD317",
"a c #ABD718",
"s c #ADD818",
"d c #AFDA18",
"f c #B0DB18",
"g c None",
/* pixels */
"gggggggggggggggggggggggggggggggggggggggggggggggggggggggggggggggggg",
"gggggggggggggggggggggggggggggggggggggggggggggggggggggggggggggggggg",
"gggggggggggggggggggggggggggggggggggggggggggggggggggggggggggggggggg",
"ggggggggggggggggggggggggggggg            ggggggggggggggggggggggggg",
"ggggg**;;;;;;;;;;++gggggggggg            gggggggg$$ddffffffffppggg",
"ggggg**;;;;;;;;;;++ggggggggggssffffffdd--XXgggggg$$ddffffffffppggg",
"ggg22&&ddffffffii##ggggggggggssffffffdd--XXggggggii##iiiiiirrggggg",
"ggg22&&ddffffffii##gggggggggggg;;;;;;%%yy11ggggggii##iiiiiirrggggg",
"gggwwyygg      OOddgggggggggggg;;;;;;%%yy11ggggggff22ggggggggggggg",
"gggwwyygg      OOddggggggggggggggggggXXff==ggggggff22ggggggggggggg",
"ggguuffgggggggg77ffggggggggggggggggggXXff==gggg  ff;;ggggggggggggg",
"ggguuffgggggggg77ffgggggggggggggggggg;;ff  gggg  ff;;ggggggggggggg",
"gggaassggggggggwwffgggggggggggggggggg;;ff  gggg==ff  ggggggggggggg",
"gggaassggggggggwwffgggggggggggggggggg##ffgggggg==ff  ggggggggggggg",
"gggff66gggggggg44ddgggggggggggggggggg##ffgggggggg99::333333**ggggg",
"gggff66gggggggg44ddggggggggggddffffff88@@gggggggg99::333333**ggggg",
"gggggggggggggggggggggggggggggddffffff88@@ggggggggggffffffffaaggggg",
"gggggggggggggggggggggggggggXXiiiiiiii;;ggggggggggggffffffffaaggggg",
"ggg==ggggggggggggooggggggggXXiiiiiiii;;gggggggggggggggggggg..ppggg",
"ggg==ggggggggggggooggggggff00gggggggggggggggggggggggggggggg..ppggg",
"gggff>>ggggggggsseeggggggff00gggggggggggggggggggggggggggggg55ffggg",
"gggff>>ggggggggsseeggggggffwwgggggggggggggggggggggggggggggg55ffggg",
"g  ff;;ggggggggff99ggggggffwwggggggggggggggggggggggggggggggwwffggg",
"g  ff;;ggggggggff99ggggggff99ggggggggggggggggggggggggggggggwwffggg",
"g**ff##ggggggggff33ggggggff99ggggggggggggggggggggggggggggggqqffggg",
"g**ff##ggggggggff33ggggggssoo;;;;;;++ggggggggggggggggggggggqqffggg",
"g,,ee@@333333&&yy;;ggggggssoo;;;;;;++gggggggggggg&&ffffffff&&ttggg",
"g,,ee@@333333&&yy;;gggggg@@ppffffffff@@gggggggggg&&ffffffff&&ttggg",
"ggg<<ffffffffdd##gggggggg@@ppffffffff@@ggggggggggwwwwwwwwwwqqggggg",
"ggg<<ffffffffdd##gggggggggg            ggggggggggwwwwwwwwwwqqggggg",
"ggggggggggggggggggggggggggg            ggggggggggggggggggggggggggg",
"gggggggggggggggggggggggggggggggggggggggggggggggggggggggggggggggggg",
"gggggggggggggggggggggggggggggggggggggggggggggggggggggggggggggggggg",
"gggggggggggggggggggggggggggggggggggggggggggggggggggggggggggggggggg"
};
