/* XPM */
static char *result[] = {
/* columns rows colors chars-per-pixel */
"66 34 45 1 ",
"  c #6F8618",
". c #758D17",
"X c #728C18",
"o c #769217",
"O c #779217",
"+ c #789416",
"@ c #799416",
"# c #7E9B15",
"$ c #7C9916",
"% c #769018",
"& c #809F16",
"* c #83A015",
"= c #85A314",
"- c #86A515",
"; c #88A615",
": c #8CAE13",
"> c #8DAE13",
", c #88A914",
"< c #8AAD14",
"1 c #8FB013",
"2 c #8EB314",
"3 c #90B314",
"4 c #91B414",
"5 c #91B614",
"6 c #93B714",
"7 c #94B614",
"8 c #94B814",
"9 c #96BB14",
"0 c #96BD15",
"q c #98BD15",
"w c #9BC015",
"e c #9BC215",
"r c #9DC516",
"t c #9DC616",
"y c #A0C816",
"u c #A3CC16",
"i c #A4CD16",
"p c #A4CF17",
"a c #A7D017",
"s c #A8D217",
"d c #ABD718",
"f c #ADD818",
"g c #AFDA18",
"h c #B0DB18",
"j c None",
/* pixels */
"jjjjjjjjjjjjjjjjjjjjjjjjjjjjjjjjjjjjjjjjjjjjjjjjjjjjjjjjjjjjjjjjjj",
"jjjjjjjjjjjjjjjjjjjjjjjjjjjjjjjjjjjjjjjjjjjjjjjjjjjjjjjjjjjjjjjjjj",
"jjjjjjjjjjjjjjjjjjjjjjjjjjjjjjjjjjjjjjjjjjjjjjjjjjjjjjjjjjjjjjjjjj",
"jjjjjjjjjjjjjjjjjjjjjjjjjjjjjjjjjjjjjjjjjjjjjjjjjjjjjjjjjjjjjjjjjj",
"jjjjj**;;;;;;;;;;@@jjjjjjjjjjjjjjjjjjjjjjjjjjjjjjj776666666666oojj",
"jjjjj**;;;;;;;;;;@@jjjjjjjjjjjjjjjjjjjjjjjjjjjjjjj776666666666oojj",
"jjj33&&gghhhhhhss$$jjjjjjjjjjjjjjjjj**>>jjjjjjjjee##gghhhhhheejjjj",
"jjj33&&gghhhhhhss$$jjjjjjjjjjjjjjjjj**>>jjjjjjjjee##gghhhhhheejjjj",
"jjjttppjj......++ggjjjjjjjjjjjjjjjjj<<hhjjjjjjjjssppjjjjjjjjjjjjjj",
"jjjttppjj......++ggjjjjjjjjjjjjjjjjj<<hhjjjjjjjjssppjjjjjjjjjjjjjj",
"jjjaahhjjjjjjjj00hhjjjjjjjjjjjjjjjjj66hhjjjjjjjjhhssjjjjjjjjjjjjjj",
"jjjaahhjjjjjjjj00hhjjjjjjjjjjjjjjjjj66hhjjjjjjjjhhssjjjjjjjjjjjjjj",
"jjjddffjjjjjjjjtthhjjjjjjjjjjjjjjjjjeehhjjjjjjjjhhuujjjjjjjjjjjjjj",
"jjjddffjjjjjjjjtthhjjjjjjjjjjjjjjjjjeehhjjjjjjjjhhuujjjjjjjjjjjjjj",
"jjjhh99jjjjjjjj88ggjjjjjjjjjjjjjjjjj9911jjjjjjjjhh;;jjjjjjjjjjjjjj",
"jjjhh99jjjjjjjj88ggjjjjjjjjjjjjjjjjj9911jjjjjjjjhh;;jjjjjjjjjjjjjj",
"jjjjjjjjjjjjjjjjjjjjjjjjjjjjjjjjjjjjjjjjjjjjjjjjjjpphhhhhhhh**jjjj",
"jjjjjjjjjjjjjjjjjjjjjjjjjjjjjjjjjjjjjjjjjjjjjjjjjjpphhhhhhhh**jjjj",
"jjj==jjjjjjjjjjjjOOjjjjjjjjjjjjjjjjjuuXXjjjjjjjj44@@66666622##%%jj",
"jjj==jjjjjjjjjjjjOOjjjjjjjjjjjjjjjjjuuXXjjjjjjjj44@@66666622##%%jj",
"jjjhh,,jjjjjjjjffyyjjjjjjjjjjjjjjjjjhhiijjjjjj@@hh$$jjjjjjjjhh66jj",
"jjjhh,,jjjjjjjjffyyjjjjjjjjjjjjjjjjjhhiijjjjjj@@hh$$jjjjjjjjhh66jj",
"j..hh;;jjjjjjjjhhwwjjjjjjjjjjjjjjjjjhhttjjjjjj;;hh..jjjjjj  hh::jj",
"j..hh;;jjjjjjjjhhwwjjjjjjjjjjjjjjjjjhhttjjjjjj;;hh..jjjjjj  hh::jj",
"j**hh$$jjjjjjjjhh66jjjjjjjjjjjjjjjjjhh33jjjjjj77hhjjjjjjjjoohh**jj",
"j**hh$$jjjjjjjjhh66jjjjjjjjjjjjjjjjjhh33jjjjjj77hhjjjjjjjjoohh**jj",
"j<<yy##666666&&pp;;jjjjjjjjjjjjjjjjjqqjjjjjjjj003355tttttt--pp..jj",
"j<<yy##666666&&pp;;jjjjjjjjjjjjjjjjjqqjjjjjjjj003355tttttt--pp..jj",
"jjj11hhhhhhhhgg$$jjjjjjjjjjjjjjjjjjjjjjjjjjjjjjjrrhhhhhhhhgg$$jjjj",
"jjj11hhhhhhhhgg$$jjjjjjjjjjjjjjjjjjjjjjjjjjjjjjjrrhhhhhhhhgg$$jjjj",
"jjjjjjjjjjjjjjjjjjjjjjjjjjjjjjjjjjjjjjjjjjjjjjjjjjjjjjjjjjjjjjjjjj",
"jjjjjjjjjjjjjjjjjjjjjjjjjjjjjjjjjjjjjjjjjjjjjjjjjjjjjjjjjjjjjjjjjj",
"jjjjjjjjjjjjjjjjjjjjjjjjjjjjjjjjjjjjjjjjjjjjjjjjjjjjjjjjjjjjjjjjjj",
"jjjjjjjjjjjjjjjjjjjjjjjjjjjjjjjjjjjjjjjjjjjjjjjjjjjjjjjjjjjjjjjjjj"
};
