/* XPM */
static char *result[] = {
/* columns rows colors chars-per-pixel */
"66 34 35 1 ",
"  c #758D17",
". c #728C18",
"X c #779217",
"o c #789416",
"O c #799416",
"+ c #7E9B15",
"@ c #7C9916",
"# c #809F16",
"$ c #83A015",
"% c #85A314",
"& c #88A615",
"* c #8DAE13",
"= c #88A914",
"- c #8AAD14",
"; c #8FB013",
": c #90B314",
"> c #93B714",
", c #94B814",
"< c #96BB14",
"1 c #96BD15",
"2 c #98BD15",
"3 c #9BC015",
"4 c #9BC215",
"5 c #9DC616",
"6 c #A0C816",
"7 c #A3CC16",
"8 c #A4CD16",
"9 c #A4CF17",
"0 c #A7D017",
"q c #A8D217",
"w c #ABD718",
"e c #ADD818",
"r c #AFDA18",
"t c #B0DB18",
"y c None",
/* pixels */
"yyyyyyyyyyyyyyyyyyyyyyyyyyyyyyyyyyyyyyyyyyyyyyyyyyyyyyyyyyyyyyyyyy",
"yyyyyyyyyyyyyyyyyyyyyyyyyyyyyyyyyyyyyyyyyyyyyyyyyyyyyyyyyyyyyyyyyy",
"yyyyyyyyyyyyyyyyyyyyyyyyyyyyyyyyyyyyyyyyyyyyyyyyyyyyyyyyyyyyyyyyyy",
"yyyyyyyyyyyyyyyyyyyyyyyyyyyyyyyyyyyyyyyyyyyyyyyyyyyyyyyyyyyyyyyyyy",
"yyyyyyyyyyyyyyyyyyyyyyyyyyy$$&&&&&&&&&&OOyyyyyyyy$$&&&&&&&&&&OOyyy",
"yyyyyyyyyyyyyyyyyyyyyyyyyyy$$&&&&&&&&&&OOyyyyyyyy$$&&&&&&&&&&OOyyy",
"yyyyyyyyyyyyyy$$**yyyyyyy::##rrttttttqq@@yyyyyy::##rrttttttqq@@yyy",
"yyyyyyyyyyyyyy$$**yyyyyyy::##rrttttttqq@@yyyyyy::##rrttttttqq@@yyy",
"yyyyyyyyyyyyyy--ttyyyyyyy5599yy      oorryyyyyy5599yy      oorryyy",
"yyyyyyyyyyyyyy--ttyyyyyyy5599yy      oorryyyyyy5599yy      oorryyy",
"yyyyyyyyyyyyyy>>ttyyyyyyy00ttyyyyyyyy11ttyyyyyy00ttyyyyyyyy11ttyyy",
"yyyyyyyyyyyyyy>>ttyyyyyyy00ttyyyyyyyy11ttyyyyyy00ttyyyyyyyy11ttyyy",
"yyyyyyyyyyyyyy44ttyyyyyyywweeyyyyyyyy55ttyyyyyywweeyyyyyyyy55ttyyy",
"yyyyyyyyyyyyyy44ttyyyyyyywweeyyyyyyyy55ttyyyyyywweeyyyyyyyy55ttyyy",
"yyyyyyyyyyyyyy<<;;yyyyyyytt<<yyyyyyyy,,rryyyyyytt<<yyyyyyyy,,rryyy",
"yyyyyyyyyyyyyy<<;;yyyyyyytt<<yyyyyyyy,,rryyyyyytt<<yyyyyyyy,,rryyy",
"yyyyyyyyyyyyyyyyyyyyyyyyyyyyyyyyyyyyyyyyyyyyyyyyyyyyyyyyyyyyyyyyyy",
"yyyyyyyyyyyyyyyyyyyyyyyyyyyyyyyyyyyyyyyyyyyyyyyyyyyyyyyyyyyyyyyyyy",
"yyyyyyyyyyyyyy77..yyyyyyy%%yyyyyyyyyyyyXXyyyyyy%%yyyyyyyyyyyyXXyyy",
"yyyyyyyyyyyyyy77..yyyyyyy%%yyyyyyyyyyyyXXyyyyyy%%yyyyyyyyyyyyXXyyy",
"yyyyyyyyyyyyyytt88yyyyyyytt==yyyyyyyyee66yyyyyytt==yyyyyyyyee66yyy",
"yyyyyyyyyyyyyytt88yyyyyyytt==yyyyyyyyee66yyyyyytt==yyyyyyyyee66yyy",
"yyyyyyyyyyyyyytt55yyyyy  tt&&yyyyyyyytt33yyyy  tt&&yyyyyyyytt33yyy",
"yyyyyyyyyyyyyytt55yyyyy  tt&&yyyyyyyytt33yyyy  tt&&yyyyyyyytt33yyy",
"yyyyyyyyyyyyyytt::yyyyy$$tt@@yyyyyyyytt>>yyyy$$tt@@yyyyyyyytt>>yyy",
"yyyyyyyyyyyyyytt::yyyyy$$tt@@yyyyyyyytt>>yyyy$$tt@@yyyyyyyytt>>yyy",
"yyyyyyyyyyyyyy22yyyyyyy--66++>>>>>>##99&&yyyy--66++>>>>>>##99&&yyy",
"yyyyyyyyyyyyyy22yyyyyyy--66++>>>>>>##99&&yyyy--66++>>>>>>##99&&yyy",
"yyyyyyyyyyyyyyyyyyyyyyyyy;;ttttttttrr@@yyyyyyyy;;ttttttttrr@@yyyyy",
"yyyyyyyyyyyyyyyyyyyyyyyyy;;ttttttttrr@@yyyyyyyy;;ttttttttrr@@yyyyy",
"yyyyyyyyyyyyyyyyyyyyyyyyyyyyyyyyyyyyyyyyyyyyyyyyyyyyyyyyyyyyyyyyyy",
"yyyyyyyyyyyyyyyyyyyyyyyyyyyyyyyyyyyyyyyyyyyyyyyyyyyyyyyyyyyyyyyyyy",
"yyyyyyyyyyyyyyyyyyyyyyyyyyyyyyyyyyyyyyyyyyyyyyyyyyyyyyyyyyyyyyyyyy",
"yyyyyyyyyyyyyyyyyyyyyyyyyyyyyyyyyyyyyyyyyyyyyyyyyyyyyyyyyyyyyyyyyy"
};
