/* XPM */
static char *result[] = {
/* columns rows colors chars-per-pixel */
"66 34 43 1 ",
"  c #758D17",
". c #728C18",
"X c #769217",
"o c #779217",
"O c #789416",
"+ c #799416",
"@ c #7E9B15",
"# c #7C9916",
"$ c #809F16",
"% c #83A015",
"& c #85A314",
"* c #87A714",
"= c #88A615",
"- c #8DAE13",
"; c #88A914",
": c #8AAD14",
"> c #8FB013",
", c #8EB314",
"< c #90B314",
"1 c #91B614",
"2 c #93B714",
"3 c #94B814",
"4 c #96BB14",
"5 c #96BD15",
"6 c #98BD15",
"7 c #9BC015",
"8 c #9BC215",
"9 c #9DC015",
"0 c #9DC516",
"q c #9DC616",
"w c #A0C816",
"e c #A3CC16",
"r c #A4CD16",
"t c #A4CF17",
"y c #A7D017",
"u c #A8D217",
"i c #AAD317",
"p c #ABD517",
"a c #ABD718",
"s c #ADD818",
"d c #AFDA18",
"f c #B0DB18",
"g c None",
/* pixels */
"gggggggggggggggggggggggggggggggggggggggggggggggggggggggggggggggggg",
"gggggggggggggggggggggggggggggggggggggggggggggggggggggggggggggggggg",
"gggggggggggggggggggggggggggggggggggggggggggggggggggggggggggggggggg",
"gggggggggggggggggggggggggggggggggggggggggggggggggggggggggggggggggg",
"ggggg%%==========++ggggggggggggggggggggggggggggggg222222222222gggg",
"ggggg%%==========++ggggggggggggggggggggggggggggggg222222222222gggg",
"ggg<<$$ddffffffuu##ggggggggggggggggg%%--gggggggg5566ffffffdd**44gg",
"ggg<<$$ddffffffuu##ggggggggggggggggg%%--gggggggg5566ffffffdd**44gg",
"gggqqttgg      OOddggggggggggggggggg::ffggggggggff&&ggggggggttwwgg",
"gggqqttgg      OOddggggggggggggggggg::ffggggggggff&&ggggggggttwwgg",
"gggyyffgggggggg55ffggggggggggggggggg22ffgggggg  ff;;ggggggggff99gg",
"gggyyffgggggggg55ffggggggggggggggggg22ffgggggg  ff;;ggggggggff99gg",
"gggaassggggggggqqffggggggggggggggggg88ffgggggg@@ff@@ggggggggff22gg",
"gggaassggggggggqqffggggggggggggggggg88ffgggggg@@ff@@ggggggggff22gg",
"gggff44gggggggg33ddggggggggggggggggg44>>gggggg%%iiggggggggggpp$$gg",
"gggff44gggggggg33ddggggggggggggggggg44>>gggggg%%iiggggggggggpp$$gg",
"gggggggggggggggggggggggggggggggggggggggggggggggg++ddffffffssgggggg",
"gggggggggggggggggggggggggggggggggggggggggggggggg++ddffffffssgggggg",
"ggg&&ggggggggggggoogggggggggggggggggee..gggggggggg,,222222$$11gggg",
"ggg&&ggggggggggggoogggggggggggggggggee..gggggggggg,,222222$$11gggg",
"gggff;;ggggggggsswwgggggggggggggggggffrrgggggggggggggggggg,,ffgggg",
"gggff;;ggggggggsswwgggggggggggggggggffrrgggggggggggggggggg,,ffgggg",
"g  ff==ggggggggff77gggggggggggggggggffqqgggggggggggggggggg88ffgggg",
"g  ff==ggggggggff77gggggggggggggggggffqqgggggggggggggggggg88ffgggg",
"g%%ff##ggggggggff22gggggggggggggggggff<<ggggggggggggggggggwwffgggg",
"g%%ff##ggggggggff22gggggggggggggggggff<<ggggggggggggggggggwwffgggg",
"g::ww@@222222$$tt==ggggggggggggggggg66gggggggggggg00qqqq00$$ddgggg",
"g::ww@@222222$$tt==ggggggggggggggggg66gggggggggggg00qqqq00$$ddgggg",
"ggg>>ffffffffdd##gggggggggggggggggggggggggggggggppffffffffttXXgggg",
"ggg>>ffffffffdd##gggggggggggggggggggggggggggggggppffffffffttXXgggg",
"gggggggggggggggggggggggggggggggggggggggggggggggggggggggggggggggggg",
"gggggggggggggggggggggggggggggggggggggggggggggggggggggggggggggggggg",
"gggggggggggggggggggggggggggggggggggggggggggggggggggggggggggggggggg",
"gggggggggggggggggggggggggggggggggggggggggggggggggggggggggggggggggg"
};
