/* XPM */
static char *result[] = {
/* columns rows colors chars-per-pixel */
"66 34 40 1 ",
"  c #758D17",
". c #728C18",
"X c #769217",
"o c #779217",
"O c #789416",
"+ c #799416",
"@ c #7E9B15",
"# c #7C9916",
"$ c #769018",
"% c #809F16",
"& c #83A015",
"* c #85A314",
"= c #87A714",
"- c #88A615",
"; c #8DAE13",
": c #88A914",
"> c #8AAD14",
", c #8FB013",
"< c #8FB113",
"1 c #90B314",
"2 c #93B714",
"3 c #94B814",
"4 c #96BB14",
"5 c #96BD15",
"6 c #98BD15",
"7 c #9BC015",
"8 c #9BC215",
"9 c #9DC616",
"0 c #A0C816",
"q c #A3CC16",
"w c #A4CD16",
"e c #A4CF17",
"r c #A7D017",
"t c #A8D217",
"y c #AAD317",
"u c #ABD718",
"i c #ADD818",
"p c #AFDA18",
"a c #B0DB18",
"s c None",
/* pixels */
"ssssssssssssssssssssssssssssssssssssssssssssssssssssssssssssssssss",
"ssssssssssssssssssssssssssssssssssssssssssssssssssssssssssssssssss",
"ssssssssssssssssssssssssssssssssssssssssssssssssssssssssssssssssss",
"sssssssssssssssssssssssssssssssssssssssssssssssssss            sss",
"sssss&&----------++ssssssssssssssssssssssssssssssss            sss",
"sssss&&----------++ssssssssssssssssssssssssssssssssiiaaaaaapp==XXs",
"sss11%%ppaaaaaatt##sssssssssssssssss&&;;sssssssssssiiaaaaaapp==XXs",
"sss11%%ppaaaaaatt##sssssssssssssssss&&;;sssssssssssss------$$ee<<s",
"sss99eess      OOppsssssssssssssssss>>aasssssssssssss------$$ee<<s",
"sss99eess      OOppsssssssssssssssss>>aasssssssssssssssssssXXaa**s",
"sssrraassssssss55aasssssssssssssssss22aasssssssssssssssssssXXaa**s",
"sssrraassssssss55aasssssssssssssssss22aasssssssssssssssssss--aa  s",
"sssuuiissssssss99aasssssssssssssssss88aasssssssssssssssssss--aa  s",
"sssuuiissssssss99aasssssssssssssssss88aasssssssssssssssssss##aasss",
"sssaa44ssssssss33ppsssssssssssssssss44,,sssssssssssssssssss##aasss",
"sssaa44ssssssss33ppsssssssssssssssss44,,sssssssssssppaaaaaa66@@sss",
"sssssssssssssssssssssssssssssssssssssssssssssssssssppaaaaaa66@@sss",
"sssssssssssssssssssssssssssssssssssssssssssssssssXXtttttttt--sssss",
"sss**ssssssssssssoosssssssssssssssssqq..sssssssssXXtttttttt--sssss",
"sss**ssssssssssssoosssssssssssssssssqq..sssssssaa88sssssssssssssss",
"sssaa::ssssssssii00sssssssssssssssssaawwsssssssaa88sssssssssssssss",
"sssaa::ssssssssii00sssssssssssssssssaawwsssssssaa99sssssssssssssss",
"s  aa--ssssssssaa77sssssssssssssssssaa99sssssssaa99sssssssssssssss",
"s  aa--ssssssssaa77sssssssssssssssssaa99sssssssaa77sssssssssssssss",
"s&&aa##ssssssssaa22sssssssssssssssssaa11sssssssaa77sssssssssssssss",
"s&&aa##ssssssssaa22sssssssssssssssssaa11sssssssiioo------++sssssss",
"s>>00@@222222%%ee--sssssssssssssssss66sssssssssiioo------++sssssss",
"s>>00@@222222%%ee--sssssssssssssssss66sssssssss@@yyaaaaaaaa@@sssss",
"sss,,aaaaaaaapp##ssssssssssssssssssssssssssssss@@yyaaaaaaaa@@sssss",
"sss,,aaaaaaaapp##ssssssssssssssssssssssssssssssss            sssss",
"sssssssssssssssssssssssssssssssssssssssssssssssss            sssss",
"ssssssssssssssssssssssssssssssssssssssssssssssssssssssssssssssssss",
"ssssssssssssssssssssssssssssssssssssssssssssssssssssssssssssssssss",
"ssssssssssssssssssssssssssssssssssssssssssssssssssssssssssssssssss"
};
