/* XPM */
static char *result[] = {
/* columns rows colors chars-per-pixel */
"66 34 56 1 ",
"  c gray15",
". c #2D3124",
"X c #4B5A1E",
"o c #4D591F",
"O c #5B6B1D",
"+ c #5C6F1C",
"@ c #60731C",
"# c #657A1B",
"$ c #424B21",
"% c #465020",
"& c #6E8518",
"* c #758D17",
"= c #708819",
"- c #748B18",
"; c #779217",
": c #789416",
"> c #799416",
", c #7D9B15",
"< c #7E9B15",
"1 c #7C9916",
"2 c #7E9A16",
"3 c #809F16",
"4 c #83A015",
"5 c #85A314",
"6 c #88A615",
"7 c #8CAE13",
"8 c #88A914",
"9 c #8AAD14",
"0 c #8FB013",
"q c #8FB113",
"w c #90B314",
"e c #93B714",
"r c #94B814",
"t c #96BA14",
"y c #96BB14",
"u c #96BD15",
"i c #9BC015",
"p c #9EC415",
"a c #9DC516",
"s c #9DC616",
"d c #9FC616",
"f c #A0C816",
"g c #A3C916",
"h c #A4CD16",
"j c #A4CF17",
"k c #A7D017",
"l c #A8D217",
"z c #AAD217",
"x c #AAD317",
"c c #ABD517",
"v c #ABD718",
"b c #ADD818",
"n c #AFD918",
"m c #AFDA18",
"M c #B0DB18",
"N c None",
/* pixels */
"NNNNNNNNNNNNNNNNNNNNNNNNNNNNNNNNNNNNNNNNNNNNNNNNNNNNNNNNNNNNNNNNNN",
"NNNNNNNNNNNNNNNNNNNNNNNNNNNNNNNNNNNNNNNNNNNNNNNNNNNNNNNNNNNNNNNNNN",
"NNNNNNNNNNNNNNNNNNNNNNNNNNNNNNNNNNNNNNNNNNNNNNNNNNNNNNNNNNNNNNNNNN",
"NNNNNNNNNNNNNNNNNNNNNNNNNNNNNNNNNNNNNNNNNNNNNNNNNNNNNNNNNNNNNNNNNN",
"NNNNN446666666666>>NNNNN$$666666666666##NNNNNNNNN22mmMMMMMMMMxxNNN",
"NNNNN446666666666>>NNNNN$$666666666666##NNNNNNNNN22mmMMMMMMMMxxNNN",
"NNNww33mmMMMMMMll11NNNNNNNqqMMMMMMMMpp88%%NNNNNNNll11llllllggNNNNN",
"NNNww33mmMMMMMMll11NNNNNNNqqMMMMMMMMpp88%%NNNNNNNll11llllllggNNNNN",
"NNNssjjNN******::mmNNNNNNNNN&&****--qqMM..NNNNNNNMMwwNNNNNNNNNNNNN",
"NNNssjjNN******::mmNNNNNNNNN&&****--qqMM..NNNNNNNMMwwNNNNNNNNNNNNN",
"NNNkkMMNNNNNNNNuuMMNNNNNNNNNNNNNNNNNccnnNNNNNNN**MM66NNNNNNNNNNNNN",
"NNNkkMMNNNNNNNNuuMMNNNNNNNNNNNNNNNNNccnnNNNNNNN**MM66NNNNNNNNNNNNN",
"NNNvvbbNNNNNNNNssMMNNNNNNNNNNNNNNNN MMzzNNNNNNN55MM**NNNNNNNNNNNNN",
"NNNvvbbNNNNNNNNssMMNNNNNNNNNNNNNNNN MMzzNNNNNNN55MM**NNNNNNNNNNNNN",
"NNNMMyyNNNNNNNNrrmmNNNNNNNNNNNNNNN..jjddNNNNNNNNNii77eeeeee44NNNNN",
"NNNMMyyNNNNNNNNrrmmNNNNNNNNNNNNNNN..jjddNNNNNNNNNii77eeeeee44NNNNN",
"NNNNNNNNNNNNNNNNNNNNNNNNNNNNNNNNNNNNooooNNNNNNNNNNNMMMMMMMMvvNNNNN",
"NNNNNNNNNNNNNNNNNNNNNNNNNNNNNNNNNNNNooooNNNNNNNNNNNMMMMMMMMvvNNNNN",
"NNN55NNNNNNNNNNNN;;NNNNNNNNNNNNNNNNN&&OONNNNNNNNNNNNNNNNNNN==xxNNN",
"NNN55NNNNNNNNNNNN;;NNNNNNNNNNNNNNNNN&&OONNNNNNNNNNNNNNNNNNN==xxNNN",
"NNNMM88NNNNNNNNbbffNNNNNNNNNNNNNNN##MM88NNNNNNNNNNNNNNNNNNNttMMNNN",
"NNNMM88NNNNNNNNbbffNNNNNNNNNNNNNNN##MM88NNNNNNNNNNNNNNNNNNNttMMNNN",
"N**MM66NNNNNNNNMMiiNNNNNNNNNNNNNNN,,MM,,NNNNNNNNNNNNNNNNNNNssMMNNN",
"N**MM66NNNNNNNNMMiiNNNNNNNNNNNNNNN,,MM,,NNNNNNNNNNNNNNNNNNNssMMNNN",
"N44MM11NNNNNNNNMMeeNNNNNNNNNNNNNNN88MM**NNNNNNNNNNNNNNNNNNNaaMMNNN",
"N44MM11NNNNNNNNMMeeNNNNNNNNNNNNNNN88MM**NNNNNNNNNNNNNNNNNNNaaMMNNN",
"N99ff<<eeeeee33jj66NNNNNNNNNNNNNNNoobb@@NNNNNNNNN33MMMMMMMM33hhNNN",
"N99ff<<eeeeee33jj66NNNNNNNNNNNNNNNoobb@@NNNNNNNNN33MMMMMMMM33hhNNN",
"NNN00MMMMMMMMmm11NNNNNNNNNNNNNNNNNNN++XXNNNNNNNNNssssssssssaaNNNNN",
"NNN00MMMMMMMMmm11NNNNNNNNNNNNNNNNNNN++XXNNNNNNNNNssssssssssaaNNNNN",
"NNNNNNNNNNNNNNNNNNNNNNNNNNNNNNNNNNNNNNNNNNNNNNNNNNNNNNNNNNNNNNNNNN",
"NNNNNNNNNNNNNNNNNNNNNNNNNNNNNNNNNNNNNNNNNNNNNNNNNNNNNNNNNNNNNNNNNN",
"NNNNNNNNNNNNNNNNNNNNNNNNNNNNNNNNNNNNNNNNNNNNNNNNNNNNNNNNNNNNNNNNNN",
"NNNNNNNNNNNNNNNNNNNNNNNNNNNNNNNNNNNNNNNNNNNNNNNNNNNNNNNNNNNNNNNNNN"
};
