/* XPM */
static char *result[] = {
/* columns rows colors chars-per-pixel */
"66 34 36 1 ",
"  c #758D17",
". c #769217",
"X c #779217",
"o c #789416",
"O c #799416",
"+ c #7E9B15",
"@ c #7C9916",
"# c #769018",
"$ c #809F16",
"% c #83A015",
"& c #85A314",
"* c #87A714",
"= c #88A615",
"- c #88A914",
"; c #8AAD14",
": c #8FB013",
"> c #8FB113",
", c #90B314",
"< c #93B714",
"1 c #94B814",
"2 c #96BB14",
"3 c #96BD15",
"4 c #98BD15",
"5 c #9BC015",
"6 c #9BC215",
"7 c #9DC616",
"8 c #A0C816",
"9 c #A4CF17",
"0 c #A7D017",
"q c #A8D217",
"w c #AAD317",
"e c #ABD718",
"r c #ADD818",
"t c #AFDA18",
"y c #B0DB18",
"u c None",
/* pixels */
"uuuuuuuuuuuuuuuuuuuuuuuuuuuuuuuuuuuuuuuuuuuuuuuuuuuuuuuuuuuuuuuuuu",
"uuuuuuuuuuuuuuuuuuuuuuuuuuuuuuuuuuuuuuuuuuuuuuuuuuuuuuuuuuuuuuuuuu",
"uuuuuuuuuuuuuuuuuuuuuuuuuuuuuuuuuuuuuuuuuuuuuuuuuuuuuuuuuuuuuuuuuu",
"uuuuuuu            uuuuuuuuuuuuuuuuuuuuuuuuuuuuuuuuuuuuuuuuuuuuuuu",
"uuuuuuu            uuuuuuuu%%==========OOuuuuuuuu%%==========OOuuu",
"uuuuuuurryyyyyytt**..uuuuuu%%==========OOuuuuuuuu%%==========OOuuu",
"uuuuuuurryyyyyytt**..uuuu,,$$ttyyyyyyqq@@uuuuuu,,$$ttyyyyyyqq@@uuu",
"uuuuuuuuu======##99>>uuuu,,$$ttyyyyyyqq@@uuuuuu,,$$ttyyyyyyqq@@uuu",
"uuuuuuuuu======##99>>uuuu7799uu      oottuuuuuu7799uu      oottuuu",
"uuuuuuuuuuuuuuu..yy&&uuuu7799uu      oottuuuuuu7799uu      oottuuu",
"uuuuuuuuuuuuuuu..yy&&uuuu00yyuuuuuuuu33yyuuuuuu00yyuuuuuuuu33yyuuu",
"uuuuuuuuuuuuuuu==yy  uuuu00yyuuuuuuuu33yyuuuuuu00yyuuuuuuuu33yyuuu",
"uuuuuuuuuuuuuuu==yy  uuuueerruuuuuuuu77yyuuuuuueerruuuuuuuu77yyuuu",
"uuuuuuuuuuuuuuu@@yyuuuuuueerruuuuuuuu77yyuuuuuueerruuuuuuuu77yyuuu",
"uuuuuuuuuuuuuuu@@yyuuuuuuyy22uuuuuuuu11ttuuuuuuyy22uuuuuuuu11ttuuu",
"uuuuuuuttyyyyyy44++uuuuuuyy22uuuuuuuu11ttuuuuuuyy22uuuuuuuu11ttuuu",
"uuuuuuuttyyyyyy44++uuuuuuuuuuuuuuuuuuuuuuuuuuuuuuuuuuuuuuuuuuuuuuu",
"uuuuu..qqqqqqqq==uuuuuuuuuuuuuuuuuuuuuuuuuuuuuuuuuuuuuuuuuuuuuuuuu",
"uuuuu..qqqqqqqq==uuuuuuuu&&uuuuuuuuuuuuXXuuuuuu&&uuuuuuuuuuuuXXuuu",
"uuuyy66uuuuuuuuuuuuuuuuuu&&uuuuuuuuuuuuXXuuuuuu&&uuuuuuuuuuuuXXuuu",
"uuuyy66uuuuuuuuuuuuuuuuuuyy--uuuuuuuurr88uuuuuuyy--uuuuuuuurr88uuu",
"uuuyy77uuuuuuuuuuuuuuuuuuyy--uuuuuuuurr88uuuuuuyy--uuuuuuuurr88uuu",
"uuuyy77uuuuuuuuuuuuuuuu  yy==uuuuuuuuyy55uuuu  yy==uuuuuuuuyy55uuu",
"uuuyy55uuuuuuuuuuuuuuuu  yy==uuuuuuuuyy55uuuu  yy==uuuuuuuuyy55uuu",
"uuuyy55uuuuuuuuuuuuuuuu%%yy@@uuuuuuuuyy<<uuuu%%yy@@uuuuuuuuyy<<uuu",
"uuurrXX======OOuuuuuuuu%%yy@@uuuuuuuuyy<<uuuu%%yy@@uuuuuuuuyy<<uuu",
"uuurrXX======OOuuuuuuuu;;88++<<<<<<$$99==uuuu;;88++<<<<<<$$99==uuu",
"uuu++wwyyyyyyyy++uuuuuu;;88++<<<<<<$$99==uuuu;;88++<<<<<<$$99==uuu",
"uuu++wwyyyyyyyy++uuuuuuuu::yyyyyyyytt@@uuuuuuuu::yyyyyyyytt@@uuuuu",
"uuuuu            uuuuuuuu::yyyyyyyytt@@uuuuuuuu::yyyyyyyytt@@uuuuu",
"uuuuu            uuuuuuuuuuuuuuuuuuuuuuuuuuuuuuuuuuuuuuuuuuuuuuuuu",
"uuuuuuuuuuuuuuuuuuuuuuuuuuuuuuuuuuuuuuuuuuuuuuuuuuuuuuuuuuuuuuuuuu",
"uuuuuuuuuuuuuuuuuuuuuuuuuuuuuuuuuuuuuuuuuuuuuuuuuuuuuuuuuuuuuuuuuu",
"uuuuuuuuuuuuuuuuuuuuuuuuuuuuuuuuuuuuuuuuuuuuuuuuuuuuuuuuuuuuuuuuuu"
};
