/* XPM */
static char *result[] = {
/* columns rows colors chars-per-pixel */
"66 34 54 1 ",
"  c gray15",
". c #2D3124",
"X c #4B5A1E",
"o c #4D591F",
"O c #5B6B1D",
"+ c #5C6F1C",
"@ c #60731C",
"# c #657A1B",
"$ c #424B21",
"% c #465020",
"& c #6E8518",
"* c #758D17",
"= c #748B18",
"- c #728C18",
"; c #779217",
": c #789416",
"> c #799416",
", c #7D9B15",
"< c #7E9B15",
"1 c #7C9916",
"2 c #809F16",
"3 c #83A015",
"4 c #85A314",
"5 c #88A615",
"6 c #8DAE13",
"7 c #88A914",
"8 c #8AAD14",
"9 c #8FB013",
"0 c #8FB113",
"q c #90B314",
"w c #93B714",
"e c #94B814",
"r c #96BB14",
"t c #96BD15",
"y c #98BD15",
"u c #9BC015",
"i c #9BC215",
"p c #9EC415",
"a c #9DC616",
"s c #9FC616",
"d c #A0C816",
"f c #A3CC16",
"g c #A4CD16",
"h c #A4CF17",
"j c #A7D017",
"k c #A8D217",
"l c #AAD217",
"z c #ABD517",
"x c #ABD718",
"c c #ADD818",
"v c #AFD918",
"b c #AFDA18",
"n c #B0DB18",
"m c None",
/* pixels */
"mmmmmmmmmmmmmmmmmmmmmmmmmmmmmmmmmmmmmmmmmmmmmmmmmmmmmmmmmmmmmmmmmm",
"mmmmmmmmmmmmmmmmmmmmmmmmmmmmmmmmmmmmmmmmmmmmmmmmmmmmmmmmmmmmmmmmmm",
"mmmmmmmmmmmmmmmmmmmmmmmmmmmmmmmmmmmmmmmmmmmmmmmmmmmmmmmmmmmmmmmmmm",
"mmmmmmmmmmmmmmmmmmmmmmmmmmmmmmmmmmmmmmmmmmmmmmmmmmmmmmmmmmmmmmmmmm",
"mmmmm335555555555>>mmmmmmmmmmmmmmmmmmmmmmmmmmm$$555555555555##mmmm",
"mmmmm335555555555>>mmmmmmmmmmmmmmmmmmmmmmmmmmm$$555555555555##mmmm",
"mmmqq22bbnnnnnnkk11mmmmmmmmmmmmmmmmm3366mmmmmmmm00nnnnnnnnpp77%%mm",
"mmmqq22bbnnnnnnkk11mmmmmmmmmmmmmmmmm3366mmmmmmmm00nnnnnnnnpp77%%mm",
"mmmaahhmm******::bbmmmmmmmmmmmmmmmmm88nnmmmmmmmmmm&&****==00nn..mm",
"mmmaahhmm******::bbmmmmmmmmmmmmmmmmm88nnmmmmmmmmmm&&****==00nn..mm",
"mmmjjnnmmmmmmmmttnnmmmmmmmmmmmmmmmmmwwnnmmmmmmmmmmmmmmmmmmzzvvmmmm",
"mmmjjnnmmmmmmmmttnnmmmmmmmmmmmmmmmmmwwnnmmmmmmmmmmmmmmmmmmzzvvmmmm",
"mmmxxccmmmmmmmmaannmmmmmmmmmmmmmmmmmiinnmmmmmmmmmmmmmmmmm nnllmmmm",
"mmmxxccmmmmmmmmaannmmmmmmmmmmmmmmmmmiinnmmmmmmmmmmmmmmmmm nnllmmmm",
"mmmnnrrmmmmmmmmeebbmmmmmmmmmmmmmmmmmrr99mmmmmmmmmmmmmmmm..hhssmmmm",
"mmmnnrrmmmmmmmmeebbmmmmmmmmmmmmmmmmmrr99mmmmmmmmmmmmmmmm..hhssmmmm",
"mmmmmmmmmmmmmmmmmmmmmmmmmmmmmmmmmmmmmmmmmmmmmmmmmmmmmmmmmmoooommmm",
"mmmmmmmmmmmmmmmmmmmmmmmmmmmmmmmmmmmmmmmmmmmmmmmmmmmmmmmmmmoooommmm",
"mmm44mmmmmmmmmmmm;;mmmmmmmmmmmmmmmmmff--mmmmmmmmmmmmmmmmmm&&OOmmmm",
"mmm44mmmmmmmmmmmm;;mmmmmmmmmmmmmmmmmff--mmmmmmmmmmmmmmmmmm&&OOmmmm",
"mmmnn77mmmmmmmmccddmmmmmmmmmmmmmmmmmnnggmmmmmmmmmmmmmmmm##nn77mmmm",
"mmmnn77mmmmmmmmccddmmmmmmmmmmmmmmmmmnnggmmmmmmmmmmmmmmmm##nn77mmmm",
"m**nn55mmmmmmmmnnuummmmmmmmmmmmmmmmmnnaammmmmmmmmmmmmmmm,,nn,,mmmm",
"m**nn55mmmmmmmmnnuummmmmmmmmmmmmmmmmnnaammmmmmmmmmmmmmmm,,nn,,mmmm",
"m33nn11mmmmmmmmnnwwmmmmmmmmmmmmmmmmmnnqqmmmmmmmmmmmmmmmm77nn**mmmm",
"m33nn11mmmmmmmmnnwwmmmmmmmmmmmmmmmmmnnqqmmmmmmmmmmmmmmmm77nn**mmmm",
"m88dd<<wwwwww22hh55mmmmmmmmmmmmmmmmmyymmmmmmmmmmmmmmmmmmoocc@@mmmm",
"m88dd<<wwwwww22hh55mmmmmmmmmmmmmmmmmyymmmmmmmmmmmmmmmmmmoocc@@mmmm",
"mmm99nnnnnnnnbb11mmmmmmmmmmmmmmmmmmmmmmmmmmmmmmmmmmmmmmmmm++XXmmmm",
"mmm99nnnnnnnnbb11mmmmmmmmmmmmmmmmmmmmmmmmmmmmmmmmmmmmmmmmm++XXmmmm",
"mmmmmmmmmmmmmmmmmmmmmmmmmmmmmmmmmmmmmmmmmmmmmmmmmmmmmmmmmmmmmmmmmm",
"mmmmmmmmmmmmmmmmmmmmmmmmmmmmmmmmmmmmmmmmmmmmmmmmmmmmmmmmmmmmmmmmmm",
"mmmmmmmmmmmmmmmmmmmmmmmmmmmmmmmmmmmmmmmmmmmmmmmmmmmmmmmmmmmmmmmmmm",
"mmmmmmmmmmmmmmmmmmmmmmmmmmmmmmmmmmmmmmmmmmmmmmmmmmmmmmmmmmmmmmmmmm"
};
