/* XPM */
static char *result[] = {
/* columns rows colors chars-per-pixel */
"66 34 35 1 ",
"  c #758D17",
". c #728C18",
"X c #779217",
"o c #789416",
"O c #799416",
"+ c #7E9B15",
"@ c #7C9916",
"# c #809F16",
"$ c #83A015",
"% c #85A314",
"& c #88A615",
"* c #8DAE13",
"= c #88A914",
"- c #8AAD14",
"; c #8FB013",
": c #90B314",
"> c #93B714",
", c #94B814",
"< c #96BB14",
"1 c #96BD15",
"2 c #98BD15",
"3 c #9BC015",
"4 c #9BC215",
"5 c #9DC616",
"6 c #A0C816",
"7 c #A3CC16",
"8 c #A4CD16",
"9 c #A4CF17",
"0 c #A7D017",
"q c #A8D217",
"w c #ABD718",
"e c #ADD818",
"r c #AFDA18",
"t c #B0DB18",
"y c None",
/* pixels */
"yyyyyyyyyyyyyyyyyyyyyyyyyyyyyyyyyyyyyyyyyyyyyyyyyyyyyyyyyyyyyyyyyy",
"yyyyyyyyyyyyyyyyyyyyyyyyyyyyyyyyyyyyyyyyyyyyyyyyyyyyyyyyyyyyyyyyyy",
"yyyyyyyyyyyyyyyyyyyyyyyyyyyyyyyyyyyyyyyyyyyyyyyyyyyyyyyyyyyyyyyyyy",
"yyyyyyyyyyyyyyyyyyyyyyyyyyyyyyyyyyyyyyyyyyyyyyyyyyyyyyyyyyyyyyyyyy",
"yyyyy$$&&&&&&&&&&OOyyyyyyyyyyyyyyyyyyyyyyyyyyyyyy$$&&&&&&&&&&OOyyy",
"yyyyy$$&&&&&&&&&&OOyyyyyyyyyyyyyyyyyyyyyyyyyyyyyy$$&&&&&&&&&&OOyyy",
"yyy::##rrttttttqq@@yyyyyyyyyyyyyyyyy$$**yyyyyyy::##rrttttttqq@@yyy",
"yyy::##rrttttttqq@@yyyyyyyyyyyyyyyyy$$**yyyyyyy::##rrttttttqq@@yyy",
"yyy5599yy      oorryyyyyyyyyyyyyyyyy--ttyyyyyyy5599yy      oorryyy",
"yyy5599yy      oorryyyyyyyyyyyyyyyyy--ttyyyyyyy5599yy      oorryyy",
"yyy00ttyyyyyyyy11ttyyyyyyyyyyyyyyyyy>>ttyyyyyyy00ttyyyyyyyy11ttyyy",
"yyy00ttyyyyyyyy11ttyyyyyyyyyyyyyyyyy>>ttyyyyyyy00ttyyyyyyyy11ttyyy",
"yyywweeyyyyyyyy55ttyyyyyyyyyyyyyyyyy44ttyyyyyyywweeyyyyyyyy55ttyyy",
"yyywweeyyyyyyyy55ttyyyyyyyyyyyyyyyyy44ttyyyyyyywweeyyyyyyyy55ttyyy",
"yyytt<<yyyyyyyy,,rryyyyyyyyyyyyyyyyy<<;;yyyyyyytt<<yyyyyyyy,,rryyy",
"yyytt<<yyyyyyyy,,rryyyyyyyyyyyyyyyyy<<;;yyyyyyytt<<yyyyyyyy,,rryyy",
"yyyyyyyyyyyyyyyyyyyyyyyyyyyyyyyyyyyyyyyyyyyyyyyyyyyyyyyyyyyyyyyyyy",
"yyyyyyyyyyyyyyyyyyyyyyyyyyyyyyyyyyyyyyyyyyyyyyyyyyyyyyyyyyyyyyyyyy",
"yyy%%yyyyyyyyyyyyXXyyyyyyyyyyyyyyyyy77..yyyyyyy%%yyyyyyyyyyyyXXyyy",
"yyy%%yyyyyyyyyyyyXXyyyyyyyyyyyyyyyyy77..yyyyyyy%%yyyyyyyyyyyyXXyyy",
"yyytt==yyyyyyyyee66yyyyyyyyyyyyyyyyytt88yyyyyyytt==yyyyyyyyee66yyy",
"yyytt==yyyyyyyyee66yyyyyyyyyyyyyyyyytt88yyyyyyytt==yyyyyyyyee66yyy",
"y  tt&&yyyyyyyytt33yyyyyyyyyyyyyyyyytt55yyyyy  tt&&yyyyyyyytt33yyy",
"y  tt&&yyyyyyyytt33yyyyyyyyyyyyyyyyytt55yyyyy  tt&&yyyyyyyytt33yyy",
"y$$tt@@yyyyyyyytt>>yyyyyyyyyyyyyyyyytt::yyyyy$$tt@@yyyyyyyytt>>yyy",
"y$$tt@@yyyyyyyytt>>yyyyyyyyyyyyyyyyytt::yyyyy$$tt@@yyyyyyyytt>>yyy",
"y--66++>>>>>>##99&&yyyyyyyyyyyyyyyyy22yyyyyyy--66++>>>>>>##99&&yyy",
"y--66++>>>>>>##99&&yyyyyyyyyyyyyyyyy22yyyyyyy--66++>>>>>>##99&&yyy",
"yyy;;ttttttttrr@@yyyyyyyyyyyyyyyyyyyyyyyyyyyyyy;;ttttttttrr@@yyyyy",
"yyy;;ttttttttrr@@yyyyyyyyyyyyyyyyyyyyyyyyyyyyyy;;ttttttttrr@@yyyyy",
"yyyyyyyyyyyyyyyyyyyyyyyyyyyyyyyyyyyyyyyyyyyyyyyyyyyyyyyyyyyyyyyyyy",
"yyyyyyyyyyyyyyyyyyyyyyyyyyyyyyyyyyyyyyyyyyyyyyyyyyyyyyyyyyyyyyyyyy",
"yyyyyyyyyyyyyyyyyyyyyyyyyyyyyyyyyyyyyyyyyyyyyyyyyyyyyyyyyyyyyyyyyy",
"yyyyyyyyyyyyyyyyyyyyyyyyyyyyyyyyyyyyyyyyyyyyyyyyyyyyyyyyyyyyyyyyyy"
};
