/* XPM */
static char *result[] = {
/* columns rows colors chars-per-pixel */
"66 34 35 1 ",
"  c #758D17",
". c #708819",
"X c #769217",
"o c #779217",
"O c #789416",
"+ c #799416",
"@ c #7E9B15",
"# c #7C9916",
"$ c #809F16",
"% c #83A015",
"& c #85A314",
"* c #88A615",
"= c #88A914",
"- c #8AAD14",
"; c #8FB013",
": c #90B314",
"> c #91B414",
", c #93B714",
"< c #94B814",
"1 c #96BB14",
"2 c #96BD15",
"3 c #9BC015",
"4 c #9DC616",
"5 c #A0C816",
"6 c #A3CC16",
"7 c #A4CD16",
"8 c #A4CF17",
"9 c #A7D017",
"0 c #A8D217",
"q c #AAD317",
"w c #ABD718",
"e c #ADD818",
"r c #AFDA18",
"t c #B0DB18",
"y c None",
/* pixels */
"yyyyyyyyyyyyyyyyyyyyyyyyyyyyyyyyyyyyyyyyyyyyyyyyyyyyyyyyyyyyyyyyyy",
"yyyyyyyyyyyyyyyyyyyyyyyyyyyyyyyyyyyyyyyyyyyyyyyyyyyyyyyyyyyyyyyyyy",
"yyyyyyyyyyyyyyyyyyyyyyyyyyyyyyyyyyyyyyyyyyyyyyyyyyyyyyyyyyyyyyyyyy",
"yyyyyyyyyyyyyyyyyyyyyyyyyyyyyyyyyyyyyyyyyyyyyyyyyyyyyyyyyyyyyyyyyy",
"yyyyy%%**********++yyyyyyyy%%**********++yyyyyyyyy000000000077yyyy",
"yyyyy%%**********++yyyyyyyy%%**********++yyyyyyyyy000000000077yyyy",
"yyy::$$rrtttttt00##yyyyyy::$$rrtttttt00##yyyyyyyyy@@ttttttqq@@55yy",
"yyy::$$rrtttttt00##yyyyyy::$$rrtttttt00##yyyyyyyyy@@ttttttqq@@55yy",
"yyy4488yy      OOrryyyyyy4488yy      OOrryyyyyyyyyyyyyyyyyyyee44yy",
"yyy4488yy      OOrryyyyyy4488yy      OOrryyyyyyyyyyyyyyyyyyyee44yy",
"yyy99ttyyyyyyyy22ttyyyyyy99ttyyyyyyyy22ttyyyyyyyyyyyyyyyyyyytt22yy",
"yyy99ttyyyyyyyy22ttyyyyyy99ttyyyyyyyy22ttyyyyyyyyyyyyyyyyyyytt22yy",
"yyywweeyyyyyyyy44ttyyyyyywweeyyyyyyyy44ttyyyyyyyyyyyyyyyyyyytt>>yy",
"yyywweeyyyyyyyy44ttyyyyyywweeyyyyyyyy44ttyyyyyyyyyyyyyyyyyyytt>>yy",
"yyytt11yyyyyyyy<<rryyyyyytt11yyyyyyyy<<rryyyyyyyyy++******XX66..yy",
"yyytt11yyyyyyyy<<rryyyyyytt11yyyyyyyy<<rryyyyyyyyy++******XX66..yy",
"yyyyyyyyyyyyyyyyyyyyyyyyyyyyyyyyyyyyyyyyyyyyyyyyyyttttttttrryyyyyy",
"yyyyyyyyyyyyyyyyyyyyyyyyyyyyyyyyyyyyyyyyyyyyyyyyyyttttttttrryyyyyy",
"yyy&&yyyyyyyyyyyyooyyyyyy&&yyyyyyyyyyyyooyyyyyyyyyyy      yy77yyyy",
"yyy&&yyyyyyyyyyyyooyyyyyy&&yyyyyyyyyyyyooyyyyyyyyyyy      yy77yyyy",
"yyytt==yyyyyyyyee55yyyyyytt==yyyyyyyyee55yyyyyyyyyyyyyyyyy,,ttyyyy",
"yyytt==yyyyyyyyee55yyyyyytt==yyyyyyyyee55yyyyyyyyyyyyyyyyy,,ttyyyy",
"y  tt**yyyyyyyytt33yyyy  tt**yyyyyyyytt33yyyyyyyyyyyyyyyyy44ttyyyy",
"y  tt**yyyyyyyytt33yyyy  tt**yyyyyyyytt33yyyyyyyyyyyyyyyyy44ttyyyy",
"y%%tt##yyyyyyyytt,,yyyy%%tt##yyyyyyyytt,,yyyyyyyyyyyyyyyyy44ttyyyy",
"y%%tt##yyyyyyyytt,,yyyy%%tt##yyyyyyyytt,,yyyyyyyyyyyyyyyyy44ttyyyy",
"y--55@@,,,,,,$$88**yyyy--55@@,,,,,,$$88**yyyyyyyyyrrttttrr##qqyyyy",
"y--55@@,,,,,,$$88**yyyy--55@@,,,,,,$$88**yyyyyyyyyrrttttrr##qqyyyy",
"yyy;;ttttttttrr##yyyyyyyy;;ttttttttrr##yyyyyyyyy000000000077yyyyyy",
"yyy;;ttttttttrr##yyyyyyyy;;ttttttttrr##yyyyyyyyy000000000077yyyyyy",
"yyyyyyyyyyyyyyyyyyyyyyyyyyyyyyyyyyyyyyyyyyyyyyyyyyyyyyyyyyyyyyyyyy",
"yyyyyyyyyyyyyyyyyyyyyyyyyyyyyyyyyyyyyyyyyyyyyyyyyyyyyyyyyyyyyyyyyy",
"yyyyyyyyyyyyyyyyyyyyyyyyyyyyyyyyyyyyyyyyyyyyyyyyyyyyyyyyyyyyyyyyyy",
"yyyyyyyyyyyyyyyyyyyyyyyyyyyyyyyyyyyyyyyyyyyyyyyyyyyyyyyyyyyyyyyyyy"
};
