/* XPM */
static char *result[] = {
/* columns rows colors chars-per-pixel */
"66 34 42 1 ",
"  c #758D17",
". c #708819",
"X c #728C18",
"o c #779217",
"O c #789416",
"+ c #799416",
"@ c #7E9B15",
"# c #7C9916",
"$ c #7E9A16",
"% c #809F16",
"& c #83A015",
"* c #85A314",
"= c #88A615",
"- c #8CAE13",
"; c #8DAE13",
": c #88A914",
"> c #8AAD14",
", c #8FB013",
"< c #90B314",
"1 c #93B714",
"2 c #94B814",
"3 c #96BA14",
"4 c #96BB14",
"5 c #96BD15",
"6 c #98BD15",
"7 c #9BC015",
"8 c #9BC215",
"9 c #9DC516",
"0 c #9DC616",
"q c #A0C816",
"w c #A3C916",
"e c #A3CC16",
"r c #A4CD16",
"t c #A4CF17",
"y c #A7D017",
"u c #A8D217",
"i c #AAD317",
"p c #ABD718",
"a c #ADD818",
"s c #AFDA18",
"d c #B0DB18",
"f c None",
/* pixels */
"ffffffffffffffffffffffffffffffffffffffffffffffffffffffffffffffffff",
"ffffffffffffffffffffffffffffffffffffffffffffffffffffffffffffffffff",
"ffffffffffffffffffffffffffffffffffffffffffffffffffffffffffffffffff",
"ffffffffffffffffffffffffffffffffffffffffffffffffffffffffffffffffff",
"fffff&&==========++ffffffffffffffffffffffffffffff$$ssddddddddiifff",
"fffff&&==========++ffffffffffffffffffffffffffffff$$ssddddddddiifff",
"fff<<%%ssdddddduu##fffffffffffffffff&&;;fffffffffuu##uuuuuuwwfffff",
"fff<<%%ssdddddduu##fffffffffffffffff&&;;fffffffffuu##uuuuuuwwfffff",
"fff00ttff      OOssfffffffffffffffff>>ddfffffffffdd<<fffffffffffff",
"fff00ttff      OOssfffffffffffffffff>>ddfffffffffdd<<fffffffffffff",
"fffyyddffffffff55ddfffffffffffffffff11ddfffffff  dd==fffffffffffff",
"fffyyddffffffff55ddfffffffffffffffff11ddfffffff  dd==fffffffffffff",
"fffppaaffffffff00ddfffffffffffffffff88ddfffffff**dd  fffffffffffff",
"fffppaaffffffff00ddfffffffffffffffff88ddfffffff**dd  fffffffffffff",
"fffdd44ffffffff22ssfffffffffffffffff44,,fffffffff77--111111&&fffff",
"fffdd44ffffffff22ssfffffffffffffffff44,,fffffffff77--111111&&fffff",
"fffffffffffffffffffffffffffffffffffffffffffffffffffddddddddppfffff",
"fffffffffffffffffffffffffffffffffffffffffffffffffffddddddddppfffff",
"fff**ffffffffffffoofffffffffffffffffeeXXfffffffffffffffffff..iifff",
"fff**ffffffffffffoofffffffffffffffffeeXXfffffffffffffffffff..iifff",
"fffdd::ffffffffaaqqfffffffffffffffffddrrfffffffffffffffffff33ddfff",
"fffdd::ffffffffaaqqfffffffffffffffffddrrfffffffffffffffffff33ddfff",
"f  dd==ffffffffdd77fffffffffffffffffdd00fffffffffffffffffff00ddfff",
"f  dd==ffffffffdd77fffffffffffffffffdd00fffffffffffffffffff00ddfff",
"f&&dd##ffffffffdd11fffffffffffffffffdd<<fffffffffffffffffff99ddfff",
"f&&dd##ffffffffdd11fffffffffffffffffdd<<fffffffffffffffffff99ddfff",
"f>>qq@@111111%%tt==fffffffffffffffff66fffffffffff%%dddddddd%%rrfff",
"f>>qq@@111111%%tt==fffffffffffffffff66fffffffffff%%dddddddd%%rrfff",
"fff,,ddddddddss##ffffffffffffffffffffffffffffffff000000000099fffff",
"fff,,ddddddddss##ffffffffffffffffffffffffffffffff000000000099fffff",
"ffffffffffffffffffffffffffffffffffffffffffffffffffffffffffffffffff",
"ffffffffffffffffffffffffffffffffffffffffffffffffffffffffffffffffff",
"ffffffffffffffffffffffffffffffffffffffffffffffffffffffffffffffffff",
"ffffffffffffffffffffffffffffffffffffffffffffffffffffffffffffffffff"
};
