/* XPM */
static char *result[] = {
/* columns rows colors chars-per-pixel */
"66 34 36 1 ",
"  c #758D17",
". c #769217",
"X c #779217",
"o c #789416",
"O c #799416",
"+ c #7E9B15",
"@ c #7C9916",
"# c #769018",
"$ c #809F16",
"% c #83A015",
"& c #85A314",
"* c #87A714",
"= c #88A615",
"- c #88A914",
"; c #8AAD14",
": c #8FB013",
"> c #8FB113",
", c #90B314",
"< c #93B714",
"1 c #94B814",
"2 c #96BB14",
"3 c #96BD15",
"4 c #98BD15",
"5 c #9BC015",
"6 c #9BC215",
"7 c #9DC616",
"8 c #A0C816",
"9 c #A4CF17",
"0 c #A7D017",
"q c #A8D217",
"w c #AAD317",
"e c #ABD718",
"r c #ADD818",
"t c #AFDA18",
"y c #B0DB18",
"u c None",
/* pixels */
"uuuuuuuuuuuuuuuuuuuuuuuuuuuuuuuuuuuuuuuuuuuuuuuuuuuuuuuuuuuuuuuuuu",
"uuuuuuuuuuuuuuuuuuuuuuuuuuuuuuuuuuuuuuuuuuuuuuuuuuuuuuuuuuuuuuuuuu",
"uuuuuuuuuuuuuuuuuuuuuuuuuuuuuuuuuuuuuuuuuuuuuuuuuuuuuuuuuuuuuuuuuu",
"uuuuuuuuuuuuuuuuuuuuuuuuuuuuu            uuuuuuuuuuuuuuuuuuuuuuuuu",
"uuuuu%%==========OOuuuuuuuuuu            uuuuuuuu%%==========OOuuu",
"uuuuu%%==========OOuuuuuuuuuurryyyyyytt**..uuuuuu%%==========OOuuu",
"uuu,,$$ttyyyyyyqq@@uuuuuuuuuurryyyyyytt**..uuuu,,$$ttyyyyyyqq@@uuu",
"uuu,,$$ttyyyyyyqq@@uuuuuuuuuuuu======##99>>uuuu,,$$ttyyyyyyqq@@uuu",
"uuu7799uu      oottuuuuuuuuuuuu======##99>>uuuu7799uu      oottuuu",
"uuu7799uu      oottuuuuuuuuuuuuuuuuuu..yy&&uuuu7799uu      oottuuu",
"uuu00yyuuuuuuuu33yyuuuuuuuuuuuuuuuuuu..yy&&uuuu00yyuuuuuuuu33yyuuu",
"uuu00yyuuuuuuuu33yyuuuuuuuuuuuuuuuuuu==yy  uuuu00yyuuuuuuuu33yyuuu",
"uuueerruuuuuuuu77yyuuuuuuuuuuuuuuuuuu==yy  uuuueerruuuuuuuu77yyuuu",
"uuueerruuuuuuuu77yyuuuuuuuuuuuuuuuuuu@@yyuuuuuueerruuuuuuuu77yyuuu",
"uuuyy22uuuuuuuu11ttuuuuuuuuuuuuuuuuuu@@yyuuuuuuyy22uuuuuuuu11ttuuu",
"uuuyy22uuuuuuuu11ttuuuuuuuuuuttyyyyyy44++uuuuuuyy22uuuuuuuu11ttuuu",
"uuuuuuuuuuuuuuuuuuuuuuuuuuuuuttyyyyyy44++uuuuuuuuuuuuuuuuuuuuuuuuu",
"uuuuuuuuuuuuuuuuuuuuuuuuuuu..qqqqqqqq==uuuuuuuuuuuuuuuuuuuuuuuuuuu",
"uuu&&uuuuuuuuuuuuXXuuuuuuuu..qqqqqqqq==uuuuuuuu&&uuuuuuuuuuuuXXuuu",
"uuu&&uuuuuuuuuuuuXXuuuuuuyy66uuuuuuuuuuuuuuuuuu&&uuuuuuuuuuuuXXuuu",
"uuuyy--uuuuuuuurr88uuuuuuyy66uuuuuuuuuuuuuuuuuuyy--uuuuuuuurr88uuu",
"uuuyy--uuuuuuuurr88uuuuuuyy77uuuuuuuuuuuuuuuuuuyy--uuuuuuuurr88uuu",
"u  yy==uuuuuuuuyy55uuuuuuyy77uuuuuuuuuuuuuuuu  yy==uuuuuuuuyy55uuu",
"u  yy==uuuuuuuuyy55uuuuuuyy55uuuuuuuuuuuuuuuu  yy==uuuuuuuuyy55uuu",
"u%%yy@@uuuuuuuuyy<<uuuuuuyy55uuuuuuuuuuuuuuuu%%yy@@uuuuuuuuyy<<uuu",
"u%%yy@@uuuuuuuuyy<<uuuuuurrXX======OOuuuuuuuu%%yy@@uuuuuuuuyy<<uuu",
"u;;88++<<<<<<$$99==uuuuuurrXX======OOuuuuuuuu;;88++<<<<<<$$99==uuu",
"u;;88++<<<<<<$$99==uuuuuu++wwyyyyyyyy++uuuuuu;;88++<<<<<<$$99==uuu",
"uuu::yyyyyyyytt@@uuuuuuuu++wwyyyyyyyy++uuuuuuuu::yyyyyyyytt@@uuuuu",
"uuu::yyyyyyyytt@@uuuuuuuuuu            uuuuuuuu::yyyyyyyytt@@uuuuu",
"uuuuuuuuuuuuuuuuuuuuuuuuuuu            uuuuuuuuuuuuuuuuuuuuuuuuuuu",
"uuuuuuuuuuuuuuuuuuuuuuuuuuuuuuuuuuuuuuuuuuuuuuuuuuuuuuuuuuuuuuuuuu",
"uuuuuuuuuuuuuuuuuuuuuuuuuuuuuuuuuuuuuuuuuuuuuuuuuuuuuuuuuuuuuuuuuu",
"uuuuuuuuuuuuuuuuuuuuuuuuuuuuuuuuuuuuuuuuuuuuuuuuuuuuuuuuuuuuuuuuuu"
};
