/* XPM */
static char *result[] = {
/* columns rows colors chars-per-pixel */
"66 34 40 1 ",
"  c #758D17",
". c #708819",
"X c #728C18",
"o c #769217",
"O c #779217",
"+ c #799416",
"@ c #7E9B15",
"# c #7C9916",
"$ c #7E9A16",
"% c #769018",
"& c #809F16",
"* c #83A015",
"= c #85A314",
"- c #87A714",
"; c #88A615",
": c #8CAE13",
"> c #8DAE13",
", c #8AAD14",
"< c #8FB013",
"1 c #8FB113",
"2 c #90B314",
"3 c #93B714",
"4 c #96BA14",
"5 c #96BB14",
"6 c #98BD15",
"7 c #9BC015",
"8 c #9BC215",
"9 c #9DC516",
"0 c #9DC616",
"q c #A3C916",
"w c #A3CC16",
"e c #A4CD16",
"r c #A4CF17",
"t c #A8D217",
"y c #AAD317",
"u c #ABD718",
"i c #ADD818",
"p c #AFDA18",
"a c #B0DB18",
"s c None",
/* pixels */
"ssssssssssssssssssssssssssssssssssssssssssssssssssssssssssssssssss",
"ssssssssssssssssssssssssssssssssssssssssssssssssssssssssssssssssss",
"ssssssssssssssssssssssssssssssssssssssssssssssssssssssssssssssssss",
"sssssssssssssssssssssssssssss            sssssssssssssssssssssssss",
"sssssssssssssssssssssssssssss            ssssssss$$ppaaaaaaaayysss",
"sssssssssssssssssssssssssssssiiaaaaaapp--oossssss$$ppaaaaaaaayysss",
"ssssssssssssss**>>sssssssssssiiaaaaaapp--oosssssstt##ttttttqqsssss",
"ssssssssssssss**>>sssssssssssss;;;;;;%%rr11sssssstt##ttttttqqsssss",
"ssssssssssssss,,aasssssssssssss;;;;;;%%rr11ssssssaa22sssssssssssss",
"ssssssssssssss,,aasssssssssssssssssssooaa==ssssssaa22sssssssssssss",
"ssssssssssssss33aasssssssssssssssssssooaa==ssss  aa;;sssssssssssss",
"ssssssssssssss33aasssssssssssssssssss;;aa  ssss  aa;;sssssssssssss",
"ssssssssssssss88aasssssssssssssssssss;;aa  ssss==aa  sssssssssssss",
"ssssssssssssss88aasssssssssssssssssss##aassssss==aa  sssssssssssss",
"ssssssssssssss55<<sssssssssssssssssss##aassssssss77::333333**sssss",
"ssssssssssssss55<<sssssssssssppaaaaaa66@@ssssssss77::333333**sssss",
"sssssssssssssssssssssssssssssppaaaaaa66@@ssssssssssaaaaaaaauusssss",
"sssssssssssssssssssssssssssootttttttt;;ssssssssssssaaaaaaaauusssss",
"sssssssssssssswwXXsssssssssootttttttt;;ssssssssssssssssssss..yysss",
"sssssssssssssswwXXsssssssaa88ssssssssssssssssssssssssssssss..yysss",
"ssssssssssssssaaeesssssssaa88ssssssssssssssssssssssssssssss44aasss",
"ssssssssssssssaaeesssssssaa00ssssssssssssssssssssssssssssss44aasss",
"ssssssssssssssaa00sssssssaa00ssssssssssssssssssssssssssssss00aasss",
"ssssssssssssssaa00sssssssaa77ssssssssssssssssssssssssssssss00aasss",
"ssssssssssssssaa22sssssssaa77ssssssssssssssssssssssssssssss99aasss",
"ssssssssssssssaa22sssssssiiOO;;;;;;++ssssssssssssssssssssss99aasss",
"ssssssssssssss66sssssssssiiOO;;;;;;++ssssssssssss&&aaaaaaaa&&eesss",
"ssssssssssssss66sssssssss@@yyaaaaaaaa@@ssssssssss&&aaaaaaaa&&eesss",
"sssssssssssssssssssssssss@@yyaaaaaaaa@@ssssssssss000000000099sssss",
"sssssssssssssssssssssssssss            ssssssssss000000000099sssss",
"sssssssssssssssssssssssssss            sssssssssssssssssssssssssss",
"ssssssssssssssssssssssssssssssssssssssssssssssssssssssssssssssssss",
"ssssssssssssssssssssssssssssssssssssssssssssssssssssssssssssssssss",
"ssssssssssssssssssssssssssssssssssssssssssssssssssssssssssssssssss"
};
