/* XPM */
static char *result[] = {
/* columns rows colors chars-per-pixel */
"66 34 45 1 ",
"  c #6F8618",
". c #758D17",
"X c #738B18",
"o c #728C18",
"O c #779217",
"+ c #789416",
"@ c #799416",
"# c #7E9B15",
"$ c #7C9916",
"% c #809E16",
"& c #809F16",
"* c #83A015",
"= c #85A314",
"- c #88A615",
"; c #8CAE13",
": c #8DAE13",
"> c #88A914",
", c #8AAD14",
"< c #8FB013",
"1 c #90B314",
"2 c #91B614",
"3 c #93B714",
"4 c #94B814",
"5 c #96BB14",
"6 c #96BD15",
"7 c #98BD15",
"8 c #9BC015",
"9 c #9BC215",
"0 c #9DC616",
"q c #A0C816",
"w c #A3C916",
"e c #A3CC16",
"r c #A4CD16",
"t c #A4CE17",
"y c #A4CF17",
"u c #A7D017",
"i c #A8D217",
"p c #AAD317",
"a c #ABD517",
"s c #ABD718",
"d c #ADD818",
"f c #ADD918",
"g c #AFDA18",
"h c #B0DB18",
"j c None",
/* pixels */
"jjjjjjjjjjjjjjjjjjjjjjjjjjjjjjjjjjjjjjjjjjjjjjjjjjjjjjjjjjjjjjjjjj",
"jjjjjjjjjjjjjjjjjjjjjjjjjjjjjjjjjjjjjjjjjjjjjjjjjjjjjjjjjjjjjjjjjj",
"jjjjjjjjjjjjjjjjjjjjjjjjjjjjjjjjjjjjjjjjjjjjjjjjjjjjjjjjjjjjjjjjjj",
"jjjjjjjjjjjjjjjjjjjjjjjjjjjjjjjjjjjjjjjjjjjjjjjjjjjjjjjjjjjjjjjjjj",
"jjjjj**----------@@jjjjjjjjjjjjjjjjjjjjjjjjjjjjjjwwiiiiiiiiii%%jjj",
"jjjjj**----------@@jjjjjjjjjjjjjjjjjjjjjjjjjjjjjjwwiiiiiiiiii%%jjj",
"jjj11&&gghhhhhhii$$jjjjjjjjjjjjjjjjj**::jjjjjjjrr@@pphhhhhh,,99jjj",
"jjj11&&gghhhhhhii$$jjjjjjjjjjjjjjjjj**::jjjjjjjrr@@pphhhhhh,,99jjj",
"jjj00yyjj......++ggjjjjjjjjjjjjjjjjj,,hhjjjjjjjppaajjjjjjjj66hhjjj",
"jjj00yyjj......++ggjjjjjjjjjjjjjjjjj,,hhjjjjjjjppaajjjjjjjj66hhjjj",
"jjjuuhhjjjjjjjj66hhjjjjjjjjjjjjjjjjj33hhjjjjjjjhhiijjjjjjjjtthhjjj",
"jjjuuhhjjjjjjjj66hhjjjjjjjjjjjjjjjjj33hhjjjjjjjhhiijjjjjjjjtthhjjj",
"jjjssddjjjjjjjj00hhjjjjjjjjjjjjjjjjj99hhjjjjjjjhhwwjjjjjjjjppffjjj",
"jjjssddjjjjjjjj00hhjjjjjjjjjjjjjjjjj99hhjjjjjjjhhwwjjjjjjjjppffjjj",
"jjjhh55jjjjjjjj44ggjjjjjjjjjjjjjjjjj55<<jjjjjjjpp&&------==,,99jjj",
"jjjhh55jjjjjjjj44ggjjjjjjjjjjjjjjjjj55<<jjjjjjjpp&&------==,,99jjj",
"jjjjjjjjjjjjjjjjjjjjjjjjjjjjjjjjjjjjjjjjjjjjjjjjjpphhhhhhhh--jjjjj",
"jjjjjjjjjjjjjjjjjjjjjjjjjjjjjjjjjjjjjjjjjjjjjjjjjpphhhhhhhh--jjjjj",
"jjj==jjjjjjjjjjjjOOjjjjjjjjjjjjjjjjjeeoojjjjjjjrrjj......  22;;jjj",
"jjj==jjjjjjjjjjjjOOjjjjjjjjjjjjjjjjjeeoojjjjjjjrrjj......  22;;jjj",
"jjjhh>>jjjjjjjjddqqjjjjjjjjjjjjjjjjjhhrrjjjjj##hh##jjjjjjjjhh33jjj",
"jjjhh>>jjjjjjjjddqqjjjjjjjjjjjjjjjjjhhrrjjjjj##hh##jjjjjjjjhh33jjj",
"j..hh--jjjjjjjjhh88jjjjjjjjjjjjjjjjjhh00jjjjj>>hh..jjjjjjXXhh>>jjj",
"j..hh--jjjjjjjjhh88jjjjjjjjjjjjjjjjjhh00jjjjj>>hh..jjjjjjXXhh>>jjj",
"j**hh$$jjjjjjjjhh33jjjjjjjjjjjjjjjjjhh11jjjjj33ggjjjjjjjj..hh&&jjj",
"j**hh$$jjjjjjjjhh33jjjjjjjjjjjjjjjjjhh11jjjjj33ggjjjjjjjj..hh&&jjj",
"j,,qq##333333&&yy--jjjjjjjjjjjjjjjjj77jjjjjjj88$$yyhhhhhh5577..jjj",
"j,,qq##333333&&yy--jjjjjjjjjjjjjjjjj77jjjjjjj88$$yyhhhhhh5577..jjj",
"jjj<<hhhhhhhhgg$$jjjjjjjjjjjjjjjjjjjjjjjjjjjjjjwwiiiiiiiiii%%jjjjj",
"jjj<<hhhhhhhhgg$$jjjjjjjjjjjjjjjjjjjjjjjjjjjjjjwwiiiiiiiiii%%jjjjj",
"jjjjjjjjjjjjjjjjjjjjjjjjjjjjjjjjjjjjjjjjjjjjjjjjjjjjjjjjjjjjjjjjjj",
"jjjjjjjjjjjjjjjjjjjjjjjjjjjjjjjjjjjjjjjjjjjjjjjjjjjjjjjjjjjjjjjjjj",
"jjjjjjjjjjjjjjjjjjjjjjjjjjjjjjjjjjjjjjjjjjjjjjjjjjjjjjjjjjjjjjjjjj",
"jjjjjjjjjjjjjjjjjjjjjjjjjjjjjjjjjjjjjjjjjjjjjjjjjjjjjjjjjjjjjjjjjj"
};
