/* XPM */
static char *result[] = {
/* columns rows colors chars-per-pixel */
"66 34 36 1 ",
"  c #758D17",
". c #779217",
"X c #789416",
"o c #799416",
"O c #7E9B15",
"+ c #7C9916",
"@ c #809F16",
"# c #83A015",
"$ c #85A314",
"% c #88A615",
"& c #88A914",
"* c #8AAD14",
"= c #8FB013",
"- c #90B314",
"; c #91B414",
": c #93B714",
"> c #94B814",
", c #96BB14",
"< c #96BC15",
"1 c #96BD15",
"2 c #9AC015",
"3 c #9BC015",
"4 c #9DC015",
"5 c #9DC616",
"6 c #A0C816",
"7 c #A1C816",
"8 c #A2C916",
"9 c #A4CE17",
"0 c #A4CF17",
"q c #A7D017",
"w c #A8D217",
"e c #ABD718",
"r c #ADD818",
"t c #AFDA18",
"y c #B0DB18",
"u c None",
/* pixels */
"uuuuuuuuuuuuuuuuuuuuuuuuuuuuuuuuuuuuuuuuuuuuuuuuuuuuuuuuuuuuuuuuuu",
"uuuuuuuuuuuuuuuuuuuuuuuuuuuuuuuuuuuuuuuuuuuuuuuuuuuuuuuuuuuuuuuuuu",
"uuuuuuuuuuuuuuuuuuuuuuuuuuuuuuuuuuuuuuuuuuuuuuuuuuuuuuuuuuuuuuuuuu",
"uuuuuuuuuuuuuuuuuuuuuuuuuuuuuuuuuuuuuuuuuuuuuuuuuuuuuuuuuuuuuuuuuu",
"uuuuu##%%%%%%%%%%oouuuuuuuu##%%%%%%%%%%oouuuuuuuuuuuuuuuuuuuuuuuuu",
"uuuuu##%%%%%%%%%%oouuuuuuuu##%%%%%%%%%%oouuuuuuuuuuuuuuuuuuuuuuuuu",
"uuu--@@ttyyyyyyww++uuuuuu--@@ttyyyyyyww++uuuuu;;++uuuuuuuuuu==$$uu",
"uuu--@@ttyyyyyyww++uuuuuu--@@ttyyyyyyww++uuuuu;;++uuuuuuuuuu==$$uu",
"uuu5500uu      XXttuuuuuu5500uu      XXttuuuuu<<ttuuuuuuuuooyy  uu",
"uuu5500uu      XXttuuuuuu5500uu      XXttuuuuu<<ttuuuuuuuuooyy  uu",
"uuuqqyyuuuuuuuu11yyuuuuuuqqyyuuuuuuuu11yyuuuuu55yyuuuuuuuu;;yyuuuu",
"uuuqqyyuuuuuuuu11yyuuuuuuqqyyuuuuuuuu11yyuuuuu55yyuuuuuuuu;;yyuuuu",
"uuueerruuuuuuuu55yyuuuuuueerruuuuuuuu55yyuuuuu99yyuuuuuuuu<<yyuuuu",
"uuueerruuuuuuuu55yyuuuuuueerruuuuuuuu55yyuuuuu99yyuuuuuuuu<<yyuuuu",
"uuuyy,,uuuuuuuu>>ttuuuuuuyy,,uuuuuuuu>>ttuuuuu77**%%%%%%%%oowwuuuu",
"uuuyy,,uuuuuuuu>>ttuuuuuuyy,,uuuuuuuu>>ttuuuuu77**%%%%%%%%oowwuuuu",
"uuuuuuuuuuuuuuuuuuuuuuuuuuuuuuuuuuuuuuuuuuuuuuuu22yyyyyyyy55uuuuuu",
"uuuuuuuuuuuuuuuuuuuuuuuuuuuuuuuuuuuuuuuuuuuuuuuu22yyyyyyyy55uuuuuu",
"uuu$$uuuuuuuuuuuu..uuuuuu$$uuuuuuuuuuuu..uuuuuuuuu        ++88uuuu",
"uuu$$uuuuuuuuuuuu..uuuuuu$$uuuuuuuuuuuu..uuuuuuuuu        ++88uuuu",
"uuuyy&&uuuuuuuurr66uuuuuuyy&&uuuuuuuurr66uuuuuuuuuuuuuuuuuyywwuuuu",
"uuuyy&&uuuuuuuurr66uuuuuuyy&&uuuuuuuurr66uuuuuuuuuuuuuuuuuyywwuuuu",
"u  yy%%uuuuuuuuyy33uuuu  yy%%uuuuuuuuyy33uuuuuuuuuuuuuuuuuyy66uuuu",
"u  yy%%uuuuuuuuyy33uuuu  yy%%uuuuuuuuyy33uuuuuuuuuuuuuuuuuyy66uuuu",
"u##yy++uuuuuuuuyy::uuuu##yy++uuuuuuuuyy::uuuuuuuuuuuuuuuuutt44uuuu",
"u##yy++uuuuuuuuyy::uuuu##yy++uuuuuuuuyy::uuuuuuuuuuuuuuuuutt44uuuu",
"u**66OO::::::@@00%%uuuu**66OO::::::@@00%%uuuuuuuuuuuuuuuuuoo::uuuu",
"u**66OO::::::@@00%%uuuu**66OO::::::@@00%%uuuuuuuuuuuuuuuuuoo::uuuu",
"uuu==yyyyyyyytt++uuuuuuuu==yyyyyyyytt++uuuuuuuuuuuuuuuuuuuuuuuuuuu",
"uuu==yyyyyyyytt++uuuuuuuu==yyyyyyyytt++uuuuuuuuuuuuuuuuuuuuuuuuuuu",
"uuuuuuuuuuuuuuuuuuuuuuuuuuuuuuuuuuuuuuuuuuuuuuuuuuuuuuuuuuuuuuuuuu",
"uuuuuuuuuuuuuuuuuuuuuuuuuuuuuuuuuuuuuuuuuuuuuuuuuuuuuuuuuuuuuuuuuu",
"uuuuuuuuuuuuuuuuuuuuuuuuuuuuuuuuuuuuuuuuuuuuuuuuuuuuuuuuuuuuuuuuuu",
"uuuuuuuuuuuuuuuuuuuuuuuuuuuuuuuuuuuuuuuuuuuuuuuuuuuuuuuuuuuuuuuuuu"
};
