/* XPM */
static char *result[] = {
/* columns rows colors chars-per-pixel */
"66 34 36 1 ",
"  c #758D17",
". c #769217",
"X c #779217",
"o c #789416",
"O c #799416",
"+ c #7E9B15",
"@ c #7C9916",
"# c #769018",
"$ c #809F16",
"% c #83A015",
"& c #85A314",
"* c #87A714",
"= c #88A615",
"- c #88A914",
"; c #8AAD14",
": c #8FB013",
"> c #8FB113",
", c #90B314",
"< c #93B714",
"1 c #94B814",
"2 c #96BB14",
"3 c #96BD15",
"4 c #98BD15",
"5 c #9BC015",
"6 c #9BC215",
"7 c #9DC616",
"8 c #A0C816",
"9 c #A4CF17",
"0 c #A7D017",
"q c #A8D217",
"w c #AAD317",
"e c #ABD718",
"r c #ADD818",
"t c #AFDA18",
"y c #B0DB18",
"u c None",
/* pixels */
"uuuuuuuuuuuuuuuuuuuuuuuuuuuuuuuuuuuuuuuuuuuuuuuuuuuuuuuuuuuuuuuuuu",
"uuuuuuuuuuuuuuuuuuuuuuuuuuuuuuuuuuuuuuuuuuuuuuuuuuuuuuuuuuuuuuuuuu",
"uuuuuuuuuuuuuuuuuuuuuuuuuuuuuuuuuuuuuuuuuuuuuuuuuuuuuuuuuuuuuuuuuu",
"uuuuuuuuuuuuuuuuuuuuuuuuuuuuu            uuuuuuuuuu            uuu",
"uuuuu%%==========OOuuuuuuuuuu            uuuuuuuuuu            uuu",
"uuuuu%%==========OOuuuuuuuuuurryyyyyytt**..uuuuuuuurryyyyyytt**..u",
"uuu,,$$ttyyyyyyqq@@uuuuuuuuuurryyyyyytt**..uuuuuuuurryyyyyytt**..u",
"uuu,,$$ttyyyyyyqq@@uuuuuuuuuuuu======##99>>uuuuuuuuuu======##99>>u",
"uuu7799uu      oottuuuuuuuuuuuu======##99>>uuuuuuuuuu======##99>>u",
"uuu7799uu      oottuuuuuuuuuuuuuuuuuu..yy&&uuuuuuuuuuuuuuuu..yy&&u",
"uuu00yyuuuuuuuu33yyuuuuuuuuuuuuuuuuuu..yy&&uuuuuuuuuuuuuuuu..yy&&u",
"uuu00yyuuuuuuuu33yyuuuuuuuuuuuuuuuuuu==yy  uuuuuuuuuuuuuuuu==yy  u",
"uuueerruuuuuuuu77yyuuuuuuuuuuuuuuuuuu==yy  uuuuuuuuuuuuuuuu==yy  u",
"uuueerruuuuuuuu77yyuuuuuuuuuuuuuuuuuu@@yyuuuuuuuuuuuuuuuuuu@@yyuuu",
"uuuyy22uuuuuuuu11ttuuuuuuuuuuuuuuuuuu@@yyuuuuuuuuuuuuuuuuuu@@yyuuu",
"uuuyy22uuuuuuuu11ttuuuuuuuuuuttyyyyyy44++uuuuuuuuuuttyyyyyy44++uuu",
"uuuuuuuuuuuuuuuuuuuuuuuuuuuuuttyyyyyy44++uuuuuuuuuuttyyyyyy44++uuu",
"uuuuuuuuuuuuuuuuuuuuuuuuuuu..qqqqqqqq==uuuuuuuuuu..qqqqqqqq==uuuuu",
"uuu&&uuuuuuuuuuuuXXuuuuuuuu..qqqqqqqq==uuuuuuuuuu..qqqqqqqq==uuuuu",
"uuu&&uuuuuuuuuuuuXXuuuuuuyy66uuuuuuuuuuuuuuuuuuyy66uuuuuuuuuuuuuuu",
"uuuyy--uuuuuuuurr88uuuuuuyy66uuuuuuuuuuuuuuuuuuyy66uuuuuuuuuuuuuuu",
"uuuyy--uuuuuuuurr88uuuuuuyy77uuuuuuuuuuuuuuuuuuyy77uuuuuuuuuuuuuuu",
"u  yy==uuuuuuuuyy55uuuuuuyy77uuuuuuuuuuuuuuuuuuyy77uuuuuuuuuuuuuuu",
"u  yy==uuuuuuuuyy55uuuuuuyy55uuuuuuuuuuuuuuuuuuyy55uuuuuuuuuuuuuuu",
"u%%yy@@uuuuuuuuyy<<uuuuuuyy55uuuuuuuuuuuuuuuuuuyy55uuuuuuuuuuuuuuu",
"u%%yy@@uuuuuuuuyy<<uuuuuurrXX======OOuuuuuuuuuurrXX======OOuuuuuuu",
"u;;88++<<<<<<$$99==uuuuuurrXX======OOuuuuuuuuuurrXX======OOuuuuuuu",
"u;;88++<<<<<<$$99==uuuuuu++wwyyyyyyyy++uuuuuuuu++wwyyyyyyyy++uuuuu",
"uuu::yyyyyyyytt@@uuuuuuuu++wwyyyyyyyy++uuuuuuuu++wwyyyyyyyy++uuuuu",
"uuu::yyyyyyyytt@@uuuuuuuuuu            uuuuuuuuuu            uuuuu",
"uuuuuuuuuuuuuuuuuuuuuuuuuuu            uuuuuuuuuu            uuuuu",
"uuuuuuuuuuuuuuuuuuuuuuuuuuuuuuuuuuuuuuuuuuuuuuuuuuuuuuuuuuuuuuuuuu",
"uuuuuuuuuuuuuuuuuuuuuuuuuuuuuuuuuuuuuuuuuuuuuuuuuuuuuuuuuuuuuuuuuu",
"uuuuuuuuuuuuuuuuuuuuuuuuuuuuuuuuuuuuuuuuuuuuuuuuuuuuuuuuuuuuuuuuuu"
};
