/* XPM */
static char *result[] = {
/* columns rows colors chars-per-pixel */
"66 34 42 1 ",
"  c #758D17",
". c #708819",
"X c #728C18",
"o c #779217",
"O c #789416",
"+ c #799416",
"@ c #7E9B15",
"# c #7C9916",
"$ c #7E9A16",
"% c #809F16",
"& c #83A015",
"* c #85A314",
"= c #88A615",
"- c #8CAE13",
"; c #8DAE13",
": c #88A914",
"> c #8AAD14",
", c #8FB013",
"< c #90B314",
"1 c #93B714",
"2 c #94B814",
"3 c #96BA14",
"4 c #96BB14",
"5 c #96BD15",
"6 c #98BD15",
"7 c #9BC015",
"8 c #9BC215",
"9 c #9DC516",
"0 c #9DC616",
"q c #A0C816",
"w c #A3C916",
"e c #A3CC16",
"r c #A4CD16",
"t c #A4CF17",
"y c #A7D017",
"u c #A8D217",
"i c #AAD317",
"p c #ABD718",
"a c #ADD818",
"s c #AFDA18",
"d c #B0DB18",
"f c None",
/* pixels */
"ffffffffffffffffffffffffffffffffffffffffffffffffffffffffffffffffff",
"ffffffffffffffffffffffffffffffffffffffffffffffffffffffffffffffffff",
"ffffffffffffffffffffffffffffffffffffffffffffffffffffffffffffffffff",
"ffffffffffffffffffffffffffffffffffffffffffffffffffffffffffffffffff",
"fffffffffffffffffffffffffff$$ssddddddddiiffffffff&&==========++fff",
"fffffffffffffffffffffffffff$$ssddddddddiiffffffff&&==========++fff",
"ffffffffffffff&&;;fffffffffuu##uuuuuuwwffffffff<<%%ssdddddduu##fff",
"ffffffffffffff&&;;fffffffffuu##uuuuuuwwffffffff<<%%ssdddddduu##fff",
"ffffffffffffff>>ddfffffffffdd<<ffffffffffffffff00ttff      OOssfff",
"ffffffffffffff>>ddfffffffffdd<<ffffffffffffffff00ttff      OOssfff",
"ffffffffffffff11ddfffffff  dd==ffffffffffffffffyyddffffffff55ddfff",
"ffffffffffffff11ddfffffff  dd==ffffffffffffffffyyddffffffff55ddfff",
"ffffffffffffff88ddfffffff**dd  ffffffffffffffffppaaffffffff00ddfff",
"ffffffffffffff88ddfffffff**dd  ffffffffffffffffppaaffffffff00ddfff",
"ffffffffffffff44,,fffffffff77--111111&&ffffffffdd44ffffffff22ssfff",
"ffffffffffffff44,,fffffffff77--111111&&ffffffffdd44ffffffff22ssfff",
"fffffffffffffffffffffffffffffddddddddppfffffffffffffffffffffffffff",
"fffffffffffffffffffffffffffffddddddddppfffffffffffffffffffffffffff",
"ffffffffffffffeeXXfffffffffffffffffff..iiffffff**ffffffffffffoofff",
"ffffffffffffffeeXXfffffffffffffffffff..iiffffff**ffffffffffffoofff",
"ffffffffffffffddrrfffffffffffffffffff33ddffffffdd::ffffffffaaqqfff",
"ffffffffffffffddrrfffffffffffffffffff33ddffffffdd::ffffffffaaqqfff",
"ffffffffffffffdd00fffffffffffffffffff00ddffff  dd==ffffffffdd77fff",
"ffffffffffffffdd00fffffffffffffffffff00ddffff  dd==ffffffffdd77fff",
"ffffffffffffffdd<<fffffffffffffffffff99ddffff&&dd##ffffffffdd11fff",
"ffffffffffffffdd<<fffffffffffffffffff99ddffff&&dd##ffffffffdd11fff",
"ffffffffffffff66fffffffffff%%dddddddd%%rrffff>>qq@@111111%%tt==fff",
"ffffffffffffff66fffffffffff%%dddddddd%%rrffff>>qq@@111111%%tt==fff",
"fffffffffffffffffffffffffff000000000099ffffffff,,ddddddddss##fffff",
"fffffffffffffffffffffffffff000000000099ffffffff,,ddddddddss##fffff",
"ffffffffffffffffffffffffffffffffffffffffffffffffffffffffffffffffff",
"ffffffffffffffffffffffffffffffffffffffffffffffffffffffffffffffffff",
"ffffffffffffffffffffffffffffffffffffffffffffffffffffffffffffffffff",
"ffffffffffffffffffffffffffffffffffffffffffffffffffffffffffffffffff"
};
