/* XPM */
static char *result[] = {
/* columns rows colors chars-per-pixel */
"66 34 42 1 ",
"  c #758D17",
". c #728C18",
"X c #779217",
"o c #789416",
"O c #799416",
"+ c #7E9B15",
"@ c #7C9916",
"# c #809F16",
"$ c #83A015",
"% c #85A314",
"& c #88A615",
"* c #8DAE13",
"= c #88A914",
"- c #8AAD14",
"; c #8FB013",
": c #90B314",
"> c #91B414",
", c #93B714",
"< c #94B814",
"1 c #96BB14",
"2 c #96BC15",
"3 c #96BD15",
"4 c #98BD15",
"5 c #9AC015",
"6 c #9BC015",
"7 c #9BC215",
"8 c #9DC015",
"9 c #9DC616",
"0 c #A0C816",
"q c #A1C816",
"w c #A2C916",
"e c #A3CC16",
"r c #A4CD16",
"t c #A4CE17",
"y c #A4CF17",
"u c #A7D017",
"i c #A8D217",
"p c #ABD718",
"a c #ADD818",
"s c #AFDA18",
"d c #B0DB18",
"f c None",
/* pixels */
"ffffffffffffffffffffffffffffffffffffffffffffffffffffffffffffffffff",
"ffffffffffffffffffffffffffffffffffffffffffffffffffffffffffffffffff",
"ffffffffffffffffffffffffffffffffffffffffffffffffffffffffffffffffff",
"ffffffffffffffffffffffffffffffffffffffffffffffffffffffffffffffffff",
"fffff$$&&&&&&&&&&OOfffffffffffffffffffffffffffffffffffffffffffffff",
"fffff$$&&&&&&&&&&OOfffffffffffffffffffffffffffffffffffffffffffffff",
"fff::##ssddddddii@@fffffffffffffffff$$**ffffff>>@@ffffffffff;;%%ff",
"fff::##ssddddddii@@fffffffffffffffff$$**ffffff>>@@ffffffffff;;%%ff",
"fff99yyff      oossfffffffffffffffff--ddffffff22ssffffffffOOdd  ff",
"fff99yyff      oossfffffffffffffffff--ddffffff22ssffffffffOOdd  ff",
"fffuuddffffffff33ddfffffffffffffffff,,ddffffff99ddffffffff>>ddffff",
"fffuuddffffffff33ddfffffffffffffffff,,ddffffff99ddffffffff>>ddffff",
"fffppaaffffffff99ddfffffffffffffffff77ddffffffttddffffffff22ddffff",
"fffppaaffffffff99ddfffffffffffffffff77ddffffffttddffffffff22ddffff",
"fffdd11ffffffff<<ssfffffffffffffffff11;;ffffffqq--&&&&&&&&OOiiffff",
"fffdd11ffffffff<<ssfffffffffffffffff11;;ffffffqq--&&&&&&&&OOiiffff",
"ffffffffffffffffffffffffffffffffffffffffffffffff55dddddddd99ffffff",
"ffffffffffffffffffffffffffffffffffffffffffffffff55dddddddd99ffffff",
"fff%%ffffffffffffXXfffffffffffffffffee..ffffffffff        @@wwffff",
"fff%%ffffffffffffXXfffffffffffffffffee..ffffffffff        @@wwffff",
"fffdd==ffffffffaa00fffffffffffffffffddrrffffffffffffffffffddiiffff",
"fffdd==ffffffffaa00fffffffffffffffffddrrffffffffffffffffffddiiffff",
"f  dd&&ffffffffdd66fffffffffffffffffdd99ffffffffffffffffffdd00ffff",
"f  dd&&ffffffffdd66fffffffffffffffffdd99ffffffffffffffffffdd00ffff",
"f$$dd@@ffffffffdd,,fffffffffffffffffdd::ffffffffffffffffffss88ffff",
"f$$dd@@ffffffffdd,,fffffffffffffffffdd::ffffffffffffffffffss88ffff",
"f--00++,,,,,,##yy&&fffffffffffffffff44ffffffffffffffffffffOO,,ffff",
"f--00++,,,,,,##yy&&fffffffffffffffff44ffffffffffffffffffffOO,,ffff",
"fff;;ddddddddss@@fffffffffffffffffffffffffffffffffffffffffffffffff",
"fff;;ddddddddss@@fffffffffffffffffffffffffffffffffffffffffffffffff",
"ffffffffffffffffffffffffffffffffffffffffffffffffffffffffffffffffff",
"ffffffffffffffffffffffffffffffffffffffffffffffffffffffffffffffffff",
"ffffffffffffffffffffffffffffffffffffffffffffffffffffffffffffffffff",
"ffffffffffffffffffffffffffffffffffffffffffffffffffffffffffffffffff"
};
