/* XPM */
static char *result[] = {
/* columns rows colors chars-per-pixel */
"66 34 43 1 ",
"  c #758D17",
". c #769217",
"X c #779217",
"o c #789416",
"O c #799416",
"+ c #7E9B15",
"@ c #7C9916",
"# c #769018",
"$ c #809F16",
"% c #83A015",
"& c #85A314",
"* c #87A714",
"= c #88A615",
"- c #88A914",
"; c #8AAD14",
": c #8FB013",
"> c #8FB113",
", c #90B314",
"< c #91B414",
"1 c #93B714",
"2 c #94B814",
"3 c #96BB14",
"4 c #96BC15",
"5 c #96BD15",
"6 c #98BD15",
"7 c #9AC015",
"8 c #9BC015",
"9 c #9BC215",
"0 c #9DC015",
"q c #9DC616",
"w c #A0C816",
"e c #A1C816",
"r c #A2C916",
"t c #A4CE17",
"y c #A4CF17",
"u c #A7D017",
"i c #A8D217",
"p c #AAD317",
"a c #ABD718",
"s c #ADD818",
"d c #AFDA18",
"f c #B0DB18",
"g c None",
/* pixels */
"gggggggggggggggggggggggggggggggggggggggggggggggggggggggggggggggggg",
"gggggggggggggggggggggggggggggggggggggggggggggggggggggggggggggggggg",
"gggggggggggggggggggggggggggggggggggggggggggggggggggggggggggggggggg",
"ggggggggggggggggggggggggggggg            ggggggggggggggggggggggggg",
"ggggg%%==========OOgggggggggg            ggggggggggggggggggggggggg",
"ggggg%%==========OOggggggggggssffffffdd**..ggggggggggggggggggggggg",
"ggg,,$$ddffffffii@@ggggggggggssffffffdd**..ggg<<@@gggggggggg::&&gg",
"ggg,,$$ddffffffii@@gggggggggggg======##yy>>ggg<<@@gggggggggg::&&gg",
"gggqqyygg      ooddgggggggggggg======##yy>>ggg44ddggggggggOOff  gg",
"gggqqyygg      ooddgggggggggggggggggg..ff&&ggg44ddggggggggOOff  gg",
"ggguuffgggggggg55ffgggggggggggggggggg..ff&&gggqqffgggggggg<<ffgggg",
"ggguuffgggggggg55ffgggggggggggggggggg==ff  gggqqffgggggggg<<ffgggg",
"gggaassggggggggqqffgggggggggggggggggg==ff  gggttffgggggggg44ffgggg",
"gggaassggggggggqqffgggggggggggggggggg@@ffgggggttffgggggggg44ffgggg",
"gggff33gggggggg22ddgggggggggggggggggg@@ffgggggee;;========OOiigggg",
"gggff33gggggggg22ddggggggggggddffffff66++gggggee;;========OOiigggg",
"gggggggggggggggggggggggggggggddffffff66++ggggggg77ffffffffqqgggggg",
"ggggggggggggggggggggggggggg..iiiiiiii==ggggggggg77ffffffffqqgggggg",
"ggg&&ggggggggggggXXgggggggg..iiiiiiii==ggggggggggg        @@rrgggg",
"ggg&&ggggggggggggXXggggggff99ggggggggggggggggggggg        @@rrgggg",
"gggff--ggggggggsswwggggggff99gggggggggggggggggggggggggggggffiigggg",
"gggff--ggggggggsswwggggggffqqgggggggggggggggggggggggggggggffiigggg",
"g  ff==ggggggggff88ggggggffqqgggggggggggggggggggggggggggggffwwgggg",
"g  ff==ggggggggff88ggggggff88gggggggggggggggggggggggggggggffwwgggg",
"g%%ff@@ggggggggff11ggggggff88gggggggggggggggggggggggggggggdd00gggg",
"g%%ff@@ggggggggff11ggggggssXX======OOgggggggggggggggggggggdd00gggg",
"g;;ww++111111$$yy==ggggggssXX======OOgggggggggggggggggggggOO11gggg",
"g;;ww++111111$$yy==gggggg++ppffffffff++gggggggggggggggggggOO11gggg",
"ggg::ffffffffdd@@gggggggg++ppffffffff++ggggggggggggggggggggggggggg",
"ggg::ffffffffdd@@gggggggggg            ggggggggggggggggggggggggggg",
"ggggggggggggggggggggggggggg            ggggggggggggggggggggggggggg",
"gggggggggggggggggggggggggggggggggggggggggggggggggggggggggggggggggg",
"gggggggggggggggggggggggggggggggggggggggggggggggggggggggggggggggggg",
"gggggggggggggggggggggggggggggggggggggggggggggggggggggggggggggggggg"
};
