/* XPM */
static char *result[] = {
/* columns rows colors chars-per-pixel */
"66 34 48 1 ",
"  c gray15",
". c #2D3124",
"X c #4B5A1E",
"o c #4D591F",
"O c #5B6B1D",
"+ c #5C6F1C",
"@ c #60731C",
"# c #657A1B",
"$ c #424B21",
"% c #465020",
"& c #6E8518",
"* c #758D17",
"= c #748B18",
"- c #779217",
"; c #789416",
": c #799416",
"> c #7D9B15",
", c #7E9B15",
"< c #7C9916",
"1 c #809F16",
"2 c #83A015",
"3 c #85A314",
"4 c #88A615",
"5 c #88A914",
"6 c #8AAD14",
"7 c #8FB013",
"8 c #8FB113",
"9 c #90B314",
"0 c #93B714",
"q c #94B814",
"w c #96BB14",
"e c #96BD15",
"r c #9BC015",
"t c #9EC415",
"y c #9DC616",
"u c #9FC616",
"i c #A0C816",
"p c #A4CF17",
"a c #A7D017",
"s c #A8D217",
"d c #AAD217",
"f c #ABD517",
"g c #ABD718",
"h c #ADD818",
"j c #AFD918",
"k c #AFDA18",
"l c #B0DB18",
"z c None",
/* pixels */
"zzzzzzzzzzzzzzzzzzzzzzzzzzzzzzzzzzzzzzzzzzzzzzzzzzzzzzzzzzzzzzzzzz",
"zzzzzzzzzzzzzzzzzzzzzzzzzzzzzzzzzzzzzzzzzzzzzzzzzzzzzzzzzzzzzzzzzz",
"zzzzzzzzzzzzzzzzzzzzzzzzzzzzzzzzzzzzzzzzzzzzzzzzzzzzzzzzzzzzzzzzzz",
"zzzzzzzzzzzzzzzzzzzzzzzzzzzzzzzzzzzzzzzzzzzzzzzzzzzzzzzzzzzzzzzzzz",
"zzzzz224444444444::zzzzzzzz224444444444::zzzzz$$444444444444##zzzz",
"zzzzz224444444444::zzzzzzzz224444444444::zzzzz$$444444444444##zzzz",
"zzz9911kkllllllss<<zzzzzz9911kkllllllss<<zzzzzzz88lllllllltt55%%zz",
"zzz9911kkllllllss<<zzzzzz9911kkllllllss<<zzzzzzz88lllllllltt55%%zz",
"zzzyyppzz******;;kkzzzzzzyyppzz******;;kkzzzzzzzzz&&****==88ll..zz",
"zzzyyppzz******;;kkzzzzzzyyppzz******;;kkzzzzzzzzz&&****==88ll..zz",
"zzzaallzzzzzzzzeellzzzzzzaallzzzzzzzzeellzzzzzzzzzzzzzzzzzffjjzzzz",
"zzzaallzzzzzzzzeellzzzzzzaallzzzzzzzzeellzzzzzzzzzzzzzzzzzffjjzzzz",
"zzzgghhzzzzzzzzyyllzzzzzzgghhzzzzzzzzyyllzzzzzzzzzzzzzzzz llddzzzz",
"zzzgghhzzzzzzzzyyllzzzzzzgghhzzzzzzzzyyllzzzzzzzzzzzzzzzz llddzzzz",
"zzzllwwzzzzzzzzqqkkzzzzzzllwwzzzzzzzzqqkkzzzzzzzzzzzzzzz..ppuuzzzz",
"zzzllwwzzzzzzzzqqkkzzzzzzllwwzzzzzzzzqqkkzzzzzzzzzzzzzzz..ppuuzzzz",
"zzzzzzzzzzzzzzzzzzzzzzzzzzzzzzzzzzzzzzzzzzzzzzzzzzzzzzzzzzoooozzzz",
"zzzzzzzzzzzzzzzzzzzzzzzzzzzzzzzzzzzzzzzzzzzzzzzzzzzzzzzzzzoooozzzz",
"zzz33zzzzzzzzzzzz--zzzzzz33zzzzzzzzzzzz--zzzzzzzzzzzzzzzzz&&OOzzzz",
"zzz33zzzzzzzzzzzz--zzzzzz33zzzzzzzzzzzz--zzzzzzzzzzzzzzzzz&&OOzzzz",
"zzzll55zzzzzzzzhhiizzzzzzll55zzzzzzzzhhiizzzzzzzzzzzzzzz##ll55zzzz",
"zzzll55zzzzzzzzhhiizzzzzzll55zzzzzzzzhhiizzzzzzzzzzzzzzz##ll55zzzz",
"z**ll44zzzzzzzzllrrzzzz**ll44zzzzzzzzllrrzzzzzzzzzzzzzzz>>ll>>zzzz",
"z**ll44zzzzzzzzllrrzzzz**ll44zzzzzzzzllrrzzzzzzzzzzzzzzz>>ll>>zzzz",
"z22ll<<zzzzzzzzll00zzzz22ll<<zzzzzzzzll00zzzzzzzzzzzzzzz55ll**zzzz",
"z22ll<<zzzzzzzzll00zzzz22ll<<zzzzzzzzll00zzzzzzzzzzzzzzz55ll**zzzz",
"z66ii,,00000011pp44zzzz66ii,,00000011pp44zzzzzzzzzzzzzzzoohh@@zzzz",
"z66ii,,00000011pp44zzzz66ii,,00000011pp44zzzzzzzzzzzzzzzoohh@@zzzz",
"zzz77llllllllkk<<zzzzzzzz77llllllllkk<<zzzzzzzzzzzzzzzzzzz++XXzzzz",
"zzz77llllllllkk<<zzzzzzzz77llllllllkk<<zzzzzzzzzzzzzzzzzzz++XXzzzz",
"zzzzzzzzzzzzzzzzzzzzzzzzzzzzzzzzzzzzzzzzzzzzzzzzzzzzzzzzzzzzzzzzzz",
"zzzzzzzzzzzzzzzzzzzzzzzzzzzzzzzzzzzzzzzzzzzzzzzzzzzzzzzzzzzzzzzzzz",
"zzzzzzzzzzzzzzzzzzzzzzzzzzzzzzzzzzzzzzzzzzzzzzzzzzzzzzzzzzzzzzzzzz",
"zzzzzzzzzzzzzzzzzzzzzzzzzzzzzzzzzzzzzzzzzzzzzzzzzzzzzzzzzzzzzzzzzz"
};
