/* XPM */
static char *result[] = {
/* columns rows colors chars-per-pixel */
"66 34 40 1 ",
"  c #758D17",
". c #708819",
"X c #769217",
"o c #779217",
"O c #789416",
"+ c #799416",
"@ c #7E9B15",
"# c #7C9916",
"$ c #769018",
"% c #809F16",
"& c #83A015",
"* c #85A314",
"= c #87A714",
"- c #88A615",
"; c #88A914",
": c #8AAD14",
"> c #8FB013",
", c #8FB113",
"< c #90B314",
"1 c #91B414",
"2 c #93B714",
"3 c #94B814",
"4 c #96BB14",
"5 c #96BD15",
"6 c #98BD15",
"7 c #9BC015",
"8 c #9BC215",
"9 c #9DC616",
"0 c #A0C816",
"q c #A3CC16",
"w c #A4CD16",
"e c #A4CF17",
"r c #A7D017",
"t c #A8D217",
"y c #AAD317",
"u c #ABD718",
"i c #ADD818",
"p c #AFDA18",
"a c #B0DB18",
"s c None",
/* pixels */
"ssssssssssssssssssssssssssssssssssssssssssssssssssssssssssssssssss",
"ssssssssssssssssssssssssssssssssssssssssssssssssssssssssssssssssss",
"ssssssssssssssssssssssssssssssssssssssssssssssssssssssssssssssssss",
"sssssssssssssssssssssssssssss            sssssssssssssssssssssssss",
"sssss&&----------++ssssssssss            sssssssssttttttttttwwssss",
"sssss&&----------++ssssssssssiiaaaaaapp==XXsssssssttttttttttwwssss",
"sss<<%%ppaaaaaatt##ssssssssssiiaaaaaapp==XXsssssss@@aaaaaayy@@00ss",
"sss<<%%ppaaaaaatt##ssssssssssss------$$ee,,sssssss@@aaaaaayy@@00ss",
"sss99eess      OOppssssssssssss------$$ee,,sssssssssssssssssii99ss",
"sss99eess      OOppssssssssssssssssssXXaa**sssssssssssssssssii99ss",
"sssrraassssssss55aassssssssssssssssssXXaa**sssssssssssssssssaa55ss",
"sssrraassssssss55aassssssssssssssssss--aa  sssssssssssssssssaa55ss",
"sssuuiissssssss99aassssssssssssssssss--aa  sssssssssssssssssaa11ss",
"sssuuiissssssss99aassssssssssssssssss##aasssssssssssssssssssaa11ss",
"sssaa44ssssssss33ppssssssssssssssssss##aasssssssss++------XXqq..ss",
"sssaa44ssssssss33ppssssssssssppaaaaaa66@@sssssssss++------XXqq..ss",
"sssssssssssssssssssssssssssssppaaaaaa66@@sssssssssaaaaaaaappssssss",
"sssssssssssssssssssssssssssXXtttttttt--sssssssssssaaaaaaaappssssss",
"sss**ssssssssssssoossssssssXXtttttttt--sssssssssssss      sswwssss",
"sss**ssssssssssssoossssssaa88sssssssssssssssssssssss      sswwssss",
"sssaa;;ssssssssii00ssssssaa88sssssssssssssssssssssssssssss22aassss",
"sssaa;;ssssssssii00ssssssaa99sssssssssssssssssssssssssssss22aassss",
"s  aa--ssssssssaa77ssssssaa99sssssssssssssssssssssssssssss99aassss",
"s  aa--ssssssssaa77ssssssaa77sssssssssssssssssssssssssssss99aassss",
"s&&aa##ssssssssaa22ssssssaa77sssssssssssssssssssssssssssss99aassss",
"s&&aa##ssssssssaa22ssssssiioo------++sssssssssssssssssssss99aassss",
"s::00@@222222%%ee--ssssssiioo------++sssssssssssssppaaaapp##yyssss",
"s::00@@222222%%ee--ssssss@@yyaaaaaaaa@@sssssssssssppaaaapp##yyssss",
"sss>>aaaaaaaapp##ssssssss@@yyaaaaaaaa@@sssssssssttttttttttwwssssss",
"sss>>aaaaaaaapp##ssssssssss            sssssssssttttttttttwwssssss",
"sssssssssssssssssssssssssss            sssssssssssssssssssssssssss",
"ssssssssssssssssssssssssssssssssssssssssssssssssssssssssssssssssss",
"ssssssssssssssssssssssssssssssssssssssssssssssssssssssssssssssssss",
"ssssssssssssssssssssssssssssssssssssssssssssssssssssssssssssssssss"
};
