/* XPM */
static char *result[] = {
/* columns rows colors chars-per-pixel */
"66 34 29 1 ",
"  c #758D17",
". c #779217",
"X c #789416",
"o c #799416",
"O c #7E9B15",
"+ c #7C9916",
"@ c #809F16",
"# c #83A015",
"$ c #85A314",
"% c #88A615",
"& c #88A914",
"* c #8AAD14",
"= c #8FB013",
"- c #90B314",
"; c #93B714",
": c #94B814",
"> c #96BB14",
", c #96BD15",
"< c #9BC015",
"1 c #9DC616",
"2 c #A0C816",
"3 c #A4CF17",
"4 c #A7D017",
"5 c #A8D217",
"6 c #ABD718",
"7 c #ADD818",
"8 c #AFDA18",
"9 c #B0DB18",
"0 c None",
/* pixels */
"000000000000000000000000000000000000000000000000000000000000000000",
"000000000000000000000000000000000000000000000000000000000000000000",
"000000000000000000000000000000000000000000000000000000000000000000",
"000000000000000000000000000000000000000000000000000000000000000000",
"00000##%%%%%%%%%%oo00000000##%%%%%%%%%%oo00000000##%%%%%%%%%%oo000",
"00000##%%%%%%%%%%oo00000000##%%%%%%%%%%oo00000000##%%%%%%%%%%oo000",
"000--@@8899999955++000000--@@8899999955++000000--@@8899999955++000",
"000--@@8899999955++000000--@@8899999955++000000--@@8899999955++000",
"000113300      XX88000000113300      XX88000000113300      XX88000",
"000113300      XX88000000113300      XX88000000113300      XX88000",
"000449900000000,,99000000449900000000,,99000000449900000000,,99000",
"000449900000000,,99000000449900000000,,99000000449900000000,,99000",
"000667700000000119900000066770000000011990000006677000000001199000",
"000667700000000119900000066770000000011990000006677000000001199000",
"00099>>00000000::8800000099>>00000000::8800000099>>00000000::88000",
"00099>>00000000::8800000099>>00000000::8800000099>>00000000::88000",
"000000000000000000000000000000000000000000000000000000000000000000",
"000000000000000000000000000000000000000000000000000000000000000000",
"000$$000000000000..000000$$000000000000..000000$$000000000000..000",
"000$$000000000000..000000$$000000000000..000000$$000000000000..000",
"00099&&00000000772200000099&&00000000772200000099&&000000007722000",
"00099&&00000000772200000099&&00000000772200000099&&000000007722000",
"0  99%%0000000099<<0000  99%%0000000099<<0000  99%%0000000099<<000",
"0  99%%0000000099<<0000  99%%0000000099<<0000  99%%0000000099<<000",
"0##99++0000000099;;0000##99++0000000099;;0000##99++0000000099;;000",
"0##99++0000000099;;0000##99++0000000099;;0000##99++0000000099;;000",
"0**22OO;;;;;;@@33%%0000**22OO;;;;;;@@33%%0000**22OO;;;;;;@@33%%000",
"0**22OO;;;;;;@@33%%0000**22OO;;;;;;@@33%%0000**22OO;;;;;;@@33%%000",
"000==9999999988++00000000==9999999988++00000000==9999999988++00000",
"000==9999999988++00000000==9999999988++00000000==9999999988++00000",
"000000000000000000000000000000000000000000000000000000000000000000",
"000000000000000000000000000000000000000000000000000000000000000000",
"000000000000000000000000000000000000000000000000000000000000000000",
"000000000000000000000000000000000000000000000000000000000000000000"
};
