/* XPM */
static char *result[] = {
/* columns rows colors chars-per-pixel */
"66 34 42 1 ",
"  c #6F8618",
". c #758D17",
"X c #738B18",
"o c #779217",
"O c #789416",
"+ c #799416",
"@ c #7E9B15",
"# c #7C9916",
"$ c #809E16",
"% c #809F16",
"& c #83A015",
"* c #85A314",
"= c #88A615",
"- c #8CAE13",
"; c #88A914",
": c #8AAD14",
"> c #8FB013",
", c #90B314",
"< c #91B614",
"1 c #93B714",
"2 c #94B814",
"3 c #96BB14",
"4 c #96BD15",
"5 c #98BD15",
"6 c #9BC015",
"7 c #9BC215",
"8 c #9DC616",
"9 c #A0C816",
"0 c #A3C916",
"q c #A4CD16",
"w c #A4CE17",
"e c #A4CF17",
"r c #A7D017",
"t c #A8D217",
"y c #AAD317",
"u c #ABD517",
"i c #ABD718",
"p c #ADD818",
"a c #ADD918",
"s c #AFDA18",
"d c #B0DB18",
"f c None",
/* pixels */
"ffffffffffffffffffffffffffffffffffffffffffffffffffffffffffffffffff",
"ffffffffffffffffffffffffffffffffffffffffffffffffffffffffffffffffff",
"ffffffffffffffffffffffffffffffffffffffffffffffffffffffffffffffffff",
"ffffffffffffffffffffffffffffffffffffffffffffffffffffffffffffffffff",
"fffff&&==========++ffffffff&&==========++ffffffff00tttttttttt$$fff",
"fffff&&==========++ffffffff&&==========++ffffffff00tttttttttt$$fff",
"fff,,%%ssddddddtt##ffffff,,%%ssddddddtt##ffffffqq++yydddddd::77fff",
"fff,,%%ssddddddtt##ffffff,,%%ssddddddtt##ffffffqq++yydddddd::77fff",
"fff88eeff......OOssffffff88eeff......OOssffffffyyuuffffffff44ddfff",
"fff88eeff......OOssffffff88eeff......OOssffffffyyuuffffffff44ddfff",
"fffrrddffffffff44ddffffffrrddffffffff44ddffffffddttffffffffwwddfff",
"fffrrddffffffff44ddffffffrrddffffffff44ddffffffddttffffffffwwddfff",
"fffiippffffffff88ddffffffiippffffffff88ddffffffdd00ffffffffyyaafff",
"fffiippffffffff88ddffffffiippffffffff88ddffffffdd00ffffffffyyaafff",
"fffdd33ffffffff22ssffffffdd33ffffffff22ssffffffyy%%======**::77fff",
"fffdd33ffffffff22ssffffffdd33ffffffff22ssffffffyy%%======**::77fff",
"fffffffffffffffffffffffffffffffffffffffffffffffffyydddddddd==fffff",
"fffffffffffffffffffffffffffffffffffffffffffffffffyydddddddd==fffff",
"fff**ffffffffffffooffffff**ffffffffffffooffffffqqff......  <<--fff",
"fff**ffffffffffffooffffff**ffffffffffffooffffffqqff......  <<--fff",
"fffdd;;ffffffffpp99ffffffdd;;ffffffffpp99ffff@@dd@@ffffffffdd11fff",
"fffdd;;ffffffffpp99ffffffdd;;ffffffffpp99ffff@@dd@@ffffffffdd11fff",
"f..dd==ffffffffdd66ffff..dd==ffffffffdd66ffff;;dd..ffffffXXdd;;fff",
"f..dd==ffffffffdd66ffff..dd==ffffffffdd66ffff;;dd..ffffffXXdd;;fff",
"f&&dd##ffffffffdd11ffff&&dd##ffffffffdd11ffff11ssffffffff..dd%%fff",
"f&&dd##ffffffffdd11ffff&&dd##ffffffffdd11ffff11ssffffffff..dd%%fff",
"f::99@@111111%%ee==ffff::99@@111111%%ee==ffff66##eedddddd3355..fff",
"f::99@@111111%%ee==ffff::99@@111111%%ee==ffff66##eedddddd3355..fff",
"fff>>ddddddddss##ffffffff>>ddddddddss##ffffffff00tttttttttt$$fffff",
"fff>>ddddddddss##ffffffff>>ddddddddss##ffffffff00tttttttttt$$fffff",
"ffffffffffffffffffffffffffffffffffffffffffffffffffffffffffffffffff",
"ffffffffffffffffffffffffffffffffffffffffffffffffffffffffffffffffff",
"ffffffffffffffffffffffffffffffffffffffffffffffffffffffffffffffffff",
"ffffffffffffffffffffffffffffffffffffffffffffffffffffffffffffffffff"
};
