/* XPM */
static char *result[] = {
/* columns rows colors chars-per-pixel */
"66 34 39 1 ",
"  c #758D17",
". c #708819",
"X c #728C18",
"o c #769217",
"O c #779217",
"+ c #789416",
"@ c #799416",
"# c #7E9B15",
"$ c #7C9916",
"% c #809F16",
"& c #83A015",
"* c #85A314",
"= c #88A615",
"- c #8DAE13",
"; c #88A914",
": c #8AAD14",
"> c #8FB013",
", c #90B314",
"< c #91B414",
"1 c #93B714",
"2 c #94B814",
"3 c #96BB14",
"4 c #96BD15",
"5 c #98BD15",
"6 c #9BC015",
"7 c #9BC215",
"8 c #9DC616",
"9 c #A0C816",
"0 c #A3CC16",
"q c #A4CD16",
"w c #A4CF17",
"e c #A7D017",
"r c #A8D217",
"t c #AAD317",
"y c #ABD718",
"u c #ADD818",
"i c #AFDA18",
"p c #B0DB18",
"a c None",
/* pixels */
"aaaaaaaaaaaaaaaaaaaaaaaaaaaaaaaaaaaaaaaaaaaaaaaaaaaaaaaaaaaaaaaaaa",
"aaaaaaaaaaaaaaaaaaaaaaaaaaaaaaaaaaaaaaaaaaaaaaaaaaaaaaaaaaaaaaaaaa",
"aaaaaaaaaaaaaaaaaaaaaaaaaaaaaaaaaaaaaaaaaaaaaaaaaaaaaaaaaaaaaaaaaa",
"aaaaaaaaaaaaaaaaaaaaaaaaaaaaaaaaaaaaaaaaaaaaaaaaaaaaaaaaaaaaaaaaaa",
"aaaaa&&==========@@aaaaaaaaaaaaaaaaaaaaaaaaaaaaaaarrrrrrrrrrqqaaaa",
"aaaaa&&==========@@aaaaaaaaaaaaaaaaaaaaaaaaaaaaaaarrrrrrrrrrqqaaaa",
"aaa,,%%iipppppprr$$aaaaaaaaaaaaaaaaa&&--aaaaaaaaaa##pppppptt##99aa",
"aaa,,%%iipppppprr$$aaaaaaaaaaaaaaaaa&&--aaaaaaaaaa##pppppptt##99aa",
"aaa88wwaa      ++iiaaaaaaaaaaaaaaaaa::ppaaaaaaaaaaaaaaaaaaaauu88aa",
"aaa88wwaa      ++iiaaaaaaaaaaaaaaaaa::ppaaaaaaaaaaaaaaaaaaaauu88aa",
"aaaeeppaaaaaaaa44ppaaaaaaaaaaaaaaaaa11ppaaaaaaaaaaaaaaaaaaaapp44aa",
"aaaeeppaaaaaaaa44ppaaaaaaaaaaaaaaaaa11ppaaaaaaaaaaaaaaaaaaaapp44aa",
"aaayyuuaaaaaaaa88ppaaaaaaaaaaaaaaaaa77ppaaaaaaaaaaaaaaaaaaaapp<<aa",
"aaayyuuaaaaaaaa88ppaaaaaaaaaaaaaaaaa77ppaaaaaaaaaaaaaaaaaaaapp<<aa",
"aaapp33aaaaaaaa22iiaaaaaaaaaaaaaaaaa33>>aaaaaaaaaa@@======oo00..aa",
"aaapp33aaaaaaaa22iiaaaaaaaaaaaaaaaaa33>>aaaaaaaaaa@@======oo00..aa",
"aaaaaaaaaaaaaaaaaaaaaaaaaaaaaaaaaaaaaaaaaaaaaaaaaappppppppiiaaaaaa",
"aaaaaaaaaaaaaaaaaaaaaaaaaaaaaaaaaaaaaaaaaaaaaaaaaappppppppiiaaaaaa",
"aaa**aaaaaaaaaaaaOOaaaaaaaaaaaaaaaaa00XXaaaaaaaaaaaa      aaqqaaaa",
"aaa**aaaaaaaaaaaaOOaaaaaaaaaaaaaaaaa00XXaaaaaaaaaaaa      aaqqaaaa",
"aaapp;;aaaaaaaauu99aaaaaaaaaaaaaaaaappqqaaaaaaaaaaaaaaaaaa11ppaaaa",
"aaapp;;aaaaaaaauu99aaaaaaaaaaaaaaaaappqqaaaaaaaaaaaaaaaaaa11ppaaaa",
"a  pp==aaaaaaaapp66aaaaaaaaaaaaaaaaapp88aaaaaaaaaaaaaaaaaa88ppaaaa",
"a  pp==aaaaaaaapp66aaaaaaaaaaaaaaaaapp88aaaaaaaaaaaaaaaaaa88ppaaaa",
"a&&pp$$aaaaaaaapp11aaaaaaaaaaaaaaaaapp,,aaaaaaaaaaaaaaaaaa88ppaaaa",
"a&&pp$$aaaaaaaapp11aaaaaaaaaaaaaaaaapp,,aaaaaaaaaaaaaaaaaa88ppaaaa",
"a::99##111111%%ww==aaaaaaaaaaaaaaaaa55aaaaaaaaaaaaiippppii$$ttaaaa",
"a::99##111111%%ww==aaaaaaaaaaaaaaaaa55aaaaaaaaaaaaiippppii$$ttaaaa",
"aaa>>ppppppppii$$aaaaaaaaaaaaaaaaaaaaaaaaaaaaaaarrrrrrrrrrqqaaaaaa",
"aaa>>ppppppppii$$aaaaaaaaaaaaaaaaaaaaaaaaaaaaaaarrrrrrrrrrqqaaaaaa",
"aaaaaaaaaaaaaaaaaaaaaaaaaaaaaaaaaaaaaaaaaaaaaaaaaaaaaaaaaaaaaaaaaa",
"aaaaaaaaaaaaaaaaaaaaaaaaaaaaaaaaaaaaaaaaaaaaaaaaaaaaaaaaaaaaaaaaaa",
"aaaaaaaaaaaaaaaaaaaaaaaaaaaaaaaaaaaaaaaaaaaaaaaaaaaaaaaaaaaaaaaaaa",
"aaaaaaaaaaaaaaaaaaaaaaaaaaaaaaaaaaaaaaaaaaaaaaaaaaaaaaaaaaaaaaaaaa"
};
