/* XPM */
static char *result[] = {
/* columns rows colors chars-per-pixel */
"66 34 40 1 ",
"  c #758D17",
". c #728C18",
"X c #769217",
"o c #779217",
"O c #789416",
"+ c #799416",
"@ c #7E9B15",
"# c #7C9916",
"$ c #769018",
"% c #809F16",
"& c #83A015",
"* c #85A314",
"= c #87A714",
"- c #88A615",
"; c #8DAE13",
": c #88A914",
"> c #8AAD14",
", c #8FB013",
"< c #8FB113",
"1 c #90B314",
"2 c #93B714",
"3 c #94B814",
"4 c #96BB14",
"5 c #96BD15",
"6 c #98BD15",
"7 c #9BC015",
"8 c #9BC215",
"9 c #9DC616",
"0 c #A0C816",
"q c #A3CC16",
"w c #A4CD16",
"e c #A4CF17",
"r c #A7D017",
"t c #A8D217",
"y c #AAD317",
"u c #ABD718",
"i c #ADD818",
"p c #AFDA18",
"a c #B0DB18",
"s c None",
/* pixels */
"ssssssssssssssssssssssssssssssssssssssssssssssssssssssssssssssssss",
"ssssssssssssssssssssssssssssssssssssssssssssssssssssssssssssssssss",
"ssssssssssssssssssssssssssssssssssssssssssssssssssssssssssssssssss",
"sssssssssssssssssssssssssssss            sssssssssssssssssssssssss",
"sssss&&----------++ssssssssss            sssssssssssssssssssssssss",
"sssss&&----------++ssssssssssiiaaaaaapp==XXsssssssssssssssssssssss",
"sss11%%ppaaaaaatt##ssssssssssiiaaaaaapp==XXsssssssssssssss&&;;ssss",
"sss11%%ppaaaaaatt##ssssssssssss------$$ee<<sssssssssssssss&&;;ssss",
"sss99eess      OOppssssssssssss------$$ee<<sssssssssssssss>>aassss",
"sss99eess      OOppssssssssssssssssssXXaa**sssssssssssssss>>aassss",
"sssrraassssssss55aassssssssssssssssssXXaa**sssssssssssssss22aassss",
"sssrraassssssss55aassssssssssssssssss--aa  sssssssssssssss22aassss",
"sssuuiissssssss99aassssssssssssssssss--aa  sssssssssssssss88aassss",
"sssuuiissssssss99aassssssssssssssssss##aasssssssssssssssss88aassss",
"sssaa44ssssssss33ppssssssssssssssssss##aasssssssssssssssss44,,ssss",
"sssaa44ssssssss33ppssssssssssppaaaaaa66@@sssssssssssssssss44,,ssss",
"sssssssssssssssssssssssssssssppaaaaaa66@@sssssssssssssssssssssssss",
"sssssssssssssssssssssssssssXXtttttttt--sssssssssssssssssssssssssss",
"sss**ssssssssssssoossssssssXXtttttttt--sssssssssssssssssssqq..ssss",
"sss**ssssssssssssoossssssaa88sssssssssssssssssssssssssssssqq..ssss",
"sssaa::ssssssssii00ssssssaa88sssssssssssssssssssssssssssssaawwssss",
"sssaa::ssssssssii00ssssssaa99sssssssssssssssssssssssssssssaawwssss",
"s  aa--ssssssssaa77ssssssaa99sssssssssssssssssssssssssssssaa99ssss",
"s  aa--ssssssssaa77ssssssaa77sssssssssssssssssssssssssssssaa99ssss",
"s&&aa##ssssssssaa22ssssssaa77sssssssssssssssssssssssssssssaa11ssss",
"s&&aa##ssssssssaa22ssssssiioo------++sssssssssssssssssssssaa11ssss",
"s>>00@@222222%%ee--ssssssiioo------++sssssssssssssssssssss66ssssss",
"s>>00@@222222%%ee--ssssss@@yyaaaaaaaa@@sssssssssssssssssss66ssssss",
"sss,,aaaaaaaapp##ssssssss@@yyaaaaaaaa@@sssssssssssssssssssssssssss",
"sss,,aaaaaaaapp##ssssssssss            sssssssssssssssssssssssssss",
"sssssssssssssssssssssssssss            sssssssssssssssssssssssssss",
"ssssssssssssssssssssssssssssssssssssssssssssssssssssssssssssssssss",
"ssssssssssssssssssssssssssssssssssssssssssssssssssssssssssssssssss",
"ssssssssssssssssssssssssssssssssssssssssssssssssssssssssssssssssss"
};
