/* XPM */
static char *result[] = {
/* columns rows colors chars-per-pixel */
"24 29 38 1 ",
"  c black",
". c #2B230F",
"X c #332B13",
"o c #3F2F17",
"O c #4B371B",
"+ c #533F1F",
"@ c #473323",
"# c #5F4323",
"$ c #6B4727",
"% c #774F2B",
"& c #7F532F",
"* c #675333",
"= c gray42",
"- c #9B5B13",
"; c #875733",
": c #8F5F37",
"> c #9B633B",
", c #A36B3F",
"< c #AB6F43",
"1 c #B37347",
"2 c #BF7B4B",
"3 c #CB7F4F",
"4 c #9F8363",
"5 c #CF8353",
"6 c #D78B5B",
"7 c #FFA35B",
"8 c #DF9363",
"9 c #E79B6B",
"0 c #EFA373",
"q c #F7AB7B",
"w c #FFB37B",
"e c #000083",
"r c gray70",
"t c #FFBB93",
"y c #FFBF9B",
"u c #FFC7A7",
"i c #FFD7BB",
"p c None",
/* pixels */
"pppppO###$%%%%%$##Oppppp",
"pppX#+&:<25552<>%#+#Xppp",
"ppX#%:<23521>>>::%%+OXpp",
"ppX%;%:>1;<:,%%%%#+XX.pp",
"p.o#%#:>::::O:#O#OX....p",
"p.oO+#:+>$$:$O$Oo#.XXo.p",
"p.OO%%+:+$%$$:::;;$OoO.p",
"p.O+%:%+,+%:,1>,:::$OO.p",
"p.O#:<1,,111111,,1<:+O.p",
"p.O%>5331,<<<<,1335>#O.p",
"p.O%>50952,::,25905>%O.p",
"p.O%19tt99566599tt91%O.p",
"1$O%$$+,81%11%18,+$$%O$1",
"1$@:<#o...o::o...o#<:@$1",
":$*1%=re  +11+ =re %1*$:",
"$#;1:<5<$#:59:#$<5<:1;#$",
";#;562<:<367w63<:<265;#;",
":#:580837t97w9t738085:#:",
"p#;,<267u86wi68u762<,;#p",
"p#%>,20q6<>44><6q02,>%#p",
"pp%1>6t92+%;;%+29t6>1%pp",
"pp#3>9q5562,,2655q9>3#pp",
"pp+<,6956qy88yq6596,<+pp",
"ppp;<36:%------%:63<;ppp",
"ppp+:13336977963331:+ppp",
"pppp$<583<:&&:<385<$pppp",
"ppppp$<5833993385<$ppppp",
"pppppp+;169yy961;+pppppp",
"pppppppp$:,,,,:$pppppppp"
};
