/* XPM */
static char *result[] = {
/* columns rows colors chars-per-pixel */
"24 29 39 1 ",
"  c black",
". c #2B230F",
"X c #332B13",
"o c #3F2F17",
"O c gray23",
"+ c #4B371B",
"@ c #533F1F",
"# c #473323",
"$ c #5F4323",
"% c #6B4727",
"& c #774F2B",
"* c #7F532F",
"= c #675333",
"- c gray42",
"; c #9B5B13",
": c #875733",
"> c #8F5F37",
", c #9B633B",
"< c #A36B3F",
"1 c #AB6F43",
"2 c #B37347",
"3 c #BF7B4B",
"4 c #CB7F4F",
"5 c #9F8363",
"6 c #CF8353",
"7 c #D78B5B",
"8 c #FFA35B",
"9 c #DF9363",
"0 c #E79B6B",
"q c #EFA373",
"w c #F7AB7B",
"e c #FFB37B",
"r c #000083",
"t c gray70",
"y c #FFBB93",
"u c #FFBF9B",
"i c #FFC7A7",
"p c #FFD7BB",
"a c None",
/* pixels */
"aaaaa+$$$%&&&&&%$$+aaaaa",
"aaaX$@*>1366631,&$@$Xaaa",
"aaX$&>134632,,,>>&&@+Xaa",
"aaX&:&>,2:1><&&&&$@XX.aa",
"a.o$&$>,>>>>+>$+$+X....a",
"a.o+@$>@,%%>%+%+o$.XXo.a",
"a.++&&@>@%&%%>>>::%+o+.a",
"a.+@&>&@<@&><2,<>>>%++.a",
"a.+$>12<<222222<<21>@+.a",
"a.+&,6442<1111<2446,$+.a",
"a.+&,6q063<>><360q6,&+.a",
"a.+&20yy00677600yy02&+.a",
"2%+&%%@<92&22&29<@%%&+%2",
"2%#>1$ooo+o>>o+ooo$1>#%2",
">%=2&-r O @77@ - rt&2=%>",
"%$:2>161%$>60>$%161>2:$%",
":$:6731>1478e741>1376:$:",
">$>69q948y08e0y849q96>$>",
"a$:<1378i97ep79i8731<:$a",
"a$&,<3qw71,55,17wq3<,&$a",
"aa&2,7y03@&::&@30y7,2&aa",
"aa$4,0w6673<<3766w0,4$aa",
"aa@1<7067wu99uw7607<1@aa",
"aaa:147>&;;;;;;&>741:aaa",
"aaa@>24447088074442>@aaa",
"aaaa%16941>**>14961%aaaa",
"aaaaa%169440044961%aaaaa",
"aaaaaa@:270uu072:@aaaaaa",
"aaaaaaaa%><<<<>%aaaaaaaa"
};
