/* XPM */
static char *result[] = {
/* columns rows colors chars-per-pixel */
"26 19 82 1 ",
"  c #0B0B0B",
". c gray5",
"X c gray6",
"o c #151515",
"O c gray9",
"+ c #1B1B1B",
"@ c gray11",
"# c #2E0D00",
"$ c #370700",
"% c #381B00",
"& c #3A1C00",
"* c #202700",
"= c #2A2300",
"- c #372E00",
"; c #233200",
": c #283900",
"> c #373600",
", c #363B00",
"< c gray13",
"1 c #252525",
"2 c #2F2F2F",
"3 c #343434",
"4 c #393939",
"5 c #3A3A3A",
"6 c #3E3E3E",
"7 c #400000",
"8 c #4A0000",
"9 c #470900",
"0 c #4A0900",
"q c #471400",
"w c #4A1500",
"e c #7C1800",
"r c #4A2400",
"t c #462F00",
"y c #473000",
"u c #4A3200",
"i c #483D00",
"p c #4A3E00",
"a c #3A4000",
"s c #344A00",
"d c #3A4800",
"f c #3B4900",
"g c #3C4A00",
"h c #464400",
"j c #494700",
"k c #444A00",
"l c #695000",
"z c #596600",
"x c #5C7A00",
"c c #7D7100",
"v c #494949",
"b c #B60A00",
"n c #9C3C00",
"m c #C20A00",
"M c #D20B00",
"N c #CB2800",
"B c #D22900",
"V c #824C00",
"C c #B64500",
"Z c #8D7F00",
"A c #B86B00",
"S c #D25000",
"D c #D07900",
"F c #D27A00",
"G c #5D9200",
"H c #728300",
"J c #69A500",
"K c #B88D00",
"L c #8EBC00",
"P c #A3A700",
"I c #B1B600",
"U c #CE9E00",
"Y c #D2A100",
"T c #D0BD00",
"R c #D2BE00",
"E c #86D200",
"W c #9FD200",
"Q c #A9C200",
"! c #B4CF00",
"~ c #B7D200",
"^ c #CACF00",
"/ c None",
/* pixels */
"//////////////////////////",
"/ O///////////////////////",
"/8b$eX1///////////////////",
"/8M0BqC%VO4///////////////",
"/8M0BwSrDtK-c<6///////////",
"/8M0BwSrFuYpRhI,H@v///////",
"/8M0BwSrFuYpRj^k!dL:G/////",
"/8M0BwSrFuYpRj^k~gWsE/////",
"/8M0BwSrFuYpRj^k~gWsE/////",
"/8M0BwSrFuYpRj^k~gWsE/////",
"/8M0BwSrFuYpRj^k~gWsE/////",
"/8M0BwSrFuYpRj^k~gWsE/////",
"/7m9NwSrFuYpRj^k~gWsE/////",
"//+.2#n&AyUiTj^k~gWsE/////",
"///////X3ol=Z>PaQfWsE/////",
"//////////////5@z*x;J/////",
"////////////////////5/////",
"//////////////////////////",
"//////////////////////////"
};
