/* XPM */
static char *result[] = {
/* columns rows colors chars-per-pixel */
"26 19 76 1 ",
"  c gray2",
". c #070707",
"X c gray3",
"o c #090909",
"O c #0B0B0B",
"+ c #0C0C0C",
"@ c gray5",
"# c #0E0E0E",
"$ c gray6",
"% c #101010",
"& c #111111",
"* c gray7",
"= c #131313",
"- c gray8",
"; c #161616",
": c gray9",
"> c #181818",
", c #191919",
"< c gray10",
"1 c #1B1B1B",
"2 c #1D1D1D",
"3 c #1E1E1E",
"4 c gray13",
"5 c #222222",
"6 c gray14",
"7 c #252525",
"8 c gray15",
"9 c #272727",
"0 c #282828",
"q c gray16",
"w c #2A2A2A",
"e c gray17",
"r c #2C2C2C",
"t c #2D2D2D",
"y c gray18",
"u c #2F2F2F",
"i c gray19",
"p c #313131",
"a c #323232",
"s c gray20",
"d c #343434",
"f c #353535",
"g c gray21",
"h c #373737",
"j c gray22",
"k c #393939",
"l c #3A3A3A",
"z c gray23",
"x c #3C3C3C",
"c c gray24",
"v c #3E3E3E",
"b c #3F3F3F",
"n c gray25",
"m c #414141",
"M c gray26",
"N c #434343",
"B c #444444",
"V c gray27",
"C c #464646",
"Z c gray28",
"A c #484848",
"S c #494949",
"D c gray29",
"F c #4B4B4B",
"G c #4C4C4C",
"H c gray30",
"J c #4E4E4E",
"K c gray31",
"L c #505050",
"P c #515151",
"I c gray32",
"U c #535353",
"Y c gray33",
"T c #555555",
"R c #565656",
"E c None",
/* pixels */
"EEEEEEEEEEEEEEEEEEEEEEEEEE",
"E.+EEEEEEEEEEEEEEEEEEEEEEE",
"E&0&,.+EEEEEEEEEEEEEEEEEEE",
"&-twu5q*<X@EEEEEEEEEEEEEEE",
"--phzzlas6q=>X+EEEEEEEEEEE",
"--gbBCVNnzlas9w-1X%EEEEEEE",
"--lBFJKHFAVBmclfs8e-2o@ EE",
"--zCJUTUIPKHFSCBmvzdd9q;1E",
"--zVJYRRRTTYUPKHFSCBblfweE",
"--jNFPYTTTRRTTTYUPLJSBxsr=",
"--dcVDHJLPPUUYYTTTYULDMjr-",
"%=tfznBVCASFHJJLPIUUPGBkr-",
"E$e5iyhfzxbbMBVZADFHFAmjr-",
"E #X:#5:w5ptfdkjcbmNMnzsr-",
"EEEEEEE #.-+3=83yqdphdaer*",
"EEEEEEEEEEEEEEO.=o,*7<w4qE",
"EEEEEEEEEEEEEEEEEEEE+ @X1E",
"EEEEEEEEEEEEEEEEEEEEEEEEEE",
"EEEEEEEEEEEEEEEEEEEEEEEEEE"
};
