/* XPM */
static char *result[] = {
/* columns rows colors chars-per-pixel */
"26 19 100 2 ",
"   c #0B0B0B",
".  c gray5",
"X  c gray6",
"o  c gray8",
"O  c #151515",
"+  c gray9",
"@  c #181818",
"#  c #1B1B1B",
"$  c gray11",
"%  c gray12",
"&  c #2E0D00",
"*  c #370700",
"=  c #381B00",
"-  c #3A1C00",
";  c #1E3E00",
":  c #202700",
">  c #2A2300",
",  c #372E00",
"<  c #233200",
"1  c #283900",
"2  c #373600",
"3  c #363B00",
"4  c gray13",
"5  c #252525",
"6  c #2F2F2F",
"7  c #343434",
"8  c #373737",
"9  c #393939",
"0  c #3A3A3A",
"q  c #3E3E3E",
"w  c #400000",
"e  c #4A0000",
"r  c #470900",
"t  c #4A0900",
"y  c #471400",
"u  c #4A1500",
"i  c #7C1800",
"p  c #4A2400",
"a  c #462F00",
"s  c #473000",
"d  c #4A3200",
"f  c #483D00",
"g  c #4A3E00",
"h  c #264200",
"j  c #214400",
"k  c #244A00",
"l  c #2A4800",
"z  c #2B4A00",
"x  c #3A4000",
"c  c #344A00",
"v  c #3A4800",
"b  c #3B4900",
"n  c #3C4A00",
"m  c #464400",
"M  c #494700",
"N  c #444A00",
"B  c #695000",
"V  c #596600",
"C  c #5C7A00",
"Z  c #7D7100",
"A  c #494949",
"S  c #626262",
"D  c #B60A00",
"F  c #9C3C00",
"G  c #C20A00",
"H  c #D20B00",
"J  c #CB2800",
"K  c #D22900",
"L  c #824C00",
"P  c #B64500",
"I  c #8D7F00",
"U  c #B86B00",
"Y  c #D25000",
"T  c #D07900",
"R  c #D27A00",
"E  c #3E8A00",
"W  c #5D9200",
"Q  c #728300",
"!  c #69A500",
"~  c #63BB00",
"^  c #59C600",
"/  c #5DCF00",
"(  c #5ED200",
")  c #65C000",
"_  c #6FD200",
"`  c #B88D00",
"'  c #8EBC00",
"]  c #A3A700",
"[  c #B1B600",
"{  c #CE9E00",
"}  c #D2A100",
"|  c #D0BD00",
" . c #D2BE00",
".. c #86D200",
"X. c #9FD200",
"o. c #A9C200",
"O. c #B4CF00",
"+. c #B7D200",
"@. c #CACF00",
"#. c None",
/* pixels */
"#.#.#.#.#.#.#.#.#.#.#.#.#.#.#.#.#.#.#.#.#.#.#.#.#.#.",
"#.  + #.#.#.#.#.#.#.#.#.#.#.#.#.#.#.#.#.#.#.#.#.#.#.",
"#.e D * i X 5 #.#.#.#.#.#.#.#.#.#.#.#.#.#.#.#.#.#.#.",
"#.e H t K y P = L + 9 #.#.#.#.#.#.#.#.#.#.#.#.#.#.#.",
"#.e H t K u Y p T a ` , Z 4 q #.#.#.#.#.#.#.#.#.#.#.",
"#.e H t K u Y p R d } g  .m [ 3 Q $ A #.#.#.#.#.#.#.",
"#.e H t K u Y p R d } g  .M @.N O.v ' 1 W % 9 #.#.#.",
"#.e H t K u Y p R d } g  .M @.N +.n X.c ..l ~ ; E #.",
"#.e H t K u Y p R d } g  .M @.N +.n X.c ..z _ k / #.",
"#.e H t K u Y p R d } g  .M @.N +.n X.c ..z _ k ( #.",
"#.e H t K u Y p R d } g  .M @.N +.n X.c ..z _ k ( #.",
"#.e H t K u Y p R d } g  .M @.N +.n X.c ..z _ k ( #.",
"#.w G r J u Y p R d } g  .M @.N +.n X.c ..z _ k ( #.",
"#.#.# . 6 & F - U s { f | M @.N +.n X.c ..z _ k ( #.",
"#.#.#.#.#.#.#.X 7 O B > I 2 ] x o.b X.c ..z _ k ( #.",
"#.#.#.#.#.#.#.#.#.#.#.#.#.#.0 $ V : C < ! h ) j ^ #.",
"#.#.#.#.#.#.#.#.#.#.#.#.#.#.#.#.#.#.#.#.0 o 8 @ S #.",
"#.#.#.#.#.#.#.#.#.#.#.#.#.#.#.#.#.#.#.#.#.#.#.#.#.#.",
"#.#.#.#.#.#.#.#.#.#.#.#.#.#.#.#.#.#.#.#.#.#.#.#.#.#."
};
