/* XPM */
static char *result[] = {
/* columns rows colors chars-per-pixel */
"26 19 62 1 ",
"  c #0B0B0B",
". c gray5",
"X c gray6",
"o c #151515",
"O c gray9",
"+ c #1B1B1B",
"@ c gray11",
"# c #2E0D00",
"$ c #370700",
"% c #381B00",
"& c #3A1C00",
"* c #2A2300",
"= c #372E00",
"- c #373600",
"; c gray13",
": c #252525",
"> c #2F2F2F",
", c #343434",
"< c #393939",
"1 c #3A3A3A",
"2 c #3E3E3E",
"3 c #400000",
"4 c #4A0000",
"5 c #470900",
"6 c #4A0900",
"7 c #471400",
"8 c #4A1500",
"9 c #7C1800",
"0 c #4A2400",
"q c #462F00",
"w c #473000",
"e c #4A3200",
"r c #483D00",
"t c #4A3E00",
"y c #3A4000",
"u c #464400",
"i c #494700",
"p c #444A00",
"a c #695000",
"s c #7D7100",
"d c #B60A00",
"f c #9C3C00",
"g c #C20A00",
"h c #D20B00",
"j c #CB2800",
"k c #D22900",
"l c #824C00",
"z c #B64500",
"x c #8D7F00",
"c c #B86B00",
"v c #D25000",
"b c #D07900",
"n c #D27A00",
"m c #B88D00",
"M c #A3A700",
"N c #B1B600",
"B c #CE9E00",
"V c #D2A100",
"C c #D0BD00",
"Z c #D2BE00",
"A c #CACF00",
"S c None",
/* pixels */
"SSSSSSSSSSSSSSSSSSSSSSSSSS",
"S OSSSSSSSSSSSSSSSSSSSSSSS",
"S4d$9X:SSSSSSSSSSSSSSSSSSS",
"S4h6k7z%lO<SSSSSSSSSSSSSSS",
"S4h6k8v0bqm=s;2SSSSSSSSSSS",
"S4h6k8v0neVtZuNSSSSSSSSSSS",
"S4h6k8v0neVtZiApSSSSSSSSSS",
"S4h6k8v0neVtZiApSSSSSSSSSS",
"S4h6k8v0neVtZiApSSSSSSSSSS",
"S4h6k8v0neVtZiApSSSSSSSSSS",
"S4h6k8v0neVtZiApSSSSSSSSSS",
"S4h6k8v0neVtZiApSSSSSSSSSS",
"S3g5j8v0neVtZiApSSSSSSSSSS",
"SS+.>#f&cwBrCiApSSSSSSSSSS",
"SSSSSSSX,oa*x-MySSSSSSSSSS",
"SSSSSSSSSSSSSS1@SSSSSSSSSS",
"SSSSSSSSSSSSSSSSSSSSSSSSSS",
"SSSSSSSSSSSSSSSSSSSSSSSSSS",
"SSSSSSSSSSSSSSSSSSSSSSSSSS"
};
