/* XPM */
static char *result[] = {
/* columns rows colors chars-per-pixel */
"29 25 16 1 ",
"  c #A5D71F",
". c #A4DB1F",
"X c #A7DF21",
"o c #AADD21",
"O c #AEDE2C",
"+ c #B0DF31",
"@ c #ABE02C",
"# c #B1E032",
"$ c #B3E139",
"% c #B5E23C",
"& c #B8E343",
"* c #BFE559",
"= c #C0E65C",
"- c #C3E763",
"; c #C5E866",
": c None",
/* pixels */
":::::::::::::::::::::::::::::",
":::::::::::::::::::::::::::::",
":::::::::::::::::::::::::::::",
"::::::::::::      ::::    :::",
"::::::::::::       :::    :::",
":::::::::::::::::   ::    :::",
":::::::::::OOOOO:;;; :    :::",
":::::::::::::::::     :%$::::",
"::::::::::::::::      X::::::",
"::::::::::++++:;;;;-   ::::::",
"::::::::::::::         ::::::",
":::::::::::::       :   :::::",
"::::::::@@OO===*= #:::      :",
":::::::::::.     :::::      :",
"::::::::::       ::::::::::::",
":::::OOOO====&    :::::::::::",
"::::::::    :::    ::::::::::",
":::::::   o:::::   ::::::::::",
":::::    ::::::     :::::::::",
"::::    ::::       ::::::::::",
"::::   ::::     :::::::::::::",
":::::::::::   :::::::::::::::",
":::::::::::::::::::::::::::::",
":::::::::::::::::::::::::::::",
":::::::::::::::::::::::::::::"
};
