/* XPM */
static char *result[] = {
/* columns rows colors chars-per-pixel */
"320 33 33 1 ",
"  c #0B0B0B",
". c #0B1707",
"X c #131313",
"o c #1B1B1B",
"O c #232323",
"+ c #272727",
"@ c #2F2F2F",
"# c #373F27",
"$ c #373737",
"% c gray23",
"& c #27531B",
"* c #3F472B",
"= c #474F33",
"- c #434343",
"; c gray28",
": c #4B4B4B",
"> c gray31",
", c gray34",
"< c #5B5B5B",
"1 c gray39",
"2 c gray42",
"3 c #6F6F6F",
"4 c #777777",
"5 c gray50",
"6 c #838383",
"7 c #8B8B8B",
"8 c #939393",
"9 c #979797",
"0 c #9F9F9F",
"q c #A7A7A7",
"w c gray67",
"e c #B7B7B7",
"r c None",
/* pixels */
"9653544322221233532225127655444434346656765354%<82223444343244332254322555122242315364422235442233346656@4e9544322221233532225123344212<123314099qqqqqqqqqqqqqqqqqqqqqqqqqqqqqq9qq088655765544443434665676535443222234443432443322543322555@>$>11>2,11,-;8354422333466567653544322221233532225123344212<1->31423432322175444645>",
"9653544322221233532225127655444434346656765354%<82223444343244332254322555122242315364422235442233346656@4e9544322221233532225123344212<123314099qqqqqqqqqqqqqqqqqqqqqqqqqqqqqq9qq088655765544443434665676535443222234443432443322543322555@>$>11>2,11,-;8354422333466567653544322221233532225123344212<1->31423432322175444645>",
"64,,,,,;>-;>;;;>>1->;1%-332>;,,,,><1<21134,,,,O;6->;,,,,,,,<,,,;>-1,<>>3>>>%;>1;>>>-2>1+--;,>;;;;><1<211@4911,,-1-;1-,>,<1,,%,1;;>1,,;>>>;%1@;4                                   8,,332332>;,,,,><1<21134,,,,,;>->;,,,,,,,<,,,;>-1,<<>>3>>o>;>1;>>-2>1+-6;,>;;;;><1<21134,,,,,;>-;>;;;>>1->;1%-;>,,;@-%-$@@;><<<--;,<>2<,>><<<-",
"64111,,>;;>;;-;,,,>>;><;4322;,,,,,,<<<4324111,O>6;;;;1,>,,<<,,1>;;,<<>;>>>>>;;>->>,>21,$--;>>>,1>>,<<<43+47,2,,;;$->>1,,11,1$,1;;><<>;;;>;@;-<4 ooooooooooooooooooooooooooooooooo 7<15334322;,,,,,,<<<4324111,,>;;;;;1,>,,<<,,1>;;,<<<>;>>>o>6232343654%-6;>>>,1>>,<<<4324111,,>;;>;;-;,,,>>;><;->,,>@$@-@@-<<<><<;;1>><<,>-,>1-",
"5214,,,>;%>%<;%;1,><;<>;<,22>,,,,;,,,1411214,,O>6%;>>%,,,><<,,;>;%<,<>$>,<;,;;;$<>1>1,>--@;<>;>>>1,,,141O2922,,;,;->><><<1->%,2>>>,<,;%;,;;3>;4 ooooooooooooooooooooooooooooooooo 6>,153<,22>,,,,;,,,1411214,,,>;%;>>%,,,><<,,;>;%<,<<>$>,<o,2;;$>1>1,>+-4;<>;>>>1,,,1411214,,,>;%>%<;%;1,><;<>;;>,;;-@@@-$>;>>;<<>>,>;,<>>->>1$",
"5414,>,,;;;>;;-;>1>;;><;1241>>,,,,>>,3211414,>O,6;>;>;,,>,1,,,;>;;,,<,>;>>;,;;;,1<1,,2,-;+-,>;;;;>>>,321O4721,,;;;->-;,,;<;>-11<-><1;;$>,-;1;;3 ooooooooooooooooooooooooooooooooo 6><3551241>>,,,,>>,3211414,>,,;;>;>;,,>,1,,,;>;;,,<<,>;>>o,2;;,<1,,2,+;4-,>;;;;>>>,3211414,>,,;;;>;;-;>1>;;><;;;>;;%----;;;;;;<1;>>;>1<,<>>11$",
"64211>,,>->>;;-->,,>->>;,,1,1>,,>>>,,11134211>O,6->>,;,2,;11;>>1>-<<1>,<1>>@$>41>>2,11,-;,;>1>;-;,>,,111@48,>,,>>;;>>-;<11%<;,1,-;,<>;;,,;1;;;3 ooooooooooooooooooooooooooooooooo 61>455,,1,1>,,>>>,,11134211>,,>->>,;,2,;11;>>1>-<<11>,<1>o;2;;,<1,,2,+;7;>1>766O>6O17O6@216O,,>->>;;-->,,>->>;>>>;;@--6o;;;-;;>>>$;-;1;;1>,1<@",
"62,,1,>,>>>>%;<-><;>->,-11>1,,,,>,11<21322,,1,o,6>;;,,>,1>1<;;>>>><<,>>><>>$>>;$->2-22,-;3;,1>>>>111<213+272;,,;1;;->->,11;,>>1,->1<,;;;->>>;;3 ooooooooooooooooooooooooooooooooo 61,14111>1,,,,>,11<21322,,1,>,>>;;,,>,1>1<;;>>>><<,,>>><>o;1>41>2,11,+;8;,1>8O>8O8O28@8@,,8O>,>>>>%;<-><;>->,-;>,;#@-8X;--;;>><>;>;-;,,>2>;1<@",
"6>1,,1>,->>>>$;,,>>;>;>-<,+>1,>,>,<<,1142>1,,1o,6>;>>,,,1<3<,;><-><,<;>>1>,;;$%;>>1,1,,%;>>><<,1>1<<,114+>711,,;,>>-;%,,1<-<1-11;;<,,;$;%;><;;3 ooooooooooooooooooooooooooooooooo 71241,<,+>1,>,>,<<,1142>1,,1>,->;>>,,,1<3<,;><-><,<<;>>1>O;3>;$>2-22,+;6>><<000O<0O10@0O1,0O>,->>>>$;,,>>;>;>-->,>+$0X$-;;;>>>-->1>-;;<<1;%>1@",
"5221>1,,-;;>;>1>;>1;>;>-4611>,,,>,<,,1141221>1O,6;;>,,>,1<1,,,>,-;,<1;>;>>;>;-;;>-1-21>%;>>;1<,<>2<,,114O281,,,<>>>>;>><1<,><-11;-<1<--,;>,>-;3 ooooooooooooooooooooooooooooooooo 7<;4334611>,,,>,<,,1141221>1,,-;;>,,>,1<1,,,>,-;,<11;>;>>o>2$%;>1,1,,O;6>;1<wO>wOwO1w@w@21wO,,-;;>;>1>;>1;>;>-$<<;%wX@@%-;;>>1>>-;>;,<1,>;;<1@",
"6321,2,,,<->>-;>>11><->>644-<2,,,1<,11222321,2O,7<;>>>,,,<1,>;>,,<<,,<>;;>;;;;-->-1,21>;%>>>,<<,<<<,1122+3811,,>;;;->;>;<>>;1>,>>;,,1;;>;>>>;<4 ooooooooooooooooooooooooooooooooo 6><224644-<2,,,1<,11222321,2,,,<;>>>,,,<1,>;>,,<<,,,<>;;>o;2-;;-1-21>O%6>>,<eeeO<,ee@2eeeOeeeO,<->>-;>>11><->>->>;eX@@@%-><>;><-;;%;;;<>>-;,>@",
"621,,,>,;>;>-;->,<>;;;1;412<2,,,,,1>,244221,,,o,6>;;>>,,,<1<<>>,;><,,>;;>>;;;;$->>-,2,>;-;;>1;<><>1>,244+271,1,,>;>,;,,><>>;>>><<;,,,>%%;;;>;;3 ooooooooooooooooooooooooooooooooo 61><14412<2,,,,,1>,244221,,,>,;>;;>>,,,<1<<>>,;><,,,>;;>>o;<@oooOO+Ooo-6;>1;<><>1>,244221,,,>,;>;>-;->,<>;;;1;;;,>;@@@%%$%;;;;>1;>%;;;><>-;;>@",
"52,,,,>>>>>>-;;>>1>;;;1<14323,,,,,,>>43212,,,,o>6>>;>>,,,<<1<->>>>,>,>->>1>;;;-->->>>1-$;>>;<<>1,1,>>432O27,11,,>;;;->,><>1;;,;1,;,,,;$+@-;;>;3 ooooooooooooooooooooooooooooooooo 6,112314323,,,,,,>>43212,,,,>>>>>;>>,,,<<1<->>>>,>,,>->>1o;;;--->>>$-$;6>;<<>666O6O47@667O6O>>>>>>-;;>>1>;;;1<->,%;+$@6X$-;;;-><;>>-;>>>;;;;>@",
"411,,,,<-;;;%;;;>>1->;1<44433,,,>,;,,342,11,,,O<6;;;>,,,,11<<-<<-;>>>%;<,1>;-;;->>1>2>,-;>1>>>><1>;,,342O17,11,,;-;;;>;>>;1,%1-<1;,<>$$%-+$;%;3 ooooooooooooooooooooooooooooooooo 62<22244433,,,>,;,,342,11,,,,<-;;;>,,,,11<<-<<-;>>>>%;<,1o;6222353634+;61>>>8O1>;8O38@8O1,8O,<-;;;%;;;>>1->;1<-;>;%$+8X--;;-;;>-%%;%$>;;;;;1>+",
"5,,,,,,,;%;;;;-;,,,>>;><42342,1,,;>>>2431,,,,,O,6%;>,>>,,2<1<-,,;%,,,;->>;>-;--;<>>,21,;;;%1>,;;;;>>>243O,711,,>->->>-->>;<1;;;1<;><;@@;<<;<--3 ooooooooooooooooooooooooooooooooo 6<<44442342,1,,;>>>2431,,,,,,,;%;>,>>,,2<1<-,,;%,,,,;->>;o-2--;>>,21,o;6%1>,;00o>0000@00O,0O,,;%;;;;-;,,,>>;><;->;%@0X-,$%-;-;->%%%>;;;>;;->1@",
"51,,,,,<-;;1-$;%;1,><;<>23423,,1>,>;<12311,,,,O<6;;;>>>,,<21<-<<-;>,>;$,>>>;-%%%->,,2,,>11$>>>;;;,>;<123O172;,,;$;;;;;;;,;<<,>;1,-,<;$;-$>>1;-3 ooooooooooooooooooooooooooooooooo 6,>4,123423,,1>,>;<12311,,,,,<-;;;>>>,,<21<-<<-;>,>>;$,>>o;2%%%>,,2,,o17$>>>;;;wOwO1w@wO,,wO,<-;;1-$;%;1,><;<>;;>;;wX@<1-;-;;->>;--;;-;;;;->,+",
"6>1,,>>1-;>>->;-;>1>;;><3,211,,2>,>>,2432>1,,>o16;>;>,>,,;1<1;<1-;<,,@$1>;;;-$%->>,1,>,>,11,;>,;;1>>,243+>711,,;%>;$>;>;>>,;,;><>;,>,%;;-->1%;3 ooooooooooooooooooooooooooooooooo 61>,,43,211,,2>,>>,2432>1,,>>1-;>;>,>,,;1<1;<1-;<,,,@$1>;o;2$%->,1,>,o,71,;>eeeO>eO2e@eeeOeeeO-;>>->;-;>1>;;><;;>>eX-@@$$$;;;;>-;;;$%;;>;;;;;@",
"61,,1,,<>->;>-;-->,,>->>41441,,1,>>>,23421,,1,O<6-;>>,>,2>1<<<1<>-<>;-;-;;-$;$-%->,1,2,,>$;4$><;>>>>,234+1711,,>%;;;$;>>%>>;>;;>;>>>>-;;---1;>3 ooooooooooooooooooooooooooooooooo 7,,%3241441,,1,>>>,23421,,1,,<>-;>>,>,2>1<<<1<>-<>;;-;-;;o$2$-%>,1,2,O>5;4%,>>1>><;122141,11,;;%;;>-;-->,,>->>;>>=;---@$-->$$%>>;;%;@%;-;;;;;@",
"63,,,,,<>;,>>-;<-><;>->,1222>,,1,,;>>42433,,,,O<6;;>,,,,1<<21>1<>;,>;;;-;;%$$%-@--111,>>,;14;1>1;>;>>424@37,11,;;%;;,%1>%>;>;<->1->,>%,;%;;,$;3 ooooooooooooooooooooooooooooooooo 7>3;221222>,,1,,;>>42433,,,,,<>;;>,,,,1<<21>1<>;,>;;;;-;;X$1%-@-111,>o,614,,777%1>67O6O46O966+-;->>-;<-><;>->,-;>;,%@@6X%%;@$%>>-;$;-$;;->;;;@",
"61,,,,1,>;><,>;<-><;>->,5511<,2,,,>,,31231,,,,O,6;,,,,,,11221;1,>;,>;;%%;;$$-%-@>->12>-;>>>>,1<;,1>,,312@172,1,;-;-;;->>->>;1<%;<$>>>---;,>;-@2 ooooooooooooooooooooooooooooooooo 6,1;215511<,2,,,>,,31231,,,,1,>;,,,,,,11221;1,>;,>;;;%%;;X$2%-@->12>-o>6>>;18O18+8o148O8O128+-;;;<,>;<-><;>->,-;>;;%@8X%%;@+%%>>--@-;->-;;;;;@",
"7,1,1,,1,-11;<;<-><;>->,5311,,,2,>%>>2144,1,1,O17-,;,,,1214211>1,-<>,;$%>%@$---@>->2,,->-,>;;1>1-;%>>214@,7,2,,-;;;,;;>>1;;,<>->;;>>>$;;;;>>;$2 ooooooooooooooooooooooooooooooooo 5;<,415311,,,2,>%>>2144,1,1,,1,-,;,,,1214211>1,-<>,,;$%>%X$2--@->2,,-o-7>;,,000@>0O1300O1110+;;$;1;<;<-><;>->,-;,>%@0X@$%%$;%%->-$$%-;;;--;--@",
"761,1,11,>>1;>>11$><,>%,332>;,12,,>;<134561,1,O17>,>,>,1,11<1111,>>;1$@$%@$;-$;$->>>2--;;>>>><>1-->;<134@67111,;;$;;;;,,>>;>;>-->;;>>$;--%%;;;3 ooooooooooooooooooooooooooooooooo 6,,222332>;,12,,>;<134561,1,11,>,>,>,1,11<1111,>>;11$@$%@X;+O@O@@@-++@;6>>;>wO1wOwO22wOwO1,w+;;;;1;>>11$><,>%,-%,>>wX+@%%%;;$$>--$-$$;;-@;---@",
"541,,,,1<-<<->>>1;>>$;->4322;,,2,>;>,222141,,,O17-,>,>,,,;111><1<-$;,$$$@@%$$-%@--1,1-->;1>;>>>>1,;>,222O471,,,;;;;->1>;>1;>;>-$<;>,>%;;---;;$2 ooooooooooooooooooooooooooooooooo 7<1,234322;,,2,>;>,222141,,,,1<-,>,>,,,;111><1<-$;,,$$$@@X$$-%@-1,1-->;7>;;<eO<eO>eeOeO4eO1e+,;;-<->>>1;>>$;->-;;%eX@+@;$$$;$+>--%$$%;>---%%-@",
"621,,,,<>-<<->>>><;;$$$1<,22>,,,,>-1>12>221,,,O<6-,>,,,,,<<<1;<<>-%;1%-$$@@-@$%$>>>,,1-%;->->><1>1-1>12>+2711,,,;;-;>;>>11><->>->-;,,-;<>%;-;;3 ooooooooooooooooooooooooooooooooo 6>,163<,22>,,,,>-1>12>221,,,,<>-,>,,,,,<<<1;<<>-%;11%-$$@X-<111334452X;6>-,>;,>1>1>2221411,,,;->;<->>>><;;$$$1--%;;$++->-$;;@@>--@&@%;;;----;@",
"5,1,,1,>->666>>,61>%6$;>62416,,>6766611<1,1,,1O>6>,>,,,66,<367<>67666@;@676-%76%>766676@67;;;763,,$;>11<O,71,,>67666@66766>-;@676-%,676661,;;>3 ooooooooooooooooooooooooooooooooo 6><3531241>,667,$676661,16,1,6->,676661,66766>->%%;;@;@@@o-1$%%>>,<2:X@6;;;<>667o667@6@3,6O,,;->>1>>>,-1>%%$;>;%%%,$@@7o$$>;$$>-%$$$;---;-%;;@",
"5221,,,,>88O88O888,888$8881888,88OXO88111221,,O,6;,,,,,88O1188O88oXoXX-88X88@88X--O88OoX88o>>88O,<%<;111O281,,88oXoXX1OOO88>-88X88@88OOOOO,;;;3 ooooooooooooooooooooooooooooooooo 61>455,,1,188O88%<oOO882888,888;88OOO88,1OOO88>;%;%%+-$@@o-<-@%-,,,,-X>6;>>>8o,1>8O318@1,8O,1>>;>1>;,3%,,@;;$>>$%%;++8X%@@;;$@--$@--@$@;;;%>;O",
"5<2,,,1>000000O0000000X0000000O00O;>00O11<2,,,O>7-;>>,,0000000O000000$000000X00X@-,00O-;0000000O1;;>;>11O<82,,000000$00000OO000000X00O;000O><%3 ooooooooooooooooooooooooooooooooo 61,14111>>000000o00000OO0000000o00O,,00O00000OO-;;;;$@@@@o$<$@%-,,>>-o-61>>;0O-;%00@10@,10O,,;,-;>;->,;1%%<;@>;;%%%+0X@$@+%-@@$--@@%@-@%;-;-;+",
"51,,,,,>wwOowwOwwOwowwowwOwOwwOwwo;;ww@211,,,,O>6$%>>,,wwOOOwwOwwXooXXwwXowwXwwX@->wwO>;wwOOOwwO>;;;;>22O17,,1wwXooXXwwOOww;wwXowwXwwO;,wwO%;@2 ooooooooooooooooooooooooooooooooo 71241,<,+1wwOOwwowwO@ww1wwOwOwwXwwO,,wwOwwOOww;$;;%%@$$$-o$<@+$->>,>>o-6<>>,wO-->wO13w@61wO,1-;$,;>%>>-,$;,>;;;-;%%wX@++@@@@+++--%@$$%$@----%@",
"4<,1>1,1eeO>eeOeeO$Xeeoeeo+OeeO1eeeeeO@1<<,1>1O16$>,,,>eeO,1eeO1eeeee@eeX;eeXeeee-,eeO-;eeO<<eeO,>%;;121O<7,,,eeo;%%;eeO>eeOeeX;eeX>eeeeeOO-;+1 ooooooooooooooooooooooooooooooooo 81<1<1;;+>eeO1eeXeeO2eeOeeO1OeeX>eeeeeOOeeO>eeO$;>%%@@$$;X+<@@%-,,,,-o;6<<<<>eeeoeee@eeeOeeeO;>$>>>;,;;<$$,,;;--%@e.@@++@-+$@++--%$%$@$%-$---O",
"4<1,,,,<>oo>;Xo;oO@$>Oo%Oo<11OO1,OXoOO22<<1,,,O<6-;;;,>1OO<<<oO<>ooOoX@XX;$XX@XXOO,,OO>-;Oo>>;OO>>$-<122O<7,2,<oo;%;;<OO;<OO@XX;$XX;;oOOOO>;;@2 ooooooooooooooooooooooooooooooooo 6,,>>4>;<11OO1,OX-OO22OO1OO,,<Oo;;oOOOO><OO;<OO-;<;;+@$%;X+1@@%>,,,,>o;6;>>;>>>>$-<122<<1,,,,<>-;>;%;;;,@$>>;%;;#%%@@@@@@@@@++--%%-@%+$--$--%O",
"511,,,,>>>$;>->%;,+$<;%%244,3,,,,,$;,<22111,,,O>6>;>;,>,,1<;,<,>>>>>;$$$%%+@%@-@-<1,1,>-;;;>;>>>>>$;,<22O17,,,,;;;;->1>;>1;>;>-$<;11;$;-;--%-@2 ooooooooooooooooooooooooooooooooo 6>>>>,244,3,,,,,$;,<22111,,,,>>>;>;,>,,1<;,<,>>>>>;;$$$%%X@1@-@<1,1,>o;6;>;>>>>>$;,<22111,,,,>>>$;>->%;,+$<;%%;;%%;+++@@+%@+@@>>-%%@$@@$->$%;O",
"511,1,><>>%;>;$%;>+%;;;;><15,,>1,,;;;132111,1,o<6>;;;,>>><113<<<>>%;;+$$%$@%$@$$->1,11>;--;;;>;;><;;;132O172,,,,;;-;>;>>11><->>->-1,>-;$$%-;-+1 ooooooooooooooooooooooooooooooooo 6>1>1,><15,,>1,,;;;132111,1,><>>;;;,>>><113<<<>>%;;;+$$%$X%OoOO@%$%%@o-6;;;>;;><;;;132111,1,><>>%;>;$%;>+%;;;;>@;*%@@++++@++++->@@%$@$@$%$@-%+",
"rrrrrrrrrrrrrrrrrrrrrrrrrrrrrrrrrrrrrrrrrrrrrrrrrrrrrrrrrrrrrrrrrrrrrrrrrrrrrrrrrrrrrrrrrrrrrrrrrrrrrrrrrrrrrrrrrrrrrrrrrrrrrrrrrrrrrrrrrrrrrrrrrrrrrrrrrrrrrrrrrrrrrrrrrrrrrrrrrrrrrrrrrrrrrrrrrrrrrrrrrrrrrrrrrrrrrrrrrrrrrrrrrrrrrrrrrrrrrrrrrrrrrrrrrrrrrrrrrrrrrrrrrrrrrrrrrrrrrrrrrrrrrrrrrrrrrrrrrrrrrrrrrrrrrrrrrrrrrrrr"
};
