/* XPM */
static char *result[] = {
/* columns rows colors chars-per-pixel */
"146 57 173 2 ",
"   c #030303",
".  c #080602",
"X  c #070804",
"o  c #0A0B05",
"O  c #0C0B0B",
"+  c #120D04",
"@  c #100F0E",
"#  c #0F1007",
"$  c #0F1008",
"%  c #111107",
"&  c #1E1606",
"*  c #12130A",
"=  c #1E1509",
"-  c #16180A",
";  c #1B1D0D",
":  c #141313",
">  c #181716",
",  c #191817",
"<  c #1C1C1B",
"1  c #211606",
"2  c #241906",
"3  c #211709",
"4  c #251B09",
"5  c #291C0C",
"6  c #2B1E07",
"7  c #201F1D",
"8  c #251C11",
"9  c #1E200E",
"0  c #21230F",
"q  c #2E220C",
"w  c #32250E",
"e  c #36280D",
"r  c #3B2A0E",
"t  c #38260A",
"y  c #232510",
"u  c #2C2214",
"i  c #262912",
"p  c #2A2C14",
"a  c #21211F",
"s  c #322610",
"d  c #352A12",
"f  c #3A2D13",
"g  c #2E3216",
"h  c #313417",
"j  c #3F3115",
"k  c #323518",
"l  c #3F3218",
"z  c #363919",
"x  c #3A3D1B",
"c  c #1F2022",
"v  c #242323",
"b  c #282725",
"n  c #292826",
"m  c #2C2B2A",
"M  c #302F2D",
"N  c #3A3424",
"B  c #31302E",
"V  c #2E2F30",
"C  c #2F3132",
"Z  c #343433",
"A  c #383635",
"S  c #3A3837",
"D  c #353638",
"F  c #3C3B3B",
"G  c #402E11",
"H  c #423215",
"J  c #4A3B1B",
"K  c #453A1E",
"L  c #443C24",
"P  c #403E3D",
"I  c #3E421D",
"U  c #41451E",
"Y  c #43491F",
"T  c #4A5811",
"R  c #596A0F",
"E  c #526312",
"W  c #596C11",
"Q  c #697F0F",
"!  c #697E13",
"~  c #627319",
"^  c #6B7E19",
"/  c #627711",
"(  c #424720",
")  c #4B4125",
"_  c #454A21",
"`  c #494D22",
"'  c #4C4429",
"]  c #524527",
"[  c #52482D",
"{  c #5B4D29",
"}  c #5A4B25",
"|  c #4D5225",
" . c #515626",
".. c #545927",
"X. c #5E502C",
"o. c #565C29",
"O. c #595E2A",
"+. c #43413F",
"@. c #554B30",
"#. c #594F35",
"$. c #5C5231",
"%. c #64542D",
"&. c #665A36",
"*. c #6A5C35",
"=. c #635737",
"-. c #705F36",
";. c #5C622C",
":. c #646A2E",
">. c #707C2A",
",. c #6E623C",
"<. c #646B30",
"1. c #716137",
"2. c #72643A",
"3. c #7A6939",
"4. c #75683F",
"5. c #454442",
"6. c #494745",
"7. c #4A4947",
"8. c #4C4B4A",
"9. c #504E4C",
"0. c #53514F",
"q. c #545352",
"w. c #585755",
"e. c #5A5856",
"r. c #5D5C5A",
"t. c #605E5D",
"y. c #62605E",
"u. c #656462",
"i. c #686664",
"p. c #6B6967",
"a. c #6D6B6A",
"s. c #716F6D",
"d. c #72706E",
"f. c #767473",
"g. c #7A7876",
"h. c #7D7B7A",
"j. c #797775",
"k. c #817F7E",
"l. c #778F0A",
"z. c #77930F",
"x. c #6E8316",
"c. c #6D8119",
"v. c #728716",
"b. c #748B14",
"n. c #748A1B",
"m. c #70841C",
"M. c #7B9215",
"N. c #829C14",
"B. c #89A70B",
"V. c #9BBC07",
"C. c #94B309",
"Z. c #9CBD0B",
"A. c #91AE10",
"S. c #97B512",
"D. c #809324",
"F. c #A4C807",
"G. c #A7C909",
"H. c #A9CC0A",
"J. c #AFD405",
"K. c #B6DC04",
"L. c #B8DF05",
"P. c #BCE303",
"I. c #C3ED01",
"U. c #C5F000",
"Y. c #CAF400",
"T. c #82807F",
"R. c #858383",
"E. c #898786",
"W. c #8A8887",
"Q. c #8C8A89",
"!. c #92908F",
"~. c #969593",
"^. c None",
/* pixels */
"^.^.^.^.^.^.^.^.^.^.^.^.^.^.^.^.^.^.^.^.^.^.^.^.^.^.^.^.^.^.^.^.^.^.^.^.^.^.^.^.^.^.^.^.^.^.^.^.^.^.^.^.^.^.^.^.^.^.^.^.^.^.^.^.^.^.^.^.^.^.^.^.^.^.^.^.^.^.^.^.^.^.^.^.^.^.^.^.^.^.^.^.^.^.^.^.^.^.^.^.^.^.^.^.^.^.^.^.^.^.^.^.^.^.^.^.^.^.^.^.^.^.^.^.^.^.^.^.^.^.^.^.^.^.^.^.^.^.^.^.^.^.^.^.^.> ",
"^.^.^.^.^.^.^.^.^.^.^.^.^.^.^.^.^.^.^.^.^.^.^.^.^.^.^.^.^.^.^.^.^.^.^.^.^.^.^.^.^.^.^.^.^.^.^.^.^.^.^.^.^.^.^.^.^.^.^.^.^.^.^.^.^.^.^.^.^.^.^.^.^.^.^.^.^.^.^.^.^.^.^.^.^.^.^.^.^.^.^.^.^.^.^.^.^.^.^.^.^.^.^.^.^.^.^.^.^.^.^.^.^.^.^.^.^.^.^.^.^.^.^.^.^.^.^.^.^.^.^.^.^.^.^.^.^.^.^.^.^.^.^.^.: > ",
"^.^.^.^.^.^.^.^.^.^.^.^.^.^.^.^.^.^.^.^.^.^.^.^.^.^.^.^.^.^.^.^.^.^.^.^.^.^.^.^.^.^.^.^.^.^.^.^.^.^.^.^.^.^.^.^.^.^.^.^.^.^.^.^.^.^.^.^.^.^.^.^.^.^.^.^.^.^.^.^.^.^.^.^.^.^.^.^.^.^.^.^.^.^.^.^.^.^.^.^.^.^.^.^.^.^.^.^.^.^.^.^.^.^.^.^.^.^.^.^.^.^.^.^.^.^.^.^.^.^.^.^.^.^.^.^.^.^.^.^.^.^.^.^.< : ",
"^.^.^.^.^.^.^.^.^.^.^.^.^.^.^.^.^.^.^.^.^.^.^.^.^.^.^.^.^.^.^.^.^.^.^.^.^.^.^.^.^.^.^.^.^.^.^.^.^.^.^.^.^.^.^.^.^.^.^.^.^.^.^.^.^.^.^.^.^.^.^.^.^.^.^.^.^.^.^.^.^.^.^.^.^.^.^.^.^.^.^.^.^.^.^.^.^.^.^.^.^.^.^.^.^.^.^.^.^.^.^.^.^.^.^.^.^.^.^.^.^.^.^.^.^.^.^.^.^.^.^.^.^.^.^.^.^.^.^.^.^.^.^.> c @ ",
"^.^.^.^.^.^.^.^.^.^.^.^.^.^.^.^.^.^.^.^.^.^.^.^.^.^.^.^.^.^.^.^.^.^.^.^.^.^.^.^.^.^.^.^.^.^.^.^.^.^.^.^.^.^.^.^.^.^.^.^.^.^.^.^.^.^.^.^.^.^.^.^.^.^.^.^.^.^.^.^.^.^.^.^.^.^.^.^.^.^.^.^.^.^.^.^.^.^.^.^.^.^.^.^.^.^.^.^.^.^.^.^.^.^.^.^.^.^.^.^.^.^.^.^.^.^.^.^.^.^.^.^.^.^.^.^.^.^.^.^.^.^.: c c @ ",
"^.^.^.^.^.^.^.^.^.^.^.^.^.^.^.^.^.^.^.^.^.^.^.^.^.^.^.^.^.^.^.^.^.^.^.^.^.^.^.^.^.^.^.^.^.^.^.^.^.^.^.^.^.^.^.^.^.^.^.^.^.^.^.^.  O 7 v < O   ^.^.^.^.^.^.^.^.^.^.^.^.^.^.^.^.^.^.^.^.^.^.^.^.^.^.^.^.^.^.^.^.^.^.^.^.^.^.^.^.^.^.^.^.^.^.^.^.^.^.^.^.^.^.^.^.^.^.^.^.^.^.^.^.^.^.^.^.^.^.: < m , : ",
"^.^.^.^.^.^.^.^.^.^.^.^.^.^.^.^.^.^.^.^.^.^.^.^.^.^.^.^.^.^.^.^.^.^.^.^.^.^.^.^.^.^.^.^.^.^.^.^.^.^.^.^.^.^.^.^.^.^.^.^.  O < b F t.g.E.p.9.b < o   ^.^.^.^.^.^.^.^.^.^.^.^.^.^.^.^.^.^.^.^.^.^.^.^.^.^.^.^.^.^.^.^.^.^.^.^.^.^.^.^.^.^.^.^.^.^.^.^.^.^.^.^.^.^.^.^.^.^.^.^.^.^.^.^.^.^.: : v D > @ ",
"^.^.^.^.^.^.^.^.^.^.^.^.^.^.^.^.^.^.^.^.^.^.^.^.^.^.^.^.^.^.^.^.^.^.^.^.^.^.^.^.^.^.^.^.^.^.^.^.^.^.^.^.^.^.^.^.^.  @ < m q.f.j.h.k.E.E.s.j.a.t.5.v O   ^.^.^.^.^.^.^.^.^.^.^.^.^.^.^.^.^.^.^.^.^.^.^.^.^.^.^.^.^.^.^.^.^.^.^.^.^.^.^.^.^.^.^.^.^.^.^.^.^.^.^.^.^.^.^.^.^.^.^.^.^.^.^.: > < D b , O ",
"^.^.^.^.^.^.^.^.^.^.^.^.^.^.^.^.^.^.^.^.^.^.^.^.^.^.^.^.^.^.^.^.^.^.^.^.^.^.^.^.^.^.^.^.^.^.^.^.^.^.^.^.^.  o 7 v A t.f.d.d.e.+.m n v v m S 0.a.s.a.7.m < o   ^.^.^.^.^.^.^.^.^.^.^.^.^.^.^.^.^.^.^.^.^.^.^.^.^.^.^.^.^.^.^.^.^.^.^.^.^.^.^.^.^.^.^.^.^.^.^.^.^.^.^.^.^.^.^.^.^.^.^.O > , c 8.c : O ",
"^.^.^.^.^.^.^.^.^.^.^.^.^.^.^.^.^.^.^.^.^.^.^.^.^.^.^.^.^.^.^.^.^.^.^.^.^.^.^.^.^.^.^.^.^.^.^.^.^.^.    > m F u.h.g.k.e.7.Z m m v n m m m n B Z 5.q.i.i.s.7.m O   ^.^.^.^.^.^.^.^.^.^.^.^.^.^.^.^.^.^.^.^.^.^.^.^.^.^.^.^.^.^.^.^.^.^.^.^.^.^.^.^.^.^.^.^.^.^.^.^.^.^.^.^.^.^.^.^.O : < c V F n > X ",
"^.^.^.^.^.^.^.^.^.^.^.^.^.^.^.^.^.^.^.^.^.^.^.^.^.^.^.^.^.^.^.^.^.^.^.^.^.^.^.^.^.^.^.^.^.^.    : v m 5.a.R.T.h.i.8.Z M m S Z Z B a v c b m V m m B A A 6.t.t.e.F a O   ^.^.^.^.^.^.^.^.^.^.^.^.^.^.^.^.^.^.^.^.^.^.^.^.^.^.^.^.^.^.^.^.^.^.^.^.^.^.^.^.^.^.^.^.^.^.^.^.^.^.^.^.^.> < < c 5.D v >   ",
"^.^.^.^.^.^.^.^.^.^.^.^.^.^.^.^.^.^.^.^.^.^.^.^.^.^.^.^.^.^.^.^.^.^.^.^.^.^.^.^.^.^.^.    > m +.i.T.E.E.~.u.8.M M m M M m < < < < < $ : > , 7 7 b b b b v n F 6.e.a.e.F :   ^.^.^.^.^.^.^.^.^.^.^.^.^.^.^.^.^.^.^.^.^.^.^.^.^.^.^.^.^.^.^.^.^.^.^.^.^.^.^.^.^.^.^.^.^.^.^.^.^.^.: , c c m p.C b <   ",
"^.^.^.^.^.^.^.^.^.^.^.^.^.^.^.^.^.^.^.^.^.^.^.^.^.^.^.^.^.^.^.^.^.^.^.^.^.^.^.    : v m +.i.k.Q.R.k.e.9.9.M m Z M M < < < < : O O X       O : < c c a v m b m b m A 8.p.e.P m *   ^.^.^.^.^.^.^.^.^.^.^.^.^.^.^.^.^.^.^.^.^.^.^.^.^.^.^.^.^.^.^.^.^.^.^.^.^.^.^.^.^.^.^.^.^.^.: < < c n F q.C c c   ",
"^.^.^.^.^.^.^.^.^.^.^.^.^.^.^.^.^.^.^.^.^.^.^.^.^.^.^.^.^.^.^.^.^.^.^.    : v Z F u.h.R.T.g.a.q.F n m Z P Z Z c < 7 < : @ O     X               O : > < 7 a < m b m Z M F 9.p.t.5.<   ^.^.^.^.^.^.^.^.^.^.^.^.^.^.^.^.^.^.^.^.^.^.^.^.^.^.^.^.^.^.^.^.^.^.^.^.^.^.^.^.^.^.^.: > c c v V 8.V c c c   ",
"^.^.^.^.^.^.^.^.^.^.^.^.^.^.^.^.^.^.^.^.^.^.^.^.^.^.^.^.^.^.^.^.    > b F s.T.k.E.k.d.e.+.P Z B Z A Z v v < v < > @ X   X O # % - * - - - * % o o     O : : < v c < B F M b m P t.y.m O ^.^.^.^.^.^.^.^.^.^.^.^.^.^.^.^.^.^.^.^.^.^.^.^.^.^.^.^.^.^.^.^.^.^.^.^.^.^.^.^.^.: > < c c V 5.F c v m @   ",
"^.^.^.^.^.^.^.^.^.^.^.^.^.^.^.^.^.^.^.^.^.^.^.^.^.^.^.^.    : v B 8.s.h.g.a.t.5.w.+.A Z Z A A Z a 7 v < > @ : X     o O $ % * - - - ; ; - - - * % O o X     X : : < a 7 v Z m n M 5.5.P O ^.^.^.^.^.^.^.^.^.^.^.^.^.^.^.^.^.^.^.^.^.^.^.^.^.^.^.^.^.^.^.^.^.^.^.^.^.^.^.@ > c c v V 5.P n v V C     ",
"^.^.^.^.^.^.^.^.^.^.^.^.^.^.^.^.^.^.^.^.^.^.^.^.^.    * v P u.h.h.h.s.e.5.B Z m A A A Z v v c c < : : O   . o o % * - 0 y y p h g z U K z h g i y 9 ; - - % o . . X O : < c < , b B 5.5.S @ ^.^.^.^.^.^.^.^.^.^.^.^.^.^.^.^.^.^.^.^.^.^.^.^.^.^.^.^.^.^.^.^.^.^.^.^.^.O > < c v m P P V b V D O     ",
"^.^.^.^.^.^.^.^.^.^.^.^.^.^.^.^.^.^.^.^.^.    : v m P y.h.h.f.u.q.F m B B S S n n v v c < : @ @ X   X X o o # % * - ; 4 y i g k k x x x z z h p 0 0 ; - - % % o X .     X @ : , < B 7.w.w.B o ^.^.^.^.^.^.^.^.^.^.^.^.^.^.^.^.^.^.^.^.^.^.^.^.^.^.^.^.^.^.^.^.^.^.^.O , < c c n P 5.V c n D >   X   ",
"^.^.^.^.^.^.^.^.^.^.^.^.^.^.^.^.^.^.    * v S y.d.W.!.E.s.w.+.Z m D D S v v v < < > : : O   X o o * * - ; 9 y i p g x Y x.| o.;.;.;.:.;.;.;.;.| | Y I z g p 0 9 - % O .       : < m B P 0.q.a   ^.^.^.^.^.^.^.^.^.^.^.^.^.^.^.^.^.^.^.^.^.^.^.^.^.^.^.^.^.^.^.^.^.^.: < < c n D 5.V n b V m O @ X   ",
"^.^.^.^.^.^.^.^.^.^.^.^.^.^.^.^.O m n S t.g.W.Q.Q.j.8.A A Z A A c b b b a , > O O       X o # # * * * - 9 9 y i g k x E Y.E U E E Y U Y Y Y Y Y I I x k h g y 9 ; % o o       @ a B m B 5.q.+.%   ^.^.^.^.^.^.^.^.^.^.^.^.^.^.^.^.^.^.^.^.^.^.^.^.^.^.^.^.^.@ > , < c c c m P 8.m n c V D O @ ,     ",
"^.^.^.^.^.^.^.^.^.^.^.^.^.^.^.O 7.~.k.j.j.d.y.5.M b m Z v a v v c > : @ X   X o o o * * ; ; 9 0 i p g z U _ | | o.;.x.U.x.Y.^ F.F.x.<.:.:.<.:.:.:.;.;.;.;...` U z i , - X     $ < B M B P 7.7.B X ^.^.^.^.^.^.^.^.^.^.^.^.^.^.^.^.^.^.^.^.^.^.O : > > , < < c c c c c n V 6.0.V c m m F O O c >     ",
"^.^.^.^.^.^.^.^.^.^.^.^.^.^.  b e.R.y.S A m m m m v v v a < : : X     . o o # # # * * - - 9 9 y i g k k z I I I U Y Y E Y.E Y.Y.Y.Y.E I U U U Y Y Y Y Y I I I z g i 9 - . .   @ a B m m Z w.0.5.v   ^.^.^.^.^.^.^.^.^.^.^.^.^.^.^.: : > , < < < c c c v v n n n V C C D 5.w.D V n n D , O c b O     ",
"^.^.^.^.^.^.^.^.^.^.^.^.^.  : P 8.+.B n b < < < < < : : O     X # # * * - ; 9 y y i g g k I _ _ |  .o.;.;.;.;.;.;.;.;.;.x.x.F.F.F.F.x.| |  . .o.o.;.;.;.;.;.O. .Y I g i - o   @ v m m M n 8.e.8.Z X   ^.^.^.^.^.^.^.O : : , > < < < v c v b v n m m V m V V C D D 5.8.q.u.P V v c C m   : v @       ",
"^.^.^.^.^.^.^.^.^.^.^.^.^.O P 9.5.Z Z M a < : : : X     . o o @ # * * - - 9 9 y y i g g z z I I I Y I I Y U Y U Y I I z z E Y.Y.Y.Y.E g g g z z z I I I I I x z h g y ; * o   : a m M B B m r.0.5.v     O @ : : : > > c c c v c v m m m m V V Z Z D D F +.8.r.p.u.a.q.q.D n b c V D   : c c   O     ",
"^.^.^.^.^.^.^.^.^.^.^.^.  v 9.9.B Z Z c < O       X o * * - ; ; 0 i p p k U ( _ _ |  . .o.o.O.;.;.;.;.O.O.o.o. .| | _ U U x x.F.F.x.x x x x ( U ( ( _ ` | | ` _ I z g i ; # . O : > F m O m 7.r.8.Z @   O @ : > , c c v b m b m C C D F 5.5.8.8.w.r.a.f.h.h.f.r.8.D b m c b b m F O @ < n O X >     ",
"^.^.^.^.^.^.^.^.^.^.^.^.* F 7.Z n Z B < :     . . O # * - ; 9 9 y p g g k z I N x x U U U ( I I I x I x z z z k h p p p p p i E E p p i y p i p p p p p g g h p i y 9 - * o   $ b D E.0., Z m F t.5.b   X @ : , , c c v b V V D F 5.8.q.w.u.u.a.u.q.+.D C b c c v c b c c m V F > O , v O @ O <     ",
"^.^.^.^.^.^.^.^.^.^.^.  v a.F Z n Z < <     . o * ; 0 i g z I I _ |  ...o.o.o.O.O.O.O.O.o.......| | _ _ ( U x x x x z x x z x x x z z z x z z x z z x x x I x x z g p 0 ; $   O : < 8.c @ 7 Z m i.9.A :   O : > < c c C C P 8.8.q.q.5.F D V n v c c v b n c n n v n b m C F c O @ , v c   c O <     ",
"^.^.^.^.^.^.^.^.^.^.^.X B 8.A m B < > O     o % E E E p E E E E E x x E E E E E I E E E z z k g g g g i i i p i i i i i y p y i i i i i i i i y p i i i i i y y 0 9 9 ; * O   X : c 8.c O > n m P t.5.Z @   @ , c c n c b c c c c c < c c c v c c c v v c c n m V Z D F c O O @ c c n O   n O c     ",
"^.^.^.^.^.^.^.^.^.^.^.@ F A M m B c >     o ; >.Y.Y.Y.D.Y.Y.Y.Y.Y.N.M.I.Y.Y.Y.Y.m.L.Y.P.m.U x x z z z z z z z z z z z z z k z k z z z z z z x z z z z z z z z z h g p y ; O . X : c 8.v : 5.* m M q.0.5.V   X X O O O O : : : , : > , c < c c c b c V C D D D V < : O O O : , c c m O : X V @ c     ",
"^.^.^.^.^.^.^.^.^.^.  < F Z Z m B * X   X $ ; G.K.n.Y.Y.J.x.U.B.C.U.Y.z.Z.I.x.K.Y.B.! K.E i i q p y i y y y y y y i y y i i i i y y y y y y y y i y y u y y y y 0 9 ; - * o   X O O c :   D V > M S 9.9.F c       O O O O @ O @ @ : : : c c v m V b c : O O     O O @ : < c c b c O   c O D O c     ",
"^.^.^.^.^.^.^.^.^.^.o B +.A m m m n O   $ ; ! P.S.n.Y.H.Z.~ Y.c.A.I.Y.v.K.H.^ P.I.N.x.K.c.k k k k k k k k z z k k k k k h h g k k k k z z k k z k k k k k k k k g p i 0 ; # . O c V d.D , m F > b M P 6.0.+.a         O   O O O @ : > < , : O O       O O @ : > > < c c v v b :   : O n O Z O >     ",
"^.^.^.^.^.^.^.^.^.^.@ P P B m m c :   X $ - E P.Y.Y.Y.Y.T E Y./ F.z.P.Q V.B.R K.Y.Q ! K.E y y y i y y y y y y y y y y y i y y y y y y y y y y y y y y i y y y y 0 9 ; - % o   X : < 8.c @ V n 5.@ M S F 8.q.6.c         O O   O O             O O @ : : : : < < c c c < O O   :   c O m O m O >     ",
"^.^.^.^.^.^.^.^.^.  < 8.P B n Z c :   $ - i x.Y.c.c.Y.Y.~ Z.Y.v.Y.Y.P.x.Y.v.M.P.Y.N.H.P.c.g g z g g k g k g g g k z g g g h h z g g z g h h g g h g h h h h h g g p i 9 ; o   O : < 8.v @ M n M Z : Z M A 8.w.0.a                     X O   O O O @ : : > , , > O O   O   :   , O c O c O c O >     ",
"^.^.^.^.^.^.^.^.^.X M 8.+.b n a < X . o * ; E Y.T C.I.Y.E J.Y.W Y.P.V.E Y.W V.P.Y.Y.Y.l.x.9 y 9 y y i 0 0 i y i i 9 9 i y i i 9 i i 9 i i 9 i i i y y y 0 y y y 9 ; ; - $ O   X : < 8.v @ M n M A 7 7 B n Z P t.0.Z :                   X X O O O O O O           O   :   > O c O c O c   c O O     ",
"^.^.^.^.^.^.^.^.^.O 8.7.Z b M v >   o - 9 i g x.z z x.x.k h x.g x.x.g g x.g g x.x.x.x.g g g g g g g g g g g g g g g g g g g g g g g g g g g g g g g g h g g g g p p y 9 - $   X : < 8.v @ M n n b P @ b Z Z M P 0.s.w.A 7 < @             X X X           O   O   :   >   >   ,   >   , O >   O     ",
"^.^.^.^.^.^.^.^.  < 8.+.b m m n O   o % - 9 9 y y i i y 9 y 0 0 0 0 0 9 0 0 y 0 9 y 9 y 9 y y 9 0 y 0 0 0 0 y 9 y y 9 y 9 y 9 9 0 9 0 0 0 9 y 9 0 9 0 0 0 0 0 0 9 ; - - % o   X O @ n < @ S M n M b 5.: = a Z M Z 8.i.i.i.i.w.A c < :                 O   O   O   O   :   >   :   >   :   :   O     ",
"^.^.^.^.^.^.^.^.X Z 6.M a n 7 <   . # ; 0 i p g h g g g g p p p g g p g i g p p g i g i g g p g p p g p p p p p g p g p g i p g g p g i p g p p g p g i p p p p p i 9 ; - o .   O O : O o Z n m b m b 6.A > : 7 m m A 5.8.t.y.i.u.t.0.Z a : .             O   O   O   O   O   @   @   O   O         ",
"^.^.^.^.^.^.^.^.O P F m v m < :   o o - - 9 9 9 y 0 9 9 9 9 9 9 9 9 9 9 9 9 9 9 9 9 9 9 9 9 9 9 ; 0 ; 0 0 9 0 0 9 9 9 9 9 9 9 9 9 9 9 9 9 9 9 9 9 9 9 9 0 0 0 9 ; ; - * # o . O , c c D : Z M n n m M M M 5.5.7 : < b M b M B P 9.t.u.p.y.e.S a > :           O   O   O   O   O   O   O   O   O     ",
"^.^.^.^.^.^.^.  < 6.Z b v < , o   o - y i p g g g g g p p p p p i i g p i p p p i g i g p p i i p p p p p p p p i g i i p p p p p i p g p p p p p p p p p p p p i y 0 ; - o   @ > v 7 A @ M n b m > + O > n n A 6.b @ > b n M n v n B P q.t.t.y.t.q.Z c > :           X   O   O   O   O   O         ",
"^.^.^.^.^.^.^.X M 5.b 7 v < @   X o % - ; 9 9 y 0 0 9 9 9 9 9 9 9 9 ; 9 9 9 9 9 ; 9 9 9 9 9 9 9 0 ; 0 9 ; 9 ; ; 9 9 9 9 9 9 9 9 9 9 9 ; 9 ; 9 9 9 9 9 9 ; ; ; ; ; ; - * O o   O < 7 7 Z : n M b : > b 7 > : M b v A 8.m > = : , v b n b v b B P q.e.t.t.r.0.C c , , O             O   O   O         ",
"^.^.^.^.^.^.  @ P P a a n < O . . - ; 0 i p p g p p p p p p i i p i p p i p p i i i i i p p i p i i p p i p p i i p p p i p p i i i i p i p p i p i p p i p p p y y ; ; % o . O , v a Z > b n M + v v b a + m n m b b A +.7.A b > @ : : a v b b v v M P 9.e.e.e.w.0.6.B n n :                       ",
"^.^.^.^.^.^.  < 7.M 7 7 , > X   o # % - ; ; ; ; , ; ; ; ; ; ; ; ; ; ; ; ; ; ; ; 9 ; ; ; ; ; ; ; ; ; ; ; ; ; ; ; ; ; ; ; ; ; ; ; ; 9 ; ; ; ; ; ; ; ; ; ; ; - ; ; ; - - * o o X O > 7 v A : m b n @ m B M M * m m n b b n b n M Z A P A b > + @ : , v a 7 7 7 n A 5.7.9.7.7.+.A b < < @               ",
"^.^.^.^.^.^.O m 6.b 7 a < O   . # - ; 9 0 i i i p i y i i i i i y p y i i i i i i i i i i i y i i i i i i i i i y p y i i i i i i i i i i i y p i i i i p y p y y 0 ; - % o   O > 7 7 S : S n b : b 5.+.b , M n m n b b b b b b b b n M A F Z a : @ O : : < < 7 , 7 v M A S F S Z C m < > > O       ",
"^.^.^.^.^.  * B A v 7 v , O   . o # - - ; - ; ; ; ; ; ; ; ; ; ; ; ; ; ; ; ; ; ; ; ; ; ; ; ; ; ; ; ; ; ; ; ; ; ; ; ; ; ; ; ; ; ; ; ; ; ; ; ; ; ; ; ; ; ; ; ; - ; - - % O o X   O > < a A : M b v b , v < : M b n M b b b b b b n v b b v a a v m M A M 7 > @ O o O O O @ @ : < v m B B B m V v >     ",
"^.^.^.^.^.  < B B < < > : X   X * - ; 9 9 0 y 0 0 0 0 q y y y 0 y 8 y 0 0 y 0 y 9 y y 0 y y y y 0 y 0 y y 0 0 0 y y 8 0 0 0 y 0 0 y 0 0 y y y , 0 0 0 0 0 0 0 9 9 ; - * o .   O < > n B * M a b 7 b M B Z n M b v b a b b v v a a v a 7 a a < a a < a b b n n M a < : @ O .       X O : c b v : O   ",
"^.^.^.^.^.O b B m a < : O     X o # % * - - - - - - - - - - - - - - - - - - - - - - - - - - - - - - - - - - - - - - - - - - - - - - - - - - - - - - - - - - - - * % # o X     : a 7 a M : n 7 a a v b b n M b a 7 , 7 a b a a 7 a a 7 7 a a b v < : : : > > , > > < 7 < < c a < : @ @ X         X   ",
"^.^.^.^.  O n m n < < > O     o # * - ; ; ; ; ; ; ; ; ; ; ; ; ; ; ; ; ; ; ; ; - ; ; ; ; - ; ; - 9 - ; ; ; ; ; ; ; ; ; - ; ; - ; 9 - ; ; ; ; ; ; ; ; ; ; ; ; - - - % o .       > B m m b : m b 7 7 7 a a a a a 7 7 7 7 7 7 7 7 7 7 7 7 7 v v 7 @ O @ @ O .     o X O O O O @ O @ : : : < , < < : :   ",
"^.^.^.^.  < n n v , : O       X . o o # # % * $ % * % * * $ * $ # * $ $ % o o X X X X . o X o X X X X X X X X X X o X X . o o o X X X X X o . . X X X X X X X . X .         > v b 7 M : b 7 7 7 7 7 7 7 7 a 7 a 7 < , 7 7 n b < < 7 7 b < @ . : v v n B Z M M b < > : @ O   O           O X X O O X ",
"^.^.^.  O < b a , > : O         . . o # # $ $ $ O $ $ $ * $ $ $ % $ o o . o 1 1 3 3 1 1 1 2 @ O   X . O X O O   O O X O   O + 3 2 & & & & = & 2 & & & 1 1 2 O X O O       @ v V : v < c : 7 7 < 7 7 , < 7 , , 7 < < 7 < c , , > : 7 7 >   X v a a > O         @ @ : , < c v v v v a < : @ O O X     ",
"^.^.^.  : 7 b a , > c @           . X X X X X X X X X X X X X X X X     & J %.1.1.1.*.1.3.@.V n V V V C b V C C Z Z Z Z C #.2.2.%.1.1.1.*.%.*.{ %.2.{ 2.3.m v < n b c ,     , : : c : < . , < > > , < 8 , 7 , 7 > < > > > > > > : 7 >   < m c O       O   X                       O O @ > > c v v   ",
"^.^.    a 7 7 < : < c >                 X   X                       o w $.X.*.2.,.,.,.2.=.D D Z D D D C D D F D D C Z V +.4.,.*.,.&.&.&.,.&.,.,.&.&.2.2.S F Z D V D c c < @     : < , : @ 7 > , > : , : : , : : > : : : : : : : < : . < >     O X O   .   O O X O   O X X   X                       ",
"^.^.  : < 7 < * : c c < O   X @ > : > : : : : > > > > , , > < : X + H } %.{ J r r t G 8 @ @ O @ @ @ @ O @ O O : @ @ @ 5 H r r t t r e e r r e e t f t * O O O O O O , m c < :   o O : . 7 : : : : : @ : : : : @ @ : @ @ : @ @ : @   > <       . . O O O O   O O . O . X   O O   O   O . O X   .     ",
"^.^.. : < < > @ : : > c m v m n m m m m m m m b m b m v m a : . 4 l ) ] ) f f H j J 8 @ : : : : : : : @ @ : : : : : u H l G f f j f f j r f f H f l : > : : : O O O O @ < < < : .     O O X o o X O X O O O . O o X X O X   O O   O O         .     X       O     X                                 ",
"^.  @ : < < @ O @ : : > > > > , : @ : : : : : : : : : : : o + f $.{ ) K d f f f j u > > @ @ : @ @ O : @ : : @ : O u l f f f f f f f d f d f w d f : : : @ @ O O O O O O O > v n c d & + + + + % + + + + + & + + .       X     O       O       . O + + + + + + O + o + + + + + +                     ",
"^.  > @ @ : o O : O @ @ O @ @ @ O : : O : O @ @ @ @ @ @ X . d L w q w d d d f f a > : : : : O : O @ @ @ @ @ @ @ 8 f s d d s d d w d d p s s d f @ : O O O : O O O O O O O O O O 5 f [ ] [ ) L ' [ L L L L L L N c c c v a c < c v c c c v c c N L L L L L L L L L L L L L L ] v c , c c c c c c O   ",
"^.  O O @ : X o O : O O O O @ @ O O O O O @ $ @ O @ O O . + w 5 q w w u s w w 8 O O O O O O O O O O O @ O O O > q q q 6 u q q 6 s q q q q q q O O X O O O   O O X O O X O O o w w 2 5 2 6 4 5 4 2 2 5 5 2 2 @ O O   . O X O O X o . X . O O @ 2 5 4 2 2 2 2 1 1 4 4 2 2 2 4   X O O O   . O   X X   ",
"  O X   X X     O   O     O     X X   O       O X     O       o . . . . . . .                                   o . . . . . . . . . . . .                                     . . . . . .   . . . . . . . .                                 . . . . . . . . .       . . .                           "
};
