/* XPM */
static char *result[] = {
/* columns rows colors chars-per-pixel */
"414 22 27 1 ",
"  c #020202",
". c #080707",
"X c #090807",
"o c #0C0B0B",
"O c #100F0E",
"+ c #11100F",
"@ c #131312",
"# c #181716",
"$ c #191817",
"% c #1C1C1B",
"& c #201F1D",
"* c #21201E",
"= c #242422",
"- c #282725",
"; c #292826",
": c #2C2C2A",
"> c #302F2E",
", c #31302F",
"< c #343332",
"1 c #383635",
"2 c #3A3837",
"3 c #3E3C3B",
"4 c #403E3C",
"5 c #42403E",
"6 c #454341",
"7 c #4C4A48",
"8 c None",
/* pixels */
"                                                    .           ..                                                                                                                                                                                                                                                                                                                .           .           .                   ",
" .oooooOO@ooOoooooXooXooooooooooooooOOOOOoooooooOooooooOoOooOooOooooooo@#@#&%#@o   .o # # @ + + o o o o o o o o o o o + @ .  ++o...o.oo.ooooooooooooooooooooooooO+ooOo+ooooooOo++o++o++o+ooO+o+oo+Oo+oooOoooooooOooooooooooooooooooooooooooooooooooooooooooooooooooo.oooo.oooooooooo.oo.XoX...o....o.........oo   o o o o o o o o o o o o o o o o O @ o..   oo@@@Oo+o.ooooooooOoOoooOOOooooooOooOooOooOooOoooOOoooooooooo.oo..",
" o@OOO#=%@@Ooo@#%%%====-;;;-*%#@#@O@@@OOO@@@@O@@@@@@@O@O@O@@@@@@@@@@@@@&:::;<<1<,1=@..XX% = = = = * & % & % % % % % = = % oO-=$%%%%%&%%%%&*&&&*=**====-==-----;;;;:;;:;:;::>:>::::>:::::::::::::::::::::;:;:;::;;;;;;;--;=------=---==--=---=============*=*=**========*=*&****&%&****%*%&*%%%*%&%%#%#$@##@#@@%%o.# % % = - % % % % % % % % % % % #ooo..o%=-;:==%&&&#@@@@@@@@@@@@@O@@@O@@@@O@@OO@@@OoOo@O@@@@@%==-;;;;===&&#%@",
" o+O@=;&@o..         ...oooO+@#%#%%%%%%====::::<><<1<,:=#%%%%$##$@#@#@@@::;;==&-:11,::&o .o % & = = = : % & % % * * = % . %=%#%$$#@$&*%&*@oooooooooooooooOoOoOoOOoooo+oOOoOoOoOooOoX.o.ooXooo.Xo..oX...oXo..XXXX................... . ... ...... ................ ... . .. .. ..... . ........... .%%#%##++@##+#%@  % & * % % $ % % $ % & % % $.oo  X+*====&%$$%%%== @@@@######%%%$$=:><1<<<,::::;====&*%%%#$#@OOOXo. .  .    ",
" o@=>=@o..  88888888               ..o.Oo+++@#@##$&&%&**==::::::,>:::::;..<::>>**%%-:>,21%o.  # % = * % * % : - ; & * X .==%#$&%%%*... ............. .......XX....oo.o.oXXo.Xoo.oo.                                                                                                                 ...o.$+#%%#@@%%.o % % % % % % % % & % $ o....o%=*=**&%$%%&*-*;  =:::::>,::::::==&%%%%&%#@#@#O@@oo... .. .           888888",
" o%<@oo.  88888888888888888888888               ...ooo++OOO##$%%%&%=&=&%$.XOO@:1:;*%%$==;;;-=#X.X % % = * * : * * = $ oO;*#%&%@...o..       88888888888888888888888888888888888888888888888888888888888888888888888888888888888888888888888888888888888888888888888888888888888888888888888888         ......o##@@%&o % = * = % % * * % @.X...#=-=*&%$$%$%&**&+Xoo. %&===&%&%%&#@@O#o@ooo.                 8888888888888888888",
" O=#o.  88888888888888888888888888888888888888           . ...oo.ooooOO+O+X@@@OO&,1,;=%%%%%*-===*O. @ % * = = - - = . &--$%&&#XOoo    88888888888888888888888888888888888888888888888888888888888888888888888888888888888888888888888888888888888888888888888888888888888888888888888888888888888888      oo+o#%%#@$=$. - = , = = * #.oo. o&*=**%%$#$%***;*@XoO+O  @@Ooooo..... .     ..      88888888888888888888888888888888",
" @#..  8888888888888888888888888888888888888888888888888888           .  ...oO@@++O#->:;=&&%$%==;>-=$o. $ = ; : - O..;--&%%%#o+o.  88888888888888888888888888888888888888888888888888888888888888888888888888888888888888888888888888888888888888888888888888888888888888888888888888888888888888888888888 Xooo$**#@$**.% ; : = & o..Xo$;;:;*%#$#%*;;:*&OOoO++oo.   .            888888888888888888888888888888888888888888888",
" oo  8888888888888888888888888888888888888888888888888888888888888888888      .O#+@++#+=:>:=&&%$$*-*--;*+.X $ ; & o+>:-*%%%@Ooo. 888888888888888888888888888888888888888888888888888888888888888888888888888888888888888888888888888888888888888888888888888888888888888888888888888888888888888888888888888.ooo#;=$#@%;O %.%.#Xo o%:,,:;*&$$%*=-<1=#oOoOO+oo.      8888888888888888888888888888888888888888888888888888888888",
"   888888888888888888888888888888888888888888888888888888888888888888888888888   .o++O@OO+*1<>=-*%&%%*=-;;1&O.    -:=%$$%%oOOo. 8888888888888888888888888888888888888888888888888888888888888888888888888888888888888888888888888888888888888888888888888888888888888888888888888888888888888888888888888888 .OOOo%>%##%;: ...XO%>1<;-**%$$&=;:,:#ooo++oOX.     88888888888888888888888888888888888888888888888888888888888888",
"  8888888888888888888888888888888888888888888888888888888888888888888888888888888   .oo@++oOo%=:,*%%&%%%%;6:;:::,:>;$&*-#XO+o. 888888888888888888888888888888888888888888888888888888888888888888888888888888888888888888888888888888888888888888888888888888888888888888888888888888888888888888888888888888  ooOo$:-%#%5;>>:,>;==%%%$%%*>:1:%oOoOO@Oo.     88888888888888888888888888888888888888888888888888888888888888888",
"888888888888888888888888888888888888888888888888888888888888888888888888888888888888   ..o++O@@+$:1,-%*&%&:;*;::;;*&$$*+o+o.  88888888888888888888888888888888888888888888888888888888888888888888888888888888888888888888888888888888888888888888888888888888888888888888888888888888888888888888888888888888  XOOo+;-*$<::;;:>%%&&-*>,13,$OO@#+OoX.    888888888888888888888888888888888888888888888888888888888888888888888",
"8888888888888888888888888888888888888888888888888888888888888888888888888888888888888888   ..++@+++#,,,:***-&&&%&%*$%*.@OO. 888888888888888888888888888888888888888888888888888888888888888888888888888888888888888888888888888888888888888888888888888888888888888888888888888888888888888888888888888888888888 .o@+o**%=%*&&&=;=-,:11,$%##+@ooX     888888888888888888888888888888888888888888888888888888888888888888888888",
"8888888888888888888888888888888888888888888888888888888888888888888888888888888888888888888   ..+++++$$-::--=*****==#o++o  88888888888888888888888888888888888888888888888888888888888888888888888888888888888888888888888888888888888888888888888888888888888888888888888888888888888888888888888888888888888888  +++o$=**&&==-143,=&#+#+@oX.     888888888888888888888888888888888888888888888888888888888888888888888888888",
"8888888888888888888888888888888888888888888888888888888888888888888888888888888888888888888888   .X+++$%$$:,,1,,,,*+O+oo  8888888888888888888888888888888888888888888888888888888888888888888888888888888888888888888888888888888888888888888888888888888888888888888888888888888888888888888888888888888888888888  XO+@#;1511261*O###+++X.     888888888888888888888888888888888888888888888888888888888888888888888888888888",
"8888888888888888888888888888888888888888888888888888888888888888888888888888888888888888888888888  .Xo+++$$&%*,34=O@@O  88888888888888888888888888888888888888888888888888888888888888888888888888888888888888888888888888888888888888888888888888888888888888888888888888888888888888888888888888888888888888888888 .+++o&,75=oo+@+++oX.    888888888888888888888888888888888888888888888888888888888888888888888888888888888",
"8888888888888888888888888888888888888888888888888888888888888888888888888888888888888888888888888888   ...oO@#Oooo+Oo  8888888888888888888888888888888888888888888888888888888888888888888888888888888888888888888888888888888888888888888888888888888888888888888888888888888888888888888888888888888888888888888888  oo@+OOoO@@@o..     888888888888888888888888888888888888888888888888888888888888888888888888888888888888",
"88888888888888888888888888888888888888888888888888888888888888888888888888888888888888888888888888888888   .oo@+@@O  8888888888888888888888888888888888888888888888888888888888888888888888888888888888888888888888888888888888888888888888888888888888888888888888888888888888888888888888888888888888888888888888888  .+@@@@+o.     8888888888888888888888888888888888888888888888888888888888888888888888888888888888888888",
"88888888888888888888888888888888888888888888888888888888888888888888888888888888888888888888888888888888888   .oOO  888888888888888888888888888888888888888888888888888888888888888888888888888888888888888888888888888888888888888888888888888888888888888888888888888888888888888888888888888888888888888888888888888  .+@o.     8888888888888888888888888888888888888888888888888888888888888888888888888888888888888888888",
"88888888888888888888888888888888888888888888888888888888888888888888888888888888888888888888888888888888888888    8888888888888888888888888888888888888888888888888888888888888888888888888888888888888888888888888888888888888888888888888888888888888888888888888888888888888888888888888888888888888888888888888888888       8888888888888888888888888888888888888888888888888888888888888888888888888888888888888888888888",
"888888888888888888888888888888888888888888888888888888888888888888888888888888888888888888888888888888888888888888888888888888888888888888888888888888888888888888888888888888888888888888888888888888888888888888888888888888888888888888888888888888888888888888888888888888888888888888888888888888888888888888888888888  8888888888888888888888888888888888888888888888888888888888888888888888888888888888888888888888888",
"888888888888888888888888888888888888888888888888888888888888888888888888888888888888888888888888888888888888888888888888888888888888888888888888888888888888888888888888888888888888888888888888888888888888888888888888888888888888888888888888888888888888888888888888888888888888888888888888888888888888888888888888888888888888888888888888888888888888888888888888888888888888888888888888888888888888888888888888888888"
};
