/* XPM */
static char *result[] = {
/* columns rows colors chars-per-pixel */
"143 56 174 2 ",
"   c #030303",
".  c #080602",
"X  c #070804",
"o  c #0A0B05",
"O  c #0C0C0B",
"+  c #120D04",
"@  c #100F0E",
"#  c #0F1007",
"$  c #0F1108",
"%  c #101107",
"&  c #1E1506",
"*  c #12130A",
"=  c #1B120A",
"-  c #16180A",
";  c #1B1C0D",
":  c #0F0F10",
">  c #0F1011",
",  c #131313",
"<  c #181716",
"1  c #191817",
"2  c #171819",
"3  c #1C1C1B",
"4  c #211605",
"5  c #241907",
"6  c #221709",
"7  c #251A09",
"8  c #2A1E09",
"9  c #2A1C06",
"0  c #261D12",
"q  c #281E12",
"w  c #201F1D",
"e  c #1E200E",
"r  c #21230F",
"t  c #2D220C",
"y  c #24280D",
"u  c #32240C",
"i  c #36280E",
"p  c #392B0E",
"a  c #38260B",
"s  c #2D340D",
"d  c #353E0D",
"f  c #232510",
"g  c #2C2215",
"h  c #262912",
"j  c #2A2C14",
"k  c #21201F",
"l  c #312610",
"z  c #352911",
"x  c #3A2D13",
"c  c #2E3216",
"v  c #313417",
"b  c #3D3016",
"n  c #343A14",
"m  c #323618",
"M  c #3E341C",
"N  c #363919",
"B  c #3A3D1B",
"V  c #1E1F21",
"C  c #242323",
"Z  c #282725",
"A  c #2A2927",
"S  c #27282A",
"D  c #2C2B2A",
"F  c #302F2D",
"G  c #3A3323",
"H  c #31302E",
"J  c #2E2F31",
"K  c #2F3030",
"L  c #343433",
"P  c #383635",
"I  c #3A3837",
"U  c #3C3B3A",
"Y  c #343538",
"T  c #413214",
"R  c #45371A",
"E  c #4A3C1D",
"W  c #453D25",
"Q  c #493D20",
"!  c #403E3D",
"~  c #36410E",
"^  c #39430F",
"/  c #3A4312",
"(  c #3E4912",
")  c #3E421D",
"_  c #41451F",
"`  c #43491F",
"'  c #414B13",
"]  c #53421D",
"[  c #455113",
"{  c #495614",
"}  c #4E5C14",
"|  c #4C5619",
" . c #515A1B",
".. c #50620E",
"X. c #566616",
"o. c #596B14",
"O. c #59671A",
"+. c #5E7016",
"@. c #60770D",
"#. c #647B0F",
"$. c #657A14",
"%. c #444522",
"&. c #4A4126",
"*. c #454921",
"=. c #494D23",
"-. c #4A4229",
";. c #514221",
":. c #5B4B26",
">. c #524729",
",. c #5C4E2A",
"<. c #4D5225",
"1. c #525626",
"2. c #545A27",
"3. c #555B28",
"4. c #595E2A",
"5. c #43413F",
"6. c #514730",
"7. c #5A4F31",
"8. c #564D35",
"9. c #5E5536",
"0. c #604F2B",
"q. c #62532C",
"w. c #625632",
"e. c #645937",
"r. c #6B5C34",
"t. c #675D38",
"y. c #685E3A",
"u. c #5B6324",
"i. c #5F6D20",
"p. c #5C622C",
"a. c #62672D",
"s. c #646B2F",
"d. c #6A7429",
"f. c #6C782A",
"g. c #727E2C",
"h. c #6F6137",
"j. c #646B30",
"k. c #6E623C",
"l. c #706239",
"z. c #776536",
"x. c #454342",
"c. c #494745",
"v. c #4B4947",
"b. c #4C4B4A",
"n. c #514F4D",
"m. c #52504E",
"M. c #545352",
"N. c #595755",
"B. c #5B5957",
"V. c #5D5C5A",
"C. c #615F5D",
"Z. c #62605E",
"A. c #666462",
"S. c #686765",
"D. c #6A6866",
"F. c #6D6B6A",
"G. c #716F6D",
"H. c #72706E",
"J. c #757472",
"K. c #797775",
"L. c #7A7876",
"P. c #7D7B7A",
"I. c #817F7E",
"U. c #6A8114",
"Y. c #75812B",
"T. c #87982C",
"R. c #CAF500",
"E. c #82807F",
"W. c #858382",
"Q. c #898786",
"!. c #8B8988",
"~. c #92908F",
"^. c #969593",
"/. c None",
/* pixels */
"< /./././././././././././././././././././././././././././././././././././././././././././././././././././././././././././././././././././././././././././././././././././././././././././././././././././././././././././././././././././././././././././././././././././././././././././././.",
", < /././././././././././././././././././././././././././././././././././././././././././././././././././././././././././././././././././././././././././././././././././././././././././././././././././././././././././././././././././././././././././././././././././././././././././././.",
", 3 /././././././././././././././././././././././././././././././././././././././././././././././././././././././././././././././././././././././././././././././././././././././././././././././././././././././././././././././././././././././././././././././././././././././././././././.",
": V < /./././././././././././././././././././././././././././././././././././././././././././././././././././././././././././././././././././././././././././././././././././././././././././././././././././././././././././././././././././././././././././././././././././././././././././.",
"O k V , /./././././././././././././././././././././././././././././././././././././././././././././././././././././././././././././././././././././.  O 3 3 w V ,     /./././././././././././././././././././././././././././././././././././././././././././././././././././././././././././.",
", 2 K 3 , /./././././././././././././././././././././././././././././././././././././././././././././././././././././././././././././././././.  O 3 A m.H.K.H.J.V.! A ,     /././././././././././././././././././././././././././././././././././././././././././././././././././././././././.",
", 2 Y C < : /./././././././././././././././././././././././././././././././././././././././././././././././././././././././././././././.    , D n.S.D.J.I.J.F.G.K.L.H.V.U A w X     /././././././././././././././././././././././././././././././././././././././././././././././././././././.",
"O < C P 2 < , /./././././././././././././././././././././././././././././././././././././././././././././././././././././././././.    @ C I N.D.H.Z.n.! H F P L P n.G.L.W.P.H.M.I S ,     /./././././././././././././././././././././././././././././././././././././././././././././././././.",
"X , C v.V 3 < O /./././././././././././././././././././././././././././././././././././././././././././././././././././././.    * C L n.S.C.V.x.H C C C Z A A A D A C F ! m.G.L.L.L.Z.5.D <     /././././././././././././././././././././././././././././././././././././././././././././././.",
"X 2 S U D V 3 , O /./././././././././././././././././././././././././././././././././././././././././././././././././.    @ k L m.Z.Z.B.5.H C A D A A C 3 3 3 w D D D D A A D P b.S.I.E.W.D.x.D C ,     /././././././././././././././././././././././././././././././././././././././././././.",
"  2 C Y c.V V 3 < /././././././././././././././././././././././././././././././././././././././././././././././.    O C U C.D.F.V.v.H Z A Z S S C 3 3 2 2 : * 3 V 3 3 w F F H F D F H v.A.^.Q.Q.W.D.U D ,     /./././././././././././././././././././././././././././././././././././././././.",
"  3 C J D.S C 3 2 , /././././././././././././././././././././././././././././././././././././././././././.  O 3 C F M.H.J.Z.5.A C A Z C C k 3 3 < , O O       X O : , 3 w 3 3 A H H H H H b.n.V.P.W.!.E.S.5.D C ,     /./././././././././././././././././././././././././././././././././././.",
"  V C J M.U S V V 1 , /././././././././././././././././././././././././././././././././././././././././.  O x.C.C.F.S.N.F k w w w w 2 3 < 2 , $ O         . .         X : , 3 V k 3 V L Y U L D D U M.G.K.I.E.I.A.U C ,     /././././././././././././././././././././././././././././././././.",
"  3 C C S b.L V k V 2 , /./././././././././././././././././././././././././././././././././././././././.  k c.n.m.U F k k k w 2 2 3 < , > O   . X o # * * - - * * * o o X   X $ * < 3 C 3 C C P P L L L ! x.B.H.E.Q.W.A.5.D 1     /./././././././././././././././././././././././././././././.",
"  O D C C U c.J C V 3 < , /./././././././././././././././././././././././././././././././././././././.  O F P D C A k k 1 < 2 2 , : X     X o # * * * - - ; ; - - - * * O o X .     X : , , 3 V w C L L P L H P 5.N.I.^.W.I.D.v.F C ,     /./././././././././././././././././././././././././.",
"    L S S S U c.D C C 3 < O /././././././././././././././././././././././././././././././././././././.  3 U ! F Z 3 1 2 < @ O X   X o + * - ; e y y c m B ) ) N v v j h f e ; - - * O X     O $ < 2 3 C k C P P P L U x.A.J.I.W.P.K.A.U C ,     /././././././././././././././././././././././.",
"    O I D S S 5.x.S C V 3 , O /././././././././././././././././././././././././././././././././././.  O H 5.P Z 2 , O O X     . X o % * - ; ; 7 f j m N N B ) N m m c h r r ; - - % % # o o X .   X , , < 3 C C C A I 5.! 5.n.c.V.H.J.I.L.S.5.D k *     /././././././././././././././././././.",
"  X X 2 Y D C D 5.5.Z V V 3 2 O /./././././././././././././././././././././././././././././././././.  w ! ! A A 3 ,       . X * ; e r j v m ) *.<.1.3.p.p.p.s.p.p.p.2.<.<.` B m c j h r e ; ; * * o X X   X > , , V C A C P c.n.x.x.5.v.S.J.I.I.L.A.U C *     /./././././././././././././././.",
"  O > X D K S A S x.U S V V 3 , /././././././././././././././././././././././././././././././././.  * F ! I Z k 3 ,       . # * ; e r j / |  .` ) ) ` _ *.*.` ` ` ` ` _ _ ) N N m c h f r e ; * * * $ o o X X     O : < 3 C w V C P 5.! L U x.m.G.K.L.K.C.U 3 3 O /./././././././././././././.",
"    2 , X I D A S D v.5.S C V 3 3 2 < O /././././././././././././././././././././././././././././.X H U m.H Z C 3 O     X * ; h N ) <.2.f.R.R.Y.s.s.s.j.j.s.s.j.s.s.s.s.a.a.p.p.p.2.<.<.*._ N v j h r ; ; ; * * O X X   X : , < w V C k D P U L L I M.A.J.G.K.H.c.O /././././././././././././.",
"    < 3 O O U D S S K M.c.J S S C C V V 3 3 2 2 < , O /././././././././././././././././././././.  3 U V.5.H F Z V O     o - e h c N ) ) i.R.R.i.*._ *.%._ _ %._ _ %.` ` _ ` _ *.` ) _ ) ) B n m c h e e e ; - - * % + o X X     O , , 1 C C C V U L H L L n.~.I.Z.F   /./././././././././././.",
"    X C 2 O 2 Y C S D Y B.x.K K J D S S S C C C C V 3 3 3 2 < < , /././././././././././././././.O F x.N.H S F F C ,   o - h m ) *.2.d.Y.T.R.R.T.g.d.u.1.<.<.<.1.<.1.2.3.4.p.p.p.a.p.p.p.p.p.4.4.1.<.=.*.B m j j h r e ; ; * * O X .     O , < 2 w C C C L P L ! v.U *   /././././././././././.",
"    X : C 2 X S K S Z D ! A.m.c.x.U Y K D J D D S S S C C C V V 3 3 3 2 2 2 , O /././././././.  C ! C.! D D A L V $   X * ; y j m | R.R.R.R.R.R.R.R.[ c c c c j c c m m N B ) ) ) _ %._ ) ` %.) ) ) ) ) B N m v j f e e - - * * % O o X .     X , O , 2 k H L L ! n.Y X /././././././././././.",
"    :   V C , X Y D C C S Y M.M.F.S.D.V.b.x.U Y I Y L K K D D D A S C C C 3 3 2 < , , , O O   O x.! 5.L : D U 2 , O   % ; f c N ) i.R.R.R.R.R.R.R.R. .B B B B B B ) ) ) ) _ ` *.<.<.1.3.3.3.3.p.p.4.p.4.4.2.1.1.<.*._ ) v c j h f ; ; ; $ $ o X       O 3 w D F L c.n.C   /./././././././././.",
"    < X O S 3 O O U A S C C S C Y c.V.K.P.P.K.F.V.B.b.c.x.x.Y Y Y J A Z A C C V w 3 2 , : O   k 5.U P F < M.Q.L S :   O * ; e r h n [  .$.R.R.$.{ ' c j h j h h h j j h j j j j j v v N N B B ) ) ) _ ) _ _ ) ) ) B B B N c c j f ; ; ; - - * o .       O 3 S D F P x.U o /./././././././././.",
"    2 O : O A 2 O 2 ! J D C S S V C C C S J Y 5.n.A.F.D.A.N.M.b.x.U Y J J S A V 3 3 2 , @ X @ P v.H F L @ C b.3 , X X $ ; r j c m N N ) O.R.R. .N N N N N B B N N N B N N B B B B B B B ) %.*.=.<.<.1.1.3.3.3.4.4.3.4.3.2.1.1.<.*._ ) N j h r ; * o X   X 2 w H D H 5.c.k   /././././././././.",
"    2 O V   V C 2 O O 3 U J D S S S C C V S C C V V C S J Y ! c.M.M.m.c.! L D C 3 3 2 : O X H n.! A H C : S b.3 < X   O * ; ; r f h h h ( R.R.( h h j h f h h h h h h h f h h f h f h h h h j j j c c N N N ) B ) ) _ B B B ) B ) B N m c j f ; - * X .   O 2 3 F H P 5.F X /././././././././.",
"    C O S X O C C 3 , O X V U P Y D S S C C C C C C C C V V V V 3 V V V V A C S C V , O   C m.v.A F F o O C c.V , X X $ ; e h c m m N N ) | | ) N N N N N N N N N m N N N N N B B N N N N N N M B B B B ) %.*.*.=.=.1.1.2.2.2.2.1.1.1.1.<.=.%.B c h ; o     , 3 D A H U U *   /./././././././.",
"    V : K O , O S S V 2 > O X O , 3 J Y Y L J D C S C V V V 3 3 2 2 2 , : : : O X O     1 5.N.F A L , D X > C : O     o * - ; e f f f h f h f h f f f h f h f f f h f f f h f f f f f h h f f h f f h f h h j j j v v v m B B B ) ) B B B N N j h r ; o .   X O H A A L U C   /./././././././.",
"    3 O L O V   O 3 A C V 3 , , O O X X X : , V D D S S V 2 3 > , > : O O O O O X     3 v.C.U A F w < U 2 P J.D V :   $ ; r h j c c m m m m m m m m m m m m m m m m m m m m m m v N m m m m m m N m m m m N m m N B B B ) ) %.=.=.=.<.<.<.=.*.%.) N h ; o . O S D A D H P L O /./././././././.",
"    3 O L O S O ,   , S C C C 3 2 2 , , : O O X X   X O > 2 3 , 2 > O O X O X       3 v.C.v.L A Z X b.L : S b.V , X . o % - ; e r f f f f f f f f f f f f f f f f f f f f f f f f f f f f f f f f f f f f f f h f f h f h h h j j c c m N N N v j h e ; # X   , w D A A 5.L ,   /././././././.",
"    2 O D O D O V X : X O O 2 V C V 3 3 , , , > : O O X               X O         V c.F.n.H D D @ P U D : V b.2 , X . o ; e f j c c m c m c m m c m m m v v m v m v m v m v m v v v v v m v m v v m v m m m c m v v v v v m m N N N B ) ) _ _ ) B N c f ; o   O 3 D A Z U ! C X /././././././.",
"    , X V O C O V X 2   ,   O   X O , 2 2 , , : : : O X X X                   * H n.A.c.F A F 1 0 c.F w : C b.3 , O   X * - ; e e s ( ( ^ n ^ [ ^ c r y f f f f r h e h r h y r e h f f f f f f r f r r y f f f r y f f f f h e h y h h h j j j h f e e % #   X < 2 A C H 5.F O /././././././.",
"    : X V O V O V O V X 2 X ,   O         X O : O O O O   X           : w F ! N.D.C.P D A F w @ v.A C Z : C b.3 > X X O - e r j n X.R.R.R.+.R.R.R.o.n c c c c c c c c c c c c c c c c c c c c c c v m c c c c c c c c c c c c c c c c c m m N N N m c h e - X   , 3 A A D ! L *   /./././././.",
"    :   2 X 2   2 X 2 O , O ,   O   O   O                 X . , V K x.m.A.F.Z.C.x.F F F w + , v.A C A C @ 3 A : O X   X + * ; ; ~ R.R.R.R.U.R.R.R.R.^ r e r f f r r e r r r e r r r e r e r f f r r r r e e f f r r r r r e r r e e e f f f f h h f e e - # o   O 2 Z A A F P k . /./././././.",
"    O   :   ,   ,   ,   ,   ,   :   O   O           :   < F x.Z.D.D.Z.Z.C.v.P F D D 1 O , ! c.F k A C C X : > O X   X o - ; e f { R.R.R.R.U.R.R.R.R.| j c j c j c c j c j c c j c c c j j c j j j j c j c c j j c j j c c j c j c j c j j c m c c c c h y ; # X   < 2 C C F L F O /./././././.",
"    X   :   :   :   :   :   :   O   X           2 A P x.J.W.L.G.B.n.P F A Z A A < @ 1 c.x.L C C Z C C C k , Z w 2 :   X o - ; ; ~ R.R.R.R...R.R.R.R.~ e f ; r ; e e e e e e e e e e e e e e e r e e e e e e e e e e e e e e ; f e e e e e e r r f r e ; - - # X   O 2 A Z A H L <   /././././.",
"    X   O   O   O   X       O           : w D I V.F.L.J.C.C.! D A C A D Z w @ @ w 5.c.L C A A A Z Z C k C * k w 2 O X + - ; r f ~ o.U.U.o.| o.U.U.o./ j j j j j j j j j j c j j j j j j j j j j j j j c j j j j j j j j j j j j j j j j j j c c c c c j h e ; o   X 2 2 k Z H L C X /././././.",
"        X   :   X   X       : 2 < w A P n.C.S.H.P.Z.n.U D C A Z C w < O @ , F v.I L H F k Z , + + , C w A , A w , O   o O % - ; c R.R.R.R...R.R.R.R.s r ; ; r ; e e e ; 1 e ; r e e e ; ; r e e e ; r 1 ; e e e e ; e 1 r ; ; ; e e ; e r r e r f f r e ; - * o X   * 3 C k A H D O   /./././.",
"                    : C S L x.b.n.n.N.N.M.n.m.! A C 3 C k 3 , @ < w D ! n.! P D F F A w D , , w w , @ C A @ F w 2 :   o * ; ; r c o.R.R.R.U.R.R.R.o.c h j h j h h h h j h j h h h h j h h j h h j h h j h j h h j h j j h j j h j h j h h h h j j j j j h r ; * X . O 1 k Z A H F <   /./././.",
"              @ V C L U ! x.c.c.5.! H Z w w k w w 1 < . O 3 A I 5.! L D w A A C w C C k A O w w w w O w w @ A w , O   X o % - - - ~ R.R.R.@.R.R.R.~ ; ; ; ; ; ; ; ; ; ; ; ; ; ; ; ; ; ; 7 1 ; ; ; ; ; ; ; ; ; ; ; ; ; ; ; ; ; ; ; ; ; ; ; ; ; ; ; ; ; ; ; ; * O X . X , , 3 A A F C X /./././.",
"      O < < 3 C K L P I I L D C w 1 w < < < , . O 1 k P n.c.L F k w w k w A A F F C k C A + A A A C O w D @ D w , O   X * - ; e e s } R.R.o.R.R...c h h h h h h h h h h h h h h h h h h h h j h h h h h h h h h j h h h h h h h h h h h h h h h h j f f f ; ; - # X   O < C Z D H S @   /././.",
"    , k A D D F D S C 3 @ O O O   O   O O @ w L ! I L A F A A k w Z k Z k k w w k A w k w , w L L k @ 3 w = V 3 , O   . o % * - - ; y ~ d s d d r ; ; ; ; ; ; ; ; ; ; ; ; ; ; ; - ; ; ; ; ; ; ; ; ; ; ; e ; ; ; ; ; ; ; ; ; ; ; ; ; 7 e ; ; ; ; ; ; ; ; ; ; * % o .   O , 3 C H D F 2   /././.",
"  O , w C 3 , O X       X O @ , w C F D D D Z Z Z Z w C 1 1 1 1 w 0 w w w w w w w w w w w w , 1 < @ 3 < k , 3 1 2 O   . o % - ; e e e h f e f f f r f r f r f f f f r f f f f f f f f r r r f r r f r r r r r r f r f r f f r r f f f r r r r y f f f r ; ; ; - % X     , , 3 A F A 3 X /././.",
"  X         O O : , 1 w k 1 1 1 1 2 < 1 , < , @ , < 1 w 1 1 w w 3 w 3 w w w 1 w w w w w w w w w w w 1 < k , 2 1 2 O     . X # % * * * - - - - - - - - - - - - * - - - * - * - - - - - - - - - - ; - - - - - * - ; - - - - - - - - - - - - - - - - - - - * * % # o X     O , w A A F A @   /./.",
"  O < 2 1 1 < , , : O O O O O O X           X O @   O 2 1 1 3 < 1 1 1 1 1 w 1 w 1 1 1 2 w 1 w 1 1 3 1 < 3 , 1 < 3 ,     . X # * - * ; ; - ; ; - ; ; ; - ; ; ; ; ; ; < - - ; ; ; ; < - ; - ; ; ; - ; - ; - ; ; ; ; ; ; ; ; ; ; ; ; ; ; ; ; ; ; ; ; ; ; ; ; ; - * # X     O , 3 w H A A <   /./.",
"  O O X                 X . O @ , < w Z D Z A C w w @   O w w 3 < < 1 1 1 1 1 1 1 2 1 0 1 w < 1 < 2 < * < w < , 3 C ,         . X X X X . X X X X X X X X X X X X X X X X X X X X X X X X X X X X X X X X X X X . X . X X # # * $ * $ $ * # # * % % # * % % # o X .       , , 2 H k A w X   /.",
"    X X O @ , 1 1 3 w 3 w 1 , , : O X         . , w w k X . , 3 , < , < , , < , 2 < < , , , , < < < , @ w O < , , 3 3 ,     + 4 4 4 & 6 4 ; & & & 4 4 & @ X X X O X O   O X X X X O X X + & & & & & & & & & & & & & & &     o # # $ $ $ # * # % # * * % # # o o .         O * 1 A A A k O   /.",
"  3 2 1 , * O X X                         O         O 2 Z 2   : < , , , , , , , , , , , , , , , , , , @ 1   , , < @ 3 @   4 E :.0.,.] :.:.z.z.] z.q.q.7.S J L L L C L L L L L L J J J 6.q.,.q.q.q.q.:.q.,.r.r.r.r.r.z.D 2 X     X . X X X X X X X X X X X X X             O < < 3 A A C ,   /.",
"                                      O       O   X       : 3   + , , , @ : @ @ , > : , , @ , , , , @ @ 2 O @ , : O   + a E ;.;.h.e.k.w.C.t.r.h.e.h.9.P J L J L L Y K Y Y S J J D J 8.h.e.w.w.w.e.t.9.e.e.e.e.e.t.h.I L C S O                   .                         < k , 3 Z k C 3     ",
"                X         O     O   O     O X X   X X X     , :   O : : O : O + : O : : O @ @ @ O @ @ O , 3   O X   + x E ;.,.R a a u u a u a u x 7 O O : , : O O > O : * : O O : 7 z 8 u u u u u u u u i u u i a * O 3 S D C <     $ , < , < 2 , 2 < , 2 2 < < 1 , .   O C C , , k C k w ,   ",
"                                                              X       X     X         X       .   . X   . O X     7 x Q Q R u u a u u x x x T x g * 2 , , : , , , , , > , , , > q p z x z a u u i i z z x i i x 2 , , : , V C 3 , O   > C S S D D D D D K D D D J D J S D S 2 , , 1 w Z w , X ",
"  o + + + + + + X       X       X             O o + + + + + + + + + + % + + + + X   O         X X X     X X X X z Q 7.-.T u u u u u z u i z b g > , , O , , , : , > , , , > , q x l u u z l t j u i t z u u x , , , : , : , 3 V D J ,   X , 2 , < , , < < < < , 2 w w w 3 w : : @ , w 3 3 , @ ",
". t W W W G Q G 2 V V C V V V V V V V V C V V F &.W W W -.W &.W &.-.Q W W >.>.A V C V C A S C C S S S C C S D 8.b 8 8 8 8 t t l t t t z u t = : , : , : O : O > , O : , : > 7 t l l l g t g t t g t t g u z , , : , , : , , : : O : 3 ,   O > > , @ , , : , , , , , : : , , : O O @ 3 , @ : 2 ",
". 5 5 4 5 6 + X O X X   X X X X O O X X X   = 7 5 5 7 7 7 7 4 5 7 7 5 7 7 7 O X   X O   O   X X   X X X . O 9 9 8 u 8 u q 8 8 8 9 8 8 9 t = X X X : O X O O : O O O O O O = t t 8 8 8 8 t t t t t t t t t O O O O O : O O O O : : O O X   X : : @ @ : @ , : @ @ : : : > @ O : O O O , < O : O ",
"  . . . .                                 . . . . . . . . . .   . . . . .                                 . . . . . . . . .   X . . . .                                 . . . . . . . . . . . . . . X X                                       X X     O   X X   X X X X X X X   .   X X X     "
};
