/* XPM */
static char *result[] = {
/* columns rows colors chars-per-pixel */
"104 70 120 2 ",
"   c #070703",
".  c #070707",
"X  c #0B0B0B",
"o  c #170F07",
"O  c #0B1707",
"+  c #1F170B",
"@  c #131313",
"#  c #1B1B1B",
"$  c #2B230F",
"%  c #2A2212",
"&  c #372313",
"*  c #332B13",
"=  c #3F2F17",
"-  c #3F2B1B",
";  c #232323",
":  c #272727",
">  c #2F2F2F",
",  c #373737",
"<  c gray23",
"1  c #430000",
"2  c #530707",
"3  c #5B0707",
"4  c #6B0F0F",
"5  c #7F0000",
"6  c #731313",
"7  c #432F1B",
"8  c #43331B",
"9  c #473323",
"0  c #4F3B23",
"q  c #4F3B2B",
"w  c #4B3F29",
"e  c #533F2F",
"r  c #5F4323",
"t  c #53422F",
"y  c #5B472B",
"u  c #574333",
"i  c #5F4B37",
"p  c #53573B",
"a  c #62503E",
"s  c #63523F",
"d  c #67533F",
"f  c #775F3F",
"g  c #434343",
"h  c #4B4B4B",
"j  c #5B5B5B",
"k  c #6F5743",
"l  c #6D5945",
"z  c #765F40",
"x  c #735C48",
"c  c #775F4B",
"v  c #75604B",
"b  c #7B634F",
"n  c gray42",
"m  c gray50",
"M  c #B30000",
"N  c #8B2323",
"B  c #972F2F",
"V  c #A33B3B",
"C  c red",
"Z  c #875733",
"A  c #805C47",
"S  c #845F4B",
"D  c #BF5B5B",
"F  c #836B57",
"G  c #846B57",
"H  c #876D55",
"J  c #8B6E57",
"K  c #8F7753",
"L  c #887159",
"P  c #8B7058",
"I  c #8A725A",
"U  c #8B735B",
"Y  c #8D715B",
"T  c #8C745C",
"R  c #8E775F",
"E  c #92745C",
"W  c #90765E",
"Q  c #94775E",
"!  c #96795D",
"~  c #967B5D",
"^  c #987D5E",
"/  c #9B7561",
"(  c #927A62",
")  c #937B62",
"_  c #937B63",
"`  c #947961",
"'  c #937D66",
"]  c #9A7B60",
"[  c #9A7F60",
"{  c #9C7F61",
"}  c #9C7D66",
"|  c #9B7F6B",
" . c #A07C6A",
".. c #9E8263",
"X. c #9F8363",
"o. c #9F876F",
"O. c #A18069",
"+. c #A28B73",
"@. c #A48A71",
"#. c #A68D75",
"$. c #A68E76",
"%. c #A78E76",
"&. c #A78F77",
"*. c #AA8A75",
"=. c #AD8B74",
"-. c #AE8B74",
";. c #A98F77",
":. c #B18777",
">. c #AE967E",
",. c #AF977F",
"<. c #B59981",
"1. c #B59C85",
"2. c #B59D85",
"3. c #B69E86",
"4. c #B79F87",
"5. c #BCA38B",
"6. c #BFA78F",
"7. c gray70",
"8. c gray75",
"9. c None",
/* pixels */
"9.9.9.9.9.9.9.9.9.9.9.9.9.9.9.9.9.9.9.9.9.9.9.9.9.9.9.9.9.9.9.9.9.9.9.9.9.9.9.9.9.9.9.9.9.9.9.9.9.9.9.9.9.9.9.9.9.9.9.9.j 9.9.9.9.9.9.9.9.9.9.9.9.9.9.9.9.9.9.9.9.9.9.9.9.9.9.9.9.9.9.9.9.9.9.9.9.9.9.9.9.9.9.9.",
"9.9.9.9.9.9.9.9.9.9.9.9.9.9.9.9.9.9.9.9.9.9.9.9.9.9.9.9.9.9.9.9.9.9.9.9.9.9.9.9.9.9.9.9.9.9.9.9.9.9.9.9.9.9.9.9.9.9.> , g , > 9.9.9.9.9.9.9.9.9.9.9.9.9.9.9.9.9.9.9.9.9.9.9.9.9.9.9.9.9.9.9.9.9.9.9.9.9.9.9.9.9.",
"9.9.9.9.9.9.9.9.9.9.9.9.9.9.9.9.9.9.9.9.9.9.9.9.9.9.9.9.9.9.9.9.9.9.9.9.9.9.9.9.9.9.9.9.9.9.9.9.9.9.9.9.9.9.9.9.i u g n g n g k 9.9.9.9.9.9.9.9.9.9.9.9.9.9.9.9.9.9.9.9.9.9.9.9.9.9.9.9.9.9.9.9.9.9.9.9.9.9.9.9.",
"9.9.9.9.9.9.9.9.9.9.9.9.9.9.9.9.9.9.9.9.9.9.9.9.9.9.9.9.9.9.9.9.9.9.9.9.9.9.9.9.9.9.9.9.9.9.9.9.9.9.9.9.9.9.9 e u f X.j m j U F u 9 9.9.9.9.9.9.9.9.9.9.9.9.9.9.9.9.9.9.9.9.9.9.9.9.9.9.9.9.9.9.9.9.9.9.9.9.9.9.",
"9.9.9.9.9.9.9.9.9.9.9.9.9.9.9.9.9.9.9.9.9.9.9.9.9.9.9.9.9.9.9.9.9.9.9.9.9.9.9.9.9.9.9.9.9.9.9.9.9.9.9.9.9.$ e c F i f i q u b X.k u 9 9.9.9.9.9.9.9.9.9.9.9.9.9.9.9.9.9.9.9.9.9.9.9.9.9.9.9.9.9.9.9.9.9.9.9.9.9.",
"9.9.9.9.9.9.9.9.9.9.9.9.9.9.9.9.9.9.9.9.9.9.9.9.9.9.9.9.9.9.9.9.9.9.9.9.9.9.9.9.9.9.9.9.9.9.9.9.9.9.9.9.e ; u . b | b _ e &.&.k u . > 9 9.9.9.9.9.9.9.9.9.9.9.9.9.9.9.9.9.9.9.9.9.9.9.9.9.9.9.9.9.9.9.9.9.9.9.9.",
"9.9.9.9.9.9.9.9.9.9.9.9.9.9.9.9.9.9.9.9.9.9.9.9.9.9.9.9.9.9.9.9.9.9.9.9.9.9.9.9.9.9.9.9.9.9.9.9.9.9.9.9.: u i . . f | _ > 4.f . . . i e 9 9.9.9.9.9.9.9.9.9.9.9.9.9.9.9.9.9.9.9.9.9.9.9.9.9.9.9.9.9.9.9.9.9.9.9.",
"9.9.9.9.9.9.9.9.9.9.9.9.9.9.9.9.9.9.9.9.9.9.9.9.9.9.9.9.9.9.9.9.9.9.9.9.9.9.9.9.9.9.9.9.9.9.9.9.9.9.9.e c f q 6 C 2 F q 2 9 &.C 6 . 9 7 F 9.9.9.9.9.9.9.9.9.9.9.9.9.9.9.9.9.9.9.9.9.9.9.9.9.9.9.9.9.9.9.9.9.9.9.",
"9.9.9.9.9.9.9.9.9.9.9.9.9.9.9.9.9.9.9.9.9.9.9.9.9.9.9.9.9.9.9.9.9.9.9.9.9.9.9.9.9.9.> > 9.> > > 9.9.9.; u U k u u F e . 2 . e F u $ i f b e 9.9.9.9.9.9.9.9.9.9.9.9.9.9.9.9.9.9.9.9.9.9.9.9.9.9.9.9.9.9.9.9.9.9.",
"9.9.9.9.9.9.9.9.9.9.9.9.9.9.9.9.9.9.9.9.9.9.9.9.9.9.9.9.9.9.9.9.9.9.9.9.9.9.9.9.9.> > 9.> > i i i k b k q e c c F 9 2 6 B 6 2 e f f f 9 e 9 9.9.9.9.9.9.9.9.9.9.9.9.9.9.9.9.9.9.9.9.9.9.9.9.9.9.9.9.9.9.9.9.9.9.",
"9.9.9.9.9.9.9.9.9.9.9.9.9.9.9.9.9.9.9.9.9.9.9.9.9.9.9.9.9.9.9.9.9.9.9.9.9.9.9.9.9 > ; > k U &.U &.o.U i * $ ; e 9 2 6 V D V 6 2 e e b 7 - 9 9 > h > 9.9.9.9.9.9.9.9.9.9.9.9.9.9.9.9.9.9.9.9.9.9.9.9.9.9.9.9.9.9.",
"9.9.9.9.9.9.9.9.9.9.9.9.9.9.9.9.9.9.9.9.9.9.9.9.9.9.9.9.9.9.9.& 9 9 u i c c F F F _ ; $ > f F &.&.o.b i q - q e 1 - e c F c e - 2 e u u : u i h 9.h h > 9.9.9.9.9.9.9.9.9.9.9.9.9.9.9.9.9.9.9.9.9.9.9.9.9.9.9.9.",
"9.9.9.9.9.9.9.9.9.9.9.9.9.9.9.9.9.9.9.9.9.9.9.9.9.9.9.9.9.& e i F F _ F &.&.,.,.,.&.X.> > $ f F X.| F k 9 q c 1 $ . . . . . . @ $ 1 $ $ 8 i f k 9 > 9.h 9.9.9.9.9.9.9.9.9.9.9.9.9.9.9.9.9.9.9.9.9.9.9.9.9.9.9.9.",
"9.9.9.9.9.9.9.9.9.9.9.9.9.9.9.9.9.9.9.9.9.9.9.9.9.9.9.9.& e i F &.&.,.4.6.4.4.,.&.&.i $ h > @ u b U c i u i 9 1 $ . . . . . . @ $ 1 u - 8 i b F b c h > h 9.9.9.9.9.9.9.9.9.9.9.9.9.9.9.9.9.9.9.9.9.9.9.9.9.9.9.",
"9.9.9.9.9.9.9.9.9.9.9.9.9.9.9.9.9.9.9.9.9.9.9.9.9.9.9.& e f F F ,.4.6.4.,.&.X.X.X.i - 9 > 9 > - u c f i u u 9 2 @ $ 9 F k F 9 $ @ 2 d 7 - e c _ &.&.X.h > 9.9.9.9.9.9.9.9.9.9.9.9.9.9.9.9.9.9.9.9.9.9.9.9.9.9.9.",
"9.9.9.9.9.9.9.9.9.9.9.9.9.9.9.9.9.9.9.9.9.9.9.9.9.9.1 & k c _ X.,.4.6.,.,.X.X.F i - 9 9 i , h ; ; u u i u 9 9 1 $ 5 6 B V B 6 M $ f d u 9 u k U ,.4.h k ; F U 9.9.9.9.9.9.9.9.9.9.9.9.9.9.9.9.9.9.9.9.9.9.9.9.9.",
"9.9.9.9.9.9.9.9.9.9.9.9.9.9.9.9.9.9.9.9.9.9.9.9.9.1 2 ; f F _ X.&.&.,.&.&.X.F u - 9 9 i f i h h ; ; ; u u - - - 1 6 2 3 6 3 2 5 1 e e 9 : k c b U ,.> ; _ X.F f 9 9.9.9.9.9.9.9.9.9.9.9.9.9.9.9.9.9.9.9.9.9.9.9.",
"9.9.9.9.9.9.9.9.9.9.9.9.9.9.9.9.9.9.9.9.9.9.9.9.9.2 X ; u f F F X.X.U U F c 9 $ $ 9 f f f c > 9 h ; 7 7 q 9 - 9 9 1 1 3 3 3 1 - 9 9 9 9 ; u u i b > h _ ,._ F f 9 9 u F F F c 9.9.9.9.9.9.9.9.9.9.9.9.9.9.9.9.9.",
"9.9.9.9.9.9.9.9.9.9.9.9.9.9.9.9.9.9.9.9.9.9.9.9.9.2 . - q k c U _ F f u 9 ; $ $ 9 i c F U c e , j - e e - - : $ $ 5 @ @ @ ; ; - : & & - - 9 9 u > F > &._ F c i 9 ; 9 U X.&.X.&._ F c 9.9.9.9.9.9.9.9.9.9.9.9.9.",
"9.9.9.9.9.9.9.9.9.9.9.9.9.9.9.9.9.9.9.9.9.9.9.9.9.g . . ; ; q 9 - $ @ $ - - @ @ u c F U X.U i 9 - j n e $ # # $ $ $ @ @ @ $ $ @ @ + @ > 9 ; 9 u h , _ _ F c i 9 ; $ $ 9 U U &.4.4.&._ c 9.9.9.9.9.9.9.9.9.9.9.9.",
"9.9.9.9.9.9.9.9.9.9.9.9.9.9.9.9.9.9.9.9.9.9.9.9.+ > . @ @ + o o o o $ u i u 9 $ ; i k U X.X.F i - h q m 9 @ @ @ @ @ @ @ @ @ @ @ . @ @ > 9 ; 9 n j k f i e 9 - $ ; $ $ - 9 _ U 4.4.4.X._ 9 9.9.9.9.9.9.9.9.9.9.9.",
"9.9.9.9.9.9.9.9.9.9.9.9.9.9.9.9.9.9.9.9.9.9.9.9.> 9.$ @ $ @ + @ - 9 u i i f i f - 9 f F X.&.X.U u $ h j e $ @ @ @ 9 @ @ @ 9 @ @ . $ @ 9 u 9 m U h X.F f f e ; e i f e e - u U &.4.4.&._ c 9.9.9.9.9.9.9.9.9.9.9.",
"9.9.9.9.9.9.9.9.9.9.9.9.9.9.9.9.9.9.9.9.9.9.9.+ > + $ + + @ - e e 9 - u f c F F F e u k X.&.&.&._ $ q _ h j $ @ @ 9 @ @ 9 f 9 @ @ ; $ 9 u f j h k 4.&.F f u 9 f F F F f e 9 u U &.,.&._ i o 2 9.9.9.9.9.9.9.9.9.",
"9.9.9.9.9.9.9.9.9.9.9.9.9.9.9.9.9.9.9.9.9.9.9.> 9.+ o o - 9 9 9 9 - $ u c f U U U U U f X.,.,.&.&.i - u , u n $ ; 9 ; ; f F u > 9 > e i h h u k F X.X.F u u 9 c F _ X.U f 9 ; u F &.X.U u o 6 9.9.9.9.9.9.9.9.9.",
"9.9.9.9.9.9.9.9.9.9.9.9.9.9.9.9.9.9.9.9.9.9.9.g + . o @ u e u 9 - $ . @ e k U ,.&.&.&.&.,.4.4.,.&.U i - 9 h j h h ; i ; > F f u 9 u f h f > u u i i u 9 9 9 i F _ X.&.X.F u @ $ - e e 9 @ o 6 2 9.9.9.9.9.9.9.9.",
"9.9.9.9.9.9.9.9.9.9.9.9.9.9.9.9.9.9.9.9.9.9.9.g + . o - i i f f f $ . . o 9 e X.4.,.,.4.4.6.6.4.,.&.F i $ ; _ > u h 9 F 9 > F f e j h j , u u u u e e e u f F X.X.X.X.U u - $ $ @ o o o . . 2 + 9.9.9.9.9.9.9.9.",
"9.9.9.9.9.9.9.9.9.9.9.9.9.9.9.9.9.9.9.9.9.9.g 9.& o $ $ $ c F F F i ; . . . ; f X.4.4.6.6.6.6.6.6.4.X.F i @ 4._ , j i j m n j c j &., _ f f f F F f f f F X.X.&.X.U F u 9 u k i u 9 > $ $ . + , 9.9.9.9.9.9.9.9.",
"9.9.9.9.9.9.9.9.9.9.9.9.9.9.9.9.9.9.9.9.9.9.g 9.+ $ + 9 @ u F F c c 9 . . . . $ f X.4.6.6.7.8.7.4.6.4.X.F i &.&._ F j g < < g j n h _ U F _ _ _ _ U X.&.,.,.&.&.X.f u u F F c c k e 9 > $ . ; + 9.9.9.9.9.9.9.9.",
"9.9.9.9.9.9.9.9.9.9.9.9.9.9.9.9.9.9.9.9.9.9.> + . o + $ @ $ i c f i 9 o o . o ; ; f U X.,.6.7.7.U 6.6.4.&._ _ U F j g > k k > g j _ X.X.F _ _ X.&.&.,.4.,.&.X.X.X.c k F _ _ U U F u 9 9 $ . + 9.9.9.9.9.9.9.9.9.",
"9.9.9.9.9.9.9.9.9.9.9.9.9.9.9.9.9.9.9.9.9.9.+ 9.. o $ g 6 6 9 9 u 9 $ 9 $ . . - - 9 $ k U &.,.,.F ,.6.6.,.&.X.F F < j k F F k j < f F _ X.X.&.&.&.,.,.4.,.&._ _ U _ _ &.X._ U U F f e 9 - . 9., 9.9.9.9.9.9.9.9.",
"9.9.9.9.9.9.9.9.9.9.9.9.9.9.9.9.9.9.9.9.9.9.1 . . o $ j 2 N 6 j 9 ; @ 9 i . $ . 9 u $ ; 9 f F F F b | 4.4.,.&.U F > g F i c F g > f F X.&.X.X.X.&.,.,.4.4.,.X._ _ &.X.&.X.X.U F f u i e > . 9.+ 9.9.9.9.9.9.9.9.",
"9.9.9.9.9.9.9.9.9.9.9.9.9.9.9.9.9.9.9.9.9.> 9.1 . ; - n g 6 2 g ; . o 9 F $ $ $ ; 9 u u k k i e e F F b F X.X.F F e > g i ,.g > e k F _ X.X.X.&.,.4.4.6.6.,.&.&.&.&.X.X.X.U F 9 $ 9 u 9 > o + 9.9.9.9.9.9.9.9.9.",
"9.9.9.9.9.9.9.9.9.9.9.9.9.9.9.9.9.9.9.9.+ 9.9.& + $ m $ h j g @ @ . . @ _ i $ u > $ 9 _ &.4.4.4.4.b &.f &.X.X.F n j 9 > g < > 9 j n k F F U &.&.,.4.6.8.8.6.4.&.&.X.X.U U F 9 $ i k e - > @ ; 9.9.9.9.9.9.9.9.9.",
"9.9.9.9.9.9.9.9.9.9.9.9.9.9.9.9.9.9.9.g 9.+ & 2 > h j h o + 4 2 . . . . f F - > u - 9 k F U U &.&.&.f b X.&.&.m _ h F 9 e e 9 F h f m f f F F U X.,.4.6.4.4.,.&.X.U _ F i 9 ; u f e > > @ 9., 9.9.9.9.9.9.9.9.9.",
"9.9.9.9.9.9.9.9.9.9.9.9.9.9.9.9.9.9.9.+ g > @ > 4 > 4 4 2 2 2 1 $ . . . . k c e $ u f F c k k k k U U f k _ _ j h _ _ F k k F _ U h j U c i i f F U X.X.X.X.X.X.U F i e ; @ k f e > @ ; . ; + 9.9.9.9.9.9.9.9.9.",
"9.9.9.9.9.9.9.9.9.9.9.9.9.9.9.9.9.9.9.+ + X @ h , 2 4 4 4 1 1 X + ; > o . . e F u 9 e F &.X.X.&.&.&.X.r j d j _ ,.4.,.,._ _ ,.,.X.U f h j X.F i u u u u f c F F i e - ; $ @ u 9 o o . o o , 9.9.9.9.9.9.9.9.9.9.",
"9.9.9.9.9.9.9.9.9.9.9.9.9.9.9.9.9.9.9.9., @ # , > > , > 1 # o X @ ; 9 > o . . u c _ _ F i f c c k F _ j Z j X.,.&.,.&.X.X.X.U U _ _ U , f n &._ c f e 9 - $ $ $ $ $ $ $ @ @ o $ $ $ $ ; 9.; 9.9.9.9.9.9.9.9.9.9.",
"9.9.9.9.9.9.9.9.9.9.9.9.9.9.9.9.9.9.9., 9.X @ ; ; > 1 ; @ X X X @ . ; > 9 o @ . o e c F F i i f c F j h j f f F F F F F F F F F U _ X.U h j U F f f f i k u 9 9 ; ; $ $ @ @ $ , 1 1 1 ; ; + 9.9.9.9.9.9.9.9.9.9.",
"9.9.9.9.9.9.9.9.9.9.9.9.9.9.9.9.9.9.9., $ X , @ # # 1 X X @ + @ @ . . ; > f ; $ . . $ e i F e > 9 n f , f F F F X.F F X.&.4.,.,.,.,.&.X.U f h h e @ @ ; e k f i i e - $ @ $ 9 h 9 ; , ; ; 9.9.9.9.9.9.9.9.9.9.9.",
"9.9.9.9.9.9.9.9.9.9.9.9.9.9.9.9.9.9.9.; + @ o h ; ; # @ + * $ @ @ & . ; > > F 9 @ $ ; ; ; u F > h j h e f c F f b X.&.,.,.,.4.4.,.,.&.&.X._ > c h ; $ . $ e u u $ ; - - ; 1 2 , h , + + 9.9.9.9.9.9.9.9.9.9.9.9.",
"9.9.9.9.9.9.9.9.9.9.9.9.9.9.9.9.9.9.X # n h @ @ # # @ + 0 $ $ o @ ; ; @ ; > $ > > 9 - 9 > ; > c > i - 9 i F X.X.,.f X.,.4.4.4.4.4.4.,.,.&.&.U , j h > . . > e - k u 9 9 $ @ X 2 ; + 9.; 9.9.9.9.9.9.9.9.9.9.9.9.",
"9.9.9.9.9.9.9.9.9.9.9.9.9.9.9.9.9.9.* m 8 h + + + + $ 0 $ + @ X @ u - @ - > > $ ; ; i > 9 ; h , F F c u f _ X.&.&.6.4.4.4.4.6.6.4.4.4.6.4.,.&.F i > ; > . . @ o F c i 9 ; @ @ @ , ; , ; 9.9.9.9.9.9.9.9.9.9.9.9.",
"9.9.9.9.9.9.9.9.9.9.9.9.9.9.9.9.9.$ & j h 9 0 e e - & $ @ + X X @ ; u F u u e > ; > e > ; c - > u f F U F _ X.&.&.4.4.4.6.6.6.6.6.6.6.6.4.,.&._ c c ; h ; $ o $ $ k 9 @ + $ $ $ ; , h , 9.9.9.9.9.9.9.9.9.9.9.9.",
"9.9.9.9.9.9.9.9.9.9.9.9.9.9.9.9.X & > h - - - - q u - & @ + @ @ @ o . $ f F i u 9 > $ _ - e c k e 9 u u f F _ &.&.,.&.4.6.&.6.6.6.6.6.6.4.,.X._ c 9 ; u > - + $ $ @ # & $ $ & u & ; , h , 9.9.9.9.9.9.9.9.9.9.9.",
"9.9.9.9.9.9.9.9.9.9.9.9.9.9.9.$ - > e > e e 8 * $ & 8 $ + @ # @ 9.- o o o e F _ f e - F u - i F _ c u > > f U X.&.X.X.4.&.X.X.6.4.4.4.4.,.&._ F u . 9 ; h + $ & + $ $ + + $ $ - * * ; @ h 9.9.9.9.9.9.9.9.9.9.9.",
"9.9.9.9.9.9.9.9.9.9.9.9.9.9.@ @ * h , 9 0 e i 0 $ @ $ $ + @ # O 9.f u o o o e F U U e i F u i i i _ ,._ 9 9 c X._ I &.%.` T v W 6.4.>.,.&.X.F f u o @ - u + X + & + + & - 9 e e e 9 8 ; , ; 9.9.9.9.9.9.9.9.9.9.",
"9.9.9.9.9.9.9.9.9.9.9.9.9.9.$ & g , g & $ - 0 i e $ X + @ # @ X 9.u c F - o o e F c c e i F _ F c f X.4.4._ i i F ) @.} P P S v U &.3.X.X._ F f u ; ; k h X X + + + & - & $ + $ $ $ - - ; , ; 9.9.9.9.9.9.9.9.9.",
"9.9.9.9.9.9.9.9.9.9.9.9.9.@ $ 8 j > j 9 - $ @ * 0 $ + @ @ # X 9.9.; 9 F _ - o ; $ i i e o 9 k &.,.F k X.6.4.,._ z G v P ] E H a v P $.X._ _ F i e e i > ; X @ X + - $ + @ o @ + & q 9 0 9 & , 9.9.9.9.9.9.9.9.9.",
"9.9.9.9.9.9.9.9.9.9.9.9.9 = 7 0 e e i d i 9 $ X & $ @ X @ X X 9.9.@ o 9 F &.u @ - - e 9 @ ; ; k &.4.X.c X.6.6.,.' l v E H s w l J J P _ _ F f u u i - . ; X # @ $ + @ # @ ; @ # @ + + $ $ * $ 9.9.9.9.9.9.9.9.9.",
"9.9.9.9.9.9.9.9.9.9.9.9.+ & = 8 - - * & 9 u e $ @ $ X @ # @ @ 9.9.o . . 9 F &._ _ U F k @ ; e i c &.4.&.4.6.6.6.6.1.P P t %   w a P U F F F F c u . o @ > ; @ # + @ @ ; # ; # , # @ - q q q 9 $ 9.9.9.9.9.9.9.9.",
"9.9.9.9.9.9.9.9.9.9.9.$ $ 9 u i d i e - $ $ u 9 @ X X @ @ X 9.9.9.$ o . . @ e X.&.X._ F k ; 9 i U c X.4.7.8.8.7.6.6.2.Q -.J v v  .<.X.4.4.,._ F u ; - - ; 9.X # @ # @ @ X @ @ ; # @ i q u p i q & 9.9.9.9.9.9.9.",
"9.9.9.9.9.9.9.9.9.9.+ & - - 9 - 8 0 e i q # $ & + X @ # @ X 9.9.9.$ $ o . . o ; e i f f k $ ; e c U U ,.6.7.7.6.6.3.#.{ O.=.:./ *.X.6.6.,.X.U u $ 9 e $ 9.9.9.@ # @ $ - 8 @ @ @ @ > i u e d k d u 8 9.9.9.9.9.9.",
"9.9.9.9.9.9.9.9.9.+ - 8 9 9 9 9 & $ - 9 i - @ $ @ X @ # X 9.9.9.9.o $ - $ . o o @ ; ; - 9 > @ ; e _ X.X.&.4.4.,.,.+.[ ..I ( Y A ! 5.;.4.,.&.F k k e $ $ 9.9.9.X # @ + $ - * - # ; q i k k i k c k u 8 9.9.9.9.9.",
"9.9.9.9.9.9.9.9.- e i i i u q q 9 * $ - 8 * + o o @ # @ X 9.9.9.9.o o - - $ @ @ ; 9 9 i i 9 > @ ; e U _ X.&.&.&.&._ _ L x R ^ ~ $.,.,.,.&.X.c i e - @ o 9.9.9.9.@ X + $ & * & 9 q u u d F k k b c d 0 - 9.9.9.9.",
"9.9.9.9.9.9.9.e k f k k b d i u e 9 $ $ & $ @ X X # X X 9.9.9.9.+ - o - 9 e e i c F U F f 9 9 > o - 9 k f c F F F c c c f F _ X.&.&.&.X.U c i e 9 @ . . 9.9.9.9.X # @ $ + $ * * - 9 u q k U f F b k u 8 9.9.9.9.",
"9.9.9.9.9.9.- k c c c c b c k i i 9 $ # # @ X X X @ X 9.9.9.9.9.- u @ . - 9 9 i c F f e - 9 f 9 ; $ $ $ 9 9 e i k i e 9 i i F U U _ _ U c i e 9 o o . . 9.9.9.9.9.@ @ $ + + $ 9 q i F ; - k U U F b k 0 ; 9.9.9.",
"9.9.9.9.9.9.e f c F U U b b f d q i ; , # @ X @ # X X 9.9.9.9.9.; > 9 o o @ @ ; ; $ $ - 9 f F 9 ; ; $ $ $ @ @ $ $ $ $ . ; - 9 e u u e e - $ $ - 9 ; o o 9.9.9.9.9.X @ @ + @ o ; i k F # # , U F U F f i ; @ 9.9.",
"9.9.9.9.9.0 i f F U U F b b f d 9 q ; ; , # @ X @ X 9.9.9.9.9.o o $ > 9 e > ; ; > 9 9 e f F U 9 ; > $ $ $ 9.9.9.9.9.9.X X o o o o o . X @ o @ $ $ ; > . 9.9.9.9.9.X X X o + # # 9 i c F $ $ c b b b f k 9 # @ 9.",
"9.9.9.@ @ y i k c U F b b c k i u > # @ # > @ @ X X 9.9.9.9.9.- $ . $ - F c c c c F c c U &.F u 9 q @ $ 9.9.9.9.9.9.9.o @ $ $ $ @ @ $ @ @ @ @ $ $ o . . 9.9.9.9.9.9.X X X # * @ ; 9 i c F F c b F U U f 0 , ; 9.",
"9.9.@ @ > y k i k c c c b k i k k - - @ X @ > # X 9.9.9.9.9.@ $ - . o . - u c F F i - - u f u - u q @ 9.9.9.9.9.9.9.9.@ @ $ ; $ @ @ $ - - ; $ @ . X . o 9.9.9.9.9.9.X X @ $ 9 # ; q i c b u ; i c q d c 9 ; , ; ",
"9.@ > ; # 0 b b i i f i k U U F i i q $ & + # @ 9.9.9.9.9.9.@ o ; . - e e 9 9 9 - @ - 9 u - - u q - @ 9.9.9.9.9.9.9.9.9.@ $ @ @ $ @ @ X @ @ @ @ - - - X 9.9.9.9.9.9.9.X # & q # $ $ i 9 c b u 0 c ; > c @ @ @ # ",
"@ ; @ @ @ c 8 k F b i k U - o 9 d k 9 + - @ @ @ 9.9.9.9.9.& - $ $ . $ e f F &.X.F $ u F _ f 9 ; ; @ 9.9.9.9.9.9.9.9.9.9.@ @ $ 9 u u - o e i k u 9 - $ u . 9.9.9.9.9.9.o ; 9 e $ @ # @ $ i 9 F c F $ 9 9 9.X X @ ",
"@ > @ 9.$ c $ @ 9 k k F > X ; i 9 i - + 8 * X 9.9.9.9.9.X.9 q $ $ . o - @ @ 9 ; ; @ @ 9 u ; ; ; - 9.9.9.9.9.9.9.9.9.9.6.- ; ; ; u 9 @ @ ; ; 9 @ @ - o F i @ 9.9.9.9.9.9.* 0 u $ o ; X X ; $ i 9 i F * 9.9.9.X X ",
"> @ 9.9.9.- c ; , i 0 b F k u 0 q - * d - & 9.9.9.9.9.| | d q $ - o ; u u u 9 - ; - 9 > > - ; - 9.9.9.9.9.9.9.9.9.9.6.&.d u ; i u i e 9 9 - q 9 e i k k k ; 9.9.9.9.9.9.9 q u - @ # X X ; @ $ 9 k 9 9.9.9.9.9.X ",
"@ 9.9.9.9.9.e i k u * q b F k u - @ * i * & 9.9.9.9.| 6.,.c ; o > q u f F F k 9 9 U c 9 9 _ | k 9.9.9.9.9.9.9.9.9.&.| K c q 9 q u e 9 c o.6.| 9 q e k ,.6.i u 9.9.9.9.9.0 e 9 $ * @ # ; @ o ; i e * 9.9.9.9.9.9.",
"9.9.9.9.9.9.9.- e i i c b k d $ @ $ i 0 * 9.9.9.9.| 6.,.| c ; $ q u F F o.F F k 9 c c u _ K 6.&.F 9.9.9.9.9.9.9.9.&.K c c ; ; - q e 9 c | 6.o.F $ $ | ,.6.| c 9.9.9.9.9.9.0 i k u ; @ @ o @ 9 $ * 9.9.9.9.9.9.9.",
"9.9.9.9.9.9.9.- $ i 9 i b 9 q X $ $ i 8 * 9.9.9.F | | | F c k ; u F F &.6.&.F i 9 U F i _ K ,.6.&.9.9.9.9.9.9.9.9.9.9.9.9.9.9.; - - ; c F o.o._ $ $ | o.o.| F 9.9.9.9.9.9.9.e k 9 $ q ; > i 9.9.9.9.9.9.9.9.9.9.",
"9.9.9.9.9.9.9.9 9.9 # 9 o 9 X @ 9 d u * 9.9.9.9.9.9.9.9.9.9.9.9 c U c &.6.&.c i 9 _ _ e e K | o.&.9.9.9.9.9.9.9.9.9.9.9.9.9.9.9.9.9.; c F K K _ 9.9.K K K K F 9.9.9.9.9.9.9.9.e y k 9 $ 9 $ 9.9.9.9.9.9.9.9.9.9.",
"9.9.9.9.9.9.9.9.9.9.- $ 9 $ 9 $ d - 9.9.9.9.9.9.9.9.9.9.9.9.9.9.$ > c o.,.o.c 9 9 9 e 9.9.9.9.9.9.9.9.9.9.9.9.9.9.9.9.9.9.9.9.9.9.9.9.9.9.9.9.9.9.9.9.9.9.9.9.9.9.9.9.9.9.9.9.9.9.e k 0 k 9.9.9.9.9.9.9.9.9.9.9.",
"9.9.9.9.9.9.9.9.9.9.9.0 c i y y - 9.9.9.9.9.9.9.9.9.9.9.9.9.9.9.9.9.k c c c u 9.9.9.9.9.9.9.9.9.9.9.9.9.9.9.9.9.9.9.9.9.9.9.9.9.9.9.9.9.9.9.9.9.9.9.9.9.9.9.9.9.9.9.9.9.9.9.9.9.9.9.9.9.9.9.9.9.9.9.9.9.9.9.9.9."
};
