/* XPM */
static char *_22b420941cc437fc4516d88842b1318okS9qVIy3SYFU1lM[] = {
/* columns rows colors chars-per-pixel */
"64 64 38 1 ",
"  c black",
". c #0B0B0B",
"X c #170F07",
"o c #0B1707",
"O c #1F170B",
"+ c #131313",
"@ c #1B1B1B",
"# c #13230B",
"$ c #2B230F",
"% c #332B13",
"& c #3F2F17",
"* c #232323",
"= c #272727",
"- c #2F2F2F",
"; c #373F27",
": c #373737",
"> c gray23",
", c #43331B",
"< c #4B371B",
"1 c #4F3B23",
"2 c #533F2F",
"3 c #3F472B",
"4 c #5B472B",
"5 c #574333",
"6 c #5F4B37",
"7 c #434343",
"8 c gray28",
"9 c #4B4B4B",
"0 c gray31",
"q c #5B5B5B",
"w c #775F4B",
"e c gray39",
"r c #6F6F6F",
"t c #836B57",
"y c #8B8B8B",
"u c #9F9F9F",
"i c LightGray",
"p c #EFEFEF",
/* pixels */
"@@$OOOO@OOOO@O@OOO@O@O$@$O@OO$O@@@$OOOO@OO@@O@O@oO@@@OOOOo@@O@@+",
"@===%%=*=$=%%=$=$=%%=*=$=%%=$=$=$=%%=*=$=%%=$=$=%%=*=$=%%=$=$$%@",
"O%==%=%==%$%%$$%%=%=%==%$%%$$%%=$=%=%==%$%%$$%%=%=%==%$%%$$%%%=@",
"O==%$%$%-=%=$=$$#%$%$%-=%=$=$$#=$%$%$%-=%=$=$$#%$%$%-=%=$=$$#=#O",
"O=--,$=@  @=$%==&%$@  @%%$%%%-=@  @=,%==-%=@  @=$$%$$=@  @%%,==O",
"o%-=,== @= =$%=%%%% =@ =%===%$= @= =-==%,%= =@ %$%$$== @= %%,%=@",
"O-====%@->@%*===&=%@->@$$=*=$==@->@==%=-===@->@%%%$*%*@->@=$=%%O",
"O--%%%%-=*-=%%%%&=-=%-=%$%,$==%-=#-#=%=-*$-$%%===%%=-$=%%-%%%%$@",
"O-%%-%%%$-=$=$$==%-=%=%%*$%%*=-$=%=%--==%#-=%-==-$=%===%$$$%-==@",
"O-%%$%%==$$=%#%#=--=$%==%-=%-%%%%%%$-$%%%%%$$$$==%*=*===%=%$=$%O",
"o%%%%$%#=%$$=$=$=%==$==%#%=%%=%%$%%%,%%$#$$$=$%==$==%==%%%=%===@",
"O=%%=$----,-&,&-,---,,-,&-,,--,,,-&,&-,,-&-,&,-,,--,,,:----%=%%o",
"O=%%,=-:>77227277222222727224722272242722277722272277277>:-=%%%@",
"O%%%,=->O+O@$OOO@OOO@O@OO@@O$@@o@O@@O@O@@O$OO@@@@O$OO@@OO>-%=%%O",
"@=%%%$-7O%%%=%%%%%$@@==%==-=%=%$=%=,==,-=%,@@==-=%,=-==%+7-%==%@",
"O%-%%-,2+%%$%%%-=%@  @=%==$=-=,%==-%==$-=%@  @=%%%*%%%,%O2-=$%%@",
"@-,%%%,7+=%===%=#% =@ %%=%%$==-==%,%==$=#% =@ %%=*$%%%,=O2-%===@",
"@-=%=%,7+$$=*=$#%,@q>@===-=====%=-====%#%,@q>@===*$==$==O7:=%$*@",
"O=&%==-7+%$%,;:;;;%>-=;;:>::>::;:>:;>;;;;;%>-=;;:;;>;%%%O2&-%$%o",
"O=-%%=,7+%%$%;37773777537737775377737733773333373373;%&%O7&==$$O",
"O,-%==-7+===%;8weewweeeeewwweeeeeweweewwewwwwweeeq071=,=O2,%=*$@",
"O,=%==-7+,=%$;3eiiu0reuiiiu0reuiiiuer0uiiiuer0uiiie7:$=,O2&-$%=@",
"O==%,=-4+,%==;3eppy-9:ypppy-8>ypppy>9-ypppy>9-ypppe7:==,O2&==*%@",
"o=-%=%:7+<=$=;7wppy-0>ypppy-88ypppy>9-ypppy:0-ypppw5;==<O7-%#$-O",
"O--%%%,7+<===;3eppy-9>ypppy-8>ypppy>9-ypppy>0-ypppe7;==<O7,%=%$@",
"O-=%-%,2X,%==;3eppy-9>ypppy-98ypppy26-ypppy>9=ypppe7:&=,O2&%-%%O",
"o%-%%%,7+<%==;3eppy-9>ypppy-98ypppy>6-ypppy>0-ypppe7;%%<O7,%%%=@",
"O=-===,5+,=&=;3wppy,6>ypppy-98ypppy>0-ypppy>9-ypppw5:&%,O7-$===O",
"O===,=-2+>%%%;3eppy-6>ypppy,68ypppy>0-ypppy>9-ypppe7;%=>O2,%,=#O",
"O%=-,$->+:%=*>7wppy-0>ypppy-6>ypppy56,ypppy>9-ypppw7:=$:O2,%,%=@",
"@==,%$,>+:$%=;7qppy-0>ypppy>82ypppy50>ypppy26-ypppq7:-=:O2,%%$%@",
"O%-=%%,7X2==$:3wppy,62ypppy-0>ypppy>6-ypppy>6-ypppw7:==2O2:%%%%@",
"@-,%%%,7.<*-=>7eppy,08ypppy,6>ypppy>8-ypppy>0-ypppe3;$=<O;-=$==@",
"@-====,2X,===13eppy-6>ypppy-0>ypppy>8>ypppy>0-ypppe7:%=,O2,==%$@",
"O=,,==,;+,%$=;3wppy-8>ypppy,0>ypppy>6,ypppy56,ypppw7:$=,O7-=%$%O",
"O=-=%=,7+,=%=;3eppy-88ypppy-0>ypppy>6,ypppy50>ypppe3:%$,O2&=%%=+",
"O,-===-7X<=$=;3eppy-65ypppy-0>ypppy26,ypppy>6-ypppe7;==<O2&=%=%@",
"O,%===-7+,=%$;3eppy-65ypppy,6>ypppy>8-ypppy>8-ypppe7:$=,O2-%$%$O",
"O=%=,=-4+,%==;3eppy,62ypppy,6>ypppy>8-ypppy>8>ypppe7:==,O2-%=%%O",
"o=%-=%:2+<=$=;7wppy-8>ypppy,62ypppy89>ypppy>6,ypppw5;==<O2-=$%%@",
"O-%%%%,7+<===;3eppy-8>ypppy-0>ypppy29-ypppy>6,ypppe7;==<O7&====@",
"O-%%$%,7X,%==;3eppy>98ypppy-0>ypppy28-ypppy26,ypppe7:&=,O7,$=$%O",
"o%%%%$,;+<%==;3eppy,9>ypppy-98ypppy28>ypppy>8-ypppe7;%%<O2-%===@",
"O=%%=$,2+,=&=;3wppy,8>ypppy-0>ypppy>6-ypppy>8-ypppw5:&%,O7-%=%%o",
"O=,%,=-2+>%%%;3eppy,88ypppy-68ypppy>0-ypppy89>ypppe7;%=>O4-=%%%@",
"O%,%,=&2X,=&%;3eiiu0teuiiiu0reuiiiuer0uiiiuer0uiiie7:==,O2,%=%%O",
"@=,%%$&2+&===;3qweewweeeeewwweeeeewqweeeeewwwwweeeq7:&=,O7,%==%@",
"O%:%%-,2+=%%$;33777377753773777537773773377333337337;%%&O2-=$%%@",
"@-<%%%,7+=%$%,;:;;;%>-=;;:>:=>=:;:>:;>;;;;;%>-:;;:;;>%%%O2-%===@",
"@--%=%,7.%$$=*=$#%,@q>@===-=====%=-====%#%,@q>@===*$==$=O7:=%$*@",
"O=,%==-7X-=%===%=#% =@ %%=%%$==-==%,%==$=#% =@ %%=*$%%%,O2&-%$%o",
"O=:%%=,7X-%%$%%%-=%@  @=%==$=-=,%==-%==$-=%@  @=%%%*%%%,O7&==$$O",
"O,:%==-7+%$%%=%%%%%$@@==%==-=%=%$=%=,==,-=%,@@==-=%,=-=%O7-%=*$@",
"O,-%==->OOOO@$OOO@OOO@O@OO@@O$@@o@O@@O@O@@O$OO@@@@O$OO@+O>--$%=@",
"O==%,=-:>7777722>72>272727;72222274772747772272227>72777>:-==*%@",
"o=-%=%----,,:---,,,-,-,-&-,-,,-,-,:---&--<,,,-:-&&,-,-,----%#$-O",
"O--%-%%%$-=$=$$==%-=%=%%*$%%*=-$=%=%--==%#-=%-==-$=%===%$$$%-%$@",
"O-=%%%%-=*-=%%%%&=-=%-=%$%,$==%-=#-#=%=-*$-$%%===%%=-$=%%-%%%%%O",
"o%-===%@->@%*===&=%@->@$$=*=$==@->@==%=-===@->@%%%$*%*@->@=$=%=@",
"O=-=,== @= =$%=%%%% =@ =%===%$= @= =-==%,%= =@ %$%$$== @= %%,==O",
"O==-,$=@  @=$%==&%$@  @%%$%%%-=@  @=,%==-%=@  @=$$%$$=@  @%%,=#O",
"O%=,%$%*==-=$%=%&%%%#%$==$=%%$%=$%%-%$=%$===$%==$%=%%%===%%%%%=@",
"@==,%$%*==-=$%=%&%%%#%$==$=%%$%=$%%-%$=%$===$%==$%=%%%===%%%%$%@",
"OO@@OOO@@O@@OO@@$@OOO@@@O@@@OOO@OO@@OOO@@O@@OO@@OOOOOO@@OO@OOOO@"
};
