/* XPM */
static char *result[] = {
/* columns rows colors chars-per-pixel */
"118 39 76 1 ",
"  c #070707",
". c #00000B",
"X c #0B0B0B",
"o c #170F07",
"O c #0B1707",
"+ c #1F170B",
"@ c #131313",
"# c #1B1B1B",
"$ c #2F1B0B",
"% c #2B230F",
"& c #232B0F",
"* c #372313",
"= c #332B13",
"- c #3F2F17",
"; c #3F2B1B",
": c #232323",
"> c #272727",
", c #2F2F2F",
"< c #373737",
"1 c gray23",
"2 c #430000",
"3 c #4F0000",
"4 c #530707",
"5 c #5B0707",
"6 c #670000",
"7 c #670B0B",
"8 c #6B0F0F",
"9 c #730000",
"0 c #7F0000",
"q c #731313",
"w c #771717",
"e c #7F1B1B",
"r c #432F1B",
"t c #43331B",
"y c #4B371B",
"u c #473323",
"i c #4F3B23",
"p c #4F3B2B",
"a c #533F2F",
"s c #5F4323",
"d c #5B472B",
"f c #574333",
"g c #5F4B37",
"h c #67533F",
"j c #775F3F",
"k c #434343",
"l c #4B4B4B",
"z c #6F5743",
"x c #775F4B",
"c c #7B634F",
"v c #8B0000",
"b c #9B0000",
"n c #831F1F",
"m c #A70000",
"M c #B30000",
"N c #8B2323",
"B c #8F2B2B",
"V c #972F2F",
"C c #9B3333",
"Z c #A33B3B",
"A c #A73F3F",
"S c #8F5F37",
"D c #AF4747",
"F c #B34F4F",
"G c #BB5757",
"H c #BF5B5B",
"J c #836B4B",
"K c #836B57",
"L c #8B735B",
"P c #937B63",
"I c #9B7F6B",
"U c #C76363",
"Y c #9F876F",
"T c #A78F77",
"R c #AF977F",
"E c None",
/* pixels */
"EEEEEEEEEEEEEEEEEEEEEEEEEEEEEEEEEEEEEEEEEEEEEEEEEEEEEEEEEEv006Mv600vEEEEEEEEEEEEEEEEEEEEEEEEEEEEEEEEEEEEEEEEEEEEEEEEEE",
"EEEEEEEEEEEEEEEEEEEEEEEEEEEEEEEEEEEEEEEEEEEEEEEEEEEEEvvvvvvbm0Mm9mbmvvvvbEEEEEEEEEEEEEEEEEEEEEEEEEEEEEEEEEEEEEEEEEEEEE",
"EEEEEEEEEEEEEEEEEEEEEEEEEEEEEEEEEEEEEEEEEEEEEEEEEEEbv064260m0vmmvbm46E240M66EEEEEEEEEEEEEEEEEEEEEEEEEEEEEEEEEEEEEEEEEE",
"EEEEEEEEEEEEEEEEEEEEEEEEEEEEEEEEEEEEEEEEEEEEEEEEE6bv6mEvvvv0mv000m0bvvvbm2Mb6EEEEEEEEEEEEEEEEEEEEEEEEEEEEEEEEEEEEEEEEE",
"EEEEEEEEEEEEEEEEEEEEEEEEEEEEEEEEEEEEEEEEEEEEEEEE66v6vvv0462b066660b6E00bMb664$EEEEEEEEEEEEEEEEEEEEEEEEEEEEEEEEEEEEEEEE",
"EEEEEEEEEEEEEEEEEEEEEEEEEEEEEEEEEEEEEEEEZFNEEEE4420vv62EEvvv46$oX40Mbvb42bb0E66NNNEEEEEEEEEEEEEEEEEEEEEEEEEEEEEEEEEEEE",
"EEEEEEEEEEEEEEEEEEEEEEEEEEEEEEEEEEEEEEteFFDVeEe22E662E6vv02$E6EEE3$20Mb602E440$CqCNzEEEEEEEEEEEEEEEEEEEEEEEEEEEEEEEEEE",
"EEEEEEEEEEEEEEEEEEEEEEEEEEEEEEEEEahxrru;NGZZCnN3E226m4v062oEE3EEE2EE260b4m0E$205BqNNzu*EEEEEEEEEEEEEEEEEEEEEEEEEEEEEEE",
"EEEEEEEEEEEEEEEEEEEEEEEEEEEEEEEugKYRLj*%;fGZDZVnCv2E9vv622EEE2EEE2EE646Me9v3E$54q9VCKfKa2EEEEEEEEEEEEEEEEEEEEEEEEEEEEE",
"EEEEEEEEEEEEEEEEEEEEEEEEEEEEEE,<,LLhu:*uj+uKDFDVN42E2m62E2EEEEEEE6EE6E26m4$567$48BFCc*zza5<EEEEEEEEEEEEEEEEEEEEEEEEEEE",
"EEEEEEEEEEEEEEEEEEEEEEEEEEEEE,<f<,u#@@5gjf+;xNZDCNE429oEE3EEEEEEE62442$29o$$4557NDCSa%KzKal,EEEEEEEEEEEEEEEEEEEEEEEEEE",
"EEEEEEEEEEEEEEEEEEEEEEEEEEEEE<222k,@%%*%pi=@+xnZDNN622EEE6EEEEEEE247724225q0uNqeDDVzaipNql<22qEEEEEEEEEEEEEEEEEEEEEEEE",
"EEEEEEEEEEEEEEEEEEEEEEEEEEUFZFFZNa2f52;u%u*%=XfnZFNv632EE6EEEEEE4472$$242508CZVVZVz%*Jh&22@,kk,@EEEEEEEEEEEEEEEEEEEEEE",
"EEEEEEEEEEEEEEEEEEEEEE,k,#kZ999NZUF@2%rp+%++=u*xNDDN0646E3EEEEE242$$$$$2436NFVNe+*f*JJf=u,:,<,<,:@EEEEEEEEEEEEEEEEEEEE",
"EEEEEEEEEEEEEEEEEEE#k,##k<<X52259jN=;&&%+++%#u*%uCDCb0642$EEEE2242$$$$$o27qCJde%adauJgutt+%1lkk:k:@EEEEEEEEEEEEEEEEEEE",
"EEEEEEEEEEEEEEEEEE#kEXk#:,<#,2X2jgj%%+%+++++#==:jhCZbb62$2EE2624272$$$4236NnJz;uiuuij;*%=;%@%+%,1,1k:EEEEEEEEEEEEEEEEE",
"EEEEEEEEEEEruur$+;*u%%+%;%%;;;25gpgj@+%;t%%++%%gja4ZCN0$25$$2o27Bn7744242qnnci;t=%*;=%%%*;;*:uu%*upgpt*;***+EEEEEEEEEE",
"EEEEEEEEErahzxha;ufxifuru;i%;i;+gpp%+++%;*%++++#gp2NDNn25V22VZNDHFZVq5222Nnwza=%%*%%==*%%=pu@u%#aagu%*;;;ut;+EEEEEEEEE",
"EEEEEEEEugxKLLKzfafajhxguu;;;;i2pu%+%+++=%&+@*++%u$qZVn5CF8CDDZCZCZDCnq25nwau%%*=;%%%%=%%;pu:i%p%p;%%;uupggga;%EEEEEEE",
"EEEEEEErfjPIYPczza*;axgza;%ii%;;%%%*;+++%%++@=;%+##8VCnVZVCZZCVnqnBBCCBe8esi##%==;=%+=;%%=u%hJu=*u%&upfghczzjza%EEEEEE",
"EEEEE XjgxYTPxKKf#:##ufhai+;i;%;t*t;*+++&+++#&*%;u#8NCCnneCBewqqq8qqwNVNewy=#%%%*;=%+;=%+%=pJh:@*:%%ufgzxcxxxxz;EEEEEE",
"EEE. #;KKzKxcPLzrXXX#:XK+fu%;i%%%*=;;+**+++@++%%*=*4nVC87eeeq5qqnw4355eenwr#+%&%%**++**%+%ujhu@%;=+:puhjccKLLKjgi@@EEE",
"EE##@rtaLczPPKga*#XXX#:fz%p+%;%+%*;t*+@@@++@@@@++%*;neN458eNNZDZCCVVZCnnny=%++$&&+++%%%+++*u;%+%%%+%,fzgzcxxxzgzd,@@EE",
"E#@@:Xr*fhccgp*+*uu#,:#+u+%;%;%@X+%%#@@@@@+++#@+@+%*ewq*enCDDFZVe7223NBBwy=++++++++++%++++%&%@;+o%%;;zKLLzgjggcci#:,@E",
"EX##EE$+*hLPp*+#fu#<:,a+** =%%+@XX###@oX=;=;;*+++@@*qewBCCDDDZN52o2qnVNB8=%#%++++++++++$++++%@++X*%pgguo;LzgcKztx@@@:@",
"XXEEEtgxPIaxLKLLcfu*%it$o$@%++@@@X+@@X@%r;;=*%%#+@o+5NeBBCCNnq52o2qNCZNB-;&#%++++++++++@++++@+++@;+uzhg:X,Kzzu@%x%E@,@",
"EEEEE$gxxa+uxzggdu*%X$#:@o#@@:@,@X@+@+#%=%%%%%%@@@X+4CCBCeqq442o2qBZZB5N*;%#%+++++&+++@+++@o@@oo+t+;guifzKcig<:x;EEE@,",
"EEEEEEtgxchxKfu@#@@ @@<,#::@:,@,:XXX@#%%****%%##@@@+4nCqCBq22o$2qCZZVqne%;%#++++%%%%&+@@++@X@@@X@=g=@;fzKcp=fzgaEEEEE@",
"EEEEEE$tgugaxug#:#$;@#,##,#@,::,@@@X@#%%*==-;&#@@#&@2eB4NZDZBqqNCFDN$nB5%+%#@+%%%***%%#@@O@X+:,:=uuu%%%hzcxgga;%EEEEEE",
"EEEEEEuEu%uXuX@:,#*;@:#X::@::@#@@XXXXX%#%;-==*%@@#+X2qVq4NZDFADZCZN4*Bn4*+%+o+%%*=;;=*%@@XoXXX#%*=ig%@Xpucgug%;%EEEEEE",
"EEEEEEEE$%:@##,<#uu*@#@@:#@#@XXXE222XX+%+*+%%%+@@#+@48NVn2qqVDDDVNq8NVq2%++%@+%****;**%@XXX@X#XXX=tgu%#u,u%%iE%EEEEEEE",
"EEEEEEEE%;%,<,:ugha$####XXEEEEEEEE22;+X+#%%@@+@%%+X@44eNVe*3qnqZq>eNNN7+%+o%+%%%+%+++%+@X+X2:=#:##=fhu@XXoX##EEEEEEEEE",
"EEEEEEEEu%;%%tfrca* XEEEEEEEEEE2222;%%+X@;;;%@X+%%422o2qNNNVZBnNBeVVNq33@@2;%+&++%*%@++%;+222EEEE===;h%u%u%;i%EEEEEEEE",
"EEEEEEEE;a%grKrzu*EEEEEEEEEEE22225;%++2XXauu*+%%;;#422$24qnVZFZCZCBnq2$4@4;%+X++%rut%@@+%;55222EEEEE=;ddgxii%EEEEEEEEE",
"EEEEEEEEE%fghg;*EEEEEEEEEEEEEEEEEE222222%au2:@X@#%%6222o$458qNVZVNn8$o22X222422@%uar%@o+++;8852EEEEEE=iiii=%EEEEEEEEEE",
"EEEEEEEEEEEEEEEEEEEEEEEEEEEEEEEEEE2255552a25899999099987o$$235qq58$oo78800006422%=aa;@8008522EEEEEEEEEEEEEEEEEEEEEEEEE",
"EEEEEEEEEEEEEEEEEEEEEEEEEEEEEEEEEEE2589990000000b0000009842$ooo92o$47000000990992%;u25585522EEEEEEEEEEEEEEEEEEEEEEEEEE",
"EEEEEEEEEEEEEEEEEEEEEEEEEEEEEEEEEEEEE2222599999900bbb0000009954799000000bb00889994555222EEEEEEEEEEEEEEEEEEEEEEEEEEEEEE",
"EEEEEEEEEEEEEEEEEEEEEEEEEEEEEEEEEEEEEEEEEEE222555999999998885555588890000999555552EEEEEEEEEEEEEEEEEEEEEEEEEEEEEEEEEEEE"
};
