/* XPM */
static char *_4c17cc463a14b46e295aa659b69d95eNN1kcRfnRoBQz3sm[] = {
/* columns rows colors chars-per-pixel */
"64 64 25 1 ",
"  c #0F1700",
". c #171F07",
"X c #1F170B",
"o c #1B1B1B",
"O c #2B230F",
"+ c #232B0F",
"@ c #332B13",
"# c #3F2B1B",
"$ c #2F371F",
"% c #232323",
"& c #272727",
"* c #2F2F2F",
"= c #373F27",
"- c gray23",
"; c #473323",
": c #4F3B27",
"> c #533F2F",
", c #3F472B",
"< c #474F33",
"1 c #5F4B37",
"2 c #53573B",
"3 c #67533F",
"4 c #6F5743",
"5 c #5B6347",
"6 c #676B4F",
/* pixels */
"$$$==$$=======,,=$$$=$$==$$=====$=<,=$=,,,,,,,,,,====,,,,,,,,==;",
"***==$$====$$==,=$$$$$===$@$$$$=$$,==$$,,,,<<<<<,$$$=,,,<<<<==,,",
",======$====+$=,,,=$$$==$$@OO@$$$$*==$$,,<<<<<<<,$+$,<=$<<,=$#,,",
",,=,,,$$=,<,$+<,,<,=,==$=$$OXOO$$$$,,,$$,2122<<<,$$<<<<,,,=$==,,",
",,,,,=$$===,$.=<<<<,:,,===$OOXO@@$$,<<=$,<2252<<==,2<<122,=$$=,,",
",====$$====$+++=<<<<,,,====@OOO@$O$<<<,=<226522<==,221<13<=#$#<,",
"=$$$$++$$$$===$+,<<<<<=,==,$@O@$=$=<<<<,<56522<=$=<42<<22#@=$+,,",
"$+++$$$$$==,<,$$=<<<<,,,===$$+O$$===22,<255221=$+=<22<,<,$=$O+$$",
"+..$<<<,,,,<<<,=$,<<<,<,==$$$+O$+$,=,<,<22<22,+$+<<,<2,$==,$O=O$",
"+.+$<2<<,,,<<<<=$=<<==<,=$$,=O+=@@$$$,,<,<<2<$++=<2<<2<$+$=O$,==",
"$$+$,2<<<<>,<<<=$,,<=<<<$$=,=+$$$+@+==,<,,<,$..+$,<<<,<=$+ .,,+$",
"==$+=<<<><<,<<<=$+$=,<,=$====$==,$ O$=,,<<<$+.X+$===,,=$$..+,,$$",
",,=$$=<<,<<<<>,$.++$=,,$$$:==$$===O O$<,<<=$X+$$,=$=,,,$&,-$$,=%",
",<,$X$,<<<<<<,$$+X+$,,$$+$=$==$=-+O$=$==,,$+$$,<<<,=O=,=$=,=$==$",
"=:,$$$=,,,,,=$X+..X$,++X+=$$$O$=$++,2,$$$$$=,<<<2<<=$O$,=$$===$=",
"===$$,=,$$$$$++$$+X+$$%$+-$O=O$$+$$=<4=O+$,<<<2<22<=$$*,,$$===$=",
"====$,,>>=$$$$$$$$+..OO$====,$O++$==,<<$X+=<1<,<52<$Xo$=,====$$=",
"=$::=,,<<,==,>>,,$+..++$$O$$,,$$O$<,$=$+X $<2<<<2<<$X$$====$$==,",
"=$=$,,,,,:,,=,<<<$$O.+$$O$$$,,$$$=2,==$XX $=<,<12<<$%<=$=$=$$==<",
"=$=$=,,,,,,$=,<2<$OO%$+$$*%=,$$-,=<$O,$  .$$,,<<<<<==,<,=:=,<,<,",
"=$$$,,=,,,,$$,<1,+oO+$$+=*$==$=,$O=+O=@..X+$==,<<<<<<,,======,<,",
"=OO$,,,,,,,,=,<<,%oOO$*$$=$$===$$=$=,<@@+Xoo$$:,<<<<<,$$=====,==",
"$@@+$,>,,,>,,=,<,+oO$$==*=$$===$==,=,=@++oX%%$,=<<<<<<=+$$::,$$+",
"=$$==,><,,,,,==,<$O+====-$$$$=====,$<$X$+O*&$==,,<<<<<,$+$===$+$",
",=$==,,>,,,:,,==$$O$$,<==,<==$$==$=$,2$$$%O$=<<,,,:<<,==$+$$$++$",
"====,,,>><,=,>,=$$+$$,,==<<==$$=$=O$,,*$X$$$$<<<,:<<<===$+.+$===",
"=*#==:,<<<,=,,<,$+=*$,,$=,,,=$$=$=$$,=O$XO*++,<<2=,,<,=$$..$=,,,",
"=#$=,,,,,,:,=,<<$$$==,=,,:=,,=$*$=$$$=*OX+=$X$,<<,==,$$$+.@$=,>,",
"=#$==,<,,,:,==1,$$$$$=,<<,==,,$==$$*#,=O++$$+$,,,<$$$+X,=$+$:,>,",
"=$===,,,,==,==<,$$$$$$=,,,==Oo$$==$=,==$++$$$$$,,,=$+$,:,$$==,,>",
"=%$$$=,,,=$=,=,=$$$$:=$=,=,<=Oo$,$=,,,==+++$$$+$=,=+$===$$$=,,,>",
"=$Oo+$,,=$$====$$==$===$===,,$O$=$=,<,$$++$$$$$+$$,$$::=$$$==:,<",
"=$=,<,$$++$$$$$+$$,$$::=$$$==:,<***==$$$+$$$$$$$$$$$$$,,===,,==,",
",==,,,==+++$$$+$=,=+$===$$$=,,,>-======$$===+$,,=,=$$$=,,==<==,,",
",===,==$++$$$$$,,,=$+$,:,$$==,,>===,,,$$$=<,$+<,,<,=,=$$=,==$#,,",
"==$*#,=O++$$+$,,,<$$$+X,=$+$:,><=,,,,=$$===,$.=<<<<,:,,,,,=$==,,",
",=$$$=*OX+=$X$,<<,==,$$$+.@$=,>,=====$$====$+++=<<<<,,222,=$$=,,",
"==$$,=O$XO*++,<<2=,,<,=$$..$=,,,,$$$$++$$+$===$+,<<<<<113<=#$#<,",
"$=O$,,*$X$$$$<<<,:<<<===$+.+$===$+++$$$++==,<,$+=<<<<,222#@=$+,=",
"=$=$,2$$$%O$=<<,,,:<<,==$+$$$++$+..$<<<,,,,<<<,=+,<<<,<<,$=$O+$$",
"==,$<$X$+O*&$==,,<<<<<,$+$===$+$+.+$<2<<,,,<<<<=$=<<==$$==,$O=O$",
"==,=,=@++oX%%$,=<<<<<<=+$$::,$$+$$+$,2<<<<>,<<<=$,,<=<$$+$=O$,==",
"$=$=,<@@+Xoo$$:,<<<<<,$$=====,=$,,$+=<<<><<,<<<=$+$=,<==$+ .,,+$",
"$O=+O=@..X+$==,<<<<<<,,======,<<<<=$$=<<,<<<<>,$.++$=,$$$..+,,$$",
",=<$O,$  .$$,,<<<<<==,<,=:=,<,<,<<,$X$,<<<<<<,$$+X+$,,$$&,-$$,=%",
"$=2,==$XX $=<,<12<<$%<=$=$=$$==<=:,$$$=,,,,,=$X+..X$,+==$=,=$==$",
"O$<,$=$+X $<2<<<2<<$X$$====$$==<===$$,=,$$$$$++$$+X+$$,,=$$===$$",
",<==,<<$X+=<1<,<52<$Xo$=,====$$$====$,,>>=$$$$$$$$+..O,,,$$===$$",
"=,$=<4<O+$,<<<2<22<=$$*,,$$===$$=$::=,,<<,==,>>,,$+..+==,====$$$",
"$==,22$$$$$=,<<<2<<=$O$,=$$===$$=$=$,,,,,:,,=,<<<$$O.+=====$$==<",
"-,O$,$==,,$+$$,<<<,=O=,=$=,=$==$$$=$=,,,,,,$=,<2<$O$..+$,<<<,<=$",
"==O O$<,<<=$X+$$,=$=,,,$&,-$$,=%=$$$,,=,,,,$$,<1,+o+.X+$===,,=$$",
",$ O$=,,<<<$+.X+$===,,=$$..+,,$$$$$,,$$$==,,,,,=$$=,+$$,=$=,,,$&",
"$+@+==,<,,<,$..+$,<<<,<=$+ .,,+$*%=,$$-,=,,<13,=#$#<$,<<<,=O=,=$",
"@@$$$,,<,<<2<$++=<2<<2<$+$=O$,==*$==$=,$O=<<2,#@=$+,<<<2<<=$O$,=",
"+$,=,<,<22<22,+$+<<,<2,$==,$O=O$=$$===$$=$<,<,$=$O+$<2<22<=$$*,,",
"$===22,<255221=$+=<22<,<,$=$O+$$=$$===$==,2,$==,$O=O<,<52<$Xo$=,",
"=$=<<<<,<56522<=$=<42<<22#@=$+,,$$$$=====,2<$+$=O$,=<<<2<<$X$$==",
"=O$<<<,=<226522<==,221<13<=#$#<<,<==$$==$=,<=$+ .,,+,<12<<=%<=$=",
"O=$,<<=$<<2252<<,=,2<<122,=$$=,<<<==$$=$=O,=$$..+,,$,<<<<<,,,<,=",
"O$$,,,$$,<122<<<,$$<<<<,,,=$===<,,,=$$=$=$,,$&,-$$,==,<<<<<<,,==",
"$$*==$$=,<<<<<<<,$+$,<=$<<,=$#,<:=,,=====$=,=$=,=$==$:,<<<<<,$$=",
"$$,==$$,,,,<<<<<<$$$==,,,,,,==,<,,,,,,,,,=O$,=$$===$$,,,<<,,,=+$",
"$=<,=$==,,,,,,,,,$+++$,,,,=,,===,,,,,:<,,==*,,$$===$$=,,,,,,==$$"
};
