/* XPM */
static char *result[] = {
/* columns rows colors chars-per-pixel */
"95 60 71 1 ",
"  c #070707",
". c #0B0B0B",
"X c #170F07",
"o c #0B1707",
"O c #1F170B",
"+ c #131313",
"@ c #1B1B1B",
"# c #2F1B0B",
"$ c #2B230F",
"% c #372313",
"& c #332B13",
"* c #3F2F17",
"= c #3F2B1B",
"- c #232323",
"; c #2F2F2F",
": c #373737",
"> c gray23",
", c #430000",
"< c #4F0000",
"1 c #530707",
"2 c #5B0707",
"3 c #670000",
"4 c #670B0B",
"5 c #6B0F0F",
"6 c #731313",
"7 c #432F1B",
"8 c #43331B",
"9 c #4B371B",
"0 c #533F1F",
"q c #732B00",
"w c #473323",
"e c #4F3B23",
"r c #4F3B2B",
"t c #533F2F",
"y c #5F4323",
"u c #5B472B",
"i c #574333",
"p c #5F4B37",
"a c #6B4727",
"s c #774F2B",
"d c #675333",
"f c #775F3F",
"g c #434343",
"h c #4B4B4B",
"j c gray34",
"k c #5B5B5B",
"l c #7B634F",
"z c gray39",
"x c gray42",
"c c #777777",
"v c #872300",
"b c #932F00",
"n c #9F3700",
"m c #A73F00",
"M c #874307",
"N c #AF4300",
"B c #B74700",
"V c #C34F00",
"C c #CB5707",
"Z c #D75F0B",
"A c #DF670F",
"S c #EB6F0F",
"D c #F37317",
"F c #836B4B",
"G c #8F7753",
"H c #937B63",
"J c #FF8F3B",
"K c #FFA35B",
"L c #838383",
"P c #8B8B8B",
"I c None",
/* pixels */
"IIIIIIIIIIIIII-IIIIIIIIIIIIIIIIIIIIIIIIIIIIIIIIIIIIIIIIIIIIIIIIIIIIIIIIIIIIIIIII-IIIIIIIIIIIIII",
"IIIIIIIIIIIIIIgIIIIIIIIIIIIIIIIIIIIIIIIIIIIIIIIIIIIIIIIIIIIIIIIIIIIIIIIIIIIIIIIIgIIIIIIIIIIIIII",
"IIIIIIIIIIIIII>-IIIIIIIIIIIIIIIIIII+IIIIIII%1,111,1%IIIIIII+IIIIIIIIIIIIIIIIIII->IIIIIIIIIIIIII",
"IIIIIIIIIIIIII;:IIIIIIIIIIIIIIIIIII@@II2#X+OO1O-O1OO+X#2II@@IIIIIIIIIIIIIIIIIII:;IIIIIIIIIIIIII",
"IIIIIIIIIIIII:;@IIIIIIIIIIIIIIIIII,,#X2<X.@-$6-;-6$-@.X<2X#,,IIIIIIIIIIIIIIIIII@;:IIIIIIIIIIIII",
"IIIIIIIIIIII>;>@IIIIIIIIIIIIII##2,#X.$<1O+:;&v;:;v&;:+O1<$.X#,2##IIIIIIIIIIIIII@>;>IIIIIIIIIIII",
"IIIIIIIIIII-x;++IIIIIIIIIIII#X+%<X.+-$;1&;g:&n;:;n&:g;&1;$-+.X<%+X#IIIIIIIIIIII++;x-IIIIIIIIIII",
"IIIIIIIIII;h:+.IIIIIIIIIII5X++%q2X+-;;:g#-gh:B=t=B:hg-#g:;;-+X2q%++X5IIIIIIIIIII.+:h;IIIIIIIIII",
"IIIIIIII-:k>..+IIIIIIIII,,,XO,466$-;>>;j:whk:vBaBv:khw:j;>>;-$664,OX,,,IIIIIIIII+..>k:-IIIIIIII",
"IIIIIII-gLj+...IIIIIIII<##,1<#XXn$;hj>@xhN;;-bmNmb-;;Nhx@>jh;$nXX#<1,##<IIIIIIII...+jLg-IIIIIII",
"IIIIIg;kxh+ O+IIIIIIII<X .O<#X++v%-gg8@kz;v#6ObBbO6#v;zk@8gg-%v++X#<O. X<IIIIIIII+O +hxk;gIIIII",
"IIII->kP;++O..IIIIIII,# .++#v+++#n%%nv+>c>55O-wNw-O55>c>+vn%%n#+++v#++. #,IIIIIII..O++;Pk>-IIII",
"III>:ch-+.O$@+IIIII##,X.@--$n+@@=mnnOq+-kg;#->gBg>-#;gk-+qOnnm=@@+n$--@.X,##IIIII+@$O.+-hc:>III",
"II:gj:+.+O++.IIIII#.+#2O;g>%C$--v#O@-&+@gh:O:hlNlh:O:hg@+&-@O#v--$C%>g;O2#+.#IIIII.++O+.+:jg:II",
"I:>k:++.X$O++IIIII#++OvO-;=BBb#vX+@>g;%+-gg#;jzvzj;#gg-+%;g>@+Xv#bBB=;-OvO++#IIIII++O$X.++:k>:I",
"I-:@@..O$OX.III@+-,#+%v#OmBCmbb#.@:jk>-b+@66%;>v>;%66@+b->kj:@.#bbmCBmO#v%+#,-+@III.XO$O..@@:-I",
"-@-+.+XOOX++@@+@@>>,1545vX+#XO#6+-:gh-$vm#+##%-b-%##+#mv$-hg:-+6#OX#+Xv5451,>>@@+@@++XOOX+.+-@-",
":+++.+OO..@+@;@:;hkg2##vX.++--$6#@-;-&6#@;;&m#%B%#m&;;@#6&-;-@#6$--++.Xv##2gkh;:@;@+@..OO+.+++:",
";-..OOOX .+@->;>k>cg1XOvX+;;hg%BvOO$Mbv.-:gg&CbCbC&gg:-.vbM$OOvB%gh;;+XvOX1gc>k>;>-@+. XOOO..-;",
"I-+.XOO....+-;:-g-xh1O$nO@:gkh7OO=w*%Ov#$:jz>$ZZZ$>zj:$#vO%*w=OO7hkg:@On$O1hx-g-:;-+....OOX.+-I",
"I+@++XX...+.++-@;-j>25%n+-;=hr5O#w09ee9BV7wh>-=C=->hw7VB9ee90w#O5rh=;-+n%52>j-;@-++.+...XX++@+I",
"II+oXXXXXOO.X.@+--h;4vb#@@%B#6O%8ddupf0w*VVmw;9N9;wmVV*w0fpudd8%O6#B%@@#bv4;h--+@.X.OOXXXXXo+II",
"III+.+OXO$X$+XX.@@g;4vBb%mBX+5O%8dF9fGdyue7#nmbnbmn#7euydGf9Fd8%O5+XBm%bBv4;g@@.XX+$X$OXO+.+III",
"IIII...$$OO$O$X+++:$XXBCCBv.@gO#%edwaGfpffd988#O#889dffpfGawde%#Og@.vBCCBXX$:+++X$O$OO$$...IIII",
"IIIIII+XXO$,OO,$++@,XOvvX#vX-j>%#%*%7fe9pfFFFfaeafFFFfp9ef7%*%#%>j-Xv#XvvOX,@++$,OO,$OXX+IIIIII",
"IIIIIII++XXOO1$$,@+,##vX+-$5O;;8##%%%89%%9edfHGGGHfde9%%98%%%##8;;O5$-+Xv##,+@,$$1OOXX++IIIIIII",
"IIIIIIIII++O,O$1O++,21X+-g:$6qO$%*u09%=,<,1*0adfda0*1,<,=%90u*%$Oq6$:g-+X12,++O1$O,O++IIIIIIIII",
"IIIIIIIIIII++$,X++,,,#.+-g;%veweeuuu9*%,,<44%*0a0*%44<,,%*9uuueewev%;g-+.#,,,++X,$++IIIIIIIIIII",
"IIIIIIIIIIIIII+++,#X#2#O@w$*uweuuad8fae%<,4vbBAJABbv4,<%eaf8dauuewu*$w@O#2#X#,+++IIIIIIIIIIIIII",
"IIIIIIIIIIIIIIII,#.+O1nm6$=weaudfde8dfye%,<bBAJKJABb<,%eyfd8edfduaew=$6mn1O+.#,IIIIIIIIIIIIIIII",
"IIIIIIIIIIIIIIIII,OO%1##v=weuafpe8uFGffpe%,5bCDJDCb5,%epffGFu8epfauew=v##1%OO,IIIIIIIIIIIIIIIII",
"IIIIIIIIIIIIIIIII,,,,#+$$7eeudse%ufduddfFde,5bBBBb5,edFfddudfu%esduee7$$+#,,,,IIIIIIIIIIIIIIIII",
"IIIIIIIIIIIIIIIII,<1<O@=$9wepae*7ya8ududffda%<4v4<%adffdudu8ay7*eapew9$=@O<1<,IIIIIIIIIIIIIIIII",
"IIIIIIIIIIIIIIIIIIXXvO@=O7=w0u9%9uwwdt8udGffda7%7adffGdu8tdwwu9%9u0w=7O=@OvXXIIIIIIIIIIIIIIIIII",
"IIIIIIIIIIIIIIIIII#Xv#@=$O#%7978te8eu8;0aufFffdddffFfua0;8ue8et8797%#O$=@#vX#IIIIIIIIIIIIIIIIII",
"IIIIIIIIIIIIIIIII-;##4$-vXO#%7%8ewwte%*e-ydFFfFFFfFFdy-e*%etwwe8%7%#OXv-$4##;-IIIIIIIIIIIIIIIII",
"IIIIIIIIIIIIIIII-;-,1<$%m1X%OO%=87=&%-wr-7@ufdsdsdfu@7-rw-%&=78=%OO%X1m%$<1,-;-IIIIIIIIIIIIIIII",
"IIIIIIIIIIIIIII@;-@31,%wbO+@%O$%88*%#;%-;#-7e@wew@e7-#;-%;#%*88%$O%@+Obw%,13@-;@IIIIIIIIIIIIIII",
"IIIIIIIIIIIIIIIII++<41,9bO@;>8O$*%%,#-;@>#->%-*-*-%>-#>@;-#,%%*$O8>;@Ob9,14<++IIIIIIIIIIIIIIIII",
"IIIIIIIIIIIIIIIIIII1,#%6#+->g:#%%##,1@;1;,>g#;#;#;#g>,;1;@1,%#%%#:g>-+#6%#,1IIIIIIIIIIIIIIIIIII",
"IIIIIIIIIIIIIIIIIIII,O$nX+->h:##%$,11v-4-2-h;->;>-;h-2-4-v11,$%##:h>-+Xn$O,IIIIIIIIIIIIIIIIIIII",
"IIIIIIIIIIIIIIIIIIII,#$b#+-:g=%O%$,14bvv+44hv@g<g@vh44+vvb41,$%O%=g:-+#b$#,IIIIIIIIIIIIIIIIIIII",
"IIIIIIIIIIIIIIIIIIIII<O%n+@-;-OX%w,14b-vb45:b+;v;+b:54bv-b41,w%XO-;-@+n%O<IIIIIIIIIIIIIIIIIIIII",
"IIIIIIIIIIIIIIIIIIIII,##bO+@-;O%=e%,1v;qbq5+nn-m-nn+5qbq;v1,%e=%O;-@+Ob##,IIIIIIIIIIIIIIIIIIIII",
"IIIIIIIIIIIIIIIIIIIII,,,,#X++$#%=ew#-2g6@q4-bV+S+Vb-4q@6g2-#we=%#$++X#,,,,IIIIIIIIIIIIIIIIIIIII",
"IIIIIIIIIIIIIIIIIIIIII,,#2#OOO#*8t8%#-g<;52;vnnVnnv;25;<g-#%8t8*#OOO#2#,,IIIIIIIIIIIIIIIIIIIIII",
"IIIIIIIIIIIIIIIIIIIIIII,O%6v%O#=wfi%#-:+g4@>5v;v;v5>@4g+:-#%ifw=#O%v6%O,IIIIIIIIIIIIIIIIIIIIIII",
"IIIIIIIIIIIIIIIIIIIIIII,O$,,qO#&9du@%-#@g1@h1<>1><1h@1g@#-%@ud9&#Oq,,$O,IIIIIIIIIIIIIIIIIIIIIII",
"IIIIIIIIIIIIIIIIIIIIIII;#O,#<O#%8pw@e%#@g#-h-,g,g,-h-#g@#%e@wp8%#O<#,O#;IIIIIIIIIIIIIIIIIIIIIII",
"IIIIIIIIIIIIIIIIIIIIII;h;##<;OO%7t870-*;g+;g;->,>-;g;+g;*-078t7%OO;<##;h;IIIIIIIIIIIIIIIIIIIIII",
"IIIIIIIIIIIIIIIIIIIIII;:@+#:g>O#%8e*+@w-g@;>-#-;-#->;@g-w@+*e8%#O>g:#+@:;IIIIIIIIIIIIIIIIIIIIII",
"IIIIIIIIIIIIIIIIIIIII--@+I;hcg@X#%==%@w%;+--%%%-%%%--+;%w@%==%#X@gch;I+@--IIIIIIIIIIIIIIIIIIIII",
"IIIIIIIIIIIIIIIIIIIII-+II;gxh@+%%O$%%%7e08*89;8%8;98*80e7%%%$O%%+@hxg;II+-IIIIIIIIIIIIIIIIIIIII",
"IIIIIIIIIIIIIIIIIIIIIIIIIgxg-@,++$4%$#@8uu9>d@u8u@d>9uu8@#$%4$++,@-gxgIIIIIIIIIIIIIIIIIIIIIIIII",
"IIIIIIIIIIIIIIIIIIIIIIII;::@IXX%O#<11%%%-;*-uu:f:uu-*;-%%%11<#O%XXI@::;IIIIIIIIIIIIIIIIIIIIIIII",
"IIIIIIIIIIIIIIIIIIIIIII--@IIIIXXXX<,XO##+%##*e@0@e*##%+##OX,<XXXXIIII@--IIIIIIIIIIIIIIIIIIIIIII",
"IIIIIIIIIIIIIIIIIIIIIIIIIIIIIIII,<X#,<<OOXO##%*8*%##OXOO<<,#X<,IIIIIIIIIIIIIIIIIIIIIIIIIIIIIIII",
"IIIIIIIIIIIIIIIIIIIIIIIIIIIIIIIIIIX-X#-,##<XO#####OX<##,-#X-XIIIIIIIIIIIIIIIIIIIIIIIIIIIIIIIIII",
"IIIIIIIIIIIIIIIIIIIIIIIIIIIIIIIIIIIIIIIX,-,X-<#X#<-X,-,XIIIIIIIIIIIIIIIIIIIIIIIIIIIIIIIIIIIIIII",
"IIIIIIIIIIIIIIIIIIIIIIIIIIIIIIIIIIIIIIIIIII#X-,#,-X#IIIIIIIIIIIIIIIIIIIIIIIIIIIIIIIIIIIIIIIIIII"
};
