/* XPM */
static char *result[] = {
/* columns rows colors chars-per-pixel */
"35 66 87 1 ",
"  c #170F07",
". c #1F170B",
"X c #2B230F",
"o c #232B0F",
"O c #332B13",
"+ c #3F2F17",
"@ c #272727",
"# c #2F2F2F",
"$ c #373F27",
"% c #430000",
"& c #470000",
"* c #4F0000",
"= c #530707",
"- c #5B0707",
"; c #5F0707",
": c #670B0B",
"> c #6B0F0F",
", c #730000",
"< c #731313",
"1 c #771717",
"2 c #7F1B1B",
"3 c #43331B",
"4 c #4B371B",
"5 c #533F1F",
"6 c #4F3B23",
"7 c #533F2F",
"8 c #3F472B",
"9 c #5F4323",
"0 c #5B472B",
"q c #474F33",
"w c #5F4B37",
"e c #53573B",
"r c #6B4727",
"t c #774F2B",
"y c #7F532F",
"u c #675333",
"i c #67533F",
"p c #775F3F",
"a c #6F5743",
"s c #775F4B",
"d c #5B6347",
"f c #676B4F",
"g c #7B634F",
"h c #8B0000",
"j c #831F1F",
"k c #932F00",
"l c #A73F00",
"z c #8B2323",
"x c #8F2B2B",
"c c #972F2F",
"v c #9B3333",
"b c #A33B3B",
"n c #A73F3F",
"m c #875733",
"M c #8F5F37",
"N c #9B633B",
"B c #A36B3F",
"V c #CB5707",
"C c #EB6F0F",
"Z c #AF4747",
"A c #B34F4F",
"S c #BB5757",
"D c #BF5B5B",
"F c #836B4B",
"G c #8F7753",
"H c #8B735B",
"J c #AB6F43",
"K c #B37347",
"L c #BF7B4B",
"P c #937B63",
"I c #9B7F6B",
"U c #CB7F4F",
"Y c #C76363",
"T c #CB6B6B",
"R c #D37373",
"E c #DB7B7B",
"W c #9F8363",
"Q c #A78F77",
"! c #CF8353",
"~ c #D78B5B",
"^ c #DF9363",
"/ c #E79B6B",
"( c #EFA373",
") c #B79F87",
"_ c #BFA78F",
"` c #FFB383",
"' c None",
/* pixels */
"''''''''''''''''x''''''''''''''''''",
"''''''''''''''''>x'''''''''''''''''",
"''''''''''''''''=22''''''''''''''''",
"''''''''''''''''%:%''''''''''''''''",
"''''''''''''''''%2>''''''''''''''''",
"''''''''''''''''>z>''''''''''''''''",
"''''''''''''''''>1%''''''''''''''''",
"'''''''''''''''':%%''''''''''''''''",
"''''''''''''''''%%%''''''''''''''''",
"''''''''''''''''%;%''''''''''''''''",
"''''''''''''''''%-%''''''''''''''''",
"''''''''''''''''%-%''''''''''''''''",
"''''''''''''''''%-%''''''''''''''''",
"'''''''''''''''';:%''''''''''''''''",
"'''''''''''''''':2%''''''''''''''''",
"'''''''''''''''';1%'''K^`/!''''''''",
"'''''''''''''''';:%''KU!^(^!K''''''",
"''''''''''''''''%%%rMmyrmL~Kt4'''''",
"''''''''''''FWWF%>%YnrcbWWWW!4'''''",
"''''''''''FWWFWQk-knAATPQ))W)QWF'''",
"'''''''''FWQFW))vklAYTTQ___W_))QWa'",
"'''''''''Fas7FHH9mrI))WWQQWa37waWF'",
"'''''''''359aaGgyBm6a0aaaaw4+5rt7aw",
"'''''''''3MtFWFvBUBB!^^!Jm3+5Nt5y7w",
"''''''''''MGW0hZK~KJL~(/~Jt5N!BtNrw",
"''''''''''7u0hnBL~UKLLL!LLtyU!KBL9'",
"'''''''''572hcBLB^~UL~BNNJ5N!^LBL9'",
"'''''''''72hvJU~^/^!BLLmmt5mU!KBM9'",
"'''''''''726puFFuFuFptmBt959BKBBy''",
"'''''''''ewuFFp0pFFpp769+544mNMBy''",
"''''''''sswiFFu0pFFpppw7+4+'9mBLM''",
"'''''''7saw$wFupWpFWFpww73''mBLLM''",
"'''''wbADDDw7$$FpFWWGF7w73'mB!!Vr''",
"''''wO37wFRDZ3OuwWWYawz336'mB/Cj'''",
"''''3aFGFAvxx3.O3umAZAaw6;'rB!Dm'''",
"''''7AAaAZaj7O..cYDZZSSn3;'rMLZt'''",
"''''4czjZbw43..63ZmAZAai6;''MBm''''",
"'''44jxZb433O.%6vSDZZc2j3;''YYt''''",
"'''zbAAxAjOOO%'%ZpnZAb2+3.''EDj''''",
"''7b77wbxwOO%X+%unuuuAx23,xDYcj''''",
"''O7337wX3OOXXX%ju773O32O*>nj>'''''",
"''8ffd333O3'XX'%33qddq37O''>>''''''",
"''8qqeeOO.'''''%$effffe$O''''''''''",
"''8qqq8q8''''''%qdeeeeq83''''''''''",
"''#qq8c4O@''''''qqeeeeq8$''''''''''",
"''..OO4qqO''''''%8$$$$>oo''''''''''",
"''$dfq88$3''''''%$eeene$o''''''''''",
"''$qeqqqq3''''''%3vedd4$o''''''''''",
"''$8cdq4d3''''''%O8qccqOo''''''''''",
"'''+qd4q43''''''%%3jcq$Oo''''''''''",
"'''+qjje8'''''''%%3jcq$O'''''''''''",
"''''4444+'''''''%%%jcq$o'''''''''''",
"''''jxj4>'''''''%%3nnnn$'''''''''''",
"'''jj11>4'''''''%%jzxxzj'''''''''''",
"''cvbz+4+'''''''%%;vZZv;'''''''''''",
"'vbbvxj4='''''''%.;vZZv;'''''''''''",
"zbZbxz4=''''''''%.;xZZx;'''''''''''",
"jzxxz<:'''''''''%.;2xx2;'''''''''''",
";;<<;'''''''''''%.%<<<<''''''''''''",
"''''''''''''''''&. ''''''''''''''''",
"''''''''''''''''-*%''''''''''''''''",
"''''''''''''''''-*%''''''''''''''''",
"''''''''''''''''-*%''''''''''''''''",
"''''''''''''''%%-*%%%%%%%''''''''''",
"'''''''%%%%%%%%%-*%%%%%%%%%%%%'%'''",
"''''%%%%%%%%%%%%%%%%%%%%''%%'''''''"
};
