/* XPM */
static char *result[] = {
/* columns rows colors chars-per-pixel */
"41 84 117 2 ",
"   c black",
".  c #070707",
"X  c #170F07",
"o  c #0B1707",
"O  c #1F170B",
"+  c #131313",
"@  c #1B1B1B",
"#  c #13230B",
"$  c #2B230F",
"%  c #332B13",
"&  c #3F2F17",
"*  c #232323",
"=  c #272727",
"-  c #2F2F2F",
";  c #373F27",
":  c #373737",
">  c gray23",
",  c #430000",
"<  c #4F0000",
"1  c #530707",
"2  c #5B0707",
"3  c #5F0707",
"4  c #670000",
"5  c #670B0B",
"6  c #6B0F0F",
"7  c #771717",
"8  c #7F1B1B",
"9  c #43331B",
"0  c #4B371B",
"q  c #533F1F",
"w  c #732B00",
"e  c #4F3B23",
"r  c #533F2F",
"t  c #3F472B",
"y  c #5F4323",
"u  c #5B472B",
"i  c #474F33",
"p  c #53573B",
"a  c #6B4727",
"s  c #774F2B",
"d  c #7F532F",
"f  c #675333",
"g  c #67533F",
"h  c #775F3F",
"j  c #434343",
"k  c #5B5B5B",
"l  c #6F5743",
"z  c #775F4B",
"x  c #5B6347",
"c  c #676B4F",
"v  c #7B634F",
"b  c #6F7357",
"n  c gray39",
"m  c gray42",
"M  c #7B7F63",
"N  c #777777",
"B  c #831F1F",
"V  c #8B2323",
"C  c #8F2B2B",
"Z  c #972F2F",
"A  c #9B3333",
"S  c #A33B3B",
"D  c #A73F3F",
"F  c #FF3F3F",
"G  c #874307",
"H  c #9B5B13",
"J  c #AF4300",
"K  c #B74700",
"L  c #875733",
"P  c #8F5F37",
"I  c #9B633B",
"U  c #A36B3F",
"Y  c #C34F00",
"T  c #CB5707",
"R  c #D75F0B",
"E  c #DF670F",
"W  c #F37317",
"Q  c #AF4747",
"!  c #BF5B5B",
"~  c #836B4B",
"^  c #836B57",
"/  c #8F7753",
"(  c #AB6F43",
")  c #B37347",
"_  c #BF7B4B",
"`  c #937B63",
"'  c #9B7F6B",
"]  c #FF5F5F",
"[  c #CB7F4F",
"{  c #FF7B7B",
"}  c #FF8F3B",
"|  c #9F8363",
" . c #9F876F",
".. c #A78F77",
"X. c #AF977F",
"o. c #CF8353",
"O. c #D78B5B",
"+. c #FFA35B",
"@. c #DF9363",
"#. c #E79B6B",
"$. c #EFA373",
"%. c #F7AB7B",
"&. c #FFB37B",
"*. c #838383",
"=. c #8B8B8B",
"-. c #939393",
";. c #979797",
":. c #B79F87",
">. c #BFA78F",
",. c #B7B7B7",
"<. c gray75",
"1. c #E78F8F",
"2. c #FFBB93",
"3. c #FFC7A7",
"4. c #FFCFB3",
"5. c LightGray",
"6. c None",
/* pixels */
"6.6.6.6.6.6.6.6.6.6.6.6.6.6.6.6.6.6.m %   6.6.6.6.6.6.6.6.6.6.6.6.6.6.6.6.6.6.6.6.",
"6.6.6.6.6.6.6.6.6.6.6.6.6.6.6.6.6.6.& -.& 6.6.6.6.6.6.6.6.6.6.6.6.6.6.6.6.6.6.6.6.",
"6.6.6.6.6.6.6.6.6.6.6.6.6.6.6.6.6.6.m @   6.6.6.6.6.6.6.6.6.6.6.6.6.6.6.6.6.6.6.6.",
"6.6.6.6.6.6.6.6.6.6.6.6.6.6.6.6.6.6.= m & 6.6.6.6.6.6.6.6.6.6.6.6.6.6.6.6.6.6.6.6.",
"6.6.6.6.6.6.6.6.6.6.6.6.6.6.6.6.6.6.-.@ j 6.6.6.6.6.6.6.6.6.6.6.6.6.6.6.6.6.6.6.6.",
"6.6.6.6.6.6.6.6.6.6.6.6.6.6.6.6.6.6.i m = 6.6.6.6.6.6.6.6.6.6.6.6.6.6.6.6.6.6.6.6.",
"6.6.6.6.6.6.6.6.6.6.6.6.6.6.6.6.6.6.-.* k 6.6.6.6.6.6.6.6.6.6.6.6.6.6.6.6.6.6.6.6.",
"6.6.6.6.6.6.6.6.6.6.6.6.6.6.6.6.6.6.> @ j 6.6.6.6.6.6.6.6.6.6.6.6.6.6.6.6.6.6.6.6.",
"6.6.6.6.6.6.6.6.6.6.6.6.6.6.6.6.6.6.* m : 6.6.6.6.6.6.6.6.6.6.6.6.6.6.6.6.6.6.6.6.",
"6.6.6.6.6.6.6.6.6.6.6.6.6.6.6.6.6.6.m % k 6.6.6.6.6.6.6.6.6.6.6.6.6.6.6.6.6.6.6.6.",
"6.6.6.6.6.6.6.6.6.6.6.6.6.6.6.6.6.6.>   > 6.6.6.6.6.6.6.6.6.6.6.6.6.6.6.6.6.6.6.6.",
"6.6.6.6.6.6.6.6.6.6.6.6.6.6.6.6.6.6.  -.  6.6.6.6.6.6.6.6.6.6.6.6.6.6.6.6.6.6.6.6.",
"6.6.6.6.6.6.6.6.6.6.6.6.6.6.6.6.6.6.N   k 6.6.6.6.6.6.6.6.6.6.6.6.6.6.6.6.6.6.6.6.",
"6.6.6.6.6.6.6.6.6.6.6.6.6.6.6.6.6.6.m o = 6.6.6.6.6.6.6.6.6.6.6.6.6.6.6.6.6.6.6.6.",
"6.6.6.6.6.6.6.6.6.6.6.6.6.6.6.6.6.6.j -.o 6.6.6.6.6.6.6.6.6.6.6.6.6.6.6.6.6.6.6.6.",
"6.6.6.6.6.6.6.6.6.6.6.6.6.6.6.6.6.6.m   = 6.6.6.6.6.6.6.6.6.6.6.6.6.6.6.6.6.6.6.6.",
"6.6.6.6.6.6.6.6.6.6.6.6.6.6.6.6.6.6.n o = 6.6.6.6.6.6.6.6.6.6.6.6.6.6.6.6.6.6.6.6.",
"6.6.6.6.6.6.6.6.6.6.6.6.6.6.6.6.6.6.t n p 6.6.6.6.6.6.6.6.6.6.6.6.6.6.6.6.6.6.6.6.",
"6.6.6.6.6.6.6.6.6.6.6.6.6.6.6.6.6.p o.5.,._ H 6.6.6.6.6.6.6.6.6.6.6.6.6.6.6.6.6.6.",
"6.6.6.6.6.6.6.6.6.6.6.6.6.6.6.6.6.4 p O.3.H H 6.6.6.6.6.6.6.6.6.6.6.6.6.6.6.6.6.6.",
"6.6.6.6.6.6.6.6.6.6.6.6.6.6.6.6.6.4 4 4 F H < 6.6.6.6.6.6.6.6.6.6.6.6.6.6.6.6.6.6.",
"6.6.6.6.6.6.6.6.6.6.6.6.6.6.6.6.6.,   4 4   < 6.6.6.6.6.6.6.6.6.6.6.6.6.6.6.6.6.6.",
"6.6.6.6.6.6.6.6.6.6.6.6.6.6.6.6.6., 4 4 D 4 A 6.6.6.6.6.6.6.6.6.6.6.6.6.6.6.6.6.6.",
"6.6.6.6.6.6.6.6.6.6.6.6.6.6.6.6.6.< . . . . . 6.6.6.6.6.6.6.6.6.6.6.6.6.6.6.6.6.6.",
"6.6.6.6.6.6.6.6.6.6.6.6.6.6.6.6.6.O O X X X . 6.6.6.6.6.6.6.6.6.6.6.6.6.6.6.6.6.6.",
"6.6.6.6.6.6.6.6.6.6.6.6.6.6.6.6.6.< < < 7 1 1 6.6.6.6.6.6.6.6.6.6.6.6.6.6.6.6.6.6.",
"6.6.6.6.6.6.6.6.6.6.6.6.6.6.6.6.6.< B < X V , + % 6.6.6.6.6.6.6.6.6.6.6.6.6.6.6.6.",
"6.6.6.6.6.6.6.6.6.6.6.6.6.6.6.6.6.< 1 Z , 7 X , , % 6.6.6.6.6.6.6.6.6.6.6.6.6.6.6.",
"6.6.6.6.6.6.6.6.6.6.6.6.6.6.6.6.< Z 7 7 8 V Z V 7 % 6.6.6.6.6.6.6.6.6.6.6.6.6.6.6.",
"6.6.6.6.6.6.6.6.6.6.6.6.6.6.6.6.2 5 7 B ~ X 1 8   + 6.6.6.6.6.6.6.6.6.6.6.6.6.6.6.",
"6.6.6.6.6.6.6.6.6.6.6.6.6.6.6.6.5 s Z , Z   B X B , : 6.6.6.6.6.6.6.6.6.6.6.6.6.6.",
"6.6.6.6.6.6.6.6.6.6.6.6.6.6.6.7 I | V Z 8 X ..u A h f 6.6.6.6.6.6.6.6.6.6.6.6.6.6.",
"6.6.6.6.6.6.6.6.6.6.6.6.6.6.6.7 ~ V L _ / X ` 7 & X = 6.6.6.6.6.6.6.6.6.6.6.6.6.6.",
"6.6.6.6.6.6.6.6.6.6.6.6.6.6.t P <.| O.V 8   z X   c x x 6.6.6.6.6.6.6.6.6.6.6.6.6.",
"6.6.6.6.6.6.6.6.6.6.6.6.6.6.p r  .S q i O - t   C x 9 % 6.6.6.6.6.6.6.6.6.6.6.6.6.",
"6.6.6.6.6.6.6.6.6.6.6.6.6.6.~ h f h O . X $   C r X     6.6.6.6.6.6.6.6.6.6.6.6.6.",
"6.6.6.6.6.6.6.6.6.6.6.6.6.6.` X.q ~ | 9 X O   ` f ` z % 6.6.6.6.6.6.6.6.6.6.6.6.6.",
"6.6.6.6.6.6.6.6.6.6.6.6.6.6.| h q ~ ( C l %   C y a f ~ r 6.6.6.6.6.6.6.6.6.6.6.6.",
"6.6.6.6.6.6.6.6.6.6.6.6.6.% ~ ..; y ~ q . . + ~ O f h %   6.6.6.6.6.6.6.6.6.6.6.6.",
"6.6.6.6.6.6.6.6.6.6.6.6.6.% q ~ q h ~ 9 h X h $ 9 ~ $ O x X 6.6.6.6.6.6.6.6.6.6.6.",
"6.6.6.6.6.6.6.6.6.6.6.6.+ % f f y 2.h . X f f x ; % $ 9 z   6.6.6.6.6.6.6.6.6.6.6.",
"6.6.6.6.6.6.6.6.6.6.6.6.+ O $ q I 9 X % t / & f ; $ i f O O 6.6.6.6.6.6.6.6.6.6.6.",
"6.6.6.6.6.6.6.6.6.6.6.6.O O     f | >.>.>.% O f q % f 9   + 6.6.6.6.6.6.6.6.6.6.6.",
"6.6.6.6.6.6.6.6.6.6.6.6.O * %   X ~ ~ q $ = x y f ~ $   + b 6.6.6.6.6.6.6.6.6.6.6.",
"6.6.6.6.6.6.6.6.6.6.6.6.O O % $   9 r 9 ` 9 X.| &       ;.* 6.6.6.6.6.6.6.6.6.6.6.",
"6.6.6.6.6.6.6.6.6.6.6.6.# g l v f h $ % O / / i b % ; h ;   6.6.6.6.6.6.6.6.6.6.6.",
"6.6.6.6.6.6.6.6.6.6.6.6.+ z $ X X 9 | q ; | >.  X p x       6.6.6.6.6.6.6.6.6.6.6.",
"6.6.6.6.6.6.6.6.6.6.6.6.6.= h 0 l 9 h | / ~ ~ O t + O X   6.6.6.6.6.6.6.6.6.6.6.6.",
"6.6.6.6.6.6.6.6.6.6.6.6.6.O O & h :.f I | | M ~ >./ 9     6.6.6.6.6.6.6.6.6.6.6.6.",
"6.6.6.6.6.6.6.6.6.6.6.6.6.6.O + % & ~ f s $.r | h ; O b * 6.6.6.6.6.6.6.6.6.6.6.6.",
"6.6.6.6.6.6.6.6.6.6.6.6.6.6.i f f ~ % q / | y L $ b r ` . 6.6.6.6.6.6.6.6.6.6.6.6.",
"6.6.6.6.6.6.6.6.6.6.6.6.6.6.O & $ X $ $ % $ f 9 O O e g   6.6.6.6.6.6.6.6.6.6.6.6.",
"6.6.6.6.6.6.6.6.6.6.6.6.6.6.6.O 9 9 P U 4.1.! @.) y     + 6.6.6.6.6.6.6.6.6.6.6.6.",
"6.6.6.6.6.6.6.6.6.6.6.6.6.6.6.I [ @.2.{ %.$.y 2._ H y . * 6.6.6.6.6.6.6.6.6.6.6.6.",
"6.6.6.6.6.6.6.6.6.6.6.6.6.6.6.[ } @.3.@.4.1.! 2.O.E o.0 O 6.6.6.6.6.6.6.6.6.6.6.6.",
"6.6.6.6.6.6.6.6.6.6.6.6.6.6.I E W o.4.#._ ] J #.Q J [ A O 6.6.6.6.6.6.6.6.6.6.6.6.",
"6.6.6.6.6.6.6.6.6.6.6.6.6.6.[ } R ] O.%.O.E J W K ! E a X 6.6.6.6.6.6.6.6.6.6.6.6.",
"6.6.6.6.6.6.6.6.6.6.6.6.6.a O.} W } O.F F W T @.E T A a O 6.6.6.6.6.6.6.6.6.6.6.6.",
"6.6.6.6.6.6.6.6.6.6.6.6.i #.O.} W } O.$.O.E J K [ [ [ a 0 6.6.6.6.6.6.6.6.6.6.6.6.",
"6.6.6.6.6.6.6.6.6.6.6.6.#.@.( W } W R D K A 1 K T J J [ L 0 6.6.6.6.6.6.6.6.6.6.6.",
"6.6.6.6.6.6.6.6.6.6.6.#.@.T R R R K S 1 1 , X A w , O w L L X.6.6.6.6.6.6.6.6.6.6.",
"6.6.6.6.6.6.6.6.6.6.o.} ] R D 8 w 5 3 < X . . w X .   X & U $.[ 6.6.6.6.6.6.6.6.6.",
"6.6.6.6.6.6.6.6.6.L E W R 3 C 6 < X . . . . . . . . . . . $ #._ P 6.6.6.6.6.6.6.6.",
"6.6.6.6.6.6.6.6.y [ W T C , < O X . . . .   . O . . . . $ w P E D 0 6.6.6.6.6.6.6.",
"6.6.6.6.6.6.6.0 ( T J 7 < < X X X . . . . X 9 $   . . $ & w d T G d 6.6.6.6.6.6.6.",
"6.6.6.6.6.6.6.P ) U a & O X   X O X X , s ( ( a . .   $ 9 v v P q h b O 6.6.6.6.6.",
"6.6.6.6.6.6.~ h | | f h l g p % $ 0 O Q F E K C X     9 v g q t % % c 9 * 6.6.6.6.",
"6.6.6.6.6.x r ~ | ~ ~ ~ ~ f ; & 9 & 1 E +.+.K s X   * g O & q ~ f f f r i % 6.6.6.",
"6.6.6.6.p f ` x x s | | ~ ..` O . $ 6 ] &.&.+.D X   O x 9   9 y $ X $ f ; x O 6.6.",
"6.6.6.x g % c r i q | I f I h  .O . S A Y Y 1 7 &       x t 9         X O O = % 6.",
"6.t x x g p p ^ $ l ~ | ..f 9 $ X   Q K R D 6 a X O                     O   O t % ",
"6.x g v / ..h ~ f h / u             Q Z S A 1 I X O                     .     p % ",
"6.p f ..~ | l  .' X.%             . a a X . & % . :                     +     t * ",
"p p x / h ` >.=.%           6.6.6.X % % % X % % X X                           * # ",
"~ h f ~  .X.%     6.6.6.6.6.6.6.6.$ . . O X   6.6.6.          t + + * +       +   ",
"r g r :.x     6.6.6.6.6.6.6.6.6.6.6.6.6.6.6.6.6.6.6.6.6.      x O O t -           ",
"9 z *.*   6.6.6.6.6.6.6.6.6.6.6.6.6.6.6.6.6.6.6.6.6.6.6.      z r i O t           ",
"b M 6.6.6.6.6.6.6.6.6.6.6.6.6.6.6.6.6.6.6.6.6.6.6.6.6.6.    O x 9 9 x $         6.",
"^ + 6.6.6.6.6.6.6.6.6.6.6.6.6.6.6.6.6.6.6.6.6.6.6.6.6.6.X X 9 h i ; O O     6.6.6.",
"6.6.6.6.6.6.6.6.6.6.6.6.6.6.6.6.6.6.6.6.6.6.6.6.6.6.6.6.. O % g O ^ O     6.6.6.6.",
"6.6.6.6.6.6.6.6.6.6.6.6.6.6.6.6.6.6.6.6.6.6.6.6.6.6.6.6.X  .% X O O O   6.6.6.6.6.",
"6.6.6.6.6.6.6.6.6.6.6.6.6.6.6.6.6.6.6.6.6.6.6.6.6.6.6.6.O a 0 u O l + 6.6.6.6.6.6.",
"6.6.6.6.6.6.6.6.6.6.6.6.6.6.6.6.6.6.6.6.6.6.6.6.6.6.6.6.X 9 % y a a   6.6.6.6.6.6.",
"6.6.6.6.6.6.6.6.6.6.6.6.6.6.6.6.6.6.6.6.6.6.6.6.6.6.6.6.  .   . . +   6.6.6.6.6.6."
};
